<svg xmlns="http://www.w3.org/2000/svg" width="860" height="440" viewBox="0 0 860 440" font-family="'Comic Sans MS','Marker Felt','Kaiti SC',楷体,'Segoe UI',cursive">
  <defs>
    <filter id="sk" x="-3%" y="-3%" width="106%" height="106%">
      <feTurbulence type="fractalNoise" baseFrequency="0.018" numOctaves="2" seed="17" result="n"/>
      <feDisplacementMap in="SourceGraphic" in2="n" scale="1.8"/>
    </filter>
    <marker id="ar" markerWidth="9" markerHeight="9" refX="7" refY="4" orient="auto">
      <path d="M0,0 L8,4 L0,8 z" fill="#5a5a5a"/>
    </marker>
  </defs>

  <rect width="860" height="440" fill="#fdfcf7"/>

  <!-- Title -->
  <text x="430" y="34" text-anchor="middle" font-size="20" font-weight="bold" fill="#2b2b2b">Mini 引擎 v1 实测时间线</text>
  <path d="M 290 44 Q 430 52 570 44" stroke="#2b2b2b" stroke-width="1.4" fill="none" filter="url(#sk)"/>
  <text x="430" y="60" text-anchor="middle" font-size="11" fill="#888">4 请求 8 轮完成（v0 串行需 23 次）· batch size 动态变化 4→4→4→4→3→2→1→1</text>

  <!-- iter axis -->
  <g filter="url(#sk)" stroke="#ccc" stroke-width="1" fill="none">
    <line x1="100" y1="100" x2="810" y2="100"/>
  </g>
  <g font-size="11" fill="#888" text-anchor="middle">
    <text x="150" y="92">iter 1</text>
    <text x="235" y="92">iter 2</text>
    <text x="320" y="92">iter 3</text>
    <text x="405" y="92">iter 4</text>
    <text x="490" y="92">iter 5</text>
    <text x="575" y="92">iter 6</text>
    <text x="660" y="92">iter 7</text>
    <text x="745" y="92">iter 8</text>
  </g>
  <g filter="url(#sk)" stroke="#ddd" stroke-width="0.7" fill="none" stroke-dasharray="2 3">
    <line x1="192" y1="104" x2="192" y2="312"/>
    <line x1="277" y1="104" x2="277" y2="312"/>
    <line x1="362" y1="104" x2="362" y2="312"/>
    <line x1="447" y1="104" x2="447" y2="312"/>
    <line x1="532" y1="104" x2="532" y2="312"/>
    <line x1="617" y1="104" x2="617" y2="312"/>
    <line x1="702" y1="104" x2="702" y2="312"/>
  </g>

  <!-- Lane labels -->
  <g font-size="12" fill="#444" text-anchor="end">
    <text x="92" y="148" font-weight="bold">R0 (gen=8)</text>
    <text x="92" y="198" font-weight="bold">R1 (gen=6)</text>
    <text x="92" y="248" font-weight="bold">R2 (gen=4)</text>
    <text x="92" y="298" font-weight="bold">R3 (gen=5)</text>
  </g>

  <!-- cell geometry: width 78, x centers 150,235,320,405,490,575,660,745 -->
  <!-- R0: prefill, decode x6, done -->
  <g filter="url(#sk)" font-size="10" text-anchor="middle">
    <rect x="111" y="128" width="78" height="40" rx="5" fill="#fef6e6" stroke="#c98a2b" stroke-width="1.4"/>
    <text x="150" y="152" fill="#7a5415" font-weight="bold">R0 prefill</text>
    <rect x="196" y="128" width="78" height="40" rx="5" fill="#eaf6ee" stroke="#4a8e4a" stroke-width="1.2"/>
    <text x="235" y="152" fill="#2e6e2e">decode</text>
    <rect x="281" y="128" width="78" height="40" rx="5" fill="#eaf6ee" stroke="#4a8e4a" stroke-width="1.2"/>
    <text x="320" y="152" fill="#2e6e2e">decode</text>
    <rect x="366" y="128" width="78" height="40" rx="5" fill="#eaf6ee" stroke="#4a8e4a" stroke-width="1.2"/>
    <text x="405" y="152" fill="#2e6e2e">decode</text>
    <rect x="451" y="128" width="78" height="40" rx="5" fill="#eaf6ee" stroke="#4a8e4a" stroke-width="1.2"/>
    <text x="490" y="152" fill="#2e6e2e">decode</text>
    <rect x="536" y="128" width="78" height="40" rx="5" fill="#eaf6ee" stroke="#4a8e4a" stroke-width="1.2"/>
    <text x="575" y="152" fill="#2e6e2e">decode</text>
    <rect x="621" y="128" width="78" height="40" rx="5" fill="#eaf6ee" stroke="#4a8e4a" stroke-width="1.2"/>
    <text x="660" y="152" fill="#2e6e2e">decode</text>
    <rect x="706" y="128" width="78" height="40" rx="5" fill="#fce4ec" stroke="#b85450" stroke-width="1.4" stroke-dasharray="4 3"/>
    <text x="745" y="152" fill="#b85450" font-weight="bold">R0 done</text>
  </g>

  <!-- R1: prefill, decode x4, done(iter6) -->
  <g filter="url(#sk)" font-size="10" text-anchor="middle">
    <rect x="111" y="178" width="78" height="40" rx="5" fill="#fef6e6" stroke="#c98a2b" stroke-width="1.4"/>
    <text x="150" y="202" fill="#7a5415" font-weight="bold">R1 prefill</text>
    <rect x="196" y="178" width="78" height="40" rx="5" fill="#eaf6ee" stroke="#4a8e4a" stroke-width="1.2"/>
    <text x="235" y="202" fill="#2e6e2e">decode</text>
    <rect x="281" y="178" width="78" height="40" rx="5" fill="#eaf6ee" stroke="#4a8e4a" stroke-width="1.2"/>
    <text x="320" y="202" fill="#2e6e2e">decode</text>
    <rect x="366" y="178" width="78" height="40" rx="5" fill="#eaf6ee" stroke="#4a8e4a" stroke-width="1.2"/>
    <text x="405" y="202" fill="#2e6e2e">decode</text>
    <rect x="451" y="178" width="78" height="40" rx="5" fill="#eaf6ee" stroke="#4a8e4a" stroke-width="1.2"/>
    <text x="490" y="202" fill="#2e6e2e">decode</text>
    <rect x="536" y="178" width="78" height="40" rx="5" fill="#fce4ec" stroke="#b85450" stroke-width="1.4" stroke-dasharray="4 3"/>
    <text x="575" y="202" fill="#b85450" font-weight="bold">R1 done</text>
  </g>

  <!-- R2: prefill, decode x2, done(iter4) -->
  <g filter="url(#sk)" font-size="10" text-anchor="middle">
    <rect x="111" y="228" width="78" height="40" rx="5" fill="#fef6e6" stroke="#c98a2b" stroke-width="1.4"/>
    <text x="150" y="252" fill="#7a5415" font-weight="bold">R2 prefill</text>
    <rect x="196" y="228" width="78" height="40" rx="5" fill="#eaf6ee" stroke="#4a8e4a" stroke-width="1.2"/>
    <text x="235" y="252" fill="#2e6e2e">decode</text>
    <rect x="281" y="228" width="78" height="40" rx="5" fill="#eaf6ee" stroke="#4a8e4a" stroke-width="1.2"/>
    <text x="320" y="252" fill="#2e6e2e">decode</text>
    <rect x="366" y="228" width="78" height="40" rx="5" fill="#fce4ec" stroke="#b85450" stroke-width="1.4" stroke-dasharray="4 3"/>
    <text x="405" y="252" fill="#b85450" font-weight="bold">R2 done</text>
  </g>

  <!-- R3: prefill, decode x3, done(iter5) -->
  <g filter="url(#sk)" font-size="10" text-anchor="middle">
    <rect x="111" y="278" width="78" height="40" rx="5" fill="#fef6e6" stroke="#c98a2b" stroke-width="1.4"/>
    <text x="150" y="302" fill="#7a5415" font-weight="bold">R3 prefill</text>
    <rect x="196" y="278" width="78" height="40" rx="5" fill="#eaf6ee" stroke="#4a8e4a" stroke-width="1.2"/>
    <text x="235" y="302" fill="#2e6e2e">decode</text>
    <rect x="281" y="278" width="78" height="40" rx="5" fill="#eaf6ee" stroke="#4a8e4a" stroke-width="1.2"/>
    <text x="320" y="302" fill="#2e6e2e">decode</text>
    <rect x="366" y="278" width="78" height="40" rx="5" fill="#eaf6ee" stroke="#4a8e4a" stroke-width="1.2"/>
    <text x="405" y="302" fill="#2e6e2e">decode</text>
    <rect x="451" y="278" width="78" height="40" rx="5" fill="#fce4ec" stroke="#b85450" stroke-width="1.4" stroke-dasharray="4 3"/>
    <text x="490" y="302" fill="#b85450" font-weight="bold">R3 done</text>
  </g>

  <!-- batch size row -->
  <g font-size="10" fill="#5d3a7e" text-anchor="middle" font-weight="bold">
    <text x="150" y="348">batch=4</text>
    <text x="235" y="348">4</text>
    <text x="320" y="348">4</text>
    <text x="405" y="348">4</text>
    <text x="490" y="348">3</text>
    <text x="575" y="348">2</text>
    <text x="660" y="348">1</text>
    <text x="745" y="348">1</text>
  </g>

  <!-- legend -->
  <g font-size="10" fill="#666">
    <rect x="111" y="384" width="14" height="11" rx="2" fill="#fef6e6" stroke="#c98a2b"/>
    <text x="131" y="394">prefill</text>
    <rect x="200" y="384" width="14" height="11" rx="2" fill="#eaf6ee" stroke="#4a8e4a"/>
    <text x="220" y="394">decode</text>
    <rect x="280" y="384" width="14" height="11" rx="2" fill="#fce4ec" stroke="#b85450" stroke-dasharray="3 2"/>
    <text x="300" y="394">完成退出</text>
  </g>

  <text x="430" y="420" text-anchor="middle" font-size="10" fill="#5d3a7e">R2(gen=4) iter4 完成立即退 · 不等 R1/R0 · 并发收益 2.9x · 无空等</text>
</svg>
