<svg xmlns="http://www.w3.org/2000/svg" width="800" height="500" viewBox="0 0 800 500">
  <rect width="800" height="500" fill="#f8f9fa" rx="12"/>
  <text x="400" y="40" text-anchor="middle" font-size="22" font-weight="bold" fill="#1a1a2e">进阶篇面试知识地图</text>

  <!-- Attention 优化 -->
  <rect x="40" y="80" width="340" height="170" fill="#e3f2fd" stroke="#1976d2" stroke-width="2" rx="8"/>
  <text x="210" y="110" text-anchor="middle" font-size="16" font-weight="bold" fill="#0d47a1">① Attention 优化</text>
  <text x="60" y="140" font-size="13" fill="#1a237e">• FlashAttention IO 分析</text>
  <text x="60" y="165" font-size="13" fill="#1a237e">• Online Softmax 推导</text>
  <text x="60" y="190" font-size="13" fill="#1a237e">• FA1 vs FA2 差异</text>
  <text x="60" y="215" font-size="13" fill="#1a237e">• MHA / GQA / MQA</text>

  <!-- 推理系统 -->
  <rect x="420" y="80" width="340" height="170" fill="#fff3e0" stroke="#f57c00" stroke-width="2" rx="8"/>
  <text x="590" y="110" text-anchor="middle" font-size="16" font-weight="bold" fill="#e65100">② 推理系统</text>
  <text x="440" y="140" font-size="13" fill="#bf360c">• Prefill vs Decode</text>
  <text x="440" y="165" font-size="13" fill="#bf360c">• KV Cache 显存公式</text>
  <text x="440" y="190" font-size="13" fill="#bf360c">• TTFT / TBT 优化</text>
  <text x="440" y="215" font-size="13" fill="#bf360c">• 量化与压缩</text>

  <!-- PagedAttention / vLLM -->
  <rect x="40" y="280" width="340" height="170" fill="#e8f5e9" stroke="#388e3c" stroke-width="2" rx="8"/>
  <text x="210" y="310" text-anchor="middle" font-size="16" font-weight="bold" fill="#1b5e20">③ PagedAttention / vLLM</text>
  <text x="60" y="340" font-size="13" fill="#2e7d32">• Block Table 设计</text>
  <text x="60" y="365" font-size="13" fill="#2e7d32">• Copy-on-Write</text>
  <text x="60" y="390" font-size="13" fill="#2e7d32">• vLLM 架构分层</text>
  <text x="60" y="415" font-size="13" fill="#2e7d32">• 请求状态机</text>

  <!-- 调度与 Batching -->
  <rect x="420" y="280" width="340" height="170" fill="#f3e5f5" stroke="#7b1fa2" stroke-width="2" rx="8"/>
  <text x="590" y="310" text-anchor="middle" font-size="16" font-weight="bold" fill="#4a148c">④ 调度与 Batching</text>
  <text x="440" y="340" font-size="13" fill="#6a1b9a">• Continuous Batching</text>
  <text x="440" y="365" font-size="13" fill="#6a1b9a">• Dynamic Batching</text>
  <text x="440" y="390" font-size="13" fill="#6a1b9a">• 抢占策略</text>
  <text x="440" y="415" font-size="13" fill="#6a1b9a">• 优先级调度</text>
</svg>
