<svg xmlns="http://www.w3.org/2000/svg" viewBox="0 0 820 460" font-family="'Comic Sans MS','Marker Felt','Kaiti SC',楷体,'Segoe UI',cursive">
  <defs>
    <filter id="sk" x="-3%" y="-3%" width="106%" height="106%">
      <feTurbulence type="fractalNoise" baseFrequency="0.018" numOctaves="2" seed="6" result="n"/>
      <feDisplacementMap in="SourceGraphic" in2="n" scale="1.8"/>
    </filter>
    <marker id="ar" markerWidth="8" markerHeight="8" refX="6" refY="4" orient="auto">
      <path d="M0,0 L8,4 L0,8 z" fill="#3a3a3a"/>
    </marker>
  </defs>

  <rect width="820" height="460" fill="#fdfcf7"/>

  <text x="410" y="34" text-anchor="middle" font-size="18" fill="#2b2b2b" font-weight="bold">Week 8 知识地图：项目打磨 + 面试准备</text>
  <path d="M 270 44 Q 410 52 550 44" stroke="#2b2b2b" stroke-width="1.4" fill="none" filter="url(#sk)"/>
  <text x="410" y="58" text-anchor="middle" font-size="11" fill="#888">7 天从文档完善到 Mock 面试到最终复盘</text>

  <!-- 7 天卡片 -->
  <g filter="url(#sk)">
    <rect x="30" y="80" width="105" height="80" rx="8" fill="#e8f0fa" stroke="#4a8edb" stroke-width="1.4"/>
  </g>
  <text x="82" y="104" text-anchor="middle" font-size="12" fill="#4a8edb" font-weight="bold">Day 1</text>
  <text x="82" y="124" text-anchor="middle" font-size="10" fill="#2b2b2b">项目文档</text>
  <text x="82" y="140" text-anchor="middle" font-size="9" fill="#666">README</text>
  <text x="82" y="152" text-anchor="middle" font-size="9" fill="#666">Quick Start</text>

  <g filter="url(#sk)">
    <rect x="145" y="80" width="105" height="80" rx="8" fill="#eaf6ee" stroke="#4a8e4a" stroke-width="1.4"/>
  </g>
  <text x="197" y="104" text-anchor="middle" font-size="12" fill="#4a8e4a" font-weight="bold">Day 2</text>
  <text x="197" y="124" text-anchor="middle" font-size="10" fill="#2b2b2b">架构图</text>
  <text x="197" y="140" text-anchor="middle" font-size="9" fill="#666">系统架构</text>
  <text x="197" y="152" text-anchor="middle" font-size="9" fill="#666">数据流图</text>

  <g filter="url(#sk)">
    <rect x="260" y="80" width="105" height="80" rx="8" fill="#fef6e6" stroke="#c98a2b" stroke-width="1.4"/>
  </g>
  <text x="312" y="104" text-anchor="middle" font-size="12" fill="#c98a2b" font-weight="bold">Day 3</text>
  <text x="312" y="124" text-anchor="middle" font-size="10" fill="#2b2b2b">面试题基础</text>
  <text x="312" y="140" text-anchor="middle" font-size="9" fill="#666">GPU/Kernel</text>
  <text x="312" y="152" text-anchor="middle" font-size="9" fill="#666">CUDA/Profile</text>

  <g filter="url(#sk)">
    <rect x="375" y="80" width="105" height="80" rx="8" fill="#fdecec" stroke="#b03a3a" stroke-width="1.4"/>
  </g>
  <text x="427" y="104" text-anchor="middle" font-size="12" fill="#b03a3a" font-weight="bold">Day 4</text>
  <text x="427" y="124" text-anchor="middle" font-size="10" fill="#2b2b2b">面试题进阶</text>
  <text x="427" y="140" text-anchor="middle" font-size="9" fill="#666">Attention</text>
  <text x="427" y="152" text-anchor="middle" font-size="9" fill="#666">vLLM/调度</text>

  <g filter="url(#sk)">
    <rect x="490" y="80" width="105" height="80" rx="8" fill="#f3eaf7" stroke="#8e5db8" stroke-width="1.4"/>
  </g>
  <text x="542" y="104" text-anchor="middle" font-size="12" fill="#8e5db8" font-weight="bold">Day 5</text>
  <text x="542" y="124" text-anchor="middle" font-size="10" fill="#2b2b2b">Mock 面试</text>
  <text x="542" y="140" text-anchor="middle" font-size="9" fill="#666">STAR 法</text>
  <text x="542" y="152" text-anchor="middle" font-size="9" fill="#666">录音复盘</text>

  <g filter="url(#sk)">
    <rect x="605" y="80" width="105" height="80" rx="8" fill="#e8f0fa" stroke="#4a8edb" stroke-width="1.4"/>
  </g>
  <text x="657" y="104" text-anchor="middle" font-size="12" fill="#4a8edb" font-weight="bold">Day 6</text>
  <text x="657" y="124" text-anchor="middle" font-size="10" fill="#2b2b2b">查漏补缺</text>
  <text x="657" y="140" text-anchor="middle" font-size="9" fill="#666">薄弱点</text>
  <text x="657" y="152" text-anchor="middle" font-size="9" fill="#666">公式默写</text>

  <!-- Day 7 highlight -->
  <g filter="url(#sk)">
    <rect x="720" y="80" width="70" height="80" rx="8" fill="#fef6e6" stroke="#c98a2b" stroke-width="2.2"/>
  </g>
  <text x="755" y="104" text-anchor="middle" font-size="12" fill="#c98a2b" font-weight="bold">Day 7 ★</text>
  <text x="755" y="124" text-anchor="middle" font-size="10" fill="#2b2b2b">最终复盘</text>
  <text x="755" y="140" text-anchor="middle" font-size="9" fill="#666">能力地图</text>
  <text x="755" y="152" text-anchor="middle" font-size="9" fill="#666">路线规划</text>

  <!-- 进度箭头 -->
  <path d="M 135 120 L 143 120" stroke="#3a3a3a" stroke-width="1.4" fill="none" marker-end="url(#ar)" filter="url(#sk)"/>
  <path d="M 250 120 L 258 120" stroke="#3a3a3a" stroke-width="1.4" fill="none" marker-end="url(#ar)" filter="url(#sk)"/>
  <path d="M 365 120 L 373 120" stroke="#3a3a3a" stroke-width="1.4" fill="none" marker-end="url(#ar)" filter="url(#sk)"/>
  <path d="M 480 120 L 488 120" stroke="#3a3a3a" stroke-width="1.4" fill="none" marker-end="url(#ar)" filter="url(#sk)"/>
  <path d="M 595 120 L 603 120" stroke="#3a3a3a" stroke-width="1.4" fill="none" marker-end="url(#ar)" filter="url(#sk)"/>
  <path d="M 710 120 L 718 120" stroke="#3a3a3a" stroke-width="1.4" fill="none" marker-end="url(#ar)" filter="url(#sk)"/>

  <!-- 两阶段 -->
  <g filter="url(#sk)">
    <rect x="30" y="190" width="380" height="100" rx="10" fill="#fffdf3" stroke="#9e9e9e" stroke-width="1.4" stroke-dasharray="5,3"/>
  </g>
  <text x="220" y="216" text-anchor="middle" font-size="13" fill="#2b2b2b" font-weight="bold">阶段一：项目打磨（Day 1-2）</text>
  <text x="50" y="240" font-size="11" fill="#444">• README 让新用户 10 分钟跑通示例</text>
  <text x="50" y="260" font-size="11" fill="#444">• 架构图 + 数据流图 + 模块交互</text>
  <text x="50" y="280" font-size="11" fill="#444">• Benchmark 对比表 + 技术栈说明</text>

  <g filter="url(#sk)">
    <rect x="425" y="190" width="365" height="100" rx="10" fill="#fffdf3" stroke="#9e9e9e" stroke-width="1.4" stroke-dasharray="5,3"/>
  </g>
  <text x="607" y="216" text-anchor="middle" font-size="13" fill="#2b2b2b" font-weight="bold">阶段二：面试冲刺（Day 3-7）</text>
  <text x="445" y="240" font-size="11" fill="#444">• 50+ 面试题（基础 + 进阶）</text>
  <text x="445" y="260" font-size="11" fill="#444">• Mock 面试 + 录音复盘 + 查漏补缺</text>
  <text x="445" y="280" font-size="11" fill="#444">• 能力地图 + 后续 6 个月规划</text>

  <!-- 核心产出 -->
  <text x="410" y="324" text-anchor="middle" font-size="13" fill="#2b2b2b" font-weight="bold">Week 8 核心产出</text>
  <g filter="url(#sk)">
    <rect x="30" y="338" width="180" height="46" rx="8" fill="#e8f0fa" stroke="#4a8edb" stroke-width="1.3"/>
  </g>
  <text x="120" y="360" text-anchor="middle" font-size="11" fill="#4a8edb" font-weight="bold">① 项目文档</text>
  <text x="120" y="376" text-anchor="middle" font-size="9" fill="#666">README + 架构图 + Benchmark</text>

  <g filter="url(#sk)">
    <rect x="225" y="338" width="180" height="46" rx="8" fill="#eaf6ee" stroke="#4a8e4a" stroke-width="1.3"/>
  </g>
  <text x="315" y="360" text-anchor="middle" font-size="11" fill="#4a8e4a" font-weight="bold">② 面试题库</text>
  <text x="315" y="376" text-anchor="middle" font-size="9" fill="#666">50+ 题 · 自问自答</text>

  <g filter="url(#sk)">
    <rect x="420" y="338" width="180" height="46" rx="8" fill="#fef6e6" stroke="#c98a2b" stroke-width="1.3"/>
  </g>
  <text x="510" y="360" text-anchor="middle" font-size="11" fill="#c98a2b" font-weight="bold">③ Mock 记录</text>
  <text x="510" y="376" text-anchor="middle" font-size="9" fill="#666">2 轮 + 复盘 + 改进</text>

  <g filter="url(#sk)">
    <rect x="615" y="338" width="175" height="46" rx="8" fill="#fdecec" stroke="#b03a3a" stroke-width="1.3"/>
  </g>
  <text x="702" y="360" text-anchor="middle" font-size="11" fill="#b03a3a" font-weight="bold">④ 能力地图</text>
  <text x="702" y="376" text-anchor="middle" font-size="9" fill="#666">强项 / 待提升 / 路线</text>

  <text x="410" y="416" text-anchor="middle" font-size="11" fill="#888">验收：README 可跑通 · 50+ 题自问自答 · Mock 流畅 · 能清晰口述项目</text>
  <text x="410" y="436" text-anchor="middle" font-size="11" fill="#c98a2b" font-weight="bold">Day 7 是 8 周终点，也是后续 6 个月路线的起点</text>
</svg>
