<?xml version="1.0" encoding="utf-8" standalone="no"?>
<!DOCTYPE svg PUBLIC "-//W3C//DTD SVG 1.1//EN"
  "http://www.w3.org/Graphics/SVG/1.1/DTD/svg11.dtd">
<svg xmlns:xlink="http://www.w3.org/1999/xlink" width="516.6pt" height="287.33pt" viewBox="0 0 516.6 287.33" xmlns="http://www.w3.org/2000/svg" version="1.1">
 <metadata>
  <rdf:RDF xmlns:dc="http://purl.org/dc/elements/1.1/" xmlns:cc="http://creativecommons.org/ns#" xmlns:rdf="http://www.w3.org/1999/02/22-rdf-syntax-ns#">
   <cc:Work>
    <dc:type rdf:resource="http://purl.org/dc/dcmitype/StillImage"/>
    <dc:date>2026-07-06T14:51:18.983277</dc:date>
    <dc:format>image/svg+xml</dc:format>
    <dc:creator>
     <cc:Agent>
      <dc:title>Matplotlib v3.10.9, https://matplotlib.org/</dc:title>
     </cc:Agent>
    </dc:creator>
   </cc:Work>
  </rdf:RDF>
 </metadata>
 <defs>
  <style type="text/css">*{stroke-linejoin: round; stroke-linecap: butt}</style>
 </defs>
 <g id="figure_1">
  <g id="patch_1">
   <path d="M 0 287.33 
L 516.6 287.33 
L 516.6 0 
L 0 0 
z
" style="fill: #ffffff"/>
  </g>
  <g id="axes_1">
   <g id="patch_2">
    <path d="M 35.1 135.986 
L 82.53 135.986 
L 82.53 97.178 
L 35.1 97.178 
z
" clip-path="url(#pc12cb5e346)" style="fill: #eaf2f8; stroke: #2980b9; stroke-width: 2; stroke-linejoin: miter"/>
   </g>
   <g id="patch_3">
    <path d="M 82.53 135.986 
L 129.96 135.986 
L 129.96 97.178 
L 82.53 97.178 
z
" clip-path="url(#pc12cb5e346)" style="fill: #eaf2f8; stroke: #2980b9; stroke-width: 2; stroke-linejoin: miter"/>
   </g>
   <g id="patch_4">
    <path d="M 129.96 135.986 
L 177.39 135.986 
L 177.39 97.178 
L 129.96 97.178 
z
" clip-path="url(#pc12cb5e346)" style="fill: #eaf2f8; stroke: #2980b9; stroke-width: 2; stroke-linejoin: miter"/>
   </g>
   <g id="patch_5">
    <path d="M 177.39 135.986 
L 224.82 135.986 
L 224.82 97.178 
L 177.39 97.178 
z
" clip-path="url(#pc12cb5e346)" style="fill: #eaf2f8; stroke: #2980b9; stroke-width: 2; stroke-linejoin: miter"/>
   </g>
   <g id="patch_6">
    <path d="M 224.82 135.986 
L 272.25 135.986 
L 272.25 97.178 
L 224.82 97.178 
z
" clip-path="url(#pc12cb5e346)" style="fill: #eaf2f8; stroke: #2980b9; stroke-width: 2; stroke-linejoin: miter"/>
   </g>
   <g id="patch_7">
    <path d="M 272.25 135.986 
L 319.68 135.986 
L 319.68 97.178 
L 272.25 97.178 
z
" clip-path="url(#pc12cb5e346)" style="fill: #eaf2f8; stroke: #2980b9; stroke-width: 2; stroke-linejoin: miter"/>
   </g>
   <g id="patch_8">
    <path d="M 319.68 135.986 
L 367.11 135.986 
L 367.11 97.178 
L 319.68 97.178 
z
" clip-path="url(#pc12cb5e346)" style="fill: #eaf2f8; stroke: #2980b9; stroke-width: 2; stroke-linejoin: miter"/>
   </g>
   <g id="patch_9">
    <path d="M 367.11 135.986 
L 414.54 135.986 
L 414.54 97.178 
L 367.11 97.178 
z
" clip-path="url(#pc12cb5e346)" style="fill: #eaf2f8; stroke: #2980b9; stroke-width: 2; stroke-linejoin: miter"/>
   </g>
   <g id="patch_10">
    <path d="M 414.54 135.986 
L 461.97 135.986 
L 461.97 97.178 
L 414.54 97.178 
z
" clip-path="url(#pc12cb5e346)" style="fill: #eaf2f8; stroke: #2980b9; stroke-width: 2; stroke-linejoin: miter"/>
   </g>
   <g id="patch_11">
    <path d="M 35.1 219.146 
L 82.53 219.146 
L 82.53 180.338 
L 35.1 180.338 
z
" clip-path="url(#pc12cb5e346)" style="fill: #eafaf1; stroke: #27ae60; stroke-width: 2; stroke-linejoin: miter"/>
   </g>
   <g id="patch_12">
    <path d="M 82.53 219.146 
L 129.96 219.146 
L 129.96 180.338 
L 82.53 180.338 
z
" clip-path="url(#pc12cb5e346)" style="fill: #eafaf1; stroke: #27ae60; stroke-width: 2; stroke-linejoin: miter"/>
   </g>
   <g id="patch_13">
    <path d="M 129.96 219.146 
L 177.39 219.146 
L 177.39 180.338 
L 129.96 180.338 
z
" clip-path="url(#pc12cb5e346)" style="fill: #eafaf1; stroke: #27ae60; stroke-width: 2; stroke-linejoin: miter"/>
   </g>
   <g id="patch_14">
    <path d="M 177.39 219.146 
L 224.82 219.146 
L 224.82 180.338 
L 177.39 180.338 
z
" clip-path="url(#pc12cb5e346)" style="fill: #eafaf1; stroke: #27ae60; stroke-width: 2; stroke-linejoin: miter"/>
   </g>
   <g id="patch_15">
    <path d="M 224.82 219.146 
L 272.25 219.146 
L 272.25 180.338 
L 224.82 180.338 
z
" clip-path="url(#pc12cb5e346)" style="fill: #eafaf1; stroke: #27ae60; stroke-width: 2; stroke-linejoin: miter"/>
   </g>
   <g id="patch_16">
    <path d="M 272.25 219.146 
L 319.68 219.146 
L 319.68 180.338 
L 272.25 180.338 
z
" clip-path="url(#pc12cb5e346)" style="fill: #eafaf1; stroke: #27ae60; stroke-width: 2; stroke-linejoin: miter"/>
   </g>
   <g id="patch_17">
    <path d="M 319.68 219.146 
L 367.11 219.146 
L 367.11 180.338 
L 319.68 180.338 
z
" clip-path="url(#pc12cb5e346)" style="fill: #eafaf1; stroke: #27ae60; stroke-width: 2; stroke-linejoin: miter"/>
   </g>
   <g id="patch_18">
    <path d="M 367.11 219.146 
L 414.54 219.146 
L 414.54 180.338 
L 367.11 180.338 
z
" clip-path="url(#pc12cb5e346)" style="fill: #eafaf1; stroke: #27ae60; stroke-width: 2; stroke-linejoin: miter"/>
   </g>
   <g id="patch_19">
    <path d="M 414.54 219.146 
L 461.97 219.146 
L 461.97 180.338 
L 414.54 180.338 
z
" clip-path="url(#pc12cb5e346)" style="fill: #eafaf1; stroke: #27ae60; stroke-width: 2; stroke-linejoin: miter"/>
   </g>
   <g id="patch_20">
    <path d="M 461.97 219.146 
L 509.4 219.146 
L 509.4 180.338 
L 461.97 180.338 
z
" clip-path="url(#pc12cb5e346)" style="fill: #eafaf1; stroke: #27ae60; stroke-width: 2; stroke-linejoin: miter"/>
   </g>
   <g id="patch_21">
    <path d="M 79.74 83.318 
L 436.86 83.318 
Q 445.23 83.318 445.23 75.002 
L 445.23 52.826 
Q 445.23 44.51 436.86 44.51 
L 79.74 44.51 
Q 71.37 44.51 71.37 52.826 
L 71.37 75.002 
Q 71.37 83.318 79.74 83.318 
z
" clip-path="url(#pc12cb5e346)" style="fill: #fef9e7; stroke: #f39c12; stroke-width: 2; stroke-linejoin: miter"/>
   </g>
   <g id="line2d_1">
    <path d="M 177.39 88.862 
L 414.54 88.862 
" clip-path="url(#pc12cb5e346)" style="fill: none; stroke: #e74c3c; stroke-width: 3; stroke-linecap: square"/>
   </g>
   <g id="text_1">
    <!-- -2 -->
    <g style="fill: #2c3e50" transform="translate(53.853828 119.699813) scale(0.11 -0.11)">
     <defs>
      <path id="NotoSansCJKjp-Regular-2d" d="M 294 1568 
L 1933 1568 
L 1933 2016 
L 294 2016 
L 294 1568 
z
" transform="scale(0.015625)"/>
      <path id="NotoSansCJKjp-Regular-32" d="M 282 0 
L 3232 0 
L 3232 506 
L 1933 506 
C 1696 506 1408 480 1165 461 
C 2266 1504 3008 2458 3008 3398 
C 3008 4230 2477 4774 1638 4774 
C 1043 4774 634 4506 256 4090 
L 595 3757 
C 858 4070 1184 4301 1568 4301 
C 2150 4301 2432 3910 2432 3373 
C 2432 2566 1754 1632 282 346 
L 282 0 
z
" transform="scale(0.015625)"/>
     </defs>
     <use xlink:href="#NotoSansCJKjp-Regular-2d"/>
     <use xlink:href="#NotoSansCJKjp-Regular-32" transform="translate(34.699997 0)"/>
    </g>
   </g>
   <g id="text_2">
    <!-- i=0 -->
    <g style="fill: #7f8c8d" transform="translate(52.5825 157.009437) scale(0.09 -0.09)">
     <defs>
      <path id="NotoSansCJKjp-Regular-69" d="M 589 0 
L 1178 0 
L 1178 3475 
L 589 3475 
L 589 0 
z
M 883 4192 
C 1114 4192 1274 4346 1274 4582 
C 1274 4806 1114 4960 883 4960 
C 653 4960 499 4806 499 4582 
C 499 4346 653 4192 883 4192 
z
" transform="scale(0.015625)"/>
      <path id="NotoSansCJKjp-Regular-3d" d="M 243 2912 
L 3315 2912 
L 3315 3347 
L 243 3347 
L 243 2912 
z
M 243 1376 
L 3315 1376 
L 3315 1811 
L 243 1811 
L 243 1376 
z
" transform="scale(0.015625)"/>
      <path id="NotoSansCJKjp-Regular-30" d="M 1779 -83 
C 2669 -83 3238 723 3238 2362 
C 3238 3987 2669 4774 1779 4774 
C 883 4774 320 3987 320 2362 
C 320 723 883 -83 1779 -83 
z
M 1779 390 
C 1248 390 883 986 883 2362 
C 883 3731 1248 4314 1779 4314 
C 2310 4314 2675 3731 2675 2362 
C 2675 986 2310 390 1779 390 
z
" transform="scale(0.015625)"/>
     </defs>
     <use xlink:href="#NotoSansCJKjp-Regular-69"/>
     <use xlink:href="#NotoSansCJKjp-Regular-3d" transform="translate(27.499985 0)"/>
     <use xlink:href="#NotoSansCJKjp-Regular-30" transform="translate(82.999969 0)"/>
    </g>
   </g>
   <g id="text_3">
    <!-- 1 -->
    <g style="fill: #2c3e50" transform="translate(103.1925 119.699813) scale(0.11 -0.11)">
     <defs>
      <path id="NotoSansCJKjp-Regular-31" d="M 563 0 
L 3136 0 
L 3136 486 
L 2195 486 
L 2195 4691 
L 1747 4691 
C 1491 4544 1190 4435 774 4358 
L 774 3987 
L 1613 3987 
L 1613 486 
L 563 486 
L 563 0 
z
" transform="scale(0.015625)"/>
     </defs>
     <use xlink:href="#NotoSansCJKjp-Regular-31"/>
    </g>
   </g>
   <g id="text_4">
    <!-- i=1 -->
    <g style="fill: #7f8c8d" transform="translate(100.0125 157.009437) scale(0.09 -0.09)">
     <use xlink:href="#NotoSansCJKjp-Regular-69"/>
     <use xlink:href="#NotoSansCJKjp-Regular-3d" transform="translate(27.499985 0)"/>
     <use xlink:href="#NotoSansCJKjp-Regular-31" transform="translate(82.999969 0)"/>
    </g>
   </g>
   <g id="text_5">
    <!-- -3 -->
    <g style="fill: #2c3e50" transform="translate(148.713828 119.699813) scale(0.11 -0.11)">
     <defs>
      <path id="NotoSansCJKjp-Regular-33" d="M 1683 -83 
C 2522 -83 3194 416 3194 1254 
C 3194 1901 2752 2310 2202 2445 
L 2202 2477 
C 2701 2650 3034 3034 3034 3603 
C 3034 4346 2458 4774 1664 4774 
C 1126 4774 710 4538 358 4218 
L 672 3846 
C 941 4115 1267 4301 1645 4301 
C 2138 4301 2438 4006 2438 3558 
C 2438 3053 2112 2662 1139 2662 
L 1139 2214 
C 2227 2214 2598 1843 2598 1274 
C 2598 736 2208 403 1645 403 
C 1114 403 762 659 486 941 
L 186 563 
C 493 224 954 -83 1683 -83 
z
" transform="scale(0.015625)"/>
     </defs>
     <use xlink:href="#NotoSansCJKjp-Regular-2d"/>
     <use xlink:href="#NotoSansCJKjp-Regular-33" transform="translate(34.699997 0)"/>
    </g>
   </g>
   <g id="text_6">
    <!-- i=2 -->
    <g style="fill: #7f8c8d" transform="translate(147.4425 157.009437) scale(0.09 -0.09)">
     <use xlink:href="#NotoSansCJKjp-Regular-69"/>
     <use xlink:href="#NotoSansCJKjp-Regular-3d" transform="translate(27.499985 0)"/>
     <use xlink:href="#NotoSansCJKjp-Regular-32" transform="translate(82.999969 0)"/>
    </g>
   </g>
   <g id="text_7">
    <!-- 4 -->
    <g style="fill: #2c3e50" transform="translate(198.0525 119.699813) scale(0.11 -0.11)">
     <defs>
      <path id="NotoSansCJKjp-Regular-34" d="M 2176 0 
L 2726 0 
L 2726 1293 
L 3354 1293 
L 3354 1760 
L 2726 1760 
L 2726 4691 
L 2080 4691 
L 128 1677 
L 128 1293 
L 2176 1293 
L 2176 0 
z
M 2176 1760 
L 736 1760 
L 1805 3360 
C 1939 3590 2067 3827 2182 4051 
L 2208 4051 
C 2195 3814 2176 3430 2176 3200 
L 2176 1760 
z
" transform="scale(0.015625)"/>
     </defs>
     <use xlink:href="#NotoSansCJKjp-Regular-34"/>
    </g>
   </g>
   <g id="text_8">
    <!-- i=3 -->
    <g style="fill: #7f8c8d" transform="translate(194.8725 157.009437) scale(0.09 -0.09)">
     <use xlink:href="#NotoSansCJKjp-Regular-69"/>
     <use xlink:href="#NotoSansCJKjp-Regular-3d" transform="translate(27.499985 0)"/>
     <use xlink:href="#NotoSansCJKjp-Regular-33" transform="translate(82.999969 0)"/>
    </g>
   </g>
   <g id="text_9">
    <!-- -1 -->
    <g style="fill: #2c3e50" transform="translate(243.573828 119.699813) scale(0.11 -0.11)">
     <use xlink:href="#NotoSansCJKjp-Regular-2d"/>
     <use xlink:href="#NotoSansCJKjp-Regular-31" transform="translate(34.699997 0)"/>
    </g>
   </g>
   <g id="text_10">
    <!-- i=4 -->
    <g style="fill: #7f8c8d" transform="translate(242.3025 157.009437) scale(0.09 -0.09)">
     <use xlink:href="#NotoSansCJKjp-Regular-69"/>
     <use xlink:href="#NotoSansCJKjp-Regular-3d" transform="translate(27.499985 0)"/>
     <use xlink:href="#NotoSansCJKjp-Regular-34" transform="translate(82.999969 0)"/>
    </g>
   </g>
   <g id="text_11">
    <!-- 2 -->
    <g style="fill: #2c3e50" transform="translate(292.9125 119.699813) scale(0.11 -0.11)">
     <use xlink:href="#NotoSansCJKjp-Regular-32"/>
    </g>
   </g>
   <g id="text_12">
    <!-- i=5 -->
    <g style="fill: #7f8c8d" transform="translate(289.7325 157.009437) scale(0.09 -0.09)">
     <defs>
      <path id="NotoSansCJKjp-Regular-35" d="M 1677 -83 
C 2464 -83 3213 499 3213 1523 
C 3213 2560 2573 3021 1798 3021 
C 1517 3021 1306 2950 1094 2835 
L 1216 4192 
L 2982 4192 
L 2982 4691 
L 704 4691 
L 550 2502 
L 864 2304 
C 1133 2483 1331 2579 1645 2579 
C 2234 2579 2618 2182 2618 1510 
C 2618 826 2176 403 1619 403 
C 1075 403 730 653 467 922 
L 173 538 
C 493 224 941 -83 1677 -83 
z
" transform="scale(0.015625)"/>
     </defs>
     <use xlink:href="#NotoSansCJKjp-Regular-69"/>
     <use xlink:href="#NotoSansCJKjp-Regular-3d" transform="translate(27.499985 0)"/>
     <use xlink:href="#NotoSansCJKjp-Regular-35" transform="translate(82.999969 0)"/>
    </g>
   </g>
   <g id="text_13">
    <!-- 1 -->
    <g style="fill: #2c3e50" transform="translate(340.3425 119.699813) scale(0.11 -0.11)">
     <use xlink:href="#NotoSansCJKjp-Regular-31"/>
    </g>
   </g>
   <g id="text_14">
    <!-- i=6 -->
    <g style="fill: #7f8c8d" transform="translate(337.1625 157.009437) scale(0.09 -0.09)">
     <defs>
      <path id="NotoSansCJKjp-Regular-36" d="M 1926 -83 
C 2656 -83 3277 531 3277 1440 
C 3277 2426 2765 2912 1971 2912 
C 1606 2912 1197 2701 909 2349 
C 934 3802 1466 4294 2118 4294 
C 2400 4294 2682 4154 2861 3936 
L 3194 4294 
C 2931 4576 2579 4774 2093 4774 
C 1184 4774 358 4077 358 2240 
C 358 691 1030 -83 1926 -83 
z
M 922 1882 
C 1229 2317 1587 2477 1875 2477 
C 2445 2477 2720 2074 2720 1440 
C 2720 800 2374 378 1926 378 
C 1338 378 986 909 922 1882 
z
" transform="scale(0.015625)"/>
     </defs>
     <use xlink:href="#NotoSansCJKjp-Regular-69"/>
     <use xlink:href="#NotoSansCJKjp-Regular-3d" transform="translate(27.499985 0)"/>
     <use xlink:href="#NotoSansCJKjp-Regular-36" transform="translate(82.999969 0)"/>
    </g>
   </g>
   <g id="text_15">
    <!-- -5 -->
    <g style="fill: #2c3e50" transform="translate(385.863828 119.699813) scale(0.11 -0.11)">
     <use xlink:href="#NotoSansCJKjp-Regular-2d"/>
     <use xlink:href="#NotoSansCJKjp-Regular-35" transform="translate(34.699997 0)"/>
    </g>
   </g>
   <g id="text_16">
    <!-- i=7 -->
    <g style="fill: #7f8c8d" transform="translate(384.5925 157.009437) scale(0.09 -0.09)">
     <defs>
      <path id="NotoSansCJKjp-Regular-37" d="M 1267 0 
L 1875 0 
C 1952 1837 2150 2931 3251 4339 
L 3251 4691 
L 314 4691 
L 314 4192 
L 2592 4192 
C 1670 2912 1350 1779 1267 0 
z
" transform="scale(0.015625)"/>
     </defs>
     <use xlink:href="#NotoSansCJKjp-Regular-69"/>
     <use xlink:href="#NotoSansCJKjp-Regular-3d" transform="translate(27.499985 0)"/>
     <use xlink:href="#NotoSansCJKjp-Regular-37" transform="translate(82.999969 0)"/>
    </g>
   </g>
   <g id="text_17">
    <!-- 4 -->
    <g style="fill: #2c3e50" transform="translate(435.2025 119.699813) scale(0.11 -0.11)">
     <use xlink:href="#NotoSansCJKjp-Regular-34"/>
    </g>
   </g>
   <g id="text_18">
    <!-- i=8 -->
    <g style="fill: #7f8c8d" transform="translate(432.0225 157.009437) scale(0.09 -0.09)">
     <defs>
      <path id="NotoSansCJKjp-Regular-38" d="M 1792 -83 
C 2669 -83 3258 448 3258 1126 
C 3258 1773 2880 2125 2470 2362 
L 2470 2394 
C 2746 2611 3091 3034 3091 3526 
C 3091 4250 2605 4762 1805 4762 
C 1075 4762 518 4282 518 3571 
C 518 3078 813 2726 1152 2490 
L 1152 2464 
C 723 2234 294 1792 294 1165 
C 294 442 922 -83 1792 -83 
z
M 2112 2547 
C 1555 2765 1050 3014 1050 3571 
C 1050 4026 1363 4326 1798 4326 
C 2298 4326 2592 3962 2592 3494 
C 2592 3149 2426 2829 2112 2547 
z
M 1798 352 
C 1235 352 813 717 813 1216 
C 813 1664 1082 2035 1459 2278 
C 2125 2010 2701 1779 2701 1146 
C 2701 678 2342 352 1798 352 
z
" transform="scale(0.015625)"/>
     </defs>
     <use xlink:href="#NotoSansCJKjp-Regular-69"/>
     <use xlink:href="#NotoSansCJKjp-Regular-3d" transform="translate(27.499985 0)"/>
     <use xlink:href="#NotoSansCJKjp-Regular-38" transform="translate(82.999969 0)"/>
    </g>
   </g>
   <g id="text_19">
    <!-- 0 -->
    <g style="fill: #2c3e50" transform="translate(56.04 202.576375) scale(0.1 -0.1)">
     <use xlink:href="#NotoSansCJKjp-Regular-30"/>
    </g>
   </g>
   <g id="text_20">
    <!-- p=0 -->
    <g style="fill: #7f8c8d" transform="translate(51.03 240.169437) scale(0.09 -0.09)">
     <defs>
      <path id="NotoSansCJKjp-Regular-70" d="M 589 -1466 
L 1178 -1466 
L 1178 -288 
L 1158 320 
C 1472 58 1805 -83 2118 -83 
C 2912 -83 3629 602 3629 1792 
C 3629 2867 3142 3565 2246 3565 
C 1843 3565 1453 3334 1139 3072 
L 1126 3072 
L 1069 3475 
L 589 3475 
L 589 -1466 
z
M 2022 410 
C 1792 410 1485 499 1178 768 
L 1178 2598 
C 1510 2906 1811 3072 2099 3072 
C 2765 3072 3021 2560 3021 1786 
C 3021 928 2598 410 2022 410 
z
" transform="scale(0.015625)"/>
     </defs>
     <use xlink:href="#NotoSansCJKjp-Regular-70"/>
     <use xlink:href="#NotoSansCJKjp-Regular-3d" transform="translate(61.999985 0)"/>
     <use xlink:href="#NotoSansCJKjp-Regular-30" transform="translate(117.499969 0)"/>
    </g>
   </g>
   <g id="text_21">
    <!-- -2 -->
    <g style="fill: #2c3e50" transform="translate(101.734844 202.576375) scale(0.1 -0.1)">
     <use xlink:href="#NotoSansCJKjp-Regular-2d"/>
     <use xlink:href="#NotoSansCJKjp-Regular-32" transform="translate(34.699997 0)"/>
    </g>
   </g>
   <g id="text_22">
    <!-- p=1 -->
    <g style="fill: #7f8c8d" transform="translate(98.46 240.169437) scale(0.09 -0.09)">
     <use xlink:href="#NotoSansCJKjp-Regular-70"/>
     <use xlink:href="#NotoSansCJKjp-Regular-3d" transform="translate(61.999985 0)"/>
     <use xlink:href="#NotoSansCJKjp-Regular-31" transform="translate(117.499969 0)"/>
    </g>
   </g>
   <g id="text_23">
    <!-- -1 -->
    <g style="fill: #2c3e50" transform="translate(149.164844 202.576375) scale(0.1 -0.1)">
     <use xlink:href="#NotoSansCJKjp-Regular-2d"/>
     <use xlink:href="#NotoSansCJKjp-Regular-31" transform="translate(34.699997 0)"/>
    </g>
   </g>
   <g id="text_24">
    <!-- p=2 -->
    <g style="fill: #7f8c8d" transform="translate(145.89 240.169437) scale(0.09 -0.09)">
     <use xlink:href="#NotoSansCJKjp-Regular-70"/>
     <use xlink:href="#NotoSansCJKjp-Regular-3d" transform="translate(61.999985 0)"/>
     <use xlink:href="#NotoSansCJKjp-Regular-32" transform="translate(117.499969 0)"/>
    </g>
   </g>
   <g id="text_25">
    <!-- -4 -->
    <g style="fill: #2c3e50" transform="translate(196.594844 202.576375) scale(0.1 -0.1)">
     <use xlink:href="#NotoSansCJKjp-Regular-2d"/>
     <use xlink:href="#NotoSansCJKjp-Regular-34" transform="translate(34.699997 0)"/>
    </g>
   </g>
   <g id="text_26">
    <!-- p=3 -->
    <g style="fill: #7f8c8d" transform="translate(193.32 240.169437) scale(0.09 -0.09)">
     <use xlink:href="#NotoSansCJKjp-Regular-70"/>
     <use xlink:href="#NotoSansCJKjp-Regular-3d" transform="translate(61.999985 0)"/>
     <use xlink:href="#NotoSansCJKjp-Regular-33" transform="translate(117.499969 0)"/>
    </g>
   </g>
   <g id="text_27">
    <!-- 0 -->
    <g style="fill: #2c3e50" transform="translate(245.76 202.576375) scale(0.1 -0.1)">
     <use xlink:href="#NotoSansCJKjp-Regular-30"/>
    </g>
   </g>
   <g id="text_28">
    <!-- p=4 -->
    <g style="fill: #7f8c8d" transform="translate(240.75 240.169437) scale(0.09 -0.09)">
     <use xlink:href="#NotoSansCJKjp-Regular-70"/>
     <use xlink:href="#NotoSansCJKjp-Regular-3d" transform="translate(61.999985 0)"/>
     <use xlink:href="#NotoSansCJKjp-Regular-34" transform="translate(117.499969 0)"/>
    </g>
   </g>
   <g id="text_29">
    <!-- -1 -->
    <g style="fill: #2c3e50" transform="translate(291.454844 202.576375) scale(0.1 -0.1)">
     <use xlink:href="#NotoSansCJKjp-Regular-2d"/>
     <use xlink:href="#NotoSansCJKjp-Regular-31" transform="translate(34.699997 0)"/>
    </g>
   </g>
   <g id="text_30">
    <!-- p=5 -->
    <g style="fill: #7f8c8d" transform="translate(288.18 240.169437) scale(0.09 -0.09)">
     <use xlink:href="#NotoSansCJKjp-Regular-70"/>
     <use xlink:href="#NotoSansCJKjp-Regular-3d" transform="translate(61.999985 0)"/>
     <use xlink:href="#NotoSansCJKjp-Regular-35" transform="translate(117.499969 0)"/>
    </g>
   </g>
   <g id="text_31">
    <!-- 1 -->
    <g style="fill: #2c3e50" transform="translate(340.62 202.576375) scale(0.1 -0.1)">
     <use xlink:href="#NotoSansCJKjp-Regular-31"/>
    </g>
   </g>
   <g id="text_32">
    <!-- p=6 -->
    <g style="fill: #7f8c8d" transform="translate(335.61 240.169437) scale(0.09 -0.09)">
     <use xlink:href="#NotoSansCJKjp-Regular-70"/>
     <use xlink:href="#NotoSansCJKjp-Regular-3d" transform="translate(61.999985 0)"/>
     <use xlink:href="#NotoSansCJKjp-Regular-36" transform="translate(117.499969 0)"/>
    </g>
   </g>
   <g id="text_33">
    <!-- 2 -->
    <g style="fill: #2c3e50" transform="translate(388.05 202.576375) scale(0.1 -0.1)">
     <use xlink:href="#NotoSansCJKjp-Regular-32"/>
    </g>
   </g>
   <g id="text_34">
    <!-- p=7 -->
    <g style="fill: #7f8c8d" transform="translate(383.04 240.169437) scale(0.09 -0.09)">
     <use xlink:href="#NotoSansCJKjp-Regular-70"/>
     <use xlink:href="#NotoSansCJKjp-Regular-3d" transform="translate(61.999985 0)"/>
     <use xlink:href="#NotoSansCJKjp-Regular-37" transform="translate(117.499969 0)"/>
    </g>
   </g>
   <g id="text_35">
    <!-- -3 -->
    <g style="fill: #2c3e50" transform="translate(433.744844 202.576375) scale(0.1 -0.1)">
     <use xlink:href="#NotoSansCJKjp-Regular-2d"/>
     <use xlink:href="#NotoSansCJKjp-Regular-33" transform="translate(34.699997 0)"/>
    </g>
   </g>
   <g id="text_36">
    <!-- p=8 -->
    <g style="fill: #7f8c8d" transform="translate(430.47 240.169437) scale(0.09 -0.09)">
     <use xlink:href="#NotoSansCJKjp-Regular-70"/>
     <use xlink:href="#NotoSansCJKjp-Regular-3d" transform="translate(61.999985 0)"/>
     <use xlink:href="#NotoSansCJKjp-Regular-38" transform="translate(117.499969 0)"/>
    </g>
   </g>
   <g id="text_37">
    <!-- 1 -->
    <g style="fill: #2c3e50" transform="translate(482.91 202.576375) scale(0.1 -0.1)">
     <use xlink:href="#NotoSansCJKjp-Regular-31"/>
    </g>
   </g>
   <g id="text_38">
    <!-- p=9 -->
    <g style="fill: #7f8c8d" transform="translate(477.9 240.169437) scale(0.09 -0.09)">
     <defs>
      <path id="NotoSansCJKjp-Regular-39" d="M 1504 -83 
C 2381 -83 3206 646 3206 2547 
C 3206 4038 2528 4774 1626 4774 
C 896 4774 282 4166 282 3251 
C 282 2285 794 1779 1574 1779 
C 1965 1779 2368 2003 2656 2349 
C 2611 896 2086 403 1485 403 
C 1178 403 896 538 691 762 
L 371 397 
C 634 122 992 -83 1504 -83 
z
M 2650 2842 
C 2336 2394 1984 2214 1670 2214 
C 1114 2214 832 2624 832 3251 
C 832 3898 1178 4320 1632 4320 
C 2227 4320 2586 3808 2650 2842 
z
" transform="scale(0.015625)"/>
     </defs>
     <use xlink:href="#NotoSansCJKjp-Regular-70"/>
     <use xlink:href="#NotoSansCJKjp-Regular-3d" transform="translate(61.999985 0)"/>
     <use xlink:href="#NotoSansCJKjp-Regular-39" transform="translate(117.499969 0)"/>
    </g>
   </g>
   <g id="text_39">
    <!-- 子数组 [3, 6] = [4, -1, 2, 1] -->
    <g style="fill: #e74c3c" transform="translate(234.011797 75.254312) scale(0.11 -0.11)">
     <defs>
      <path id="NotoSansCJKjp-Regular-5b50" d="M 966 4934 
L 966 4454 
L 4595 4454 
C 4211 4134 3718 3795 3264 3546 
L 2963 3546 
L 2963 2515 
L 301 2515 
L 301 2035 
L 2963 2035 
L 2963 115 
C 2963 0 2925 -32 2790 -45 
C 2643 -45 2170 -51 1658 -32 
C 1734 -173 1830 -384 1862 -525 
C 2477 -531 2893 -518 3136 -435 
C 3379 -358 3462 -218 3462 109 
L 3462 2035 
L 6112 2035 
L 6112 2515 
L 3462 2515 
L 3462 3149 
C 4179 3539 5024 4134 5574 4685 
L 5210 4960 
L 5101 4934 
L 966 4934 
z
" transform="scale(0.015625)"/>
      <path id="NotoSansCJKjp-Regular-6570" d="M 2803 5254 
C 2688 4998 2483 4627 2317 4403 
L 2643 4243 
C 2816 4454 3027 4781 3219 5075 
L 2803 5254 
z
M 531 5075 
C 704 4806 870 4454 928 4230 
L 1312 4397 
C 1248 4627 1075 4973 890 5222 
L 531 5075 
z
M 4026 5382 
C 3846 4243 3507 3162 2970 2490 
C 3078 2413 3283 2246 3360 2163 
C 3533 2394 3693 2669 3827 2970 
C 3974 2310 4160 1709 4410 1184 
C 4090 698 3667 314 3110 19 
C 2912 166 2656 326 2374 480 
C 2598 774 2746 1126 2829 1562 
L 3398 1562 
L 3398 1958 
L 1677 1958 
L 1894 2413 
L 1779 2438 
L 2061 2438 
L 2061 3398 
C 2374 3168 2771 2854 2938 2701 
L 3206 3046 
C 3034 3174 2336 3616 2061 3776 
L 2061 3802 
L 3373 3802 
L 3373 4198 
L 2061 4198 
L 2061 5382 
L 1613 5382 
L 1613 4198 
L 288 4198 
L 288 3802 
L 1485 3802 
C 1171 3379 678 2982 218 2784 
C 314 2694 422 2528 480 2419 
C 870 2637 1293 2989 1613 3373 
L 1613 2477 
L 1440 2515 
L 1178 1958 
L 250 1958 
L 250 1562 
L 979 1562 
C 806 1222 627 896 486 653 
L 909 506 
L 1005 678 
C 1222 589 1434 493 1638 384 
C 1306 147 858 -13 269 -109 
C 352 -211 448 -384 480 -512 
C 1171 -365 1683 -154 2061 160 
C 2355 -13 2611 -186 2810 -352 
L 2963 -192 
C 3046 -301 3136 -448 3174 -531 
C 3802 -205 4288 205 4666 710 
C 4979 192 5370 -224 5862 -512 
C 5939 -378 6093 -192 6208 -96 
C 5690 173 5280 614 4960 1165 
C 5350 1856 5594 2707 5754 3750 
L 6144 3750 
L 6144 4198 
L 4262 4198 
C 4358 4557 4442 4928 4506 5312 
L 4026 5382 
z
M 1478 1562 
L 2368 1562 
C 2285 1216 2157 928 1965 698 
C 1715 819 1459 934 1197 1030 
L 1478 1562 
z
M 4134 3750 
L 5254 3750 
C 5139 2950 4966 2266 4698 1696 
C 4435 2298 4250 3002 4134 3750 
z
" transform="scale(0.015625)"/>
      <path id="NotoSansCJKjp-Regular-7ec4" d="M 307 371 
L 403 -90 
C 1005 64 1805 269 2566 467 
L 2522 877 
C 1702 678 858 486 307 371 
z
M 3078 5056 
L 3078 70 
L 2432 70 
L 2432 -371 
L 6138 -371 
L 6138 70 
L 5581 70 
L 5581 5056 
L 3078 5056 
z
M 3539 70 
L 3539 1325 
L 5107 1325 
L 5107 70 
L 3539 70 
z
M 3539 2982 
L 5107 2982 
L 5107 1754 
L 3539 1754 
L 3539 2982 
z
M 3539 3424 
L 3539 4614 
L 5107 4614 
L 5107 3424 
L 3539 3424 
z
M 422 2707 
C 518 2752 672 2797 1549 2906 
C 1242 2483 960 2144 832 2016 
C 621 1779 454 1619 314 1594 
C 371 1478 442 1261 467 1165 
C 602 1242 826 1306 2566 1658 
C 2560 1754 2560 1933 2573 2054 
L 1165 1798 
C 1696 2368 2214 3072 2656 3782 
L 2272 4019 
C 2138 3782 1990 3552 1843 3328 
L 915 3226 
C 1325 3776 1722 4486 2035 5178 
L 1600 5376 
C 1312 4602 806 3763 653 3552 
C 506 3334 384 3181 269 3155 
C 320 3027 397 2803 422 2707 
z
" transform="scale(0.015625)"/>
      <path id="NotoSansCJKjp-Regular-20" transform="scale(0.015625)"/>
      <path id="NotoSansCJKjp-Regular-5b" d="M 678 -1088 
L 1946 -1088 
L 1946 -755 
L 1114 -755 
L 1114 4730 
L 1946 4730 
L 1946 5069 
L 678 5069 
L 678 -1088 
z
" transform="scale(0.015625)"/>
      <path id="NotoSansCJKjp-Regular-2c" d="M 480 -1216 
C 1056 -973 1414 -493 1414 122 
C 1414 550 1229 806 922 806 
C 685 806 480 653 480 397 
C 480 141 678 -13 909 -13 
L 979 -6 
C 973 -390 736 -698 339 -870 
L 480 -1216 
z
" transform="scale(0.015625)"/>
      <path id="NotoSansCJKjp-Regular-5d" d="M 218 -1088 
L 1491 -1088 
L 1491 5069 
L 218 5069 
L 218 4730 
L 1050 4730 
L 1050 -755 
L 218 -755 
L 218 -1088 
z
" transform="scale(0.015625)"/>
     </defs>
     <use xlink:href="#NotoSansCJKjp-Regular-5b50"/>
     <use xlink:href="#NotoSansCJKjp-Regular-6570" transform="translate(99.999985 0)"/>
     <use xlink:href="#NotoSansCJKjp-Regular-7ec4" transform="translate(199.999969 0)"/>
     <use xlink:href="#NotoSansCJKjp-Regular-20" transform="translate(299.999954 0)"/>
     <use xlink:href="#NotoSansCJKjp-Regular-5b" transform="translate(322.399948 0)"/>
     <use xlink:href="#NotoSansCJKjp-Regular-33" transform="translate(356.199936 0)"/>
     <use xlink:href="#NotoSansCJKjp-Regular-2c" transform="translate(411.699921 0)"/>
     <use xlink:href="#NotoSansCJKjp-Regular-20" transform="translate(439.499908 0)"/>
     <use xlink:href="#NotoSansCJKjp-Regular-36" transform="translate(461.899902 0)"/>
     <use xlink:href="#NotoSansCJKjp-Regular-5d" transform="translate(517.399887 0)"/>
     <use xlink:href="#NotoSansCJKjp-Regular-20" transform="translate(551.199875 0)"/>
     <use xlink:href="#NotoSansCJKjp-Regular-3d" transform="translate(573.599869 0)"/>
     <use xlink:href="#NotoSansCJKjp-Regular-20" transform="translate(629.099854 0)"/>
     <use xlink:href="#NotoSansCJKjp-Regular-5b" transform="translate(651.499847 0)"/>
     <use xlink:href="#NotoSansCJKjp-Regular-34" transform="translate(685.299835 0)"/>
     <use xlink:href="#NotoSansCJKjp-Regular-2c" transform="translate(740.79982 0)"/>
     <use xlink:href="#NotoSansCJKjp-Regular-20" transform="translate(768.599808 0)"/>
     <use xlink:href="#NotoSansCJKjp-Regular-2d" transform="translate(790.999802 0)"/>
     <use xlink:href="#NotoSansCJKjp-Regular-31" transform="translate(825.699799 0)"/>
     <use xlink:href="#NotoSansCJKjp-Regular-2c" transform="translate(881.199783 0)"/>
     <use xlink:href="#NotoSansCJKjp-Regular-20" transform="translate(908.999771 0)"/>
     <use xlink:href="#NotoSansCJKjp-Regular-32" transform="translate(931.399765 0)"/>
     <use xlink:href="#NotoSansCJKjp-Regular-2c" transform="translate(986.89975 0)"/>
     <use xlink:href="#NotoSansCJKjp-Regular-20" transform="translate(1014.699738 0)"/>
     <use xlink:href="#NotoSansCJKjp-Regular-31" transform="translate(1037.099731 0)"/>
     <use xlink:href="#NotoSansCJKjp-Regular-5d" transform="translate(1092.599716 0)"/>
    </g>
   </g>
   <g id="text_40">
    <!-- sum(i, j) = prefix[j+1] - prefix[i] -->
    <g transform="translate(131.873438 67.544) scale(0.12 -0.12)">
     <defs>
      <path id="DejaVuSansMono-Bold-73" d="M 3097 3391 
L 3097 2591 
Q 2844 2753 2570 2836 
Q 2297 2919 2022 2919 
Q 1716 2919 1559 2830 
Q 1403 2741 1403 2566 
Q 1403 2316 2072 2159 
L 2106 2150 
L 2369 2088 
Q 2869 1969 3101 1705 
Q 3334 1441 3334 991 
Q 3334 450 2979 179 
Q 2625 -91 1913 -91 
Q 1597 -91 1265 -36 
Q 934 19 594 128 
L 594 928 
Q 897 756 1211 665 
Q 1525 575 1819 575 
Q 2141 575 2306 669 
Q 2472 763 2472 941 
Q 2472 1116 2355 1209 
Q 2238 1303 1797 1409 
L 1544 1466 
Q 1019 1584 778 1837 
Q 538 2091 538 2516 
Q 538 3022 903 3303 
Q 1269 3584 1931 3584 
Q 2228 3584 2523 3536 
Q 2819 3488 3097 3391 
z
" transform="scale(0.015625)"/>
      <path id="DejaVuSansMono-Bold-75" d="M 500 1222 
L 500 3500 
L 1416 3500 
L 1416 1363 
Q 1416 984 1522 821 
Q 1628 659 1875 659 
Q 2122 659 2261 878 
Q 2400 1097 2400 1491 
L 2400 3500 
L 3316 3500 
L 3316 0 
L 2400 0 
L 2400 519 
Q 2303 228 2070 68 
Q 1838 -91 1509 -91 
Q 1009 -91 754 240 
Q 500 572 500 1222 
z
" transform="scale(0.015625)"/>
      <path id="DejaVuSansMono-Bold-6d" d="M 2156 3150 
Q 2259 3372 2418 3478 
Q 2578 3584 2809 3584 
Q 3263 3584 3436 3271 
Q 3609 2959 3609 1972 
L 3609 0 
L 2859 0 
L 2859 2247 
Q 2859 2638 2800 2769 
Q 2741 2900 2584 2900 
Q 2428 2900 2365 2765 
Q 2303 2631 2303 2247 
L 2303 0 
L 1563 0 
L 1563 2247 
Q 1563 2631 1500 2765 
Q 1438 2900 1281 2900 
Q 1125 2900 1065 2769 
Q 1006 2638 1006 2247 
L 1006 0 
L 256 0 
L 256 3500 
L 922 3500 
L 922 3138 
Q 1000 3344 1172 3464 
Q 1344 3584 1556 3584 
Q 1769 3584 1944 3457 
Q 2119 3331 2156 3150 
z
" transform="scale(0.015625)"/>
      <path id="DejaVuSansMono-Bold-28" d="M 2888 4856 
Q 2475 4109 2275 3409 
Q 2075 2709 2075 2009 
Q 2075 1316 2275 611 
Q 2475 -94 2888 -844 
L 2175 -844 
Q 1678 -122 1437 579 
Q 1197 1281 1197 2009 
Q 1197 2734 1439 3439 
Q 1681 4144 2175 4856 
L 2888 4856 
z
" transform="scale(0.015625)"/>
      <path id="DejaVuSansMono-Bold-69" d="M 691 3500 
L 2503 3500 
L 2503 703 
L 3641 703 
L 3641 0 
L 447 0 
L 447 703 
L 1588 703 
L 1588 2797 
L 691 2797 
L 691 3500 
z
M 1588 5203 
L 2503 5203 
L 2503 4134 
L 1588 4134 
L 1588 5203 
z
" transform="scale(0.015625)"/>
      <path id="DejaVuSansMono-Bold-2c" d="M 1441 1147 
L 2419 1147 
L 2419 300 
L 1806 -897 
L 1131 -897 
L 1441 300 
L 1441 1147 
z
" transform="scale(0.015625)"/>
      <path id="DejaVuSansMono-Bold-20" transform="scale(0.015625)"/>
      <path id="DejaVuSansMono-Bold-6a" d="M 2656 134 
Q 2656 -653 2373 -989 
Q 2091 -1325 1434 -1325 
L 447 -1325 
L 447 -622 
L 1178 -622 
Q 1484 -622 1612 -450 
Q 1741 -278 1741 134 
L 1741 2797 
L 813 2797 
L 813 3500 
L 2656 3500 
L 2656 134 
z
M 2656 4134 
L 1741 4134 
L 1741 5203 
L 2656 5203 
L 2656 4134 
z
" transform="scale(0.015625)"/>
      <path id="DejaVuSansMono-Bold-29" d="M 966 4856 
L 1678 4856 
Q 2172 4144 2414 3439 
Q 2656 2734 2656 2009 
Q 2656 1281 2415 579 
Q 2175 -122 1678 -844 
L 966 -844 
Q 1378 -94 1578 611 
Q 1778 1316 1778 2009 
Q 1778 2709 1578 3409 
Q 1378 4109 966 4856 
z
" transform="scale(0.015625)"/>
      <path id="DejaVuSansMono-Bold-3d" d="M 275 1663 
L 3578 1663 
L 3578 922 
L 275 922 
L 275 1663 
z
M 275 3084 
L 3578 3084 
L 3578 2350 
L 275 2350 
L 275 3084 
z
" transform="scale(0.015625)"/>
      <path id="DejaVuSansMono-Bold-70" d="M 1381 494 
L 1381 -1331 
L 469 -1331 
L 469 3500 
L 1381 3500 
L 1381 2975 
Q 1525 3278 1759 3431 
Q 1994 3584 2309 3584 
Q 2909 3584 3240 3103 
Q 3572 2622 3572 1747 
Q 3572 859 3236 384 
Q 2900 -91 2278 -91 
Q 1997 -91 1773 54 
Q 1550 200 1381 494 
z
M 2656 1753 
Q 2656 2259 2487 2546 
Q 2319 2834 2022 2834 
Q 1725 2834 1553 2546 
Q 1381 2259 1381 1753 
Q 1381 1247 1553 959 
Q 1725 672 2022 672 
Q 2319 672 2487 959 
Q 2656 1247 2656 1753 
z
" transform="scale(0.015625)"/>
      <path id="DejaVuSansMono-Bold-72" d="M 3597 2534 
Q 3447 2672 3245 2740 
Q 3044 2809 2803 2809 
Q 2513 2809 2295 2707 
Q 2078 2606 1959 2413 
Q 1884 2294 1854 2125 
Q 1825 1956 1825 1613 
L 1825 0 
L 909 0 
L 909 3500 
L 1825 3500 
L 1825 2956 
Q 1959 3256 2237 3420 
Q 2516 3584 2888 3584 
Q 3075 3584 3254 3539 
Q 3434 3494 3597 3406 
L 3597 2534 
z
" transform="scale(0.015625)"/>
      <path id="DejaVuSansMono-Bold-65" d="M 3444 172 
Q 3125 41 2794 -25 
Q 2463 -91 2094 -91 
Q 1216 -91 752 379 
Q 288 850 288 1734 
Q 288 2591 734 3087 
Q 1181 3584 1953 3584 
Q 2731 3584 3161 3123 
Q 3591 2663 3591 1825 
L 3591 1453 
L 1219 1453 
Q 1222 1041 1462 837 
Q 1703 634 2181 634 
Q 2497 634 2803 725 
Q 3109 816 3444 1013 
L 3444 172 
z
M 2669 2141 
Q 2663 2503 2483 2689 
Q 2303 2875 1953 2875 
Q 1638 2875 1450 2683 
Q 1263 2491 1228 2138 
L 2669 2141 
z
" transform="scale(0.015625)"/>
      <path id="DejaVuSansMono-Bold-66" d="M 2309 3806 
L 2309 3500 
L 3384 3500 
L 3384 2797 
L 2309 2797 
L 2309 0 
L 1394 0 
L 1394 2797 
L 544 2797 
L 544 3500 
L 1394 3500 
L 1394 3744 
Q 1394 4375 1656 4619 
Q 1919 4863 2631 4863 
L 3384 4863 
L 3384 4159 
L 2669 4159 
Q 2463 4159 2389 4084 
Q 2316 4009 2309 3806 
z
" transform="scale(0.015625)"/>
      <path id="DejaVuSansMono-Bold-78" d="M 3578 3500 
L 2400 1825 
L 3681 0 
L 2613 0 
L 1925 1178 
L 1241 0 
L 172 0 
L 1466 1825 
L 275 3500 
L 1344 3500 
L 1925 2456 
L 2509 3500 
L 3578 3500 
z
" transform="scale(0.015625)"/>
      <path id="DejaVuSansMono-Bold-5b" d="M 1319 4863 
L 2906 4863 
L 2906 4269 
L 2150 4269 
L 2150 -250 
L 2906 -250 
L 2906 -844 
L 1319 -844 
L 1319 4863 
z
" transform="scale(0.015625)"/>
      <path id="DejaVuSansMono-Bold-2b" d="M 2297 3725 
L 2297 2381 
L 3641 2381 
L 3641 1638 
L 2297 1638 
L 2297 288 
L 1556 288 
L 1556 1638 
L 206 1638 
L 206 2381 
L 1556 2381 
L 1556 3725 
L 2297 3725 
z
" transform="scale(0.015625)"/>
      <path id="DejaVuSansMono-Bold-31" d="M 588 813 
L 1619 813 
L 1619 3841 
L 659 3603 
L 659 4434 
L 1625 4666 
L 2516 4666 
L 2516 813 
L 3547 813 
L 3547 0 
L 588 0 
L 588 813 
z
" transform="scale(0.015625)"/>
      <path id="DejaVuSansMono-Bold-5d" d="M 2534 4863 
L 2534 -844 
L 947 -844 
L 947 -250 
L 1703 -250 
L 1703 4269 
L 947 4269 
L 947 4863 
L 2534 4863 
z
" transform="scale(0.015625)"/>
      <path id="DejaVuSansMono-Bold-2d" d="M 941 2297 
L 2913 2297 
L 2913 1388 
L 941 1388 
L 941 2297 
z
" transform="scale(0.015625)"/>
     </defs>
     <use xlink:href="#DejaVuSansMono-Bold-73"/>
     <use xlink:href="#DejaVuSansMono-Bold-75" transform="translate(60.205078 0)"/>
     <use xlink:href="#DejaVuSansMono-Bold-6d" transform="translate(120.410156 0)"/>
     <use xlink:href="#DejaVuSansMono-Bold-28" transform="translate(180.615234 0)"/>
     <use xlink:href="#DejaVuSansMono-Bold-69" transform="translate(240.820312 0)"/>
     <use xlink:href="#DejaVuSansMono-Bold-2c" transform="translate(301.025391 0)"/>
     <use xlink:href="#DejaVuSansMono-Bold-20" transform="translate(361.230469 0)"/>
     <use xlink:href="#DejaVuSansMono-Bold-6a" transform="translate(421.435547 0)"/>
     <use xlink:href="#DejaVuSansMono-Bold-29" transform="translate(481.640625 0)"/>
     <use xlink:href="#DejaVuSansMono-Bold-20" transform="translate(541.845703 0)"/>
     <use xlink:href="#DejaVuSansMono-Bold-3d" transform="translate(602.050781 0)"/>
     <use xlink:href="#DejaVuSansMono-Bold-20" transform="translate(662.255859 0)"/>
     <use xlink:href="#DejaVuSansMono-Bold-70" transform="translate(722.460938 0)"/>
     <use xlink:href="#DejaVuSansMono-Bold-72" transform="translate(782.666016 0)"/>
     <use xlink:href="#DejaVuSansMono-Bold-65" transform="translate(842.871094 0)"/>
     <use xlink:href="#DejaVuSansMono-Bold-66" transform="translate(903.076172 0)"/>
     <use xlink:href="#DejaVuSansMono-Bold-69" transform="translate(963.28125 0)"/>
     <use xlink:href="#DejaVuSansMono-Bold-78" transform="translate(1023.486328 0)"/>
     <use xlink:href="#DejaVuSansMono-Bold-5b" transform="translate(1083.691406 0)"/>
     <use xlink:href="#DejaVuSansMono-Bold-6a" transform="translate(1143.896484 0)"/>
     <use xlink:href="#DejaVuSansMono-Bold-2b" transform="translate(1204.101562 0)"/>
     <use xlink:href="#DejaVuSansMono-Bold-31" transform="translate(1264.306641 0)"/>
     <use xlink:href="#DejaVuSansMono-Bold-5d" transform="translate(1324.511719 0)"/>
     <use xlink:href="#DejaVuSansMono-Bold-20" transform="translate(1384.716797 0)"/>
     <use xlink:href="#DejaVuSansMono-Bold-2d" transform="translate(1444.921875 0)"/>
     <use xlink:href="#DejaVuSansMono-Bold-20" transform="translate(1505.126953 0)"/>
     <use xlink:href="#DejaVuSansMono-Bold-70" transform="translate(1565.332031 0)"/>
     <use xlink:href="#DejaVuSansMono-Bold-72" transform="translate(1625.537109 0)"/>
     <use xlink:href="#DejaVuSansMono-Bold-65" transform="translate(1685.742188 0)"/>
     <use xlink:href="#DejaVuSansMono-Bold-66" transform="translate(1745.947266 0)"/>
     <use xlink:href="#DejaVuSansMono-Bold-69" transform="translate(1806.152344 0)"/>
     <use xlink:href="#DejaVuSansMono-Bold-78" transform="translate(1866.357422 0)"/>
     <use xlink:href="#DejaVuSansMono-Bold-5b" transform="translate(1926.5625 0)"/>
     <use xlink:href="#DejaVuSansMono-Bold-69" transform="translate(1986.767578 0)"/>
     <use xlink:href="#DejaVuSansMono-Bold-5d" transform="translate(2046.972656 0)"/>
    </g>
   </g>
   <g id="text_41">
    <!-- 前缀和：子数组 [i, j] 的和等于 prefix[j+1] - prefix[i] -->
    <g style="fill: #2c3e50" transform="translate(145.664062 15.65) scale(0.1 -0.1)">
     <defs>
      <path id="NotoSansCJKjp-Regular-524d" d="M 3866 3290 
L 3866 666 
L 4314 666 
L 4314 3290 
L 3866 3290 
z
M 5165 3482 
L 5165 90 
C 5165 -6 5133 -32 5030 -32 
C 4922 -38 4576 -38 4186 -26 
C 4256 -154 4333 -358 4358 -486 
C 4851 -493 5178 -480 5370 -403 
C 5568 -326 5638 -192 5638 83 
L 5638 3482 
L 5165 3482 
z
M 4627 5408 
C 4486 5094 4243 4672 4026 4365 
L 2106 4365 
L 2419 4480 
C 2298 4736 2022 5114 1779 5382 
L 1331 5222 
C 1562 4960 1798 4614 1920 4365 
L 339 4365 
L 339 3923 
L 6061 3923 
L 6061 4365 
L 4570 4365 
C 4755 4627 4960 4947 5139 5242 
L 4627 5408 
z
M 2618 1926 
L 2618 1280 
L 1197 1280 
L 1197 1926 
L 2618 1926 
z
M 2618 2304 
L 1197 2304 
L 1197 2938 
L 2618 2938 
L 2618 2304 
z
M 742 3347 
L 742 -480 
L 1197 -480 
L 1197 902 
L 2618 902 
L 2618 45 
C 2618 -38 2592 -64 2502 -64 
C 2419 -70 2125 -70 1798 -58 
C 1862 -179 1933 -365 1965 -486 
C 2394 -486 2682 -480 2854 -403 
C 3034 -333 3085 -205 3085 38 
L 3085 3347 
L 742 3347 
z
" transform="scale(0.015625)"/>
      <path id="NotoSansCJKjp-Regular-7f00" d="M 243 365 
L 352 -77 
C 870 122 1536 378 2176 627 
L 2099 1011 
C 1414 768 717 512 243 365 
z
M 358 2707 
C 448 2752 589 2784 1267 2874 
C 1024 2451 800 2118 698 1984 
C 525 1747 390 1581 262 1555 
C 320 1453 384 1254 403 1165 
C 518 1248 717 1318 2093 1690 
C 2074 1786 2061 1965 2067 2086 
L 1037 1837 
C 1453 2406 1856 3098 2189 3776 
L 1830 3981 
C 1734 3750 1619 3520 1504 3296 
L 806 3226 
C 1139 3789 1459 4493 1696 5171 
L 1286 5344 
C 1075 4576 666 3738 544 3520 
C 429 3302 320 3142 218 3123 
C 269 3008 339 2797 358 2707 
z
M 2240 3994 
C 2464 3872 2707 3718 2931 3552 
C 2675 3213 2362 2957 2035 2797 
C 2131 2714 2240 2560 2291 2458 
C 2650 2656 2982 2931 3251 3296 
C 3418 3155 3565 3014 3661 2893 
L 3968 3181 
C 3846 3322 3674 3482 3475 3635 
C 3693 4006 3859 4448 3962 4960 
L 3699 5043 
L 3622 5030 
L 2214 5030 
L 2214 4634 
L 3462 4634 
C 3386 4358 3277 4102 3142 3878 
C 2938 4019 2720 4147 2515 4256 
L 2240 3994 
z
M 4064 3994 
C 4314 3846 4576 3674 4826 3488 
C 4563 3187 4250 2950 3930 2803 
C 4019 2726 4134 2573 4186 2470 
C 4538 2650 4864 2906 5146 3238 
C 5376 3053 5568 2867 5702 2707 
L 6010 3014 
C 5862 3181 5645 3373 5395 3565 
C 5645 3949 5843 4416 5958 4960 
L 5696 5043 
L 5619 5030 
L 4179 5030 
L 4179 4634 
L 5459 4634 
C 5363 4333 5229 4051 5069 3808 
C 4832 3974 4589 4134 4358 4262 
L 4064 3994 
z
M 2150 1171 
C 2381 1037 2624 870 2854 698 
C 2541 301 2144 13 1709 -154 
C 1798 -237 1907 -403 1958 -506 
C 2426 -301 2842 6 3181 435 
C 3366 282 3520 128 3629 -6 
L 3936 288 
C 3814 435 3629 602 3418 768 
C 3661 1158 3846 1626 3962 2176 
L 3693 2266 
L 3616 2246 
L 2157 2246 
L 2157 1843 
L 3450 1843 
C 3360 1536 3238 1261 3085 1018 
C 2874 1171 2650 1312 2438 1434 
L 2150 1171 
z
M 5510 1843 
C 5382 1466 5210 1139 4992 851 
C 4787 1146 4627 1485 4512 1843 
L 5510 1843 
z
M 4077 2246 
L 4077 1843 
L 4147 1843 
L 4122 1837 
C 4262 1357 4454 909 4710 538 
C 4397 218 4019 -19 3622 -166 
C 3706 -250 3814 -416 3866 -525 
C 4269 -358 4646 -115 4973 198 
C 5235 -109 5542 -352 5901 -518 
C 5965 -403 6099 -243 6195 -154 
C 5837 -6 5523 224 5261 512 
C 5606 947 5875 1498 6029 2170 
L 5766 2266 
L 5683 2246 
L 4077 2246 
z
" transform="scale(0.015625)"/>
      <path id="NotoSansCJKjp-Regular-548c" d="M 3398 4781 
L 3398 -224 
L 3866 -224 
L 3866 301 
L 5293 301 
L 5293 -179 
L 5779 -179 
L 5779 4781 
L 3398 4781 
z
M 3866 762 
L 3866 4320 
L 5293 4320 
L 5293 762 
L 3866 762 
z
M 2810 5318 
C 2246 5088 1235 4896 384 4781 
C 435 4672 499 4506 518 4397 
C 858 4435 1222 4486 1581 4550 
L 1581 3482 
L 320 3482 
L 320 3034 
L 1459 3034 
C 1165 2227 653 1350 166 858 
C 250 736 371 550 429 410 
C 845 851 1267 1587 1581 2342 
L 1581 -499 
L 2054 -499 
L 2054 2323 
C 2330 1958 2688 1472 2835 1229 
L 3130 1626 
C 2976 1824 2291 2630 2054 2874 
L 2054 3034 
L 3174 3034 
L 3174 3482 
L 2054 3482 
L 2054 4646 
C 2458 4730 2829 4826 3130 4941 
L 2810 5318 
z
" transform="scale(0.015625)"/>
      <path id="NotoSansCJKjp-Regular-ff1a" d="M 3200 3482 
C 3456 3482 3686 3667 3686 3962 
C 3686 4256 3456 4442 3200 4442 
C 2944 4442 2714 4256 2714 3962 
C 2714 3667 2944 3482 3200 3482 
z
M 3200 346 
C 3456 346 3686 538 3686 826 
C 3686 1120 3456 1312 3200 1312 
C 2944 1312 2714 1120 2714 826 
C 2714 538 2944 346 3200 346 
z
" transform="scale(0.015625)"/>
      <path id="NotoSansCJKjp-Regular-6a" d="M 224 -1549 
C 915 -1549 1178 -1107 1178 -397 
L 1178 3475 
L 595 3475 
L 595 -397 
C 595 -819 512 -1082 166 -1082 
C 45 -1082 -77 -1050 -166 -1018 
L -282 -1459 
C -160 -1510 19 -1549 224 -1549 
z
M 883 4192 
C 1107 4192 1274 4346 1274 4582 
C 1274 4806 1107 4960 883 4960 
C 653 4960 493 4806 493 4582 
C 493 4346 653 4192 883 4192 
z
" transform="scale(0.015625)"/>
      <path id="NotoSansCJKjp-Regular-7684" d="M 3533 2707 
C 3885 2240 4320 1600 4512 1210 
L 4922 1466 
C 4710 1843 4269 2464 3904 2918 
L 3533 2707 
z
M 1536 5389 
C 1485 5082 1376 4659 1274 4346 
L 557 4346 
L 557 -346 
L 998 -346 
L 998 160 
L 2784 160 
L 2784 4346 
L 1715 4346 
C 1824 4621 1946 4979 2054 5299 
L 1536 5389 
z
M 998 3917 
L 2342 3917 
L 2342 2566 
L 998 2566 
L 998 3917 
z
M 998 595 
L 998 2144 
L 2342 2144 
L 2342 595 
L 998 595 
z
M 3827 5402 
C 3622 4518 3277 3635 2835 3066 
C 2950 3002 3149 2867 3238 2790 
C 3456 3098 3661 3488 3840 3923 
L 5478 3923 
C 5402 1357 5299 371 5094 154 
C 5018 64 4947 45 4819 45 
C 4672 45 4288 51 3866 83 
C 3955 -38 4013 -243 4026 -378 
C 4384 -397 4762 -410 4979 -390 
C 5210 -365 5350 -314 5498 -122 
C 5754 192 5843 1184 5939 4122 
C 5946 4186 5946 4365 5946 4365 
L 4013 4365 
C 4115 4666 4211 4986 4288 5299 
L 3827 5402 
z
" transform="scale(0.015625)"/>
      <path id="NotoSansCJKjp-Regular-7b49" d="M 3699 5408 
C 3514 4864 3168 4352 2771 4019 
L 2944 3910 
L 2944 3469 
L 941 3469 
L 941 3066 
L 2944 3066 
L 2944 2490 
L 307 2490 
L 307 2067 
L 4256 2067 
L 4256 1504 
L 512 1504 
L 512 1082 
L 4256 1082 
L 4256 64 
C 4256 -26 4224 -51 4109 -58 
C 3994 -64 3616 -64 3181 -51 
C 3251 -179 3334 -371 3360 -506 
C 3885 -506 4243 -499 4461 -435 
C 4678 -358 4742 -224 4742 58 
L 4742 1082 
L 5946 1082 
L 5946 1504 
L 4742 1504 
L 4742 2067 
L 6118 2067 
L 6118 2490 
L 3437 2490 
L 3437 3066 
L 5510 3066 
L 5510 3469 
L 3437 3469 
L 3437 3910 
L 3334 3910 
C 3475 4064 3610 4237 3731 4429 
L 4166 4429 
C 4358 4179 4544 3878 4621 3667 
L 5037 3846 
C 4966 4013 4832 4224 4685 4429 
L 6048 4429 
L 6048 4838 
L 3962 4838 
C 4038 4986 4102 5139 4160 5299 
L 3699 5408 
z
M 1427 806 
C 1843 531 2304 122 2515 -179 
L 2886 122 
C 2669 422 2195 819 1779 1082 
L 1427 806 
z
M 1190 5408 
C 973 4838 614 4282 211 3904 
C 326 3846 525 3712 614 3635 
C 826 3846 1030 4122 1222 4429 
L 1478 4429 
C 1600 4179 1715 3891 1754 3699 
L 2182 3859 
C 2144 4006 2054 4224 1958 4429 
L 3123 4429 
L 3123 4838 
L 1446 4838 
C 1517 4986 1587 5133 1645 5286 
L 1190 5408 
z
" transform="scale(0.015625)"/>
      <path id="NotoSansCJKjp-Regular-4e8e" d="M 794 4922 
L 794 4442 
L 3008 4442 
L 3008 2822 
L 352 2822 
L 352 2342 
L 3008 2342 
L 3008 192 
C 3008 58 2957 19 2816 19 
C 2675 13 2182 6 1658 26 
C 1734 -115 1824 -339 1856 -480 
C 2515 -480 2938 -474 3174 -390 
C 3418 -314 3514 -160 3514 192 
L 3514 2342 
L 6054 2342 
L 6054 2822 
L 3514 2822 
L 3514 4442 
L 5606 4442 
L 5606 4922 
L 794 4922 
z
" transform="scale(0.015625)"/>
      <path id="NotoSansCJKjp-Regular-72" d="M 589 0 
L 1178 0 
L 1178 2234 
C 1408 2822 1760 3040 2048 3040 
C 2195 3040 2272 3021 2387 2982 
L 2496 3488 
C 2387 3546 2278 3565 2125 3565 
C 1741 3565 1382 3283 1139 2842 
L 1126 2842 
L 1069 3475 
L 589 3475 
L 589 0 
z
" transform="scale(0.015625)"/>
      <path id="NotoSansCJKjp-Regular-65" d="M 1997 -83 
C 2464 -83 2835 70 3136 269 
L 2931 659 
C 2669 486 2400 384 2061 384 
C 1402 384 947 858 909 1600 
L 3251 1600 
C 3264 1690 3277 1805 3277 1933 
C 3277 2925 2778 3565 1888 3565 
C 1094 3565 333 2867 333 1734 
C 333 589 1069 -83 1997 -83 
z
M 902 2016 
C 973 2707 1408 3098 1901 3098 
C 2445 3098 2765 2720 2765 2016 
L 902 2016 
z
" transform="scale(0.015625)"/>
      <path id="NotoSansCJKjp-Regular-66" d="M 211 3002 
L 685 3002 
L 685 0 
L 1267 0 
L 1267 3002 
L 2003 3002 
L 2003 3475 
L 1267 3475 
L 1267 4026 
C 1267 4474 1427 4710 1760 4710 
C 1882 4710 2022 4678 2150 4614 
L 2278 5069 
C 2118 5133 1914 5178 1696 5178 
C 1005 5178 685 4736 685 4032 
L 685 3475 
L 211 3443 
L 211 3002 
z
" transform="scale(0.015625)"/>
      <path id="NotoSansCJKjp-Regular-78" d="M 96 0 
L 710 0 
L 1178 813 
C 1299 1024 1408 1235 1530 1434 
L 1562 1434 
C 1696 1235 1824 1024 1939 813 
L 2451 0 
L 3091 0 
L 1946 1754 
L 3002 3475 
L 2394 3475 
L 1965 2714 
C 1856 2515 1760 2330 1658 2131 
L 1626 2131 
C 1510 2330 1389 2515 1286 2714 
L 819 3475 
L 186 3475 
L 1242 1811 
L 96 0 
z
" transform="scale(0.015625)"/>
      <path id="NotoSansCJKjp-Regular-2b" d="M 1542 742 
L 2010 742 
L 2010 2144 
L 3315 2144 
L 3315 2579 
L 2010 2579 
L 2010 3981 
L 1542 3981 
L 1542 2579 
L 243 2579 
L 243 2144 
L 1542 2144 
L 1542 742 
z
" transform="scale(0.015625)"/>
     </defs>
     <use xlink:href="#NotoSansCJKjp-Regular-524d"/>
     <use xlink:href="#NotoSansCJKjp-Regular-7f00" transform="translate(99.999985 0)"/>
     <use xlink:href="#NotoSansCJKjp-Regular-548c" transform="translate(199.999969 0)"/>
     <use xlink:href="#NotoSansCJKjp-Regular-ff1a" transform="translate(299.999954 0)"/>
     <use xlink:href="#NotoSansCJKjp-Regular-5b50" transform="translate(399.999939 0)"/>
     <use xlink:href="#NotoSansCJKjp-Regular-6570" transform="translate(499.999924 0)"/>
     <use xlink:href="#NotoSansCJKjp-Regular-7ec4" transform="translate(599.999908 0)"/>
     <use xlink:href="#NotoSansCJKjp-Regular-20" transform="translate(699.999893 0)"/>
     <use xlink:href="#NotoSansCJKjp-Regular-5b" transform="translate(722.399887 0)"/>
     <use xlink:href="#NotoSansCJKjp-Regular-69" transform="translate(756.199875 0)"/>
     <use xlink:href="#NotoSansCJKjp-Regular-2c" transform="translate(783.69986 0)"/>
     <use xlink:href="#NotoSansCJKjp-Regular-20" transform="translate(811.499847 0)"/>
     <use xlink:href="#NotoSansCJKjp-Regular-6a" transform="translate(833.899841 0)"/>
     <use xlink:href="#NotoSansCJKjp-Regular-5d" transform="translate(861.399826 0)"/>
     <use xlink:href="#NotoSansCJKjp-Regular-20" transform="translate(895.199814 0)"/>
     <use xlink:href="#NotoSansCJKjp-Regular-7684" transform="translate(917.599808 0)"/>
     <use xlink:href="#NotoSansCJKjp-Regular-548c" transform="translate(1017.599792 0)"/>
     <use xlink:href="#NotoSansCJKjp-Regular-7b49" transform="translate(1117.599777 0)"/>
     <use xlink:href="#NotoSansCJKjp-Regular-4e8e" transform="translate(1217.599762 0)"/>
     <use xlink:href="#NotoSansCJKjp-Regular-20" transform="translate(1317.599747 0)"/>
     <use xlink:href="#NotoSansCJKjp-Regular-70" transform="translate(1339.999741 0)"/>
     <use xlink:href="#NotoSansCJKjp-Regular-72" transform="translate(1401.999725 0)"/>
     <use xlink:href="#NotoSansCJKjp-Regular-65" transform="translate(1440.799713 0)"/>
     <use xlink:href="#NotoSansCJKjp-Regular-66" transform="translate(1496.199707 0)"/>
     <use xlink:href="#NotoSansCJKjp-Regular-69" transform="translate(1528.699692 0)"/>
     <use xlink:href="#NotoSansCJKjp-Regular-78" transform="translate(1556.199677 0)"/>
     <use xlink:href="#NotoSansCJKjp-Regular-5b" transform="translate(1605.999664 0)"/>
     <use xlink:href="#NotoSansCJKjp-Regular-6a" transform="translate(1639.799652 0)"/>
     <use xlink:href="#NotoSansCJKjp-Regular-2b" transform="translate(1667.299637 0)"/>
     <use xlink:href="#NotoSansCJKjp-Regular-31" transform="translate(1722.799622 0)"/>
     <use xlink:href="#NotoSansCJKjp-Regular-5d" transform="translate(1778.299606 0)"/>
     <use xlink:href="#NotoSansCJKjp-Regular-20" transform="translate(1812.099594 0)"/>
     <use xlink:href="#NotoSansCJKjp-Regular-2d" transform="translate(1834.499588 0)"/>
     <use xlink:href="#NotoSansCJKjp-Regular-20" transform="translate(1869.199585 0)"/>
     <use xlink:href="#NotoSansCJKjp-Regular-70" transform="translate(1891.599579 0)"/>
     <use xlink:href="#NotoSansCJKjp-Regular-72" transform="translate(1953.599564 0)"/>
     <use xlink:href="#NotoSansCJKjp-Regular-65" transform="translate(1992.399551 0)"/>
     <use xlink:href="#NotoSansCJKjp-Regular-66" transform="translate(2047.799545 0)"/>
     <use xlink:href="#NotoSansCJKjp-Regular-69" transform="translate(2080.29953 0)"/>
     <use xlink:href="#NotoSansCJKjp-Regular-78" transform="translate(2107.799515 0)"/>
     <use xlink:href="#NotoSansCJKjp-Regular-5b" transform="translate(2157.599503 0)"/>
     <use xlink:href="#NotoSansCJKjp-Regular-69" transform="translate(2191.39949 0)"/>
     <use xlink:href="#NotoSansCJKjp-Regular-5d" transform="translate(2218.899475 0)"/>
    </g>
   </g>
  </g>
 </g>
 <defs>
  <clipPath id="pc12cb5e346">
   <rect x="7.2" y="30.65" width="502.2" height="249.48"/>
  </clipPath>
 </defs>
</svg>
