<?xml version="1.0" encoding="utf-8" standalone="no"?>
<!DOCTYPE svg PUBLIC "-//W3C//DTD SVG 1.1//EN"
  "http://www.w3.org/Graphics/SVG/1.1/DTD/svg11.dtd">
<svg xmlns:xlink="http://www.w3.org/1999/xlink" width="460.8pt" height="286.839375pt" viewBox="0 0 460.8 286.839375" xmlns="http://www.w3.org/2000/svg" version="1.1">
 <metadata>
  <rdf:RDF xmlns:dc="http://purl.org/dc/elements/1.1/" xmlns:cc="http://creativecommons.org/ns#" xmlns:rdf="http://www.w3.org/1999/02/22-rdf-syntax-ns#">
   <cc:Work>
    <dc:type rdf:resource="http://purl.org/dc/dcmitype/StillImage"/>
    <dc:date>2026-07-06T14:51:19.423860</dc:date>
    <dc:format>image/svg+xml</dc:format>
    <dc:creator>
     <cc:Agent>
      <dc:title>Matplotlib v3.10.9, https://matplotlib.org/</dc:title>
     </cc:Agent>
    </dc:creator>
   </cc:Work>
  </rdf:RDF>
 </metadata>
 <defs>
  <style type="text/css">*{stroke-linejoin: round; stroke-linecap: butt}</style>
 </defs>
 <g id="figure_1">
  <g id="patch_1">
   <path d="M 0 286.839375 
L 460.8 286.839375 
L 460.8 0 
L 0 0 
z
" style="fill: #ffffff"/>
  </g>
  <g id="axes_1">
   <g id="patch_2">
    <path d="M 29.52 168.759375 
L 74.16 168.759375 
L 74.16 129.951375 
L 29.52 129.951375 
z
" clip-path="url(#p5ec9a1acd4)" style="fill: #eaf2f8; stroke: #2980b9; stroke-width: 2; stroke-linejoin: miter"/>
   </g>
   <g id="patch_3">
    <path d="M 74.16 168.759375 
L 118.8 168.759375 
L 118.8 129.951375 
L 74.16 129.951375 
z
" clip-path="url(#p5ec9a1acd4)" style="fill: #eaf2f8; stroke: #2980b9; stroke-width: 2; stroke-linejoin: miter"/>
   </g>
   <g id="patch_4">
    <path d="M 118.8 168.759375 
L 163.44 168.759375 
L 163.44 129.951375 
L 118.8 129.951375 
z
" clip-path="url(#p5ec9a1acd4)" style="fill: #eaf2f8; stroke: #2980b9; stroke-width: 2; stroke-linejoin: miter"/>
   </g>
   <g id="patch_5">
    <path d="M 163.44 168.759375 
L 208.08 168.759375 
L 208.08 129.951375 
L 163.44 129.951375 
z
" clip-path="url(#p5ec9a1acd4)" style="fill: #eaf2f8; stroke: #2980b9; stroke-width: 2; stroke-linejoin: miter"/>
   </g>
   <g id="patch_6">
    <path d="M 208.08 168.759375 
L 252.72 168.759375 
L 252.72 129.951375 
L 208.08 129.951375 
z
" clip-path="url(#p5ec9a1acd4)" style="fill: #fdebd0; stroke: #2980b9; stroke-width: 2; stroke-linejoin: miter"/>
   </g>
   <g id="patch_7">
    <path d="M 252.72 168.759375 
L 297.36 168.759375 
L 297.36 129.951375 
L 252.72 129.951375 
z
" clip-path="url(#p5ec9a1acd4)" style="fill: #fdebd0; stroke: #2980b9; stroke-width: 2; stroke-linejoin: miter"/>
   </g>
   <g id="patch_8">
    <path d="M 297.36 168.759375 
L 342 168.759375 
L 342 129.951375 
L 297.36 129.951375 
z
" clip-path="url(#p5ec9a1acd4)" style="fill: #eaf2f8; stroke: #2980b9; stroke-width: 2; stroke-linejoin: miter"/>
   </g>
   <g id="patch_9">
    <path d="M 342 168.759375 
L 386.64 168.759375 
L 386.64 129.951375 
L 342 129.951375 
z
" clip-path="url(#p5ec9a1acd4)" style="fill: #eaf2f8; stroke: #2980b9; stroke-width: 2; stroke-linejoin: miter"/>
   </g>
   <g id="patch_10">
    <path d="M 386.64 168.759375 
L 431.28 168.759375 
L 431.28 129.951375 
L 386.64 129.951375 
z
" clip-path="url(#p5ec9a1acd4)" style="fill: #eaf2f8; stroke: #2980b9; stroke-width: 2; stroke-linejoin: miter"/>
   </g>
   <g id="patch_11">
    <path d="M 96.48 260.235375 
L 364.32 260.235375 
Q 372.69 260.235375 372.69 251.919375 
L 372.69 229.743375 
Q 372.69 221.427375 364.32 221.427375 
L 96.48 221.427375 
Q 88.11 221.427375 88.11 229.743375 
L 88.11 251.919375 
Q 88.11 260.235375 96.48 260.235375 
z
" clip-path="url(#p5ec9a1acd4)" style="fill: #fef9e7; stroke: #f39c12; stroke-width: 2; stroke-linejoin: miter"/>
   </g>
   <g id="line2d_1">
    <path d="M 252.72 179.847375 
L 252.72 118.863375 
" clip-path="url(#p5ec9a1acd4)" style="fill: none; stroke-dasharray: 7.4,3.2; stroke-dashoffset: 0; stroke: #e67e22; stroke-width: 2"/>
   </g>
   <g id="text_1">
    <!-- -2 -->
    <g style="fill: #2c3e50" transform="translate(47.329844 152.18975) scale(0.1 -0.1)">
     <defs>
      <path id="NotoSansCJKjp-Regular-2d" d="M 294 1568 
L 1933 1568 
L 1933 2016 
L 294 2016 
L 294 1568 
z
" transform="scale(0.015625)"/>
      <path id="NotoSansCJKjp-Regular-32" d="M 282 0 
L 3232 0 
L 3232 506 
L 1933 506 
C 1696 506 1408 480 1165 461 
C 2266 1504 3008 2458 3008 3398 
C 3008 4230 2477 4774 1638 4774 
C 1043 4774 634 4506 256 4090 
L 595 3757 
C 858 4070 1184 4301 1568 4301 
C 2150 4301 2432 3910 2432 3373 
C 2432 2566 1754 1632 282 346 
L 282 0 
z
" transform="scale(0.015625)"/>
     </defs>
     <use xlink:href="#NotoSansCJKjp-Regular-2d"/>
     <use xlink:href="#NotoSansCJKjp-Regular-32" transform="translate(34.699997 0)"/>
    </g>
   </g>
   <g id="text_2">
    <!-- 1 -->
    <g style="fill: #2c3e50" transform="translate(93.705 152.18975) scale(0.1 -0.1)">
     <defs>
      <path id="NotoSansCJKjp-Regular-31" d="M 563 0 
L 3136 0 
L 3136 486 
L 2195 486 
L 2195 4691 
L 1747 4691 
C 1491 4544 1190 4435 774 4358 
L 774 3987 
L 1613 3987 
L 1613 486 
L 563 486 
L 563 0 
z
" transform="scale(0.015625)"/>
     </defs>
     <use xlink:href="#NotoSansCJKjp-Regular-31"/>
    </g>
   </g>
   <g id="text_3">
    <!-- -3 -->
    <g style="fill: #2c3e50" transform="translate(136.609844 152.18975) scale(0.1 -0.1)">
     <defs>
      <path id="NotoSansCJKjp-Regular-33" d="M 1683 -83 
C 2522 -83 3194 416 3194 1254 
C 3194 1901 2752 2310 2202 2445 
L 2202 2477 
C 2701 2650 3034 3034 3034 3603 
C 3034 4346 2458 4774 1664 4774 
C 1126 4774 710 4538 358 4218 
L 672 3846 
C 941 4115 1267 4301 1645 4301 
C 2138 4301 2438 4006 2438 3558 
C 2438 3053 2112 2662 1139 2662 
L 1139 2214 
C 2227 2214 2598 1843 2598 1274 
C 2598 736 2208 403 1645 403 
C 1114 403 762 659 486 941 
L 186 563 
C 493 224 954 -83 1683 -83 
z
" transform="scale(0.015625)"/>
     </defs>
     <use xlink:href="#NotoSansCJKjp-Regular-2d"/>
     <use xlink:href="#NotoSansCJKjp-Regular-33" transform="translate(34.699997 0)"/>
    </g>
   </g>
   <g id="text_4">
    <!-- 4 -->
    <g style="fill: #2c3e50" transform="translate(182.985 152.18975) scale(0.1 -0.1)">
     <defs>
      <path id="NotoSansCJKjp-Regular-34" d="M 2176 0 
L 2726 0 
L 2726 1293 
L 3354 1293 
L 3354 1760 
L 2726 1760 
L 2726 4691 
L 2080 4691 
L 128 1677 
L 128 1293 
L 2176 1293 
L 2176 0 
z
M 2176 1760 
L 736 1760 
L 1805 3360 
C 1939 3590 2067 3827 2182 4051 
L 2208 4051 
C 2195 3814 2176 3430 2176 3200 
L 2176 1760 
z
" transform="scale(0.015625)"/>
     </defs>
     <use xlink:href="#NotoSansCJKjp-Regular-34"/>
    </g>
   </g>
   <g id="text_5">
    <!-- -1 -->
    <g style="fill: #2c3e50" transform="translate(225.889844 152.18975) scale(0.1 -0.1)">
     <use xlink:href="#NotoSansCJKjp-Regular-2d"/>
     <use xlink:href="#NotoSansCJKjp-Regular-31" transform="translate(34.699997 0)"/>
    </g>
   </g>
   <g id="text_6">
    <!-- 2 -->
    <g style="fill: #2c3e50" transform="translate(272.265 152.18975) scale(0.1 -0.1)">
     <use xlink:href="#NotoSansCJKjp-Regular-32"/>
    </g>
   </g>
   <g id="text_7">
    <!-- 1 -->
    <g style="fill: #2c3e50" transform="translate(316.905 152.18975) scale(0.1 -0.1)">
     <use xlink:href="#NotoSansCJKjp-Regular-31"/>
    </g>
   </g>
   <g id="text_8">
    <!-- -5 -->
    <g style="fill: #2c3e50" transform="translate(359.809844 152.18975) scale(0.1 -0.1)">
     <defs>
      <path id="NotoSansCJKjp-Regular-35" d="M 1677 -83 
C 2464 -83 3213 499 3213 1523 
C 3213 2560 2573 3021 1798 3021 
C 1517 3021 1306 2950 1094 2835 
L 1216 4192 
L 2982 4192 
L 2982 4691 
L 704 4691 
L 550 2502 
L 864 2304 
C 1133 2483 1331 2579 1645 2579 
C 2234 2579 2618 2182 2618 1510 
C 2618 826 2176 403 1619 403 
C 1075 403 730 653 467 922 
L 173 538 
C 493 224 941 -83 1677 -83 
z
" transform="scale(0.015625)"/>
     </defs>
     <use xlink:href="#NotoSansCJKjp-Regular-2d"/>
     <use xlink:href="#NotoSansCJKjp-Regular-35" transform="translate(34.699997 0)"/>
    </g>
   </g>
   <g id="text_9">
    <!-- 4 -->
    <g style="fill: #2c3e50" transform="translate(406.185 152.18975) scale(0.1 -0.1)">
     <use xlink:href="#NotoSansCJKjp-Regular-34"/>
    </g>
   </g>
   <g id="text_10">
    <!-- mid -->
    <g style="fill: #e67e22" transform="translate(221.295312 105.48475) scale(0.1 -0.1)">
     <defs>
      <path id="NotoSansCJKjp-Regular-6d" d="M 589 0 
L 1178 0 
L 1178 2522 
C 1491 2880 1786 3053 2048 3053 
C 2490 3053 2694 2778 2694 2125 
L 2694 0 
L 3277 0 
L 3277 2522 
C 3603 2880 3885 3053 4154 3053 
C 4595 3053 4800 2778 4800 2125 
L 4800 0 
L 5382 0 
L 5382 2202 
C 5382 3085 5043 3565 4333 3565 
C 3904 3565 3546 3290 3181 2899 
C 3040 3309 2758 3565 2221 3565 
C 1805 3565 1446 3302 1139 2970 
L 1126 2970 
L 1069 3475 
L 589 3475 
L 589 0 
z
" transform="scale(0.015625)"/>
      <path id="NotoSansCJKjp-Regular-69" d="M 589 0 
L 1178 0 
L 1178 3475 
L 589 3475 
L 589 0 
z
M 883 4192 
C 1114 4192 1274 4346 1274 4582 
C 1274 4806 1114 4960 883 4960 
C 653 4960 499 4806 499 4582 
C 499 4346 653 4192 883 4192 
z
" transform="scale(0.015625)"/>
      <path id="NotoSansCJKjp-Regular-64" d="M 1773 -83 
C 2189 -83 2560 141 2829 410 
L 2848 410 
L 2899 0 
L 3379 0 
L 3379 5094 
L 2790 5094 
L 2790 3757 
L 2822 3162 
C 2515 3411 2253 3565 1843 3565 
C 1050 3565 339 2861 339 1734 
C 339 576 902 -83 1773 -83 
z
M 1901 410 
C 1293 410 941 902 941 1741 
C 941 2534 1389 3072 1946 3072 
C 2234 3072 2502 2970 2790 2707 
L 2790 883 
C 2502 563 2221 410 1901 410 
z
" transform="scale(0.015625)"/>
     </defs>
     <use xlink:href="#NotoSansCJKjp-Regular-6d"/>
     <use xlink:href="#NotoSansCJKjp-Regular-69" transform="translate(92.599991 0)"/>
     <use xlink:href="#NotoSansCJKjp-Regular-64" transform="translate(120.099976 0)"/>
    </g>
   </g>
   <g id="patch_12">
    <path d="M 118.8 100.684263 
Q 118.8 112.930813 118.8 122.941296 
" style="fill: none; stroke: #3498db; stroke-width: 2; stroke-linecap: round"/>
    <path d="M 121 118.541296 
L 118.8 122.941296 
L 116.6 118.541296 
" style="fill: none; stroke: #3498db; stroke-width: 2; stroke-linecap: round"/>
   </g>
   <g id="text_11">
    <!-- left_max -->
    <g style="fill: #3498db" transform="translate(96.326484 94.167688) scale(0.11 -0.11)">
     <defs>
      <path id="NotoSansCJKjp-Regular-6c" d="M 1203 -83 
C 1363 -83 1459 -58 1542 -32 
L 1459 416 
C 1395 403 1370 403 1338 403 
C 1248 403 1178 474 1178 653 
L 1178 5094 
L 589 5094 
L 589 691 
C 589 198 768 -83 1203 -83 
z
" transform="scale(0.015625)"/>
      <path id="NotoSansCJKjp-Regular-65" d="M 1997 -83 
C 2464 -83 2835 70 3136 269 
L 2931 659 
C 2669 486 2400 384 2061 384 
C 1402 384 947 858 909 1600 
L 3251 1600 
C 3264 1690 3277 1805 3277 1933 
C 3277 2925 2778 3565 1888 3565 
C 1094 3565 333 2867 333 1734 
C 333 589 1069 -83 1997 -83 
z
M 902 2016 
C 973 2707 1408 3098 1901 3098 
C 2445 3098 2765 2720 2765 2016 
L 902 2016 
z
" transform="scale(0.015625)"/>
      <path id="NotoSansCJKjp-Regular-66" d="M 211 3002 
L 685 3002 
L 685 0 
L 1267 0 
L 1267 3002 
L 2003 3002 
L 2003 3475 
L 1267 3475 
L 1267 4026 
C 1267 4474 1427 4710 1760 4710 
C 1882 4710 2022 4678 2150 4614 
L 2278 5069 
C 2118 5133 1914 5178 1696 5178 
C 1005 5178 685 4736 685 4032 
L 685 3475 
L 211 3443 
L 211 3002 
z
" transform="scale(0.015625)"/>
      <path id="NotoSansCJKjp-Regular-74" d="M 1677 -83 
C 1894 -83 2125 -19 2323 45 
L 2208 486 
C 2093 435 1939 390 1811 390 
C 1408 390 1274 634 1274 1056 
L 1274 3002 
L 2221 3002 
L 2221 3475 
L 1274 3475 
L 1274 4454 
L 787 4454 
L 723 3475 
L 173 3443 
L 173 3002 
L 691 3002 
L 691 1075 
C 691 378 941 -83 1677 -83 
z
" transform="scale(0.015625)"/>
      <path id="NotoSansCJKjp-Regular-5f" d="M 83 -896 
L 3488 -896 
L 3488 -512 
L 83 -512 
L 83 -896 
z
" transform="scale(0.015625)"/>
      <path id="NotoSansCJKjp-Regular-61" d="M 1389 -83 
C 1818 -83 2208 141 2541 416 
L 2560 416 
L 2611 0 
L 3091 0 
L 3091 2138 
C 3091 3002 2739 3565 1888 3565 
C 1325 3565 838 3315 525 3110 
L 749 2707 
C 1024 2893 1389 3078 1792 3078 
C 2362 3078 2509 2650 2509 2202 
C 1030 2035 378 1658 378 902 
C 378 275 806 -83 1389 -83 
z
M 1555 390 
C 1210 390 941 544 941 941 
C 941 1389 1338 1677 2509 1811 
L 2509 845 
C 2170 544 1888 390 1555 390 
z
" transform="scale(0.015625)"/>
      <path id="NotoSansCJKjp-Regular-78" d="M 96 0 
L 710 0 
L 1178 813 
C 1299 1024 1408 1235 1530 1434 
L 1562 1434 
C 1696 1235 1824 1024 1939 813 
L 2451 0 
L 3091 0 
L 1946 1754 
L 3002 3475 
L 2394 3475 
L 1965 2714 
C 1856 2515 1760 2330 1658 2131 
L 1626 2131 
C 1510 2330 1389 2515 1286 2714 
L 819 3475 
L 186 3475 
L 1242 1811 
L 96 0 
z
" transform="scale(0.015625)"/>
     </defs>
     <use xlink:href="#NotoSansCJKjp-Regular-6c"/>
     <use xlink:href="#NotoSansCJKjp-Regular-65" transform="translate(28.399994 0)"/>
     <use xlink:href="#NotoSansCJKjp-Regular-66" transform="translate(83.799988 0)"/>
     <use xlink:href="#NotoSansCJKjp-Regular-74" transform="translate(116.299973 0)"/>
     <use xlink:href="#NotoSansCJKjp-Regular-5f" transform="translate(153.999969 0)"/>
     <use xlink:href="#NotoSansCJKjp-Regular-6d" transform="translate(209.899963 0)"/>
     <use xlink:href="#NotoSansCJKjp-Regular-61" transform="translate(302.499954 0)"/>
     <use xlink:href="#NotoSansCJKjp-Regular-78" transform="translate(358.799942 0)"/>
    </g>
   </g>
   <g id="patch_13">
    <path d="M 342 100.690319 
Q 342 112.93407 342 122.941754 
" style="fill: none; stroke: #3498db; stroke-width: 2; stroke-linecap: round"/>
    <path d="M 344.2 118.541754 
L 342 122.941754 
L 339.8 118.541754 
" style="fill: none; stroke: #3498db; stroke-width: 2; stroke-linecap: round"/>
   </g>
   <g id="text_12">
    <!-- right_max -->
    <g style="fill: #3498db" transform="translate(315.836328 93.937375) scale(0.11 -0.11)">
     <defs>
      <path id="NotoSansCJKjp-Regular-72" d="M 589 0 
L 1178 0 
L 1178 2234 
C 1408 2822 1760 3040 2048 3040 
C 2195 3040 2272 3021 2387 2982 
L 2496 3488 
C 2387 3546 2278 3565 2125 3565 
C 1741 3565 1382 3283 1139 2842 
L 1126 2842 
L 1069 3475 
L 589 3475 
L 589 0 
z
" transform="scale(0.015625)"/>
      <path id="NotoSansCJKjp-Regular-67" d="M 1760 -1600 
C 2835 -1600 3520 -1043 3520 -397 
C 3520 179 3110 429 2310 429 
L 1626 429 
C 1158 429 1018 589 1018 806 
C 1018 998 1114 1114 1242 1222 
C 1395 1146 1587 1101 1754 1101 
C 2470 1101 3027 1568 3027 2310 
C 3027 2611 2912 2867 2746 3027 
L 3456 3027 
L 3456 3475 
L 2246 3475 
C 2125 3526 1952 3565 1754 3565 
C 1056 3565 454 3085 454 2323 
C 454 1907 678 1568 909 1389 
L 909 1363 
C 723 1235 525 1005 525 717 
C 525 442 659 256 838 147 
L 838 115 
C 512 -83 326 -371 326 -672 
C 326 -1267 915 -1600 1760 -1600 
z
M 1754 1498 
C 1357 1498 1018 1818 1018 2323 
C 1018 2835 1350 3136 1754 3136 
C 2170 3136 2496 2835 2496 2323 
C 2496 1818 2157 1498 1754 1498 
z
M 1843 -1197 
C 1210 -1197 838 -960 838 -589 
C 838 -390 941 -179 1190 0 
C 1344 -38 1510 -51 1638 -51 
L 2240 -51 
C 2701 -51 2944 -166 2944 -493 
C 2944 -851 2515 -1197 1843 -1197 
z
" transform="scale(0.015625)"/>
      <path id="NotoSansCJKjp-Regular-68" d="M 589 0 
L 1178 0 
L 1178 2522 
C 1523 2874 1766 3053 2125 3053 
C 2586 3053 2784 2778 2784 2125 
L 2784 0 
L 3366 0 
L 3366 2202 
C 3366 3085 3034 3565 2304 3565 
C 1830 3565 1472 3302 1152 2982 
L 1178 3699 
L 1178 5094 
L 589 5094 
L 589 0 
z
" transform="scale(0.015625)"/>
     </defs>
     <use xlink:href="#NotoSansCJKjp-Regular-72"/>
     <use xlink:href="#NotoSansCJKjp-Regular-69" transform="translate(38.799988 0)"/>
     <use xlink:href="#NotoSansCJKjp-Regular-67" transform="translate(66.299973 0)"/>
     <use xlink:href="#NotoSansCJKjp-Regular-68" transform="translate(122.699966 0)"/>
     <use xlink:href="#NotoSansCJKjp-Regular-74" transform="translate(183.399963 0)"/>
     <use xlink:href="#NotoSansCJKjp-Regular-5f" transform="translate(221.09996 0)"/>
     <use xlink:href="#NotoSansCJKjp-Regular-6d" transform="translate(276.999954 0)"/>
     <use xlink:href="#NotoSansCJKjp-Regular-61" transform="translate(369.599945 0)"/>
     <use xlink:href="#NotoSansCJKjp-Regular-78" transform="translate(425.899933 0)"/>
    </g>
   </g>
   <g id="patch_14">
    <path d="M 230.4 78.51512 
Q 230.4 101.847765 230.4 122.944342 
" style="fill: none; stroke: #e74c3c; stroke-width: 2; stroke-linecap: round"/>
    <path d="M 232.6 118.544342 
L 230.4 122.944342 
L 228.2 118.544342 
" style="fill: none; stroke: #e74c3c; stroke-width: 2; stroke-linecap: round"/>
   </g>
   <g id="text_13">
    <!-- cross_max -->
    <g style="fill: #e74c3c" transform="translate(202.978203 71.991688) scale(0.11 -0.11)">
     <defs>
      <path id="NotoSansCJKjp-Regular-63" d="M 1958 -83 
C 2374 -83 2771 83 3085 352 
L 2829 749 
C 2611 557 2330 403 2010 403 
C 1370 403 934 934 934 1734 
C 934 2534 1395 3072 2029 3072 
C 2298 3072 2522 2950 2720 2771 
L 3014 3155 
C 2771 3373 2458 3565 2003 3565 
C 1107 3565 333 2893 333 1734 
C 333 582 1037 -83 1958 -83 
z
" transform="scale(0.015625)"/>
      <path id="NotoSansCJKjp-Regular-6f" d="M 1939 -83 
C 2790 -83 3546 582 3546 1734 
C 3546 2893 2790 3565 1939 3565 
C 1088 3565 333 2893 333 1734 
C 333 582 1088 -83 1939 -83 
z
M 1939 403 
C 1338 403 934 934 934 1734 
C 934 2534 1338 3072 1939 3072 
C 2541 3072 2950 2534 2950 1734 
C 2950 934 2541 403 1939 403 
z
" transform="scale(0.015625)"/>
      <path id="NotoSansCJKjp-Regular-73" d="M 1498 -83 
C 2317 -83 2758 384 2758 947 
C 2758 1606 2208 1811 1702 2003 
C 1312 2150 954 2278 954 2605 
C 954 2880 1158 3110 1600 3110 
C 1907 3110 2150 2976 2387 2803 
L 2669 3168 
C 2406 3386 2022 3565 1594 3565 
C 832 3565 397 3130 397 2579 
C 397 1984 922 1754 1408 1574 
C 1792 1434 2202 1267 2202 915 
C 2202 614 1978 371 1517 371 
C 1101 371 794 538 486 787 
L 205 397 
C 531 122 1005 -83 1498 -83 
z
" transform="scale(0.015625)"/>
     </defs>
     <use xlink:href="#NotoSansCJKjp-Regular-63"/>
     <use xlink:href="#NotoSansCJKjp-Regular-72" transform="translate(50.999985 0)"/>
     <use xlink:href="#NotoSansCJKjp-Regular-6f" transform="translate(89.799973 0)"/>
     <use xlink:href="#NotoSansCJKjp-Regular-73" transform="translate(150.399963 0)"/>
     <use xlink:href="#NotoSansCJKjp-Regular-73" transform="translate(197.199951 0)"/>
     <use xlink:href="#NotoSansCJKjp-Regular-5f" transform="translate(243.999939 0)"/>
     <use xlink:href="#NotoSansCJKjp-Regular-6d" transform="translate(299.899933 0)"/>
     <use xlink:href="#NotoSansCJKjp-Regular-61" transform="translate(392.499924 0)"/>
     <use xlink:href="#NotoSansCJKjp-Regular-78" transform="translate(448.799911 0)"/>
    </g>
   </g>
   <g id="text_14">
    <!-- max(left_max, right_max, cross_max) -->
    <g transform="translate(103.973437 244.2945) scale(0.12 -0.12)">
     <defs>
      <path id="DejaVuSansMono-Bold-6d" d="M 2156 3150 
Q 2259 3372 2418 3478 
Q 2578 3584 2809 3584 
Q 3263 3584 3436 3271 
Q 3609 2959 3609 1972 
L 3609 0 
L 2859 0 
L 2859 2247 
Q 2859 2638 2800 2769 
Q 2741 2900 2584 2900 
Q 2428 2900 2365 2765 
Q 2303 2631 2303 2247 
L 2303 0 
L 1563 0 
L 1563 2247 
Q 1563 2631 1500 2765 
Q 1438 2900 1281 2900 
Q 1125 2900 1065 2769 
Q 1006 2638 1006 2247 
L 1006 0 
L 256 0 
L 256 3500 
L 922 3500 
L 922 3138 
Q 1000 3344 1172 3464 
Q 1344 3584 1556 3584 
Q 1769 3584 1944 3457 
Q 2119 3331 2156 3150 
z
" transform="scale(0.015625)"/>
      <path id="DejaVuSansMono-Bold-61" d="M 2188 1644 
Q 1675 1644 1472 1512 
Q 1269 1381 1269 1063 
Q 1269 825 1409 684 
Q 1550 544 1791 544 
Q 2153 544 2353 817 
Q 2553 1091 2553 1581 
L 2553 1644 
L 2188 1644 
z
M 3463 1997 
L 3463 0 
L 2553 0 
L 2553 391 
Q 2388 159 2128 34 
Q 1869 -91 1556 -91 
Q 959 -91 626 225 
Q 294 541 294 1106 
Q 294 1719 691 2011 
Q 1088 2303 1919 2303 
L 2553 2303 
L 2553 2456 
Q 2553 2678 2392 2792 
Q 2231 2906 1919 2906 
Q 1591 2906 1283 2823 
Q 975 2741 641 2559 
L 641 3341 
Q 944 3466 1256 3525 
Q 1569 3584 1919 3584 
Q 2772 3584 3117 3237 
Q 3463 2891 3463 1997 
z
" transform="scale(0.015625)"/>
      <path id="DejaVuSansMono-Bold-78" d="M 3578 3500 
L 2400 1825 
L 3681 0 
L 2613 0 
L 1925 1178 
L 1241 0 
L 172 0 
L 1466 1825 
L 275 3500 
L 1344 3500 
L 1925 2456 
L 2509 3500 
L 3578 3500 
z
" transform="scale(0.015625)"/>
      <path id="DejaVuSansMono-Bold-28" d="M 2888 4856 
Q 2475 4109 2275 3409 
Q 2075 2709 2075 2009 
Q 2075 1316 2275 611 
Q 2475 -94 2888 -844 
L 2175 -844 
Q 1678 -122 1437 579 
Q 1197 1281 1197 2009 
Q 1197 2734 1439 3439 
Q 1681 4144 2175 4856 
L 2888 4856 
z
" transform="scale(0.015625)"/>
      <path id="DejaVuSansMono-Bold-6c" d="M 1209 1459 
L 1209 4159 
L 281 4159 
L 281 4863 
L 2125 4863 
L 2125 1459 
Q 2125 1047 2253 875 
Q 2381 703 2688 703 
L 3419 703 
L 3419 0 
L 2431 0 
Q 1778 0 1493 337 
Q 1209 675 1209 1459 
z
" transform="scale(0.015625)"/>
      <path id="DejaVuSansMono-Bold-65" d="M 3444 172 
Q 3125 41 2794 -25 
Q 2463 -91 2094 -91 
Q 1216 -91 752 379 
Q 288 850 288 1734 
Q 288 2591 734 3087 
Q 1181 3584 1953 3584 
Q 2731 3584 3161 3123 
Q 3591 2663 3591 1825 
L 3591 1453 
L 1219 1453 
Q 1222 1041 1462 837 
Q 1703 634 2181 634 
Q 2497 634 2803 725 
Q 3109 816 3444 1013 
L 3444 172 
z
M 2669 2141 
Q 2663 2503 2483 2689 
Q 2303 2875 1953 2875 
Q 1638 2875 1450 2683 
Q 1263 2491 1228 2138 
L 2669 2141 
z
" transform="scale(0.015625)"/>
      <path id="DejaVuSansMono-Bold-66" d="M 2309 3806 
L 2309 3500 
L 3384 3500 
L 3384 2797 
L 2309 2797 
L 2309 0 
L 1394 0 
L 1394 2797 
L 544 2797 
L 544 3500 
L 1394 3500 
L 1394 3744 
Q 1394 4375 1656 4619 
Q 1919 4863 2631 4863 
L 3384 4863 
L 3384 4159 
L 2669 4159 
Q 2463 4159 2389 4084 
Q 2316 4009 2309 3806 
z
" transform="scale(0.015625)"/>
      <path id="DejaVuSansMono-Bold-74" d="M 2156 4494 
L 2156 3500 
L 3353 3500 
L 3353 2797 
L 2156 2797 
L 2156 1141 
Q 2156 906 2270 804 
Q 2384 703 2650 703 
L 3353 703 
L 3353 0 
L 2584 0 
Q 1797 0 1519 251 
Q 1241 503 1241 1184 
L 1241 2797 
L 347 2797 
L 347 3500 
L 1241 3500 
L 1241 4494 
L 2156 4494 
z
" transform="scale(0.015625)"/>
      <path id="DejaVuSansMono-Bold-5f" d="M 3853 -916 
L 3853 -1509 
L 0 -1509 
L 0 -916 
L 3853 -916 
z
" transform="scale(0.015625)"/>
      <path id="DejaVuSansMono-Bold-2c" d="M 1441 1147 
L 2419 1147 
L 2419 300 
L 1806 -897 
L 1131 -897 
L 1441 300 
L 1441 1147 
z
" transform="scale(0.015625)"/>
      <path id="DejaVuSansMono-Bold-20" transform="scale(0.015625)"/>
      <path id="DejaVuSansMono-Bold-72" d="M 3597 2534 
Q 3447 2672 3245 2740 
Q 3044 2809 2803 2809 
Q 2513 2809 2295 2707 
Q 2078 2606 1959 2413 
Q 1884 2294 1854 2125 
Q 1825 1956 1825 1613 
L 1825 0 
L 909 0 
L 909 3500 
L 1825 3500 
L 1825 2956 
Q 1959 3256 2237 3420 
Q 2516 3584 2888 3584 
Q 3075 3584 3254 3539 
Q 3434 3494 3597 3406 
L 3597 2534 
z
" transform="scale(0.015625)"/>
      <path id="DejaVuSansMono-Bold-69" d="M 691 3500 
L 2503 3500 
L 2503 703 
L 3641 703 
L 3641 0 
L 447 0 
L 447 703 
L 1588 703 
L 1588 2797 
L 691 2797 
L 691 3500 
z
M 1588 5203 
L 2503 5203 
L 2503 4134 
L 1588 4134 
L 1588 5203 
z
" transform="scale(0.015625)"/>
      <path id="DejaVuSansMono-Bold-67" d="M 2509 1806 
Q 2509 2275 2331 2558 
Q 2153 2841 1863 2841 
Q 1575 2841 1398 2559 
Q 1222 2278 1222 1806 
Q 1222 1331 1398 1050 
Q 1575 769 1863 769 
Q 2153 769 2331 1051 
Q 2509 1334 2509 1806 
z
M 3425 263 
Q 3425 -578 3045 -951 
Q 2666 -1325 1813 -1325 
Q 1525 -1325 1244 -1283 
Q 963 -1241 672 -1153 
L 672 -313 
Q 931 -456 1200 -525 
Q 1469 -594 1753 -594 
Q 2141 -594 2325 -411 
Q 2509 -228 2509 159 
L 2509 538 
Q 2375 288 2153 166 
Q 1931 44 1613 44 
Q 1013 44 659 512 
Q 306 981 306 1784 
Q 306 2616 659 3103 
Q 1013 3591 1606 3591 
Q 1906 3591 2140 3450 
Q 2375 3309 2509 3053 
L 2509 3500 
L 3425 3500 
L 3425 263 
z
" transform="scale(0.015625)"/>
      <path id="DejaVuSansMono-Bold-68" d="M 3347 2272 
L 3347 0 
L 2438 0 
L 2438 2131 
Q 2438 2509 2330 2671 
Q 2222 2834 1978 2834 
Q 1728 2834 1587 2614 
Q 1447 2394 1447 2003 
L 1447 0 
L 538 0 
L 538 4863 
L 1447 4863 
L 1447 2975 
Q 1544 3266 1778 3425 
Q 2013 3584 2344 3584 
Q 2841 3584 3094 3254 
Q 3347 2925 3347 2272 
z
" transform="scale(0.015625)"/>
      <path id="DejaVuSansMono-Bold-63" d="M 3316 178 
Q 3084 44 2818 -23 
Q 2553 -91 2247 -91 
Q 1438 -91 981 396 
Q 525 884 525 1747 
Q 525 2613 984 3102 
Q 1444 3591 2253 3591 
Q 2534 3591 2795 3525 
Q 3056 3459 3316 3322 
L 3316 2484 
Q 3116 2656 2877 2748 
Q 2638 2841 2381 2841 
Q 1934 2841 1693 2556 
Q 1453 2272 1453 1747 
Q 1453 1222 1693 940 
Q 1934 659 2381 659 
Q 2647 659 2878 748 
Q 3109 838 3316 1019 
L 3316 178 
z
" transform="scale(0.015625)"/>
      <path id="DejaVuSansMono-Bold-6f" d="M 1925 2841 
Q 1597 2841 1409 2552 
Q 1222 2263 1222 1747 
Q 1222 1231 1409 942 
Q 1597 653 1925 653 
Q 2256 653 2443 942 
Q 2631 1231 2631 1747 
Q 2631 2263 2443 2552 
Q 2256 2841 1925 2841 
z
M 306 1747 
Q 306 2594 745 3089 
Q 1184 3584 1925 3584 
Q 2669 3584 3108 3089 
Q 3547 2594 3547 1747 
Q 3547 900 3108 404 
Q 2669 -91 1925 -91 
Q 1184 -91 745 404 
Q 306 900 306 1747 
z
" transform="scale(0.015625)"/>
      <path id="DejaVuSansMono-Bold-73" d="M 3097 3391 
L 3097 2591 
Q 2844 2753 2570 2836 
Q 2297 2919 2022 2919 
Q 1716 2919 1559 2830 
Q 1403 2741 1403 2566 
Q 1403 2316 2072 2159 
L 2106 2150 
L 2369 2088 
Q 2869 1969 3101 1705 
Q 3334 1441 3334 991 
Q 3334 450 2979 179 
Q 2625 -91 1913 -91 
Q 1597 -91 1265 -36 
Q 934 19 594 128 
L 594 928 
Q 897 756 1211 665 
Q 1525 575 1819 575 
Q 2141 575 2306 669 
Q 2472 763 2472 941 
Q 2472 1116 2355 1209 
Q 2238 1303 1797 1409 
L 1544 1466 
Q 1019 1584 778 1837 
Q 538 2091 538 2516 
Q 538 3022 903 3303 
Q 1269 3584 1931 3584 
Q 2228 3584 2523 3536 
Q 2819 3488 3097 3391 
z
" transform="scale(0.015625)"/>
      <path id="DejaVuSansMono-Bold-29" d="M 966 4856 
L 1678 4856 
Q 2172 4144 2414 3439 
Q 2656 2734 2656 2009 
Q 2656 1281 2415 579 
Q 2175 -122 1678 -844 
L 966 -844 
Q 1378 -94 1578 611 
Q 1778 1316 1778 2009 
Q 1778 2709 1578 3409 
Q 1378 4109 966 4856 
z
" transform="scale(0.015625)"/>
     </defs>
     <use xlink:href="#DejaVuSansMono-Bold-6d"/>
     <use xlink:href="#DejaVuSansMono-Bold-61" transform="translate(60.205078 0)"/>
     <use xlink:href="#DejaVuSansMono-Bold-78" transform="translate(120.410156 0)"/>
     <use xlink:href="#DejaVuSansMono-Bold-28" transform="translate(180.615234 0)"/>
     <use xlink:href="#DejaVuSansMono-Bold-6c" transform="translate(240.820312 0)"/>
     <use xlink:href="#DejaVuSansMono-Bold-65" transform="translate(301.025391 0)"/>
     <use xlink:href="#DejaVuSansMono-Bold-66" transform="translate(361.230469 0)"/>
     <use xlink:href="#DejaVuSansMono-Bold-74" transform="translate(421.435547 0)"/>
     <use xlink:href="#DejaVuSansMono-Bold-5f" transform="translate(481.640625 0)"/>
     <use xlink:href="#DejaVuSansMono-Bold-6d" transform="translate(541.845703 0)"/>
     <use xlink:href="#DejaVuSansMono-Bold-61" transform="translate(602.050781 0)"/>
     <use xlink:href="#DejaVuSansMono-Bold-78" transform="translate(662.255859 0)"/>
     <use xlink:href="#DejaVuSansMono-Bold-2c" transform="translate(722.460938 0)"/>
     <use xlink:href="#DejaVuSansMono-Bold-20" transform="translate(782.666016 0)"/>
     <use xlink:href="#DejaVuSansMono-Bold-72" transform="translate(842.871094 0)"/>
     <use xlink:href="#DejaVuSansMono-Bold-69" transform="translate(903.076172 0)"/>
     <use xlink:href="#DejaVuSansMono-Bold-67" transform="translate(963.28125 0)"/>
     <use xlink:href="#DejaVuSansMono-Bold-68" transform="translate(1023.486328 0)"/>
     <use xlink:href="#DejaVuSansMono-Bold-74" transform="translate(1083.691406 0)"/>
     <use xlink:href="#DejaVuSansMono-Bold-5f" transform="translate(1143.896484 0)"/>
     <use xlink:href="#DejaVuSansMono-Bold-6d" transform="translate(1204.101562 0)"/>
     <use xlink:href="#DejaVuSansMono-Bold-61" transform="translate(1264.306641 0)"/>
     <use xlink:href="#DejaVuSansMono-Bold-78" transform="translate(1324.511719 0)"/>
     <use xlink:href="#DejaVuSansMono-Bold-2c" transform="translate(1384.716797 0)"/>
     <use xlink:href="#DejaVuSansMono-Bold-20" transform="translate(1444.921875 0)"/>
     <use xlink:href="#DejaVuSansMono-Bold-63" transform="translate(1505.126953 0)"/>
     <use xlink:href="#DejaVuSansMono-Bold-72" transform="translate(1565.332031 0)"/>
     <use xlink:href="#DejaVuSansMono-Bold-6f" transform="translate(1625.537109 0)"/>
     <use xlink:href="#DejaVuSansMono-Bold-73" transform="translate(1685.742188 0)"/>
     <use xlink:href="#DejaVuSansMono-Bold-73" transform="translate(1745.947266 0)"/>
     <use xlink:href="#DejaVuSansMono-Bold-5f" transform="translate(1806.152344 0)"/>
     <use xlink:href="#DejaVuSansMono-Bold-6d" transform="translate(1866.357422 0)"/>
     <use xlink:href="#DejaVuSansMono-Bold-61" transform="translate(1926.5625 0)"/>
     <use xlink:href="#DejaVuSansMono-Bold-78" transform="translate(1986.767578 0)"/>
     <use xlink:href="#DejaVuSansMono-Bold-29" transform="translate(2046.972656 0)"/>
    </g>
   </g>
   <g id="text_15">
    <!-- 分治法：最大子数组和只可能来自三个位置 -->
    <g style="fill: #2c3e50" transform="translate(135.4 15.159375) scale(0.1 -0.1)">
     <defs>
      <path id="NotoSansCJKjp-Regular-5206" d="M 2074 5248 
C 1677 4256 966 3373 147 2829 
C 262 2739 474 2554 563 2451 
C 1363 3059 2118 4019 2586 5101 
L 2074 5248 
z
M 4307 5261 
L 3846 5075 
C 4326 4122 5139 3085 5850 2509 
C 5939 2643 6118 2829 6253 2931 
C 5549 3424 4723 4397 4307 5261 
z
M 1197 2957 
L 1197 2490 
L 2509 2490 
C 2368 1402 2010 378 486 -122 
C 595 -224 736 -416 800 -544 
C 2445 51 2854 1216 3027 2490 
L 4685 2490 
C 4608 864 4512 224 4346 58 
C 4282 -6 4205 -26 4077 -26 
C 3923 -26 3533 -19 3110 19 
C 3200 -115 3258 -320 3270 -461 
C 3674 -486 4070 -493 4288 -474 
C 4506 -454 4653 -410 4781 -243 
C 5005 0 5094 736 5190 2726 
C 5197 2790 5197 2957 5197 2957 
L 1197 2957 
z
" transform="scale(0.015625)"/>
      <path id="NotoSansCJKjp-Regular-6cbb" d="M 595 4973 
C 1030 4794 1555 4493 1805 4256 
L 2093 4666 
C 1824 4890 1293 5171 864 5338 
L 595 4973 
z
M 243 3226 
C 685 3072 1229 2797 1491 2586 
L 1766 3002 
C 1485 3206 934 3456 506 3597 
L 243 3226 
z
M 461 -102 
L 870 -429 
C 1242 173 1683 973 2022 1645 
L 1664 1958 
C 1299 1235 800 390 461 -102 
z
M 2470 2067 
L 2470 -518 
L 2938 -518 
L 2938 -237 
L 5114 -237 
L 5114 -499 
L 5600 -499 
L 5600 2067 
L 2470 2067 
z
M 2938 211 
L 2938 1613 
L 5114 1613 
L 5114 211 
L 2938 211 
z
M 3430 5382 
C 3232 4710 2874 3782 2547 3149 
L 1926 3123 
L 1990 2637 
C 2880 2688 4192 2758 5446 2835 
C 5568 2643 5670 2464 5747 2310 
L 6189 2560 
C 5933 3072 5363 3834 4838 4403 
L 4422 4192 
C 4666 3917 4928 3590 5158 3264 
L 3059 3168 
C 3373 3776 3712 4582 3974 5248 
L 3430 5382 
z
" transform="scale(0.015625)"/>
      <path id="NotoSansCJKjp-Regular-6cd5" d="M 589 4979 
C 1030 4800 1574 4499 1837 4275 
L 2118 4672 
C 1843 4896 1293 5171 851 5331 
L 589 4979 
z
M 250 3213 
C 691 3059 1242 2784 1517 2579 
L 1779 2989 
C 1491 3194 934 3443 493 3578 
L 250 3213 
z
M 467 -115 
L 883 -435 
C 1242 166 1664 960 1984 1638 
L 1626 1946 
C 1280 1222 800 378 467 -115 
z
M 4550 1363 
C 4781 1088 5018 768 5222 448 
L 3027 320 
C 3309 877 3616 1606 3846 2227 
L 6080 2227 
L 6080 2688 
L 4250 2688 
L 4250 3872 
L 5779 3872 
L 5779 4326 
L 4250 4326 
L 4250 5376 
L 3763 5376 
L 3763 4326 
L 2291 4326 
L 2291 3872 
L 3763 3872 
L 3763 2688 
L 1971 2688 
L 1971 2227 
L 3283 2227 
C 3091 1613 2784 838 2515 294 
L 1978 269 
L 2042 -218 
C 2938 -160 4230 -70 5472 26 
C 5587 -173 5677 -365 5741 -525 
L 6189 -275 
C 5978 243 5446 1011 4966 1581 
L 4550 1363 
z
" transform="scale(0.015625)"/>
      <path id="NotoSansCJKjp-Regular-ff1a" d="M 3200 3482 
C 3456 3482 3686 3667 3686 3962 
C 3686 4256 3456 4442 3200 4442 
C 2944 4442 2714 4256 2714 3962 
C 2714 3667 2944 3482 3200 3482 
z
M 3200 346 
C 3456 346 3686 538 3686 826 
C 3686 1120 3456 1312 3200 1312 
C 2944 1312 2714 1120 2714 826 
C 2714 538 2944 346 3200 346 
z
" transform="scale(0.015625)"/>
      <path id="NotoSansCJKjp-Regular-6700" d="M 1600 4064 
L 4813 4064 
L 4813 3610 
L 1600 3610 
L 1600 4064 
z
M 1600 4832 
L 4813 4832 
L 4813 4384 
L 1600 4384 
L 1600 4832 
z
M 1139 5171 
L 1139 3270 
L 5293 3270 
L 5293 5171 
L 1139 5171 
z
M 2534 2509 
L 2534 2074 
L 1370 2074 
L 1370 2509 
L 2534 2509 
z
M 314 282 
L 358 -147 
L 2534 115 
L 2534 -512 
L 2995 -512 
L 2995 -109 
C 3091 -198 3200 -365 3251 -474 
C 3699 -320 4141 -96 4531 205 
C 4909 -115 5363 -358 5875 -506 
C 5939 -397 6061 -218 6163 -134 
C 5664 -6 5229 205 4858 486 
C 5280 883 5613 1389 5811 2010 
L 5517 2131 
L 5434 2112 
L 3219 2112 
L 3219 1722 
L 3776 1722 
L 3501 1638 
C 3674 1216 3910 832 4205 512 
C 3840 237 3418 32 2995 -90 
L 2995 2509 
L 6016 2509 
L 6016 2912 
L 371 2912 
L 371 2509 
L 928 2509 
L 928 339 
L 314 282 
z
M 3898 1722 
L 5222 1722 
C 5056 1363 4813 1050 4531 781 
C 4262 1050 4045 1370 3898 1722 
z
M 2534 1709 
L 2534 1261 
L 1370 1261 
L 1370 1709 
L 2534 1709 
z
M 2534 902 
L 2534 518 
L 1370 384 
L 1370 902 
L 2534 902 
z
" transform="scale(0.015625)"/>
      <path id="NotoSansCJKjp-Regular-5927" d="M 2950 5370 
C 2944 4864 2950 4218 2854 3539 
L 397 3539 
L 397 3046 
L 2771 3046 
C 2515 1830 1875 589 275 -102 
C 410 -205 563 -378 640 -499 
C 2202 218 2893 1446 3206 2682 
C 3706 1222 4531 90 5773 -499 
C 5856 -358 6010 -160 6131 -51 
C 4890 467 4051 1632 3603 3046 
L 6029 3046 
L 6029 3539 
L 3366 3539 
C 3456 4211 3462 4851 3469 5370 
L 2950 5370 
z
" transform="scale(0.015625)"/>
      <path id="NotoSansCJKjp-Regular-5b50" d="M 966 4934 
L 966 4454 
L 4595 4454 
C 4211 4134 3718 3795 3264 3546 
L 2963 3546 
L 2963 2515 
L 301 2515 
L 301 2035 
L 2963 2035 
L 2963 115 
C 2963 0 2925 -32 2790 -45 
C 2643 -45 2170 -51 1658 -32 
C 1734 -173 1830 -384 1862 -525 
C 2477 -531 2893 -518 3136 -435 
C 3379 -358 3462 -218 3462 109 
L 3462 2035 
L 6112 2035 
L 6112 2515 
L 3462 2515 
L 3462 3149 
C 4179 3539 5024 4134 5574 4685 
L 5210 4960 
L 5101 4934 
L 966 4934 
z
" transform="scale(0.015625)"/>
      <path id="NotoSansCJKjp-Regular-6570" d="M 2803 5254 
C 2688 4998 2483 4627 2317 4403 
L 2643 4243 
C 2816 4454 3027 4781 3219 5075 
L 2803 5254 
z
M 531 5075 
C 704 4806 870 4454 928 4230 
L 1312 4397 
C 1248 4627 1075 4973 890 5222 
L 531 5075 
z
M 4026 5382 
C 3846 4243 3507 3162 2970 2490 
C 3078 2413 3283 2246 3360 2163 
C 3533 2394 3693 2669 3827 2970 
C 3974 2310 4160 1709 4410 1184 
C 4090 698 3667 314 3110 19 
C 2912 166 2656 326 2374 480 
C 2598 774 2746 1126 2829 1562 
L 3398 1562 
L 3398 1958 
L 1677 1958 
L 1894 2413 
L 1779 2438 
L 2061 2438 
L 2061 3398 
C 2374 3168 2771 2854 2938 2701 
L 3206 3046 
C 3034 3174 2336 3616 2061 3776 
L 2061 3802 
L 3373 3802 
L 3373 4198 
L 2061 4198 
L 2061 5382 
L 1613 5382 
L 1613 4198 
L 288 4198 
L 288 3802 
L 1485 3802 
C 1171 3379 678 2982 218 2784 
C 314 2694 422 2528 480 2419 
C 870 2637 1293 2989 1613 3373 
L 1613 2477 
L 1440 2515 
L 1178 1958 
L 250 1958 
L 250 1562 
L 979 1562 
C 806 1222 627 896 486 653 
L 909 506 
L 1005 678 
C 1222 589 1434 493 1638 384 
C 1306 147 858 -13 269 -109 
C 352 -211 448 -384 480 -512 
C 1171 -365 1683 -154 2061 160 
C 2355 -13 2611 -186 2810 -352 
L 2963 -192 
C 3046 -301 3136 -448 3174 -531 
C 3802 -205 4288 205 4666 710 
C 4979 192 5370 -224 5862 -512 
C 5939 -378 6093 -192 6208 -96 
C 5690 173 5280 614 4960 1165 
C 5350 1856 5594 2707 5754 3750 
L 6144 3750 
L 6144 4198 
L 4262 4198 
C 4358 4557 4442 4928 4506 5312 
L 4026 5382 
z
M 1478 1562 
L 2368 1562 
C 2285 1216 2157 928 1965 698 
C 1715 819 1459 934 1197 1030 
L 1478 1562 
z
M 4134 3750 
L 5254 3750 
C 5139 2950 4966 2266 4698 1696 
C 4435 2298 4250 3002 4134 3750 
z
" transform="scale(0.015625)"/>
      <path id="NotoSansCJKjp-Regular-7ec4" d="M 307 371 
L 403 -90 
C 1005 64 1805 269 2566 467 
L 2522 877 
C 1702 678 858 486 307 371 
z
M 3078 5056 
L 3078 70 
L 2432 70 
L 2432 -371 
L 6138 -371 
L 6138 70 
L 5581 70 
L 5581 5056 
L 3078 5056 
z
M 3539 70 
L 3539 1325 
L 5107 1325 
L 5107 70 
L 3539 70 
z
M 3539 2982 
L 5107 2982 
L 5107 1754 
L 3539 1754 
L 3539 2982 
z
M 3539 3424 
L 3539 4614 
L 5107 4614 
L 5107 3424 
L 3539 3424 
z
M 422 2707 
C 518 2752 672 2797 1549 2906 
C 1242 2483 960 2144 832 2016 
C 621 1779 454 1619 314 1594 
C 371 1478 442 1261 467 1165 
C 602 1242 826 1306 2566 1658 
C 2560 1754 2560 1933 2573 2054 
L 1165 1798 
C 1696 2368 2214 3072 2656 3782 
L 2272 4019 
C 2138 3782 1990 3552 1843 3328 
L 915 3226 
C 1325 3776 1722 4486 2035 5178 
L 1600 5376 
C 1312 4602 806 3763 653 3552 
C 506 3334 384 3181 269 3155 
C 320 3027 397 2803 422 2707 
z
" transform="scale(0.015625)"/>
      <path id="NotoSansCJKjp-Regular-548c" d="M 3398 4781 
L 3398 -224 
L 3866 -224 
L 3866 301 
L 5293 301 
L 5293 -179 
L 5779 -179 
L 5779 4781 
L 3398 4781 
z
M 3866 762 
L 3866 4320 
L 5293 4320 
L 5293 762 
L 3866 762 
z
M 2810 5318 
C 2246 5088 1235 4896 384 4781 
C 435 4672 499 4506 518 4397 
C 858 4435 1222 4486 1581 4550 
L 1581 3482 
L 320 3482 
L 320 3034 
L 1459 3034 
C 1165 2227 653 1350 166 858 
C 250 736 371 550 429 410 
C 845 851 1267 1587 1581 2342 
L 1581 -499 
L 2054 -499 
L 2054 2323 
C 2330 1958 2688 1472 2835 1229 
L 3130 1626 
C 2976 1824 2291 2630 2054 2874 
L 2054 3034 
L 3174 3034 
L 3174 3482 
L 2054 3482 
L 2054 4646 
C 2458 4730 2829 4826 3130 4941 
L 2810 5318 
z
" transform="scale(0.015625)"/>
      <path id="NotoSansCJKjp-Regular-53ea" d="M 3776 1011 
C 4410 557 5184 -102 5549 -531 
L 5971 -230 
C 5581 205 4787 838 4160 1267 
L 3776 1011 
z
M 2163 1280 
C 1792 768 1043 186 371 -179 
C 486 -262 659 -416 755 -518 
C 1440 -134 2195 493 2675 1082 
L 2163 1280 
z
M 1062 4941 
L 1062 1491 
L 1542 1491 
L 1542 1722 
L 4973 1722 
L 4973 1523 
L 5472 1523 
L 5472 4941 
L 1062 4941 
z
M 1542 2182 
L 1542 4474 
L 4973 4474 
L 4973 2182 
L 1542 2182 
z
" transform="scale(0.015625)"/>
      <path id="NotoSansCJKjp-Regular-53ef" d="M 358 4922 
L 358 4442 
L 4781 4442 
L 4781 186 
C 4781 51 4736 13 4595 0 
C 4442 0 3917 -6 3405 19 
C 3482 -122 3571 -358 3603 -499 
C 4237 -499 4685 -499 4941 -416 
C 5190 -333 5280 -166 5280 179 
L 5280 4442 
L 6067 4442 
L 6067 4922 
L 358 4922 
z
M 1478 3040 
L 3162 3040 
L 3162 1568 
L 1478 1568 
L 1478 3040 
z
M 1011 3501 
L 1011 595 
L 1478 595 
L 1478 1107 
L 3635 1107 
L 3635 3501 
L 1011 3501 
z
" transform="scale(0.015625)"/>
      <path id="NotoSansCJKjp-Regular-80fd" d="M 2131 4774 
C 2278 4576 2432 4339 2560 4109 
L 1248 4058 
C 1446 4422 1651 4864 1824 5261 
L 1331 5382 
C 1197 4979 966 4442 742 4038 
L 256 4019 
L 294 3552 
C 960 3590 1882 3635 2784 3693 
C 2854 3552 2912 3424 2950 3309 
L 3366 3494 
C 3226 3891 2867 4486 2528 4928 
L 2131 4774 
z
M 2451 2688 
L 2451 2138 
L 1088 2138 
L 1088 2688 
L 2451 2688 
z
M 640 3098 
L 640 -506 
L 1088 -506 
L 1088 800 
L 2451 800 
L 2451 51 
C 2451 -32 2432 -58 2349 -58 
C 2253 -64 1984 -64 1683 -51 
C 1747 -179 1818 -365 1843 -493 
C 2246 -493 2522 -486 2701 -416 
C 2874 -339 2925 -205 2925 45 
L 2925 3098 
L 640 3098 
z
M 1088 1760 
L 2451 1760 
L 2451 1178 
L 1088 1178 
L 1088 1760 
z
M 5491 4896 
C 5126 4704 4550 4474 4006 4288 
L 4006 5363 
L 3526 5363 
L 3526 3238 
C 3526 2707 3686 2566 4307 2566 
C 4429 2566 5267 2566 5408 2566 
C 5920 2566 6061 2771 6118 3558 
C 5984 3590 5786 3661 5683 3744 
C 5658 3110 5613 3002 5363 3002 
C 5184 3002 4480 3002 4352 3002 
C 4058 3002 4006 3040 4006 3245 
L 4006 3904 
C 4621 4083 5306 4307 5811 4538 
L 5491 4896 
z
M 5568 2042 
C 5197 1805 4582 1555 4000 1363 
L 4000 2387 
L 3526 2387 
L 3526 224 
C 3526 -314 3693 -454 4320 -454 
C 4454 -454 5318 -454 5459 -454 
C 5997 -454 6138 -224 6195 634 
C 6061 666 5875 742 5760 819 
C 5734 96 5690 -26 5421 -26 
C 5229 -26 4506 -26 4365 -26 
C 4058 -26 4000 13 4000 224 
L 4000 966 
C 4646 1146 5382 1395 5882 1683 
L 5568 2042 
z
" transform="scale(0.015625)"/>
      <path id="NotoSansCJKjp-Regular-6765" d="M 4838 4026 
C 4691 3635 4416 3085 4192 2739 
L 4602 2598 
C 4826 2918 5107 3424 5338 3872 
L 4838 4026 
z
M 1184 3840 
C 1434 3456 1683 2938 1766 2611 
L 2221 2790 
C 2131 3117 1869 3622 1613 3994 
L 1184 3840 
z
M 2944 5376 
L 2944 4602 
L 666 4602 
L 666 4147 
L 2944 4147 
L 2944 2534 
L 365 2534 
L 365 2074 
L 2618 2074 
C 2029 1293 1082 544 218 166 
C 333 70 486 -115 563 -230 
C 1408 192 2323 960 2944 1805 
L 2944 -506 
L 3450 -506 
L 3450 1824 
C 4070 966 4992 173 5850 -250 
C 5933 -128 6080 51 6195 147 
C 5325 531 4371 1293 3782 2074 
L 6048 2074 
L 6048 2534 
L 3450 2534 
L 3450 4147 
L 5779 4147 
L 5779 4602 
L 3450 4602 
L 3450 5376 
L 2944 5376 
z
" transform="scale(0.015625)"/>
      <path id="NotoSansCJKjp-Regular-81ea" d="M 1530 2630 
L 4954 2630 
L 4954 1690 
L 1530 1690 
L 1530 2630 
z
M 1530 3085 
L 1530 4038 
L 4954 4038 
L 4954 3085 
L 1530 3085 
z
M 1530 1242 
L 4954 1242 
L 4954 294 
L 1530 294 
L 1530 1242 
z
M 2912 5389 
C 2861 5133 2758 4781 2662 4499 
L 1043 4499 
L 1043 -518 
L 1530 -518 
L 1530 -160 
L 4954 -160 
L 4954 -486 
L 5459 -486 
L 5459 4499 
L 3149 4499 
C 3258 4742 3366 5037 3469 5312 
L 2912 5389 
z
" transform="scale(0.015625)"/>
      <path id="NotoSansCJKjp-Regular-4e09" d="M 787 4755 
L 787 4269 
L 5626 4269 
L 5626 4755 
L 787 4755 
z
M 1197 2662 
L 1197 2182 
L 5126 2182 
L 5126 2662 
L 1197 2662 
z
M 416 442 
L 416 -45 
L 5978 -45 
L 5978 442 
L 416 442 
z
" transform="scale(0.015625)"/>
      <path id="NotoSansCJKjp-Regular-4e2a" d="M 3174 4858 
C 3770 4026 4941 3014 5990 2406 
C 6080 2554 6189 2720 6317 2842 
C 5261 3373 4090 4365 3398 5357 
L 2893 5357 
C 2387 4493 1274 3411 115 2758 
C 224 2656 358 2483 422 2368 
C 1562 3040 2650 4051 3174 4858 
z
M 2925 3264 
L 2925 -512 
L 3430 -512 
L 3430 3264 
L 2925 3264 
z
" transform="scale(0.015625)"/>
      <path id="NotoSansCJKjp-Regular-4f4d" d="M 2630 3155 
C 2867 2304 3066 1190 3110 544 
L 3578 646 
C 3526 1280 3302 2381 3059 3232 
L 2630 3155 
z
M 2106 4115 
L 2106 3661 
L 6016 3661 
L 6016 4115 
L 4250 4115 
L 4250 5299 
L 3770 5299 
L 3770 4115 
L 2106 4115 
z
M 1946 243 
L 1946 -211 
L 6176 -211 
L 6176 243 
L 4634 243 
C 4928 1043 5261 2246 5485 3194 
L 4966 3283 
C 4800 2362 4461 1056 4166 243 
L 1946 243 
z
M 1773 5357 
C 1395 4390 774 3443 128 2835 
C 211 2720 352 2470 397 2355 
C 640 2598 877 2880 1107 3194 
L 1107 -493 
L 1568 -493 
L 1568 3891 
C 1818 4314 2048 4762 2227 5216 
L 1773 5357 
z
" transform="scale(0.015625)"/>
      <path id="NotoSansCJKjp-Regular-7f6e" d="M 4154 4762 
L 5235 4762 
L 5235 4186 
L 4154 4186 
L 4154 4762 
z
M 2656 4762 
L 3712 4762 
L 3712 4186 
L 2656 4186 
L 2656 4762 
z
M 1197 4762 
L 2214 4762 
L 2214 4186 
L 1197 4186 
L 1197 4762 
z
M 2374 1798 
L 4979 1798 
L 4979 1440 
L 2374 1440 
L 2374 1798 
z
M 2374 1152 
L 4979 1152 
L 4979 794 
L 2374 794 
L 2374 1152 
z
M 2374 2432 
L 4979 2432 
L 4979 2086 
L 2374 2086 
L 2374 2432 
z
M 1920 2726 
L 1920 499 
L 5440 499 
L 5440 2726 
L 3347 2726 
L 3418 3104 
L 5971 3104 
L 5971 3482 
L 3482 3482 
L 3533 3834 
L 5715 3834 
L 5715 5107 
L 736 5107 
L 736 3834 
L 3046 3834 
L 3002 3482 
L 435 3482 
L 435 3104 
L 2944 3104 
L 2880 2726 
L 1920 2726 
z
M 787 2630 
L 787 -518 
L 1274 -518 
L 1274 -243 
L 6138 -243 
L 6138 141 
L 1274 141 
L 1274 2630 
L 787 2630 
z
" transform="scale(0.015625)"/>
     </defs>
     <use xlink:href="#NotoSansCJKjp-Regular-5206"/>
     <use xlink:href="#NotoSansCJKjp-Regular-6cbb" transform="translate(99.999985 0)"/>
     <use xlink:href="#NotoSansCJKjp-Regular-6cd5" transform="translate(199.999969 0)"/>
     <use xlink:href="#NotoSansCJKjp-Regular-ff1a" transform="translate(299.999954 0)"/>
     <use xlink:href="#NotoSansCJKjp-Regular-6700" transform="translate(399.999939 0)"/>
     <use xlink:href="#NotoSansCJKjp-Regular-5927" transform="translate(499.999924 0)"/>
     <use xlink:href="#NotoSansCJKjp-Regular-5b50" transform="translate(599.999908 0)"/>
     <use xlink:href="#NotoSansCJKjp-Regular-6570" transform="translate(699.999893 0)"/>
     <use xlink:href="#NotoSansCJKjp-Regular-7ec4" transform="translate(799.999878 0)"/>
     <use xlink:href="#NotoSansCJKjp-Regular-548c" transform="translate(899.999863 0)"/>
     <use xlink:href="#NotoSansCJKjp-Regular-53ea" transform="translate(999.999847 0)"/>
     <use xlink:href="#NotoSansCJKjp-Regular-53ef" transform="translate(1099.999832 0)"/>
     <use xlink:href="#NotoSansCJKjp-Regular-80fd" transform="translate(1199.999817 0)"/>
     <use xlink:href="#NotoSansCJKjp-Regular-6765" transform="translate(1299.999802 0)"/>
     <use xlink:href="#NotoSansCJKjp-Regular-81ea" transform="translate(1399.999786 0)"/>
     <use xlink:href="#NotoSansCJKjp-Regular-4e09" transform="translate(1499.999771 0)"/>
     <use xlink:href="#NotoSansCJKjp-Regular-4e2a" transform="translate(1599.999756 0)"/>
     <use xlink:href="#NotoSansCJKjp-Regular-4f4d" transform="translate(1699.999741 0)"/>
     <use xlink:href="#NotoSansCJKjp-Regular-7f6e" transform="translate(1799.999725 0)"/>
    </g>
   </g>
  </g>
 </g>
 <defs>
  <clipPath id="p5ec9a1acd4">
   <rect x="7.2" y="30.159375" width="446.4" height="249.48"/>
  </clipPath>
 </defs>
</svg>
