<svg xmlns="http://www.w3.org/2000/svg" viewBox="0 0 560 400" font-family="'Comic Sans MS', 'Segoe UI', 'Kaiti SC', 楷体, cursive">
  <defs>
    <filter id="rough">
      <feTurbulence type="fractalNoise" baseFrequency="0.02" numOctaves="2" seed="3"/>
      <feDisplacementMap in="SourceGraphic" scale="2"/>
    </filter>
    <filter id="rough2">
      <feTurbulence type="fractalNoise" baseFrequency="0.025" numOctaves="2" seed="7"/>
      <feDisplacementMap in="SourceGraphic" scale="1.5"/>
    </filter>
    <marker id="arr" markerWidth="10" markerHeight="10" refX="9" refY="3" orient="auto" markerUnits="strokeWidth">
      <path d="M0,0 L0,6 L9,3 z" fill="#666"/>
    </marker>
  </defs>
  <rect width="560" height="400" fill="#fafafa"/>
  <text x="280" y="30" text-anchor="middle" font-size="16" fill="#333" filter="url(#rough2)">滑动窗口维护 dp[t-1][j] - prefix[j] 的最大值</text>
  <line x1="60" y1="90" x2="500" y2="90" stroke="#666" stroke-width="1.5" filter="url(#rough2)"/>
  <circle cx="80" cy="90" r="4" fill="#446688" filter="url(#rough2)"/>
  <text x="80" y="115" text-anchor="middle" font-size="12" fill="#333" filter="url(#rough2)">0</text>
  <rect x="70" y="36" width="20" height="54" rx="2" fill="#e8f0fe" stroke="#446688" stroke-width="1.2" filter="url(#rough2)"/>
  <text x="80" y="28" text-anchor="middle" font-size="11" fill="#333" filter="url(#rough2)">3</text>
  <circle cx="135" cy="90" r="4" fill="#446688" filter="url(#rough2)"/>
  <text x="135" y="115" text-anchor="middle" font-size="12" fill="#333" filter="url(#rough2)">1</text>
  <rect x="125" y="0" width="20" height="90" rx="2" fill="#e8f0fe" stroke="#446688" stroke-width="1.2" filter="url(#rough2)"/>
  <text x="135" y="-8" text-anchor="middle" font-size="11" fill="#333" filter="url(#rough2)">5</text>
  <circle cx="190" cy="90" r="4" fill="#446688" filter="url(#rough2)"/>
  <text x="190" y="115" text-anchor="middle" font-size="12" fill="#333" filter="url(#rough2)">2</text>
  <rect x="180" y="54" width="20" height="36" rx="2" fill="#e8f0fe" stroke="#446688" stroke-width="1.2" filter="url(#rough2)"/>
  <text x="190" y="46" text-anchor="middle" font-size="11" fill="#333" filter="url(#rough2)">2</text>
  <circle cx="245" cy="90" r="4" fill="#446688" filter="url(#rough2)"/>
  <text x="245" y="115" text-anchor="middle" font-size="12" fill="#333" filter="url(#rough2)">3</text>
  <rect x="235" y="-18" width="20" height="108" rx="2" fill="#e8f0fe" stroke="#446688" stroke-width="1.2" filter="url(#rough2)"/>
  <text x="245" y="-26" text-anchor="middle" font-size="11" fill="#333" filter="url(#rough2)">6</text>
  <circle cx="300" cy="90" r="4" fill="#446688" filter="url(#rough2)"/>
  <text x="300" y="115" text-anchor="middle" font-size="12" fill="#333" filter="url(#rough2)">4</text>
  <rect x="290" y="72" width="20" height="18" rx="2" fill="#e8f0fe" stroke="#446688" stroke-width="1.2" filter="url(#rough2)"/>
  <text x="300" y="64" text-anchor="middle" font-size="11" fill="#333" filter="url(#rough2)">1</text>
  <circle cx="355" cy="90" r="4" fill="#446688" filter="url(#rough2)"/>
  <text x="355" y="115" text-anchor="middle" font-size="12" fill="#333" filter="url(#rough2)">5</text>
  <rect x="345" y="18" width="20" height="72" rx="2" fill="#e8f0fe" stroke="#446688" stroke-width="1.2" filter="url(#rough2)"/>
  <text x="355" y="10" text-anchor="middle" font-size="11" fill="#333" filter="url(#rough2)">4</text>
  <circle cx="410" cy="90" r="4" fill="#446688" filter="url(#rough2)"/>
  <text x="410" y="115" text-anchor="middle" font-size="12" fill="#333" filter="url(#rough2)">6</text>
  <rect x="400" y="-36" width="20" height="126" rx="2" fill="#e8f0fe" stroke="#446688" stroke-width="1.2" filter="url(#rough2)"/>
  <text x="410" y="-44" text-anchor="middle" font-size="11" fill="#333" filter="url(#rough2)">7</text>
  <circle cx="465" cy="90" r="4" fill="#446688" filter="url(#rough2)"/>
  <text x="465" y="115" text-anchor="middle" font-size="12" fill="#333" filter="url(#rough2)">7</text>
  <rect x="455" y="54" width="20" height="36" rx="2" fill="#e8f0fe" stroke="#446688" stroke-width="1.2" filter="url(#rough2)"/>
  <text x="465" y="46" text-anchor="middle" font-size="11" fill="#333" filter="url(#rough2)">2</text>
  <rect x="190" y="60" width="110" height="120" rx="4" fill="#fff8e1" stroke="#d6a040" stroke-width="1.5" fill-opacity="0.5" filter="url(#rough2)"/>
  <text x="245" y="200" text-anchor="middle" font-size="13" fill="#555" filter="url(#rough2)">窗口 [i-r, i-l]</text>
  <text x="280" y="250" text-anchor="middle" font-size="14" fill="#333" filter="url(#rough2)">单调递减队列：队首为当前窗口最大值</text>
  <rect x="180" y="270" width="45" height="35" rx="4" fill="#e6f4ea" stroke="#4a7a3a" stroke-width="1.5" filter="url(#rough2)"/>
  <text x="202" y="292" text-anchor="middle" font-size="14" fill="#333" filter="url(#rough2)">6</text>
  <rect x="240" y="270" width="45" height="35" rx="4" fill="#e6f4ea" stroke="#4a7a3a" stroke-width="1.5" filter="url(#rough2)"/>
  <text x="262" y="292" text-anchor="middle" font-size="14" fill="#333" filter="url(#rough2)">4</text>
  <rect x="300" y="270" width="45" height="35" rx="4" fill="#e6f4ea" stroke="#4a7a3a" stroke-width="1.5" filter="url(#rough2)"/>
  <text x="322" y="292" text-anchor="middle" font-size="14" fill="#333" filter="url(#rough2)">2</text>
  <text x="280" y="335" text-anchor="middle" font-size="13" fill="#555" filter="url(#rough2)">新元素入队时从队尾弹出所有小于等于它的元素</text>

</svg>