<?xml version="1.0" encoding="utf-8" standalone="no"?>
<!DOCTYPE svg PUBLIC "-//W3C//DTD SVG 1.1//EN"
  "http://www.w3.org/Graphics/SVG/1.1/DTD/svg11.dtd">
<svg xmlns:xlink="http://www.w3.org/1999/xlink" width="460.8pt" height="286.839375pt" viewBox="0 0 460.8 286.839375" xmlns="http://www.w3.org/2000/svg" version="1.1">
 <metadata>
  <rdf:RDF xmlns:dc="http://purl.org/dc/elements/1.1/" xmlns:cc="http://creativecommons.org/ns#" xmlns:rdf="http://www.w3.org/1999/02/22-rdf-syntax-ns#">
   <cc:Work>
    <dc:type rdf:resource="http://purl.org/dc/dcmitype/StillImage"/>
    <dc:date>2026-07-06T14:42:05.682226</dc:date>
    <dc:format>image/svg+xml</dc:format>
    <dc:creator>
     <cc:Agent>
      <dc:title>Matplotlib v3.10.9, https://matplotlib.org/</dc:title>
     </cc:Agent>
    </dc:creator>
   </cc:Work>
  </rdf:RDF>
 </metadata>
 <defs>
  <style type="text/css">*{stroke-linejoin: round; stroke-linecap: butt}</style>
 </defs>
 <g id="figure_1">
  <g id="patch_1">
   <path d="M 0 286.839375 
L 460.8 286.839375 
L 460.8 0 
L 0 0 
z
" style="fill: #ffffff"/>
  </g>
  <g id="axes_1">
   <g id="patch_2">
    <path d="M 68.58 279.639375 
L 113.22 279.639375 
L 113.22 168.759375 
L 68.58 168.759375 
z
" clip-path="url(#p573d08bd5c)" style="fill: #3498db; opacity: 0.85; stroke: #2c3e50; stroke-width: 2; stroke-linejoin: miter"/>
   </g>
   <g id="patch_3">
    <path d="M 180.18 279.639375 
L 224.82 279.639375 
L 224.82 279.639375 
L 180.18 279.639375 
z
" clip-path="url(#p573d08bd5c)" style="fill: #e74c3c; opacity: 0.85; stroke: #2c3e50; stroke-width: 2; stroke-linejoin: miter"/>
   </g>
   <g id="patch_4">
    <path d="M 291.78 279.639375 
L 336.42 279.639375 
L 336.42 113.319375 
L 291.78 113.319375 
z
" clip-path="url(#p573d08bd5c)" style="fill: #2ecc71; opacity: 0.85; stroke: #2c3e50; stroke-width: 2; stroke-linejoin: miter"/>
   </g>
   <g id="patch_5">
    <path d="M 113.22 279.639375 
L 235.98 279.639375 
L 235.98 113.319375 
L 113.22 113.319375 
z
" clip-path="url(#p573d08bd5c)" style="fill: #5dade2; opacity: 0.4; stroke: #2874a6; stroke-width: 2; stroke-linejoin: miter"/>
   </g>
   <g id="patch_6">
    <path d="M 96.48 71.739375 
L 336.42 71.739375 
Q 344.79 71.739375 344.79 63.423375 
L 344.79 41.247375 
Q 344.79 32.931375 336.42 32.931375 
L 96.48 32.931375 
Q 88.11 32.931375 88.11 41.247375 
L 88.11 63.423375 
Q 88.11 71.739375 96.48 71.739375 
z
" clip-path="url(#p573d08bd5c)" style="fill: #fef9e7; stroke: #f39c12; stroke-width: 2; stroke-linejoin: miter"/>
   </g>
   <g id="line2d_1">
    <path d="M 35.1 279.639375 
L 397.8 279.639375 
" clip-path="url(#p573d08bd5c)" style="fill: none; stroke: #7f8c8d; stroke-opacity: 0.9; stroke-width: 3; stroke-linecap: round"/>
   </g>
   <g id="line2d_2">
    <path d="M 113.22 113.319375 
L 291.78 113.319375 
" clip-path="url(#p573d08bd5c)" style="fill: none; stroke: #2874a6; stroke-opacity: 0.9; stroke-width: 1.5; stroke-linecap: round"/>
   </g>
   <g id="text_1">
    <!-- left -->
    <g style="fill: #2c3e50" transform="translate(82.429141 142.125625) scale(0.11 -0.11)">
     <defs>
      <path id="NotoSansCJKjp-Regular-6c" d="M 1203 -83 
C 1363 -83 1459 -58 1542 -32 
L 1459 416 
C 1395 403 1370 403 1338 403 
C 1248 403 1178 474 1178 653 
L 1178 5094 
L 589 5094 
L 589 691 
C 589 198 768 -83 1203 -83 
z
" transform="scale(0.015625)"/>
      <path id="NotoSansCJKjp-Regular-65" d="M 1997 -83 
C 2464 -83 2835 70 3136 269 
L 2931 659 
C 2669 486 2400 384 2061 384 
C 1402 384 947 858 909 1600 
L 3251 1600 
C 3264 1690 3277 1805 3277 1933 
C 3277 2925 2778 3565 1888 3565 
C 1094 3565 333 2867 333 1734 
C 333 589 1069 -83 1997 -83 
z
M 902 2016 
C 973 2707 1408 3098 1901 3098 
C 2445 3098 2765 2720 2765 2016 
L 902 2016 
z
" transform="scale(0.015625)"/>
      <path id="NotoSansCJKjp-Regular-66" d="M 211 3002 
L 685 3002 
L 685 0 
L 1267 0 
L 1267 3002 
L 2003 3002 
L 2003 3475 
L 1267 3475 
L 1267 4026 
C 1267 4474 1427 4710 1760 4710 
C 1882 4710 2022 4678 2150 4614 
L 2278 5069 
C 2118 5133 1914 5178 1696 5178 
C 1005 5178 685 4736 685 4032 
L 685 3475 
L 211 3443 
L 211 3002 
z
" transform="scale(0.015625)"/>
      <path id="NotoSansCJKjp-Regular-74" d="M 1677 -83 
C 1894 -83 2125 -19 2323 45 
L 2208 486 
C 2093 435 1939 390 1811 390 
C 1408 390 1274 634 1274 1056 
L 1274 3002 
L 2221 3002 
L 2221 3475 
L 1274 3475 
L 1274 4454 
L 787 4454 
L 723 3475 
L 173 3443 
L 173 3002 
L 691 3002 
L 691 1075 
C 691 378 941 -83 1677 -83 
z
" transform="scale(0.015625)"/>
     </defs>
     <use xlink:href="#NotoSansCJKjp-Regular-6c"/>
     <use xlink:href="#NotoSansCJKjp-Regular-65" transform="translate(28.399994 0)"/>
     <use xlink:href="#NotoSansCJKjp-Regular-66" transform="translate(83.799988 0)"/>
     <use xlink:href="#NotoSansCJKjp-Regular-74" transform="translate(116.299973 0)"/>
    </g>
    <!-- max=3 -->
    <g style="fill: #2c3e50" transform="translate(73.867188 155.151688) scale(0.11 -0.11)">
     <defs>
      <path id="NotoSansCJKjp-Regular-6d" d="M 589 0 
L 1178 0 
L 1178 2522 
C 1491 2880 1786 3053 2048 3053 
C 2490 3053 2694 2778 2694 2125 
L 2694 0 
L 3277 0 
L 3277 2522 
C 3603 2880 3885 3053 4154 3053 
C 4595 3053 4800 2778 4800 2125 
L 4800 0 
L 5382 0 
L 5382 2202 
C 5382 3085 5043 3565 4333 3565 
C 3904 3565 3546 3290 3181 2899 
C 3040 3309 2758 3565 2221 3565 
C 1805 3565 1446 3302 1139 2970 
L 1126 2970 
L 1069 3475 
L 589 3475 
L 589 0 
z
" transform="scale(0.015625)"/>
      <path id="NotoSansCJKjp-Regular-61" d="M 1389 -83 
C 1818 -83 2208 141 2541 416 
L 2560 416 
L 2611 0 
L 3091 0 
L 3091 2138 
C 3091 3002 2739 3565 1888 3565 
C 1325 3565 838 3315 525 3110 
L 749 2707 
C 1024 2893 1389 3078 1792 3078 
C 2362 3078 2509 2650 2509 2202 
C 1030 2035 378 1658 378 902 
C 378 275 806 -83 1389 -83 
z
M 1555 390 
C 1210 390 941 544 941 941 
C 941 1389 1338 1677 2509 1811 
L 2509 845 
C 2170 544 1888 390 1555 390 
z
" transform="scale(0.015625)"/>
      <path id="NotoSansCJKjp-Regular-78" d="M 96 0 
L 710 0 
L 1178 813 
C 1299 1024 1408 1235 1530 1434 
L 1562 1434 
C 1696 1235 1824 1024 1939 813 
L 2451 0 
L 3091 0 
L 1946 1754 
L 3002 3475 
L 2394 3475 
L 1965 2714 
C 1856 2515 1760 2330 1658 2131 
L 1626 2131 
C 1510 2330 1389 2515 1286 2714 
L 819 3475 
L 186 3475 
L 1242 1811 
L 96 0 
z
" transform="scale(0.015625)"/>
      <path id="NotoSansCJKjp-Regular-3d" d="M 243 2912 
L 3315 2912 
L 3315 3347 
L 243 3347 
L 243 2912 
z
M 243 1376 
L 3315 1376 
L 3315 1811 
L 243 1811 
L 243 1376 
z
" transform="scale(0.015625)"/>
      <path id="NotoSansCJKjp-Regular-33" d="M 1683 -83 
C 2522 -83 3194 416 3194 1254 
C 3194 1901 2752 2310 2202 2445 
L 2202 2477 
C 2701 2650 3034 3034 3034 3603 
C 3034 4346 2458 4774 1664 4774 
C 1126 4774 710 4538 358 4218 
L 672 3846 
C 941 4115 1267 4301 1645 4301 
C 2138 4301 2438 4006 2438 3558 
C 2438 3053 2112 2662 1139 2662 
L 1139 2214 
C 2227 2214 2598 1843 2598 1274 
C 2598 736 2208 403 1645 403 
C 1114 403 762 659 486 941 
L 186 563 
C 493 224 954 -83 1683 -83 
z
" transform="scale(0.015625)"/>
     </defs>
     <use xlink:href="#NotoSansCJKjp-Regular-6d"/>
     <use xlink:href="#NotoSansCJKjp-Regular-61" transform="translate(92.599991 0)"/>
     <use xlink:href="#NotoSansCJKjp-Regular-78" transform="translate(148.899979 0)"/>
     <use xlink:href="#NotoSansCJKjp-Regular-3d" transform="translate(198.699966 0)"/>
     <use xlink:href="#NotoSansCJKjp-Regular-33" transform="translate(254.199951 0)"/>
    </g>
   </g>
   <g id="text_2">
    <!-- h=0 -->
    <g style="fill: #2c3e50" transform="translate(193.056328 266.031688) scale(0.11 -0.11)">
     <defs>
      <path id="NotoSansCJKjp-Regular-68" d="M 589 0 
L 1178 0 
L 1178 2522 
C 1523 2874 1766 3053 2125 3053 
C 2586 3053 2784 2778 2784 2125 
L 2784 0 
L 3366 0 
L 3366 2202 
C 3366 3085 3034 3565 2304 3565 
C 1830 3565 1472 3302 1152 2982 
L 1178 3699 
L 1178 5094 
L 589 5094 
L 589 0 
z
" transform="scale(0.015625)"/>
      <path id="NotoSansCJKjp-Regular-30" d="M 1779 -83 
C 2669 -83 3238 723 3238 2362 
C 3238 3987 2669 4774 1779 4774 
C 883 4774 320 3987 320 2362 
C 320 723 883 -83 1779 -83 
z
M 1779 390 
C 1248 390 883 986 883 2362 
C 883 3731 1248 4314 1779 4314 
C 2310 4314 2675 3731 2675 2362 
C 2675 986 2310 390 1779 390 
z
" transform="scale(0.015625)"/>
     </defs>
     <use xlink:href="#NotoSansCJKjp-Regular-68"/>
     <use xlink:href="#NotoSansCJKjp-Regular-3d" transform="translate(60.699997 0)"/>
     <use xlink:href="#NotoSansCJKjp-Regular-30" transform="translate(116.199982 0)"/>
    </g>
   </g>
   <g id="text_3">
    <!-- right -->
    <g style="fill: #2c3e50" transform="translate(301.938984 86.455313) scale(0.11 -0.11)">
     <defs>
      <path id="NotoSansCJKjp-Regular-72" d="M 589 0 
L 1178 0 
L 1178 2234 
C 1408 2822 1760 3040 2048 3040 
C 2195 3040 2272 3021 2387 2982 
L 2496 3488 
C 2387 3546 2278 3565 2125 3565 
C 1741 3565 1382 3283 1139 2842 
L 1126 2842 
L 1069 3475 
L 589 3475 
L 589 0 
z
" transform="scale(0.015625)"/>
      <path id="NotoSansCJKjp-Regular-69" d="M 589 0 
L 1178 0 
L 1178 3475 
L 589 3475 
L 589 0 
z
M 883 4192 
C 1114 4192 1274 4346 1274 4582 
C 1274 4806 1114 4960 883 4960 
C 653 4960 499 4806 499 4582 
C 499 4346 653 4192 883 4192 
z
" transform="scale(0.015625)"/>
      <path id="NotoSansCJKjp-Regular-67" d="M 1760 -1600 
C 2835 -1600 3520 -1043 3520 -397 
C 3520 179 3110 429 2310 429 
L 1626 429 
C 1158 429 1018 589 1018 806 
C 1018 998 1114 1114 1242 1222 
C 1395 1146 1587 1101 1754 1101 
C 2470 1101 3027 1568 3027 2310 
C 3027 2611 2912 2867 2746 3027 
L 3456 3027 
L 3456 3475 
L 2246 3475 
C 2125 3526 1952 3565 1754 3565 
C 1056 3565 454 3085 454 2323 
C 454 1907 678 1568 909 1389 
L 909 1363 
C 723 1235 525 1005 525 717 
C 525 442 659 256 838 147 
L 838 115 
C 512 -83 326 -371 326 -672 
C 326 -1267 915 -1600 1760 -1600 
z
M 1754 1498 
C 1357 1498 1018 1818 1018 2323 
C 1018 2835 1350 3136 1754 3136 
C 2170 3136 2496 2835 2496 2323 
C 2496 1818 2157 1498 1754 1498 
z
M 1843 -1197 
C 1210 -1197 838 -960 838 -589 
C 838 -390 941 -179 1190 0 
C 1344 -38 1510 -51 1638 -51 
L 2240 -51 
C 2701 -51 2944 -166 2944 -493 
C 2944 -851 2515 -1197 1843 -1197 
z
" transform="scale(0.015625)"/>
     </defs>
     <use xlink:href="#NotoSansCJKjp-Regular-72"/>
     <use xlink:href="#NotoSansCJKjp-Regular-69" transform="translate(38.799988 0)"/>
     <use xlink:href="#NotoSansCJKjp-Regular-67" transform="translate(66.299973 0)"/>
     <use xlink:href="#NotoSansCJKjp-Regular-68" transform="translate(122.699966 0)"/>
     <use xlink:href="#NotoSansCJKjp-Regular-74" transform="translate(183.399963 0)"/>
    </g>
    <!-- max=4 -->
    <g style="fill: #2c3e50" transform="translate(297.067187 99.711688) scale(0.11 -0.11)">
     <defs>
      <path id="NotoSansCJKjp-Regular-34" d="M 2176 0 
L 2726 0 
L 2726 1293 
L 3354 1293 
L 3354 1760 
L 2726 1760 
L 2726 4691 
L 2080 4691 
L 128 1677 
L 128 1293 
L 2176 1293 
L 2176 0 
z
M 2176 1760 
L 736 1760 
L 1805 3360 
C 1939 3590 2067 3827 2182 4051 
L 2208 4051 
C 2195 3814 2176 3430 2176 3200 
L 2176 1760 
z
" transform="scale(0.015625)"/>
     </defs>
     <use xlink:href="#NotoSansCJKjp-Regular-6d"/>
     <use xlink:href="#NotoSansCJKjp-Regular-61" transform="translate(92.599991 0)"/>
     <use xlink:href="#NotoSansCJKjp-Regular-78" transform="translate(148.899979 0)"/>
     <use xlink:href="#NotoSansCJKjp-Regular-3d" transform="translate(198.699966 0)"/>
     <use xlink:href="#NotoSansCJKjp-Regular-34" transform="translate(254.199951 0)"/>
    </g>
   </g>
   <g id="text_4">
    <!-- water level = min(3, 4) = 3 -->
    <g style="fill: #2874a6" transform="translate(137.789922 102.483688) scale(0.11 -0.11)">
     <defs>
      <path id="NotoSansCJKjp-Regular-77" d="M 1139 0 
L 1818 0 
L 2310 1862 
C 2400 2195 2470 2522 2547 2874 
L 2579 2874 
C 2662 2522 2726 2202 2816 1875 
L 3315 0 
L 4026 0 
L 4966 3475 
L 4403 3475 
L 3898 1466 
C 3821 1133 3757 819 3686 499 
L 3654 499 
C 3571 819 3494 1133 3411 1466 
L 2867 3475 
L 2298 3475 
L 1754 1466 
C 1670 1133 1594 819 1523 499 
L 1491 499 
C 1421 819 1357 1133 1286 1466 
L 768 3475 
L 173 3475 
L 1139 0 
z
" transform="scale(0.015625)"/>
      <path id="NotoSansCJKjp-Regular-20" transform="scale(0.015625)"/>
      <path id="NotoSansCJKjp-Regular-76" d="M 1338 0 
L 2022 0 
L 3251 3475 
L 2675 3475 
L 2016 1498 
C 1914 1158 1798 806 1696 474 
L 1664 474 
C 1562 806 1453 1158 1344 1498 
L 691 3475 
L 83 3475 
L 1338 0 
z
" transform="scale(0.015625)"/>
      <path id="NotoSansCJKjp-Regular-6e" d="M 589 0 
L 1178 0 
L 1178 2522 
C 1523 2874 1766 3053 2125 3053 
C 2586 3053 2784 2778 2784 2125 
L 2784 0 
L 3366 0 
L 3366 2202 
C 3366 3085 3034 3565 2304 3565 
C 1830 3565 1466 3302 1139 2970 
L 1126 2970 
L 1069 3475 
L 589 3475 
L 589 0 
z
" transform="scale(0.015625)"/>
      <path id="NotoSansCJKjp-Regular-28" d="M 1530 -1254 
L 1888 -1094 
C 1338 -186 1075 902 1075 1990 
C 1075 3072 1338 4154 1888 5069 
L 1530 5235 
C 941 4275 589 3245 589 1990 
C 589 730 941 -301 1530 -1254 
z
" transform="scale(0.015625)"/>
      <path id="NotoSansCJKjp-Regular-2c" d="M 480 -1216 
C 1056 -973 1414 -493 1414 122 
C 1414 550 1229 806 922 806 
C 685 806 480 653 480 397 
C 480 141 678 -13 909 -13 
L 979 -6 
C 973 -390 736 -698 339 -870 
L 480 -1216 
z
" transform="scale(0.015625)"/>
      <path id="NotoSansCJKjp-Regular-29" d="M 634 -1254 
C 1222 -301 1574 730 1574 1990 
C 1574 3245 1222 4275 634 5235 
L 269 5069 
C 819 4154 1094 3072 1094 1990 
C 1094 902 819 -186 269 -1094 
L 634 -1254 
z
" transform="scale(0.015625)"/>
     </defs>
     <use xlink:href="#NotoSansCJKjp-Regular-77"/>
     <use xlink:href="#NotoSansCJKjp-Regular-61" transform="translate(80.199982 0)"/>
     <use xlink:href="#NotoSansCJKjp-Regular-74" transform="translate(136.499969 0)"/>
     <use xlink:href="#NotoSansCJKjp-Regular-65" transform="translate(174.199966 0)"/>
     <use xlink:href="#NotoSansCJKjp-Regular-72" transform="translate(229.59996 0)"/>
     <use xlink:href="#NotoSansCJKjp-Regular-20" transform="translate(268.399948 0)"/>
     <use xlink:href="#NotoSansCJKjp-Regular-6c" transform="translate(290.799942 0)"/>
     <use xlink:href="#NotoSansCJKjp-Regular-65" transform="translate(319.199936 0)"/>
     <use xlink:href="#NotoSansCJKjp-Regular-76" transform="translate(374.59993 0)"/>
     <use xlink:href="#NotoSansCJKjp-Regular-65" transform="translate(426.699921 0)"/>
     <use xlink:href="#NotoSansCJKjp-Regular-6c" transform="translate(482.099915 0)"/>
     <use xlink:href="#NotoSansCJKjp-Regular-20" transform="translate(510.499908 0)"/>
     <use xlink:href="#NotoSansCJKjp-Regular-3d" transform="translate(532.899902 0)"/>
     <use xlink:href="#NotoSansCJKjp-Regular-20" transform="translate(588.399887 0)"/>
     <use xlink:href="#NotoSansCJKjp-Regular-6d" transform="translate(610.799881 0)"/>
     <use xlink:href="#NotoSansCJKjp-Regular-69" transform="translate(703.399872 0)"/>
     <use xlink:href="#NotoSansCJKjp-Regular-6e" transform="translate(730.899857 0)"/>
     <use xlink:href="#NotoSansCJKjp-Regular-28" transform="translate(791.899841 0)"/>
     <use xlink:href="#NotoSansCJKjp-Regular-33" transform="translate(825.699829 0)"/>
     <use xlink:href="#NotoSansCJKjp-Regular-2c" transform="translate(881.199814 0)"/>
     <use xlink:href="#NotoSansCJKjp-Regular-20" transform="translate(908.999802 0)"/>
     <use xlink:href="#NotoSansCJKjp-Regular-34" transform="translate(931.399796 0)"/>
     <use xlink:href="#NotoSansCJKjp-Regular-29" transform="translate(986.89978 0)"/>
     <use xlink:href="#NotoSansCJKjp-Regular-20" transform="translate(1020.699768 0)"/>
     <use xlink:href="#NotoSansCJKjp-Regular-3d" transform="translate(1043.099762 0)"/>
     <use xlink:href="#NotoSansCJKjp-Regular-20" transform="translate(1098.599747 0)"/>
     <use xlink:href="#NotoSansCJKjp-Regular-33" transform="translate(1120.999741 0)"/>
    </g>
   </g>
   <g id="text_5">
    <!-- water[i] = min(left_max, right_max) - height[i] -->
    <g transform="translate(46.677188 55.7985) scale(0.12 -0.12)">
     <defs>
      <path id="DejaVuSansMono-Bold-77" d="M 0 3500 
L 763 3500 
L 1178 819 
L 1556 2584 
L 2297 2584 
L 2669 819 
L 3091 3500 
L 3853 3500 
L 3219 0 
L 2350 0 
L 1925 1819 
L 1503 0 
L 634 0 
L 0 3500 
z
" transform="scale(0.015625)"/>
      <path id="DejaVuSansMono-Bold-61" d="M 2188 1644 
Q 1675 1644 1472 1512 
Q 1269 1381 1269 1063 
Q 1269 825 1409 684 
Q 1550 544 1791 544 
Q 2153 544 2353 817 
Q 2553 1091 2553 1581 
L 2553 1644 
L 2188 1644 
z
M 3463 1997 
L 3463 0 
L 2553 0 
L 2553 391 
Q 2388 159 2128 34 
Q 1869 -91 1556 -91 
Q 959 -91 626 225 
Q 294 541 294 1106 
Q 294 1719 691 2011 
Q 1088 2303 1919 2303 
L 2553 2303 
L 2553 2456 
Q 2553 2678 2392 2792 
Q 2231 2906 1919 2906 
Q 1591 2906 1283 2823 
Q 975 2741 641 2559 
L 641 3341 
Q 944 3466 1256 3525 
Q 1569 3584 1919 3584 
Q 2772 3584 3117 3237 
Q 3463 2891 3463 1997 
z
" transform="scale(0.015625)"/>
      <path id="DejaVuSansMono-Bold-74" d="M 2156 4494 
L 2156 3500 
L 3353 3500 
L 3353 2797 
L 2156 2797 
L 2156 1141 
Q 2156 906 2270 804 
Q 2384 703 2650 703 
L 3353 703 
L 3353 0 
L 2584 0 
Q 1797 0 1519 251 
Q 1241 503 1241 1184 
L 1241 2797 
L 347 2797 
L 347 3500 
L 1241 3500 
L 1241 4494 
L 2156 4494 
z
" transform="scale(0.015625)"/>
      <path id="DejaVuSansMono-Bold-65" d="M 3444 172 
Q 3125 41 2794 -25 
Q 2463 -91 2094 -91 
Q 1216 -91 752 379 
Q 288 850 288 1734 
Q 288 2591 734 3087 
Q 1181 3584 1953 3584 
Q 2731 3584 3161 3123 
Q 3591 2663 3591 1825 
L 3591 1453 
L 1219 1453 
Q 1222 1041 1462 837 
Q 1703 634 2181 634 
Q 2497 634 2803 725 
Q 3109 816 3444 1013 
L 3444 172 
z
M 2669 2141 
Q 2663 2503 2483 2689 
Q 2303 2875 1953 2875 
Q 1638 2875 1450 2683 
Q 1263 2491 1228 2138 
L 2669 2141 
z
" transform="scale(0.015625)"/>
      <path id="DejaVuSansMono-Bold-72" d="M 3597 2534 
Q 3447 2672 3245 2740 
Q 3044 2809 2803 2809 
Q 2513 2809 2295 2707 
Q 2078 2606 1959 2413 
Q 1884 2294 1854 2125 
Q 1825 1956 1825 1613 
L 1825 0 
L 909 0 
L 909 3500 
L 1825 3500 
L 1825 2956 
Q 1959 3256 2237 3420 
Q 2516 3584 2888 3584 
Q 3075 3584 3254 3539 
Q 3434 3494 3597 3406 
L 3597 2534 
z
" transform="scale(0.015625)"/>
      <path id="DejaVuSansMono-Bold-5b" d="M 1319 4863 
L 2906 4863 
L 2906 4269 
L 2150 4269 
L 2150 -250 
L 2906 -250 
L 2906 -844 
L 1319 -844 
L 1319 4863 
z
" transform="scale(0.015625)"/>
      <path id="DejaVuSansMono-Bold-69" d="M 691 3500 
L 2503 3500 
L 2503 703 
L 3641 703 
L 3641 0 
L 447 0 
L 447 703 
L 1588 703 
L 1588 2797 
L 691 2797 
L 691 3500 
z
M 1588 5203 
L 2503 5203 
L 2503 4134 
L 1588 4134 
L 1588 5203 
z
" transform="scale(0.015625)"/>
      <path id="DejaVuSansMono-Bold-5d" d="M 2534 4863 
L 2534 -844 
L 947 -844 
L 947 -250 
L 1703 -250 
L 1703 4269 
L 947 4269 
L 947 4863 
L 2534 4863 
z
" transform="scale(0.015625)"/>
      <path id="DejaVuSansMono-Bold-20" transform="scale(0.015625)"/>
      <path id="DejaVuSansMono-Bold-3d" d="M 275 1663 
L 3578 1663 
L 3578 922 
L 275 922 
L 275 1663 
z
M 275 3084 
L 3578 3084 
L 3578 2350 
L 275 2350 
L 275 3084 
z
" transform="scale(0.015625)"/>
      <path id="DejaVuSansMono-Bold-6d" d="M 2156 3150 
Q 2259 3372 2418 3478 
Q 2578 3584 2809 3584 
Q 3263 3584 3436 3271 
Q 3609 2959 3609 1972 
L 3609 0 
L 2859 0 
L 2859 2247 
Q 2859 2638 2800 2769 
Q 2741 2900 2584 2900 
Q 2428 2900 2365 2765 
Q 2303 2631 2303 2247 
L 2303 0 
L 1563 0 
L 1563 2247 
Q 1563 2631 1500 2765 
Q 1438 2900 1281 2900 
Q 1125 2900 1065 2769 
Q 1006 2638 1006 2247 
L 1006 0 
L 256 0 
L 256 3500 
L 922 3500 
L 922 3138 
Q 1000 3344 1172 3464 
Q 1344 3584 1556 3584 
Q 1769 3584 1944 3457 
Q 2119 3331 2156 3150 
z
" transform="scale(0.015625)"/>
      <path id="DejaVuSansMono-Bold-6e" d="M 3347 2272 
L 3347 0 
L 2438 0 
L 2438 2131 
Q 2438 2513 2330 2677 
Q 2222 2841 1978 2841 
Q 1731 2841 1589 2619 
Q 1447 2397 1447 2003 
L 1447 0 
L 538 0 
L 538 3500 
L 1447 3500 
L 1447 2975 
Q 1544 3266 1778 3425 
Q 2013 3584 2344 3584 
Q 2841 3584 3094 3254 
Q 3347 2925 3347 2272 
z
" transform="scale(0.015625)"/>
      <path id="DejaVuSansMono-Bold-28" d="M 2888 4856 
Q 2475 4109 2275 3409 
Q 2075 2709 2075 2009 
Q 2075 1316 2275 611 
Q 2475 -94 2888 -844 
L 2175 -844 
Q 1678 -122 1437 579 
Q 1197 1281 1197 2009 
Q 1197 2734 1439 3439 
Q 1681 4144 2175 4856 
L 2888 4856 
z
" transform="scale(0.015625)"/>
      <path id="DejaVuSansMono-Bold-6c" d="M 1209 1459 
L 1209 4159 
L 281 4159 
L 281 4863 
L 2125 4863 
L 2125 1459 
Q 2125 1047 2253 875 
Q 2381 703 2688 703 
L 3419 703 
L 3419 0 
L 2431 0 
Q 1778 0 1493 337 
Q 1209 675 1209 1459 
z
" transform="scale(0.015625)"/>
      <path id="DejaVuSansMono-Bold-66" d="M 2309 3806 
L 2309 3500 
L 3384 3500 
L 3384 2797 
L 2309 2797 
L 2309 0 
L 1394 0 
L 1394 2797 
L 544 2797 
L 544 3500 
L 1394 3500 
L 1394 3744 
Q 1394 4375 1656 4619 
Q 1919 4863 2631 4863 
L 3384 4863 
L 3384 4159 
L 2669 4159 
Q 2463 4159 2389 4084 
Q 2316 4009 2309 3806 
z
" transform="scale(0.015625)"/>
      <path id="DejaVuSansMono-Bold-5f" d="M 3853 -916 
L 3853 -1509 
L 0 -1509 
L 0 -916 
L 3853 -916 
z
" transform="scale(0.015625)"/>
      <path id="DejaVuSansMono-Bold-78" d="M 3578 3500 
L 2400 1825 
L 3681 0 
L 2613 0 
L 1925 1178 
L 1241 0 
L 172 0 
L 1466 1825 
L 275 3500 
L 1344 3500 
L 1925 2456 
L 2509 3500 
L 3578 3500 
z
" transform="scale(0.015625)"/>
      <path id="DejaVuSansMono-Bold-2c" d="M 1441 1147 
L 2419 1147 
L 2419 300 
L 1806 -897 
L 1131 -897 
L 1441 300 
L 1441 1147 
z
" transform="scale(0.015625)"/>
      <path id="DejaVuSansMono-Bold-67" d="M 2509 1806 
Q 2509 2275 2331 2558 
Q 2153 2841 1863 2841 
Q 1575 2841 1398 2559 
Q 1222 2278 1222 1806 
Q 1222 1331 1398 1050 
Q 1575 769 1863 769 
Q 2153 769 2331 1051 
Q 2509 1334 2509 1806 
z
M 3425 263 
Q 3425 -578 3045 -951 
Q 2666 -1325 1813 -1325 
Q 1525 -1325 1244 -1283 
Q 963 -1241 672 -1153 
L 672 -313 
Q 931 -456 1200 -525 
Q 1469 -594 1753 -594 
Q 2141 -594 2325 -411 
Q 2509 -228 2509 159 
L 2509 538 
Q 2375 288 2153 166 
Q 1931 44 1613 44 
Q 1013 44 659 512 
Q 306 981 306 1784 
Q 306 2616 659 3103 
Q 1013 3591 1606 3591 
Q 1906 3591 2140 3450 
Q 2375 3309 2509 3053 
L 2509 3500 
L 3425 3500 
L 3425 263 
z
" transform="scale(0.015625)"/>
      <path id="DejaVuSansMono-Bold-68" d="M 3347 2272 
L 3347 0 
L 2438 0 
L 2438 2131 
Q 2438 2509 2330 2671 
Q 2222 2834 1978 2834 
Q 1728 2834 1587 2614 
Q 1447 2394 1447 2003 
L 1447 0 
L 538 0 
L 538 4863 
L 1447 4863 
L 1447 2975 
Q 1544 3266 1778 3425 
Q 2013 3584 2344 3584 
Q 2841 3584 3094 3254 
Q 3347 2925 3347 2272 
z
" transform="scale(0.015625)"/>
      <path id="DejaVuSansMono-Bold-29" d="M 966 4856 
L 1678 4856 
Q 2172 4144 2414 3439 
Q 2656 2734 2656 2009 
Q 2656 1281 2415 579 
Q 2175 -122 1678 -844 
L 966 -844 
Q 1378 -94 1578 611 
Q 1778 1316 1778 2009 
Q 1778 2709 1578 3409 
Q 1378 4109 966 4856 
z
" transform="scale(0.015625)"/>
      <path id="DejaVuSansMono-Bold-2d" d="M 941 2297 
L 2913 2297 
L 2913 1388 
L 941 1388 
L 941 2297 
z
" transform="scale(0.015625)"/>
     </defs>
     <use xlink:href="#DejaVuSansMono-Bold-77"/>
     <use xlink:href="#DejaVuSansMono-Bold-61" transform="translate(60.205078 0)"/>
     <use xlink:href="#DejaVuSansMono-Bold-74" transform="translate(120.410156 0)"/>
     <use xlink:href="#DejaVuSansMono-Bold-65" transform="translate(180.615234 0)"/>
     <use xlink:href="#DejaVuSansMono-Bold-72" transform="translate(240.820312 0)"/>
     <use xlink:href="#DejaVuSansMono-Bold-5b" transform="translate(301.025391 0)"/>
     <use xlink:href="#DejaVuSansMono-Bold-69" transform="translate(361.230469 0)"/>
     <use xlink:href="#DejaVuSansMono-Bold-5d" transform="translate(421.435547 0)"/>
     <use xlink:href="#DejaVuSansMono-Bold-20" transform="translate(481.640625 0)"/>
     <use xlink:href="#DejaVuSansMono-Bold-3d" transform="translate(541.845703 0)"/>
     <use xlink:href="#DejaVuSansMono-Bold-20" transform="translate(602.050781 0)"/>
     <use xlink:href="#DejaVuSansMono-Bold-6d" transform="translate(662.255859 0)"/>
     <use xlink:href="#DejaVuSansMono-Bold-69" transform="translate(722.460938 0)"/>
     <use xlink:href="#DejaVuSansMono-Bold-6e" transform="translate(782.666016 0)"/>
     <use xlink:href="#DejaVuSansMono-Bold-28" transform="translate(842.871094 0)"/>
     <use xlink:href="#DejaVuSansMono-Bold-6c" transform="translate(903.076172 0)"/>
     <use xlink:href="#DejaVuSansMono-Bold-65" transform="translate(963.28125 0)"/>
     <use xlink:href="#DejaVuSansMono-Bold-66" transform="translate(1023.486328 0)"/>
     <use xlink:href="#DejaVuSansMono-Bold-74" transform="translate(1083.691406 0)"/>
     <use xlink:href="#DejaVuSansMono-Bold-5f" transform="translate(1143.896484 0)"/>
     <use xlink:href="#DejaVuSansMono-Bold-6d" transform="translate(1204.101562 0)"/>
     <use xlink:href="#DejaVuSansMono-Bold-61" transform="translate(1264.306641 0)"/>
     <use xlink:href="#DejaVuSansMono-Bold-78" transform="translate(1324.511719 0)"/>
     <use xlink:href="#DejaVuSansMono-Bold-2c" transform="translate(1384.716797 0)"/>
     <use xlink:href="#DejaVuSansMono-Bold-20" transform="translate(1444.921875 0)"/>
     <use xlink:href="#DejaVuSansMono-Bold-72" transform="translate(1505.126953 0)"/>
     <use xlink:href="#DejaVuSansMono-Bold-69" transform="translate(1565.332031 0)"/>
     <use xlink:href="#DejaVuSansMono-Bold-67" transform="translate(1625.537109 0)"/>
     <use xlink:href="#DejaVuSansMono-Bold-68" transform="translate(1685.742188 0)"/>
     <use xlink:href="#DejaVuSansMono-Bold-74" transform="translate(1745.947266 0)"/>
     <use xlink:href="#DejaVuSansMono-Bold-5f" transform="translate(1806.152344 0)"/>
     <use xlink:href="#DejaVuSansMono-Bold-6d" transform="translate(1866.357422 0)"/>
     <use xlink:href="#DejaVuSansMono-Bold-61" transform="translate(1926.5625 0)"/>
     <use xlink:href="#DejaVuSansMono-Bold-78" transform="translate(1986.767578 0)"/>
     <use xlink:href="#DejaVuSansMono-Bold-29" transform="translate(2046.972656 0)"/>
     <use xlink:href="#DejaVuSansMono-Bold-20" transform="translate(2107.177734 0)"/>
     <use xlink:href="#DejaVuSansMono-Bold-2d" transform="translate(2167.382812 0)"/>
     <use xlink:href="#DejaVuSansMono-Bold-20" transform="translate(2227.587891 0)"/>
     <use xlink:href="#DejaVuSansMono-Bold-68" transform="translate(2287.792969 0)"/>
     <use xlink:href="#DejaVuSansMono-Bold-65" transform="translate(2347.998047 0)"/>
     <use xlink:href="#DejaVuSansMono-Bold-69" transform="translate(2408.203125 0)"/>
     <use xlink:href="#DejaVuSansMono-Bold-67" transform="translate(2468.408203 0)"/>
     <use xlink:href="#DejaVuSansMono-Bold-68" transform="translate(2528.613281 0)"/>
     <use xlink:href="#DejaVuSansMono-Bold-74" transform="translate(2588.818359 0)"/>
     <use xlink:href="#DejaVuSansMono-Bold-5b" transform="translate(2649.023438 0)"/>
     <use xlink:href="#DejaVuSansMono-Bold-69" transform="translate(2709.228516 0)"/>
     <use xlink:href="#DejaVuSansMono-Bold-5d" transform="translate(2769.433594 0)"/>
    </g>
   </g>
   <g id="text_6">
    <!-- 位置 i 的接水量由左右最高柱子的短板决定 -->
    <g style="fill: #2c3e50" transform="translate(136.784375 15.159375) scale(0.1 -0.1)">
     <defs>
      <path id="NotoSansCJKjp-Regular-4f4d" d="M 2630 3155 
C 2867 2304 3066 1190 3110 544 
L 3578 646 
C 3526 1280 3302 2381 3059 3232 
L 2630 3155 
z
M 2106 4115 
L 2106 3661 
L 6016 3661 
L 6016 4115 
L 4250 4115 
L 4250 5299 
L 3770 5299 
L 3770 4115 
L 2106 4115 
z
M 1946 243 
L 1946 -211 
L 6176 -211 
L 6176 243 
L 4634 243 
C 4928 1043 5261 2246 5485 3194 
L 4966 3283 
C 4800 2362 4461 1056 4166 243 
L 1946 243 
z
M 1773 5357 
C 1395 4390 774 3443 128 2835 
C 211 2720 352 2470 397 2355 
C 640 2598 877 2880 1107 3194 
L 1107 -493 
L 1568 -493 
L 1568 3891 
C 1818 4314 2048 4762 2227 5216 
L 1773 5357 
z
" transform="scale(0.015625)"/>
      <path id="NotoSansCJKjp-Regular-7f6e" d="M 4154 4762 
L 5235 4762 
L 5235 4186 
L 4154 4186 
L 4154 4762 
z
M 2656 4762 
L 3712 4762 
L 3712 4186 
L 2656 4186 
L 2656 4762 
z
M 1197 4762 
L 2214 4762 
L 2214 4186 
L 1197 4186 
L 1197 4762 
z
M 2374 1798 
L 4979 1798 
L 4979 1440 
L 2374 1440 
L 2374 1798 
z
M 2374 1152 
L 4979 1152 
L 4979 794 
L 2374 794 
L 2374 1152 
z
M 2374 2432 
L 4979 2432 
L 4979 2086 
L 2374 2086 
L 2374 2432 
z
M 1920 2726 
L 1920 499 
L 5440 499 
L 5440 2726 
L 3347 2726 
L 3418 3104 
L 5971 3104 
L 5971 3482 
L 3482 3482 
L 3533 3834 
L 5715 3834 
L 5715 5107 
L 736 5107 
L 736 3834 
L 3046 3834 
L 3002 3482 
L 435 3482 
L 435 3104 
L 2944 3104 
L 2880 2726 
L 1920 2726 
z
M 787 2630 
L 787 -518 
L 1274 -518 
L 1274 -243 
L 6138 -243 
L 6138 141 
L 1274 141 
L 1274 2630 
L 787 2630 
z
" transform="scale(0.015625)"/>
      <path id="NotoSansCJKjp-Regular-7684" d="M 3533 2707 
C 3885 2240 4320 1600 4512 1210 
L 4922 1466 
C 4710 1843 4269 2464 3904 2918 
L 3533 2707 
z
M 1536 5389 
C 1485 5082 1376 4659 1274 4346 
L 557 4346 
L 557 -346 
L 998 -346 
L 998 160 
L 2784 160 
L 2784 4346 
L 1715 4346 
C 1824 4621 1946 4979 2054 5299 
L 1536 5389 
z
M 998 3917 
L 2342 3917 
L 2342 2566 
L 998 2566 
L 998 3917 
z
M 998 595 
L 998 2144 
L 2342 2144 
L 2342 595 
L 998 595 
z
M 3827 5402 
C 3622 4518 3277 3635 2835 3066 
C 2950 3002 3149 2867 3238 2790 
C 3456 3098 3661 3488 3840 3923 
L 5478 3923 
C 5402 1357 5299 371 5094 154 
C 5018 64 4947 45 4819 45 
C 4672 45 4288 51 3866 83 
C 3955 -38 4013 -243 4026 -378 
C 4384 -397 4762 -410 4979 -390 
C 5210 -365 5350 -314 5498 -122 
C 5754 192 5843 1184 5939 4122 
C 5946 4186 5946 4365 5946 4365 
L 4013 4365 
C 4115 4666 4211 4986 4288 5299 
L 3827 5402 
z
" transform="scale(0.015625)"/>
      <path id="NotoSansCJKjp-Regular-63a5" d="M 1152 5370 
L 1152 4083 
L 282 4083 
L 282 3635 
L 1152 3635 
L 1152 2240 
L 173 1971 
L 288 1504 
L 1152 1766 
L 1152 70 
C 1152 -19 1120 -51 1037 -51 
C 954 -51 691 -51 397 -45 
C 461 -179 525 -384 544 -506 
C 966 -512 1222 -493 1389 -416 
C 1555 -339 1613 -198 1613 77 
L 1613 1914 
L 2176 2086 
L 2176 1722 
L 3123 1722 
C 2938 1331 2752 954 2592 672 
L 3014 531 
L 3110 704 
C 3373 621 3648 518 3923 403 
C 3475 134 2854 -26 2016 -109 
C 2093 -205 2170 -378 2208 -506 
C 3187 -378 3898 -160 4397 198 
C 4915 -32 5382 -288 5690 -518 
L 5990 -154 
C 5690 64 5242 301 4755 518 
C 5043 832 5229 1229 5344 1722 
L 6112 1722 
L 6112 2144 
L 3827 2144 
L 4115 2771 
L 6138 2771 
L 6138 3194 
L 4966 3194 
C 5101 3482 5248 3885 5376 4250 
L 5184 4275 
L 5952 4275 
L 5952 4698 
L 4397 4698 
L 4397 5376 
L 3917 5376 
L 3917 4698 
L 2394 4698 
L 2394 4275 
L 3290 4275 
L 3002 4218 
C 3123 3898 3226 3475 3258 3194 
L 2138 3194 
L 2138 2771 
L 3597 2771 
L 3322 2144 
L 2291 2144 
L 2234 2554 
L 1613 2374 
L 1613 3635 
L 2234 3635 
L 2234 4083 
L 1613 4083 
L 1613 5370 
L 1152 5370 
z
M 3430 4275 
L 4890 4275 
C 4806 3955 4659 3507 4538 3219 
L 4685 3194 
L 3526 3194 
L 3706 3238 
C 3680 3501 3558 3936 3430 4275 
z
M 3622 1722 
L 4858 1722 
C 4749 1306 4576 966 4314 704 
C 3968 845 3622 966 3296 1062 
L 3622 1722 
z
" transform="scale(0.015625)"/>
      <path id="NotoSansCJKjp-Regular-6c34" d="M 352 3738 
L 352 3251 
L 2029 3251 
C 1709 1971 1030 1011 186 486 
C 307 416 493 224 576 109 
C 1517 742 2298 1946 2624 3629 
L 2298 3757 
L 2208 3738 
L 352 3738 
z
M 5523 4339 
C 5146 3827 4525 3187 4000 2739 
C 3782 3194 3603 3686 3462 4192 
L 3462 5363 
L 2957 5363 
L 2957 166 
C 2957 45 2912 6 2784 0 
C 2656 -6 2246 -6 1779 6 
C 1856 -134 1952 -378 1978 -518 
C 2573 -518 2938 -499 3155 -416 
C 3373 -326 3462 -173 3462 166 
L 3462 2925 
C 3974 1606 4742 525 5850 -19 
C 5939 122 6099 320 6221 416 
C 5370 787 4704 1485 4205 2349 
C 4762 2790 5453 3462 5965 4026 
L 5523 4339 
z
" transform="scale(0.015625)"/>
      <path id="NotoSansCJKjp-Regular-91cf" d="M 1600 4256 
L 4781 4256 
L 4781 3904 
L 1600 3904 
L 1600 4256 
z
M 1600 4883 
L 4781 4883 
L 4781 4538 
L 1600 4538 
L 1600 4883 
z
M 1133 5171 
L 1133 3616 
L 5261 3616 
L 5261 5171 
L 1133 5171 
z
M 333 3341 
L 333 2976 
L 6074 2976 
L 6074 3341 
L 333 3341 
z
M 1472 1747 
L 2957 1747 
L 2957 1376 
L 1472 1376 
L 1472 1747 
z
M 3424 1747 
L 4973 1747 
L 4973 1376 
L 3424 1376 
L 3424 1747 
z
M 1472 2387 
L 2957 2387 
L 2957 2029 
L 1472 2029 
L 1472 2387 
z
M 3424 2387 
L 4973 2387 
L 4973 2029 
L 3424 2029 
L 3424 2387 
z
M 301 19 
L 301 -352 
L 6112 -352 
L 6112 19 
L 3424 19 
L 3424 390 
L 5587 390 
L 5587 730 
L 3424 730 
L 3424 1082 
L 5446 1082 
L 5446 2688 
L 1018 2688 
L 1018 1082 
L 2957 1082 
L 2957 730 
L 838 730 
L 838 390 
L 2957 390 
L 2957 19 
L 301 19 
z
" transform="scale(0.015625)"/>
      <path id="NotoSansCJKjp-Regular-7531" d="M 1210 1786 
L 2938 1786 
L 2938 365 
L 1210 365 
L 1210 1786 
z
M 5184 1786 
L 5184 365 
L 3424 365 
L 3424 1786 
L 5184 1786 
z
M 1210 2259 
L 1210 3654 
L 2938 3654 
L 2938 2259 
L 1210 2259 
z
M 5184 2259 
L 3424 2259 
L 3424 3654 
L 5184 3654 
L 5184 2259 
z
M 2938 5376 
L 2938 4134 
L 730 4134 
L 730 -512 
L 1210 -512 
L 1210 -115 
L 5184 -115 
L 5184 -486 
L 5683 -486 
L 5683 4134 
L 3424 4134 
L 3424 5376 
L 2938 5376 
z
" transform="scale(0.015625)"/>
      <path id="NotoSansCJKjp-Regular-5de6" d="M 2368 5376 
C 2310 4998 2240 4608 2150 4218 
L 429 4218 
L 429 3757 
L 2042 3757 
C 1696 2413 1133 1114 179 250 
C 282 160 429 -19 506 -128 
C 1254 570 1773 1491 2150 2496 
L 2150 2067 
L 3584 2067 
L 3584 141 
L 1485 141 
L 1485 -326 
L 6074 -326 
L 6074 141 
L 4070 141 
L 4070 2067 
L 5786 2067 
L 5786 2528 
L 2163 2528 
C 2310 2925 2432 3341 2541 3757 
L 5952 3757 
L 5952 4218 
L 2650 4218 
C 2733 4582 2803 4947 2867 5306 
L 2368 5376 
z
" transform="scale(0.015625)"/>
      <path id="NotoSansCJKjp-Regular-53f3" d="M 2637 5376 
C 2554 4979 2445 4576 2310 4179 
L 416 4179 
L 416 3712 
L 2138 3712 
C 1728 2688 1114 1754 198 1133 
C 301 1037 448 864 525 749 
C 992 1082 1382 1485 1715 1939 
L 1715 -518 
L 2195 -518 
L 2195 -160 
L 5043 -160 
L 5043 -486 
L 5542 -486 
L 5542 2470 
L 2067 2470 
C 2298 2861 2496 3277 2662 3712 
L 6010 3712 
L 6010 4179 
L 2829 4179 
C 2944 4544 3046 4909 3136 5280 
L 2637 5376 
z
M 2195 307 
L 2195 2003 
L 5043 2003 
L 5043 307 
L 2195 307 
z
" transform="scale(0.015625)"/>
      <path id="NotoSansCJKjp-Regular-6700" d="M 1600 4064 
L 4813 4064 
L 4813 3610 
L 1600 3610 
L 1600 4064 
z
M 1600 4832 
L 4813 4832 
L 4813 4384 
L 1600 4384 
L 1600 4832 
z
M 1139 5171 
L 1139 3270 
L 5293 3270 
L 5293 5171 
L 1139 5171 
z
M 2534 2509 
L 2534 2074 
L 1370 2074 
L 1370 2509 
L 2534 2509 
z
M 314 282 
L 358 -147 
L 2534 115 
L 2534 -512 
L 2995 -512 
L 2995 -109 
C 3091 -198 3200 -365 3251 -474 
C 3699 -320 4141 -96 4531 205 
C 4909 -115 5363 -358 5875 -506 
C 5939 -397 6061 -218 6163 -134 
C 5664 -6 5229 205 4858 486 
C 5280 883 5613 1389 5811 2010 
L 5517 2131 
L 5434 2112 
L 3219 2112 
L 3219 1722 
L 3776 1722 
L 3501 1638 
C 3674 1216 3910 832 4205 512 
C 3840 237 3418 32 2995 -90 
L 2995 2509 
L 6016 2509 
L 6016 2912 
L 371 2912 
L 371 2509 
L 928 2509 
L 928 339 
L 314 282 
z
M 3898 1722 
L 5222 1722 
C 5056 1363 4813 1050 4531 781 
C 4262 1050 4045 1370 3898 1722 
z
M 2534 1709 
L 2534 1261 
L 1370 1261 
L 1370 1709 
L 2534 1709 
z
M 2534 902 
L 2534 518 
L 1370 384 
L 1370 902 
L 2534 902 
z
" transform="scale(0.015625)"/>
      <path id="NotoSansCJKjp-Regular-9ad8" d="M 1939 3635 
L 4448 3635 
L 4448 3021 
L 1939 3021 
L 1939 3635 
z
M 1478 3987 
L 1478 2662 
L 4928 2662 
L 4928 3987 
L 1478 3987 
z
M 2918 5382 
L 2918 4768 
L 416 4768 
L 416 4346 
L 5978 4346 
L 5978 4768 
L 3411 4768 
L 3411 5382 
L 2918 5382 
z
M 704 2266 
L 704 -512 
L 1171 -512 
L 1171 1856 
L 5261 1856 
L 5261 70 
C 5261 -19 5235 -45 5120 -51 
C 5018 -58 4653 -58 4237 -45 
C 4301 -179 4371 -365 4390 -499 
C 4922 -499 5267 -499 5478 -422 
C 5683 -346 5741 -205 5741 64 
L 5741 2266 
L 704 2266 
z
M 2406 1088 
L 3994 1088 
L 3994 435 
L 2406 435 
L 2406 1088 
z
M 1984 1440 
L 1984 -243 
L 2406 -243 
L 2406 83 
L 4422 83 
L 4422 1440 
L 1984 1440 
z
" transform="scale(0.015625)"/>
      <path id="NotoSansCJKjp-Regular-67f1" d="M 3526 5094 
C 3955 4819 4448 4390 4678 4083 
L 2880 4083 
L 2880 3622 
L 4218 3622 
L 4218 2202 
L 2995 2202 
L 2995 1741 
L 4218 1741 
L 4218 154 
L 2490 154 
L 2490 -301 
L 6189 -301 
L 6189 154 
L 4710 154 
L 4710 1741 
L 5990 1741 
L 5990 2202 
L 4710 2202 
L 4710 3622 
L 6074 3622 
L 6074 4083 
L 4710 4083 
L 5050 4397 
C 4813 4710 4301 5120 3866 5389 
L 3526 5094 
z
M 1370 5376 
L 1370 4006 
L 333 4006 
L 333 3546 
L 1312 3546 
C 1088 2662 634 1651 186 1120 
C 262 1005 384 813 435 685 
C 781 1126 1120 1837 1370 2573 
L 1370 -506 
L 1837 -506 
L 1837 2419 
C 2074 2106 2362 1715 2477 1504 
L 2778 1894 
C 2637 2067 2054 2739 1837 2970 
L 1837 3546 
L 2733 3546 
L 2733 4006 
L 1837 4006 
L 1837 5376 
L 1370 5376 
z
" transform="scale(0.015625)"/>
      <path id="NotoSansCJKjp-Regular-5b50" d="M 966 4934 
L 966 4454 
L 4595 4454 
C 4211 4134 3718 3795 3264 3546 
L 2963 3546 
L 2963 2515 
L 301 2515 
L 301 2035 
L 2963 2035 
L 2963 115 
C 2963 0 2925 -32 2790 -45 
C 2643 -45 2170 -51 1658 -32 
C 1734 -173 1830 -384 1862 -525 
C 2477 -531 2893 -518 3136 -435 
C 3379 -358 3462 -218 3462 109 
L 3462 2035 
L 6112 2035 
L 6112 2515 
L 3462 2515 
L 3462 3149 
C 4179 3539 5024 4134 5574 4685 
L 5210 4960 
L 5101 4934 
L 966 4934 
z
" transform="scale(0.015625)"/>
      <path id="NotoSansCJKjp-Regular-77ed" d="M 2822 5094 
L 2822 4653 
L 6080 4653 
L 6080 5094 
L 2822 5094 
z
M 2534 77 
L 2534 -371 
L 6144 -371 
L 6144 77 
L 2534 77 
z
M 3270 1600 
C 3418 1165 3558 595 3590 230 
L 4032 339 
C 3994 710 3846 1267 3680 1702 
L 3270 1600 
z
M 5133 1741 
C 5037 1299 4845 666 4685 294 
L 5094 192 
C 5261 544 5453 1146 5619 1626 
L 5133 1741 
z
M 3526 3514 
L 5350 3514 
L 5350 2387 
L 3526 2387 
L 3526 3514 
z
M 3078 3949 
L 3078 1965 
L 5811 1965 
L 5811 3949 
L 3078 3949 
z
M 928 5350 
C 794 4582 563 3821 205 3328 
C 326 3277 531 3162 621 3098 
C 800 3373 954 3718 1082 4102 
L 1453 4102 
L 1453 3034 
L 1453 2810 
L 282 2810 
L 282 2355 
L 1427 2355 
C 1350 1510 1088 563 237 -147 
C 333 -211 506 -390 570 -486 
C 1210 51 1555 736 1734 1427 
C 2022 1082 2400 602 2566 346 
L 2874 742 
C 2720 934 2086 1664 1837 1914 
C 1862 2061 1882 2208 1894 2355 
L 2835 2355 
L 2835 2810 
L 1920 2810 
L 1920 3027 
L 1920 4102 
L 2765 4102 
L 2765 4544 
L 1216 4544 
C 1280 4781 1338 5024 1382 5267 
L 928 5350 
z
" transform="scale(0.015625)"/>
      <path id="NotoSansCJKjp-Regular-677f" d="M 2912 4986 
L 2912 3187 
C 2912 2170 2842 781 2106 -205 
C 2208 -256 2406 -410 2483 -493 
C 3194 454 3354 1837 3379 2893 
L 3405 2893 
C 3622 2099 3930 1389 4346 800 
C 3968 384 3533 70 3066 -128 
C 3168 -218 3296 -397 3360 -506 
C 3827 -282 4256 32 4640 435 
C 4992 32 5408 -294 5894 -518 
C 5965 -397 6106 -218 6221 -122 
C 5722 77 5299 390 4941 787 
C 5427 1421 5792 2234 5984 3251 
L 5690 3354 
L 5606 3334 
L 3379 3334 
L 3379 4538 
L 6048 4538 
L 6048 4986 
L 2912 4986 
z
M 3840 2893 
L 5440 2893 
C 5267 2227 4992 1645 4640 1165 
C 4288 1658 4019 2246 3840 2893 
z
M 1293 5376 
L 1293 4006 
L 333 4006 
L 333 3552 
L 1235 3552 
C 1030 2669 602 1664 173 1120 
C 256 1011 378 819 429 691 
C 749 1120 1062 1824 1293 2554 
L 1293 -506 
L 1747 -506 
L 1747 2438 
C 1965 2118 2221 1722 2336 1504 
L 2630 1882 
C 2502 2061 1933 2790 1747 2995 
L 1747 3552 
L 2579 3552 
L 2579 4006 
L 1747 4006 
L 1747 5376 
L 1293 5376 
z
" transform="scale(0.015625)"/>
      <path id="NotoSansCJKjp-Regular-51b3" d="M 326 4890 
C 691 4486 1126 3936 1312 3578 
L 1722 3853 
C 1517 4205 1069 4736 698 5120 
L 326 4890 
z
M 243 70 
L 659 -218 
C 1005 390 1408 1203 1715 1901 
L 1357 2195 
C 1018 1446 557 582 243 70 
z
M 5050 2426 
L 4038 2426 
C 4070 2701 4077 2976 4077 3238 
L 4077 3904 
L 5050 3904 
L 5050 2426 
z
M 3571 5363 
L 3571 4365 
L 2291 4365 
L 2291 3904 
L 3571 3904 
L 3571 3238 
C 3571 2976 3565 2707 3539 2426 
L 1958 2426 
L 1958 1965 
L 3462 1965 
C 3290 1184 2822 416 1594 -141 
C 1709 -237 1869 -422 1939 -525 
C 3174 90 3699 928 3923 1786 
C 4275 691 4883 -102 5869 -499 
C 5946 -371 6086 -186 6195 -83 
C 5248 243 4646 979 4333 1965 
L 6157 1965 
L 6157 2426 
L 5510 2426 
L 5510 4365 
L 4077 4365 
L 4077 5363 
L 3571 5363 
z
" transform="scale(0.015625)"/>
      <path id="NotoSansCJKjp-Regular-5b9a" d="M 1421 2413 
C 1286 1248 934 333 224 -218 
C 339 -294 538 -461 621 -544 
C 1037 -179 1350 307 1574 896 
C 2163 -198 3117 -422 4454 -422 
L 5952 -422 
C 5971 -282 6061 -51 6131 64 
C 5818 58 4717 58 4480 58 
C 4109 58 3757 77 3443 134 
L 3443 1440 
L 5350 1440 
L 5350 1888 
L 3443 1888 
L 3443 2957 
L 5088 2957 
L 5088 3418 
L 1350 3418 
L 1350 2957 
L 2944 2957 
L 2944 269 
C 2419 461 2016 832 1760 1504 
C 1824 1766 1882 2054 1920 2355 
L 1421 2413 
z
M 525 4640 
L 525 3245 
L 998 3245 
L 998 4186 
L 5382 4186 
L 5382 3245 
L 5875 3245 
L 5875 4640 
L 3443 4640 
L 3443 5376 
L 2938 5376 
L 2938 4640 
L 525 4640 
z
" transform="scale(0.015625)"/>
     </defs>
     <use xlink:href="#NotoSansCJKjp-Regular-4f4d"/>
     <use xlink:href="#NotoSansCJKjp-Regular-7f6e" transform="translate(99.999985 0)"/>
     <use xlink:href="#NotoSansCJKjp-Regular-20" transform="translate(199.999969 0)"/>
     <use xlink:href="#NotoSansCJKjp-Regular-69" transform="translate(222.399963 0)"/>
     <use xlink:href="#NotoSansCJKjp-Regular-20" transform="translate(249.899948 0)"/>
     <use xlink:href="#NotoSansCJKjp-Regular-7684" transform="translate(272.299942 0)"/>
     <use xlink:href="#NotoSansCJKjp-Regular-63a5" transform="translate(372.299927 0)"/>
     <use xlink:href="#NotoSansCJKjp-Regular-6c34" transform="translate(472.299911 0)"/>
     <use xlink:href="#NotoSansCJKjp-Regular-91cf" transform="translate(572.299896 0)"/>
     <use xlink:href="#NotoSansCJKjp-Regular-7531" transform="translate(672.299881 0)"/>
     <use xlink:href="#NotoSansCJKjp-Regular-5de6" transform="translate(772.299866 0)"/>
     <use xlink:href="#NotoSansCJKjp-Regular-53f3" transform="translate(872.29985 0)"/>
     <use xlink:href="#NotoSansCJKjp-Regular-6700" transform="translate(972.299835 0)"/>
     <use xlink:href="#NotoSansCJKjp-Regular-9ad8" transform="translate(1072.29982 0)"/>
     <use xlink:href="#NotoSansCJKjp-Regular-67f1" transform="translate(1172.299805 0)"/>
     <use xlink:href="#NotoSansCJKjp-Regular-5b50" transform="translate(1272.299789 0)"/>
     <use xlink:href="#NotoSansCJKjp-Regular-7684" transform="translate(1372.299774 0)"/>
     <use xlink:href="#NotoSansCJKjp-Regular-77ed" transform="translate(1472.299759 0)"/>
     <use xlink:href="#NotoSansCJKjp-Regular-677f" transform="translate(1572.299744 0)"/>
     <use xlink:href="#NotoSansCJKjp-Regular-51b3" transform="translate(1672.299728 0)"/>
     <use xlink:href="#NotoSansCJKjp-Regular-5b9a" transform="translate(1772.299713 0)"/>
    </g>
   </g>
  </g>
 </g>
 <defs>
  <clipPath id="p573d08bd5c">
   <rect x="7.2" y="30.159375" width="446.4" height="249.48"/>
  </clipPath>
 </defs>
</svg>
