<?xml version="1.0" encoding="utf-8" standalone="no"?>
<!DOCTYPE svg PUBLIC "-//W3C//DTD SVG 1.1//EN"
  "http://www.w3.org/Graphics/SVG/1.1/DTD/svg11.dtd">
<svg xmlns:xlink="http://www.w3.org/1999/xlink" width="460.8pt" height="309.924375pt" viewBox="0 0 460.8 309.924375" xmlns="http://www.w3.org/2000/svg" version="1.1">
 <metadata>
  <rdf:RDF xmlns:dc="http://purl.org/dc/elements/1.1/" xmlns:cc="http://creativecommons.org/ns#" xmlns:rdf="http://www.w3.org/1999/02/22-rdf-syntax-ns#">
   <cc:Work>
    <dc:type rdf:resource="http://purl.org/dc/dcmitype/StillImage"/>
    <dc:date>2026-07-06T14:42:05.790747</dc:date>
    <dc:format>image/svg+xml</dc:format>
    <dc:creator>
     <cc:Agent>
      <dc:title>Matplotlib v3.10.9, https://matplotlib.org/</dc:title>
     </cc:Agent>
    </dc:creator>
   </cc:Work>
  </rdf:RDF>
 </metadata>
 <defs>
  <style type="text/css">*{stroke-linejoin: round; stroke-linecap: butt}</style>
 </defs>
 <g id="figure_1">
  <g id="patch_1">
   <path d="M 0 309.924375 
L 460.8 309.924375 
L 460.8 0 
L 0 0 
z
" style="fill: #ffffff"/>
  </g>
  <g id="axes_1">
   <g id="patch_2">
    <path d="M 35.1 279.639375 
L 74.16 279.639375 
L 74.16 224.199375 
L 35.1 224.199375 
z
" clip-path="url(#p03e54f5ee9)" style="fill: #3498db; stroke: #2980b9; stroke-width: 2; stroke-linejoin: miter"/>
   </g>
   <g id="patch_3">
    <path d="M 88.11 279.639375 
L 127.17 279.639375 
L 127.17 279.639375 
L 88.11 279.639375 
z
" clip-path="url(#p03e54f5ee9)" style="fill: #ecf0f1; stroke: #7f8c8d; stroke-width: 2; stroke-linejoin: miter"/>
   </g>
   <g id="patch_4">
    <path d="M 141.12 279.639375 
L 180.18 279.639375 
L 180.18 168.759375 
L 141.12 168.759375 
z
" clip-path="url(#p03e54f5ee9)" style="fill: #ecf0f1; stroke: #7f8c8d; stroke-width: 2; stroke-linejoin: miter"/>
   </g>
   <g id="patch_5">
    <path d="M 194.13 279.639375 
L 233.19 279.639375 
L 233.19 279.639375 
L 194.13 279.639375 
z
" clip-path="url(#p03e54f5ee9)" style="fill: #ecf0f1; stroke: #7f8c8d; stroke-width: 2; stroke-linejoin: miter"/>
   </g>
   <g id="patch_6">
    <path d="M 247.14 279.639375 
L 286.2 279.639375 
L 286.2 224.199375 
L 247.14 224.199375 
z
" clip-path="url(#p03e54f5ee9)" style="fill: #ecf0f1; stroke: #7f8c8d; stroke-width: 2; stroke-linejoin: miter"/>
   </g>
   <g id="patch_7">
    <path d="M 300.15 279.639375 
L 339.21 279.639375 
L 339.21 279.639375 
L 300.15 279.639375 
z
" clip-path="url(#p03e54f5ee9)" style="fill: #ecf0f1; stroke: #7f8c8d; stroke-width: 2; stroke-linejoin: miter"/>
   </g>
   <g id="patch_8">
    <path d="M 353.16 279.639375 
L 392.22 279.639375 
L 392.22 113.319375 
L 353.16 113.319375 
z
" clip-path="url(#p03e54f5ee9)" style="fill: #3498db; stroke: #2980b9; stroke-width: 2; stroke-linejoin: miter"/>
   </g>
   <g id="patch_9">
    <path d="M 40.68 60.651375 
L 408.96 60.651375 
Q 417.33 60.651375 417.33 52.335375 
L 417.33 41.247375 
Q 417.33 32.931375 408.96 32.931375 
L 40.68 32.931375 
Q 32.31 32.931375 32.31 41.247375 
L 32.31 52.335375 
Q 32.31 60.651375 40.68 60.651375 
z
" clip-path="url(#p03e54f5ee9)" style="fill: #eafaf1; stroke: #2ecc71; stroke-width: 2; stroke-linejoin: miter"/>
   </g>
   <g id="line2d_1">
    <path d="M 23.94 279.639375 
L 414.54 279.639375 
" clip-path="url(#p03e54f5ee9)" style="fill: none; stroke: #7f8c8d; stroke-opacity: 0.9; stroke-width: 3; stroke-linecap: round"/>
   </g>
   <g id="text_1">
    <!-- 0 -->
    <g style="fill: #2c3e50" transform="translate(52.1325 300.662812) scale(0.09 -0.09)">
     <defs>
      <path id="NotoSansCJKjp-Regular-30" d="M 1779 -83 
C 2669 -83 3238 723 3238 2362 
C 3238 3987 2669 4774 1779 4774 
C 883 4774 320 3987 320 2362 
C 320 723 883 -83 1779 -83 
z
M 1779 390 
C 1248 390 883 986 883 2362 
C 883 3731 1248 4314 1779 4314 
C 2310 4314 2675 3731 2675 2362 
C 2675 986 2310 390 1779 390 
z
" transform="scale(0.015625)"/>
     </defs>
     <use xlink:href="#NotoSansCJKjp-Regular-30"/>
    </g>
   </g>
   <g id="text_2">
    <!-- 1 -->
    <g style="fill: #2c3e50" transform="translate(105.1425 300.662812) scale(0.09 -0.09)">
     <defs>
      <path id="NotoSansCJKjp-Regular-31" d="M 563 0 
L 3136 0 
L 3136 486 
L 2195 486 
L 2195 4691 
L 1747 4691 
C 1491 4544 1190 4435 774 4358 
L 774 3987 
L 1613 3987 
L 1613 486 
L 563 486 
L 563 0 
z
" transform="scale(0.015625)"/>
     </defs>
     <use xlink:href="#NotoSansCJKjp-Regular-31"/>
    </g>
   </g>
   <g id="text_3">
    <!-- 2 -->
    <g style="fill: #2c3e50" transform="translate(158.1525 300.662812) scale(0.09 -0.09)">
     <defs>
      <path id="NotoSansCJKjp-Regular-32" d="M 282 0 
L 3232 0 
L 3232 506 
L 1933 506 
C 1696 506 1408 480 1165 461 
C 2266 1504 3008 2458 3008 3398 
C 3008 4230 2477 4774 1638 4774 
C 1043 4774 634 4506 256 4090 
L 595 3757 
C 858 4070 1184 4301 1568 4301 
C 2150 4301 2432 3910 2432 3373 
C 2432 2566 1754 1632 282 346 
L 282 0 
z
" transform="scale(0.015625)"/>
     </defs>
     <use xlink:href="#NotoSansCJKjp-Regular-32"/>
    </g>
   </g>
   <g id="text_4">
    <!-- 3 -->
    <g style="fill: #2c3e50" transform="translate(211.1625 300.662812) scale(0.09 -0.09)">
     <defs>
      <path id="NotoSansCJKjp-Regular-33" d="M 1683 -83 
C 2522 -83 3194 416 3194 1254 
C 3194 1901 2752 2310 2202 2445 
L 2202 2477 
C 2701 2650 3034 3034 3034 3603 
C 3034 4346 2458 4774 1664 4774 
C 1126 4774 710 4538 358 4218 
L 672 3846 
C 941 4115 1267 4301 1645 4301 
C 2138 4301 2438 4006 2438 3558 
C 2438 3053 2112 2662 1139 2662 
L 1139 2214 
C 2227 2214 2598 1843 2598 1274 
C 2598 736 2208 403 1645 403 
C 1114 403 762 659 486 941 
L 186 563 
C 493 224 954 -83 1683 -83 
z
" transform="scale(0.015625)"/>
     </defs>
     <use xlink:href="#NotoSansCJKjp-Regular-33"/>
    </g>
   </g>
   <g id="text_5">
    <!-- 4 -->
    <g style="fill: #2c3e50" transform="translate(264.1725 300.662812) scale(0.09 -0.09)">
     <defs>
      <path id="NotoSansCJKjp-Regular-34" d="M 2176 0 
L 2726 0 
L 2726 1293 
L 3354 1293 
L 3354 1760 
L 2726 1760 
L 2726 4691 
L 2080 4691 
L 128 1677 
L 128 1293 
L 2176 1293 
L 2176 0 
z
M 2176 1760 
L 736 1760 
L 1805 3360 
C 1939 3590 2067 3827 2182 4051 
L 2208 4051 
C 2195 3814 2176 3430 2176 3200 
L 2176 1760 
z
" transform="scale(0.015625)"/>
     </defs>
     <use xlink:href="#NotoSansCJKjp-Regular-34"/>
    </g>
   </g>
   <g id="text_6">
    <!-- 5 -->
    <g style="fill: #2c3e50" transform="translate(317.1825 300.662812) scale(0.09 -0.09)">
     <defs>
      <path id="NotoSansCJKjp-Regular-35" d="M 1677 -83 
C 2464 -83 3213 499 3213 1523 
C 3213 2560 2573 3021 1798 3021 
C 1517 3021 1306 2950 1094 2835 
L 1216 4192 
L 2982 4192 
L 2982 4691 
L 704 4691 
L 550 2502 
L 864 2304 
C 1133 2483 1331 2579 1645 2579 
C 2234 2579 2618 2182 2618 1510 
C 2618 826 2176 403 1619 403 
C 1075 403 730 653 467 922 
L 173 538 
C 493 224 941 -83 1677 -83 
z
" transform="scale(0.015625)"/>
     </defs>
     <use xlink:href="#NotoSansCJKjp-Regular-35"/>
    </g>
   </g>
   <g id="text_7">
    <!-- 6 -->
    <g style="fill: #2c3e50" transform="translate(370.1925 300.662812) scale(0.09 -0.09)">
     <defs>
      <path id="NotoSansCJKjp-Regular-36" d="M 1926 -83 
C 2656 -83 3277 531 3277 1440 
C 3277 2426 2765 2912 1971 2912 
C 1606 2912 1197 2701 909 2349 
C 934 3802 1466 4294 2118 4294 
C 2400 4294 2682 4154 2861 3936 
L 3194 4294 
C 2931 4576 2579 4774 2093 4774 
C 1184 4774 358 4077 358 2240 
C 358 691 1030 -83 1926 -83 
z
M 922 1882 
C 1229 2317 1587 2477 1875 2477 
C 2445 2477 2720 2074 2720 1440 
C 2720 800 2374 378 1926 378 
C 1338 378 986 909 922 1882 
z
" transform="scale(0.015625)"/>
     </defs>
     <use xlink:href="#NotoSansCJKjp-Regular-36"/>
    </g>
   </g>
   <g id="patch_10">
    <path d="M 54.63 106.232909 
Q 54.63 164.217128 54.63 219.965279 
" style="fill: none; stroke: #e74c3c; stroke-width: 2; stroke-linecap: round"/>
    <path d="M 56.83 215.565279 
L 54.63 219.965279 
L 52.43 215.565279 
" style="fill: none; stroke: #e74c3c; stroke-width: 2; stroke-linecap: round"/>
   </g>
   <g id="text_8">
    <!-- left -->
    <g style="fill: #e74c3c" transform="translate(46.159141 86.685625) scale(0.11 -0.11)">
     <defs>
      <path id="NotoSansCJKjp-Regular-6c" d="M 1203 -83 
C 1363 -83 1459 -58 1542 -32 
L 1459 416 
C 1395 403 1370 403 1338 403 
C 1248 403 1178 474 1178 653 
L 1178 5094 
L 589 5094 
L 589 691 
C 589 198 768 -83 1203 -83 
z
" transform="scale(0.015625)"/>
      <path id="NotoSansCJKjp-Regular-65" d="M 1997 -83 
C 2464 -83 2835 70 3136 269 
L 2931 659 
C 2669 486 2400 384 2061 384 
C 1402 384 947 858 909 1600 
L 3251 1600 
C 3264 1690 3277 1805 3277 1933 
C 3277 2925 2778 3565 1888 3565 
C 1094 3565 333 2867 333 1734 
C 333 589 1069 -83 1997 -83 
z
M 902 2016 
C 973 2707 1408 3098 1901 3098 
C 2445 3098 2765 2720 2765 2016 
L 902 2016 
z
" transform="scale(0.015625)"/>
      <path id="NotoSansCJKjp-Regular-66" d="M 211 3002 
L 685 3002 
L 685 0 
L 1267 0 
L 1267 3002 
L 2003 3002 
L 2003 3475 
L 1267 3475 
L 1267 4026 
C 1267 4474 1427 4710 1760 4710 
C 1882 4710 2022 4678 2150 4614 
L 2278 5069 
C 2118 5133 1914 5178 1696 5178 
C 1005 5178 685 4736 685 4032 
L 685 3475 
L 211 3443 
L 211 3002 
z
" transform="scale(0.015625)"/>
      <path id="NotoSansCJKjp-Regular-74" d="M 1677 -83 
C 1894 -83 2125 -19 2323 45 
L 2208 486 
C 2093 435 1939 390 1811 390 
C 1408 390 1274 634 1274 1056 
L 1274 3002 
L 2221 3002 
L 2221 3475 
L 1274 3475 
L 1274 4454 
L 787 4454 
L 723 3475 
L 173 3443 
L 173 3002 
L 691 3002 
L 691 1075 
C 691 378 941 -83 1677 -83 
z
" transform="scale(0.015625)"/>
     </defs>
     <use xlink:href="#NotoSansCJKjp-Regular-6c"/>
     <use xlink:href="#NotoSansCJKjp-Regular-65" transform="translate(28.399994 0)"/>
     <use xlink:href="#NotoSansCJKjp-Regular-66" transform="translate(83.799988 0)"/>
     <use xlink:href="#NotoSansCJKjp-Regular-74" transform="translate(116.299973 0)"/>
    </g>
    <!-- left_max=1 -->
    <g style="fill: #e74c3c" transform="translate(26.051484 99.711687) scale(0.11 -0.11)">
     <defs>
      <path id="NotoSansCJKjp-Regular-5f" d="M 83 -896 
L 3488 -896 
L 3488 -512 
L 83 -512 
L 83 -896 
z
" transform="scale(0.015625)"/>
      <path id="NotoSansCJKjp-Regular-6d" d="M 589 0 
L 1178 0 
L 1178 2522 
C 1491 2880 1786 3053 2048 3053 
C 2490 3053 2694 2778 2694 2125 
L 2694 0 
L 3277 0 
L 3277 2522 
C 3603 2880 3885 3053 4154 3053 
C 4595 3053 4800 2778 4800 2125 
L 4800 0 
L 5382 0 
L 5382 2202 
C 5382 3085 5043 3565 4333 3565 
C 3904 3565 3546 3290 3181 2899 
C 3040 3309 2758 3565 2221 3565 
C 1805 3565 1446 3302 1139 2970 
L 1126 2970 
L 1069 3475 
L 589 3475 
L 589 0 
z
" transform="scale(0.015625)"/>
      <path id="NotoSansCJKjp-Regular-61" d="M 1389 -83 
C 1818 -83 2208 141 2541 416 
L 2560 416 
L 2611 0 
L 3091 0 
L 3091 2138 
C 3091 3002 2739 3565 1888 3565 
C 1325 3565 838 3315 525 3110 
L 749 2707 
C 1024 2893 1389 3078 1792 3078 
C 2362 3078 2509 2650 2509 2202 
C 1030 2035 378 1658 378 902 
C 378 275 806 -83 1389 -83 
z
M 1555 390 
C 1210 390 941 544 941 941 
C 941 1389 1338 1677 2509 1811 
L 2509 845 
C 2170 544 1888 390 1555 390 
z
" transform="scale(0.015625)"/>
      <path id="NotoSansCJKjp-Regular-78" d="M 96 0 
L 710 0 
L 1178 813 
C 1299 1024 1408 1235 1530 1434 
L 1562 1434 
C 1696 1235 1824 1024 1939 813 
L 2451 0 
L 3091 0 
L 1946 1754 
L 3002 3475 
L 2394 3475 
L 1965 2714 
C 1856 2515 1760 2330 1658 2131 
L 1626 2131 
C 1510 2330 1389 2515 1286 2714 
L 819 3475 
L 186 3475 
L 1242 1811 
L 96 0 
z
" transform="scale(0.015625)"/>
      <path id="NotoSansCJKjp-Regular-3d" d="M 243 2912 
L 3315 2912 
L 3315 3347 
L 243 3347 
L 243 2912 
z
M 243 1376 
L 3315 1376 
L 3315 1811 
L 243 1811 
L 243 1376 
z
" transform="scale(0.015625)"/>
     </defs>
     <use xlink:href="#NotoSansCJKjp-Regular-6c"/>
     <use xlink:href="#NotoSansCJKjp-Regular-65" transform="translate(28.399994 0)"/>
     <use xlink:href="#NotoSansCJKjp-Regular-66" transform="translate(83.799988 0)"/>
     <use xlink:href="#NotoSansCJKjp-Regular-74" transform="translate(116.299973 0)"/>
     <use xlink:href="#NotoSansCJKjp-Regular-5f" transform="translate(153.999969 0)"/>
     <use xlink:href="#NotoSansCJKjp-Regular-6d" transform="translate(209.899963 0)"/>
     <use xlink:href="#NotoSansCJKjp-Regular-61" transform="translate(302.499954 0)"/>
     <use xlink:href="#NotoSansCJKjp-Regular-78" transform="translate(358.799942 0)"/>
     <use xlink:href="#NotoSansCJKjp-Regular-3d" transform="translate(408.59993 0)"/>
     <use xlink:href="#NotoSansCJKjp-Regular-31" transform="translate(464.099915 0)"/>
    </g>
   </g>
   <g id="patch_11">
    <path d="M 372.69 106.230998 
Q 372.69 108.776653 372.69 109.08624 
" style="fill: none; stroke: #2ecc71; stroke-width: 2; stroke-linecap: round"/>
    <path d="M 374.89 104.68624 
L 372.69 109.08624 
L 370.49 104.68624 
" style="fill: none; stroke: #2ecc71; stroke-width: 2; stroke-linecap: round"/>
   </g>
   <g id="text_9">
    <!-- right -->
    <g style="fill: #2ecc71" transform="translate(360.528984 86.225) scale(0.11 -0.11)">
     <defs>
      <path id="NotoSansCJKjp-Regular-72" d="M 589 0 
L 1178 0 
L 1178 2234 
C 1408 2822 1760 3040 2048 3040 
C 2195 3040 2272 3021 2387 2982 
L 2496 3488 
C 2387 3546 2278 3565 2125 3565 
C 1741 3565 1382 3283 1139 2842 
L 1126 2842 
L 1069 3475 
L 589 3475 
L 589 0 
z
" transform="scale(0.015625)"/>
      <path id="NotoSansCJKjp-Regular-69" d="M 589 0 
L 1178 0 
L 1178 3475 
L 589 3475 
L 589 0 
z
M 883 4192 
C 1114 4192 1274 4346 1274 4582 
C 1274 4806 1114 4960 883 4960 
C 653 4960 499 4806 499 4582 
C 499 4346 653 4192 883 4192 
z
" transform="scale(0.015625)"/>
      <path id="NotoSansCJKjp-Regular-67" d="M 1760 -1600 
C 2835 -1600 3520 -1043 3520 -397 
C 3520 179 3110 429 2310 429 
L 1626 429 
C 1158 429 1018 589 1018 806 
C 1018 998 1114 1114 1242 1222 
C 1395 1146 1587 1101 1754 1101 
C 2470 1101 3027 1568 3027 2310 
C 3027 2611 2912 2867 2746 3027 
L 3456 3027 
L 3456 3475 
L 2246 3475 
C 2125 3526 1952 3565 1754 3565 
C 1056 3565 454 3085 454 2323 
C 454 1907 678 1568 909 1389 
L 909 1363 
C 723 1235 525 1005 525 717 
C 525 442 659 256 838 147 
L 838 115 
C 512 -83 326 -371 326 -672 
C 326 -1267 915 -1600 1760 -1600 
z
M 1754 1498 
C 1357 1498 1018 1818 1018 2323 
C 1018 2835 1350 3136 1754 3136 
C 2170 3136 2496 2835 2496 2323 
C 2496 1818 2157 1498 1754 1498 
z
M 1843 -1197 
C 1210 -1197 838 -960 838 -589 
C 838 -390 941 -179 1190 0 
C 1344 -38 1510 -51 1638 -51 
L 2240 -51 
C 2701 -51 2944 -166 2944 -493 
C 2944 -851 2515 -1197 1843 -1197 
z
" transform="scale(0.015625)"/>
      <path id="NotoSansCJKjp-Regular-68" d="M 589 0 
L 1178 0 
L 1178 2522 
C 1523 2874 1766 3053 2125 3053 
C 2586 3053 2784 2778 2784 2125 
L 2784 0 
L 3366 0 
L 3366 2202 
C 3366 3085 3034 3565 2304 3565 
C 1830 3565 1472 3302 1152 2982 
L 1178 3699 
L 1178 5094 
L 589 5094 
L 589 0 
z
" transform="scale(0.015625)"/>
     </defs>
     <use xlink:href="#NotoSansCJKjp-Regular-72"/>
     <use xlink:href="#NotoSansCJKjp-Regular-69" transform="translate(38.799988 0)"/>
     <use xlink:href="#NotoSansCJKjp-Regular-67" transform="translate(66.299973 0)"/>
     <use xlink:href="#NotoSansCJKjp-Regular-68" transform="translate(122.699966 0)"/>
     <use xlink:href="#NotoSansCJKjp-Regular-74" transform="translate(183.399963 0)"/>
    </g>
    <!-- right_max=3 -->
    <g style="fill: #2ecc71" transform="translate(340.421328 99.481375) scale(0.11 -0.11)">
     <use xlink:href="#NotoSansCJKjp-Regular-72"/>
     <use xlink:href="#NotoSansCJKjp-Regular-69" transform="translate(38.799988 0)"/>
     <use xlink:href="#NotoSansCJKjp-Regular-67" transform="translate(66.299973 0)"/>
     <use xlink:href="#NotoSansCJKjp-Regular-68" transform="translate(122.699966 0)"/>
     <use xlink:href="#NotoSansCJKjp-Regular-74" transform="translate(183.399963 0)"/>
     <use xlink:href="#NotoSansCJKjp-Regular-5f" transform="translate(221.09996 0)"/>
     <use xlink:href="#NotoSansCJKjp-Regular-6d" transform="translate(276.999954 0)"/>
     <use xlink:href="#NotoSansCJKjp-Regular-61" transform="translate(369.599945 0)"/>
     <use xlink:href="#NotoSansCJKjp-Regular-78" transform="translate(425.899933 0)"/>
     <use xlink:href="#NotoSansCJKjp-Regular-3d" transform="translate(475.699921 0)"/>
     <use xlink:href="#NotoSansCJKjp-Regular-33" transform="translate(531.199905 0)"/>
    </g>
   </g>
   <g id="text_10">
    <!-- height[left] &lt; height[right] → 移动 left -->
    <g style="fill: #e74c3c" transform="translate(63 72.507375) scale(0.12 -0.12)">
     <defs>
      <path id="NotoSansCJKjp-Regular-5b" d="M 678 -1088 
L 1946 -1088 
L 1946 -755 
L 1114 -755 
L 1114 4730 
L 1946 4730 
L 1946 5069 
L 678 5069 
L 678 -1088 
z
" transform="scale(0.015625)"/>
      <path id="NotoSansCJKjp-Regular-5d" d="M 218 -1088 
L 1491 -1088 
L 1491 5069 
L 218 5069 
L 218 4730 
L 1050 4730 
L 1050 -755 
L 218 -755 
L 218 -1088 
z
" transform="scale(0.015625)"/>
      <path id="NotoSansCJKjp-Regular-20" transform="scale(0.015625)"/>
      <path id="NotoSansCJKjp-Regular-3c" d="M 3315 934 
L 3315 1446 
L 1798 2003 
L 838 2362 
L 838 2387 
L 1798 2746 
L 3315 3309 
L 3315 3814 
L 243 2605 
L 243 2144 
L 3315 934 
z
" transform="scale(0.015625)"/>
      <path id="NotoSansCJKjp-Regular-2192" d="M 5190 2650 
L 256 2650 
L 256 2214 
L 5190 2214 
C 4864 1965 4442 1562 4154 1165 
L 4538 941 
C 4966 1504 5606 2067 6176 2432 
C 5606 2797 4966 3360 4538 3923 
L 4154 3699 
C 4442 3302 4864 2899 5190 2650 
z
" transform="scale(0.015625)"/>
      <path id="NotoSansCJKjp-Regular-79fb" d="M 3910 4416 
L 5197 4416 
C 5024 4083 4774 3795 4486 3546 
C 4275 3750 3949 3994 3654 4179 
L 3910 4416 
z
M 4109 5376 
C 3827 4883 3277 4307 2477 3910 
C 2573 3834 2720 3680 2784 3578 
C 2982 3686 3168 3808 3341 3930 
C 3629 3750 3949 3494 4154 3290 
C 3686 2970 3136 2739 2586 2605 
C 2675 2515 2790 2336 2835 2221 
C 4122 2586 5325 3347 5824 4691 
L 5523 4838 
L 5434 4819 
L 4269 4819 
C 4390 4973 4499 5126 4589 5286 
L 4109 5376 
z
M 4211 1952 
L 5536 1952 
C 5350 1555 5088 1222 4768 941 
C 4531 1165 4166 1427 3840 1626 
C 3974 1728 4096 1837 4211 1952 
z
M 4454 2963 
C 4141 2400 3501 1760 2560 1325 
C 2656 1254 2797 1094 2861 992 
C 3085 1107 3296 1229 3488 1363 
C 3821 1165 4173 890 4410 659 
C 3846 282 3168 32 2451 -102 
C 2541 -205 2650 -397 2694 -512 
C 4243 -166 5613 621 6157 2246 
L 5850 2381 
L 5760 2362 
L 4576 2362 
C 4717 2534 4832 2707 4934 2880 
L 4454 2963 
z
M 2310 5286 
C 1837 5069 992 4883 275 4762 
C 333 4659 397 4499 416 4397 
C 717 4435 1037 4493 1357 4557 
L 1357 3571 
L 314 3571 
L 314 3123 
L 1293 3123 
C 1037 2387 595 1555 179 1101 
C 262 986 378 794 429 659 
C 755 1056 1094 1690 1357 2336 
L 1357 -499 
L 1830 -499 
L 1830 2259 
C 2048 1990 2304 1645 2413 1466 
L 2701 1843 
C 2573 1990 2016 2566 1830 2726 
L 1830 3123 
L 2630 3123 
L 2630 3571 
L 1830 3571 
L 1830 4666 
C 2131 4736 2413 4819 2643 4915 
L 2310 5286 
z
" transform="scale(0.015625)"/>
      <path id="NotoSansCJKjp-Regular-52a8" d="M 570 4851 
L 570 4422 
L 3046 4422 
L 3046 4851 
L 570 4851 
z
M 4179 5267 
C 4179 4813 4179 4352 4160 3898 
L 3245 3898 
L 3245 3437 
L 4141 3437 
C 4064 1978 3808 640 2931 -160 
C 3059 -230 3226 -390 3309 -506 
C 4250 390 4525 1850 4614 3437 
L 5568 3437 
C 5498 1165 5414 314 5242 122 
C 5178 45 5107 26 4992 26 
C 4858 26 4518 26 4160 64 
C 4243 -77 4294 -275 4307 -410 
C 4646 -435 4998 -435 5197 -416 
C 5402 -397 5530 -339 5658 -173 
C 5882 109 5958 1018 6048 3654 
C 6048 3725 6048 3898 6048 3898 
L 4634 3898 
C 4646 4352 4653 4813 4653 5267 
L 4179 5267 
z
M 570 282 
L 576 288 
L 576 275 
C 723 365 954 435 2733 838 
L 2854 410 
L 3277 550 
C 3155 998 2867 1760 2624 2336 
L 2227 2227 
C 2355 1926 2483 1574 2598 1242 
L 1075 922 
C 1325 1498 1568 2214 1728 2886 
L 3162 2886 
L 3162 3328 
L 346 3328 
L 346 2886 
L 1235 2886 
C 1069 2138 800 1382 710 1171 
C 602 928 518 755 416 723 
C 474 608 544 378 570 282 
z
" transform="scale(0.015625)"/>
     </defs>
     <use xlink:href="#NotoSansCJKjp-Regular-68"/>
     <use xlink:href="#NotoSansCJKjp-Regular-65" transform="translate(60.699997 0)"/>
     <use xlink:href="#NotoSansCJKjp-Regular-69" transform="translate(116.099991 0)"/>
     <use xlink:href="#NotoSansCJKjp-Regular-67" transform="translate(143.599976 0)"/>
     <use xlink:href="#NotoSansCJKjp-Regular-68" transform="translate(199.999969 0)"/>
     <use xlink:href="#NotoSansCJKjp-Regular-74" transform="translate(260.699966 0)"/>
     <use xlink:href="#NotoSansCJKjp-Regular-5b" transform="translate(298.399963 0)"/>
     <use xlink:href="#NotoSansCJKjp-Regular-6c" transform="translate(332.199951 0)"/>
     <use xlink:href="#NotoSansCJKjp-Regular-65" transform="translate(360.599945 0)"/>
     <use xlink:href="#NotoSansCJKjp-Regular-66" transform="translate(415.999939 0)"/>
     <use xlink:href="#NotoSansCJKjp-Regular-74" transform="translate(448.499924 0)"/>
     <use xlink:href="#NotoSansCJKjp-Regular-5d" transform="translate(486.199921 0)"/>
     <use xlink:href="#NotoSansCJKjp-Regular-20" transform="translate(519.999908 0)"/>
     <use xlink:href="#NotoSansCJKjp-Regular-3c" transform="translate(542.399902 0)"/>
     <use xlink:href="#NotoSansCJKjp-Regular-20" transform="translate(597.899887 0)"/>
     <use xlink:href="#NotoSansCJKjp-Regular-68" transform="translate(620.299881 0)"/>
     <use xlink:href="#NotoSansCJKjp-Regular-65" transform="translate(680.999878 0)"/>
     <use xlink:href="#NotoSansCJKjp-Regular-69" transform="translate(736.399872 0)"/>
     <use xlink:href="#NotoSansCJKjp-Regular-67" transform="translate(763.899857 0)"/>
     <use xlink:href="#NotoSansCJKjp-Regular-68" transform="translate(820.29985 0)"/>
     <use xlink:href="#NotoSansCJKjp-Regular-74" transform="translate(880.999847 0)"/>
     <use xlink:href="#NotoSansCJKjp-Regular-5b" transform="translate(918.699844 0)"/>
     <use xlink:href="#NotoSansCJKjp-Regular-72" transform="translate(952.499832 0)"/>
     <use xlink:href="#NotoSansCJKjp-Regular-69" transform="translate(991.29982 0)"/>
     <use xlink:href="#NotoSansCJKjp-Regular-67" transform="translate(1018.799805 0)"/>
     <use xlink:href="#NotoSansCJKjp-Regular-68" transform="translate(1075.199799 0)"/>
     <use xlink:href="#NotoSansCJKjp-Regular-74" transform="translate(1135.899796 0)"/>
     <use xlink:href="#NotoSansCJKjp-Regular-5d" transform="translate(1173.599792 0)"/>
     <use xlink:href="#NotoSansCJKjp-Regular-20" transform="translate(1207.39978 0)"/>
     <use xlink:href="#NotoSansCJKjp-Regular-2192" transform="translate(1229.799774 0)"/>
     <use xlink:href="#NotoSansCJKjp-Regular-20" transform="translate(1329.799759 0)"/>
     <use xlink:href="#NotoSansCJKjp-Regular-79fb" transform="translate(1352.199753 0)"/>
     <use xlink:href="#NotoSansCJKjp-Regular-52a8" transform="translate(1452.199738 0)"/>
     <use xlink:href="#NotoSansCJKjp-Regular-20" transform="translate(1552.199722 0)"/>
     <use xlink:href="#NotoSansCJKjp-Regular-6c" transform="translate(1574.599716 0)"/>
     <use xlink:href="#NotoSansCJKjp-Regular-65" transform="translate(1602.99971 0)"/>
     <use xlink:href="#NotoSansCJKjp-Regular-66" transform="translate(1658.399704 0)"/>
     <use xlink:href="#NotoSansCJKjp-Regular-74" transform="translate(1690.899689 0)"/>
    </g>
   </g>
   <g id="text_11">
    <!-- 较小侧的 max 已经确定，不会受另一侧未知情况影响 -->
    <g style="fill: #27ae60" transform="translate(95.9275 49.909187) scale(0.11 -0.11)">
     <defs>
      <path id="NotoSansCJKjp-Regular-8f83" d="M 4883 3661 
C 5222 3213 5619 2611 5798 2240 
L 6176 2483 
C 5990 2848 5581 3430 5235 3859 
L 4883 3661 
z
M 3667 3853 
C 3456 3386 3110 2886 2784 2547 
C 2880 2458 3034 2272 3098 2189 
C 3443 2573 3827 3174 4096 3712 
L 3667 3853 
z
M 518 2125 
C 570 2176 768 2214 979 2214 
L 1581 2214 
L 1581 1267 
L 256 1069 
L 352 602 
L 1581 813 
L 1581 -480 
L 2010 -480 
L 2010 890 
L 2675 1011 
L 2656 1440 
L 2010 1331 
L 2010 2214 
L 2560 2214 
L 2560 2650 
L 2010 2650 
L 2010 3642 
L 1581 3642 
L 1581 2650 
L 947 2650 
C 1126 3091 1306 3616 1459 4160 
L 2547 4160 
L 2547 4621 
L 1581 4621 
C 1632 4838 1683 5062 1722 5280 
L 1254 5376 
C 1222 5126 1171 4870 1114 4621 
L 301 4621 
L 301 4160 
L 1005 4160 
C 870 3648 736 3226 672 3066 
C 563 2784 480 2579 371 2547 
C 422 2432 493 2214 518 2125 
z
M 3936 5229 
C 4090 4992 4269 4672 4358 4461 
L 2854 4461 
L 2854 4019 
L 6029 4019 
L 6029 4461 
L 4435 4461 
L 4794 4640 
C 4704 4845 4518 5171 4346 5408 
L 3936 5229 
z
M 5011 2669 
C 4890 2182 4698 1741 4448 1344 
C 4173 1741 3962 2189 3808 2656 
L 3386 2541 
C 3578 1958 3840 1427 4160 960 
C 3770 493 3270 109 2662 -179 
C 2765 -262 2906 -429 2970 -518 
C 3558 -230 4045 141 4442 595 
C 4832 134 5293 -237 5830 -480 
C 5907 -358 6048 -179 6157 -90 
C 5606 134 5126 506 4730 973 
C 5050 1434 5293 1958 5453 2560 
L 5011 2669 
z
" transform="scale(0.015625)"/>
      <path id="NotoSansCJKjp-Regular-5c0f" d="M 2970 5286 
L 2970 154 
C 2970 26 2918 -13 2790 -19 
C 2656 -26 2195 -32 1728 -13 
C 1805 -147 1894 -378 1926 -512 
C 2528 -518 2925 -506 3162 -422 
C 3392 -346 3488 -198 3488 154 
L 3488 5286 
L 2970 5286 
z
M 4512 3654 
C 5062 2733 5581 1536 5728 774 
L 6246 986 
C 6080 1754 5536 2931 4973 3827 
L 4512 3654 
z
M 1293 3782 
C 1133 2925 774 1818 205 1139 
C 339 1082 550 966 659 883 
C 1242 1594 1619 2752 1830 3693 
L 1293 3782 
z
" transform="scale(0.015625)"/>
      <path id="NotoSansCJKjp-Regular-4fa7" d="M 3066 634 
C 3373 301 3731 -160 3891 -448 
L 4198 -218 
C 4032 58 3667 506 3360 832 
L 3066 634 
z
M 1875 4973 
L 1875 973 
L 2259 973 
L 2259 4602 
L 3648 4602 
L 3648 986 
L 4051 986 
L 4051 4973 
L 1875 4973 
z
M 5498 5318 
L 5498 45 
C 5498 -51 5466 -77 5382 -77 
C 5299 -77 5024 -83 4717 -70 
C 4774 -192 4832 -378 4851 -493 
C 5274 -493 5536 -480 5690 -410 
C 5843 -339 5907 -211 5907 51 
L 5907 5318 
L 5498 5318 
z
M 4557 4762 
L 4557 928 
L 4947 928 
L 4947 4762 
L 4557 4762 
z
M 2765 4173 
L 2765 1990 
C 2765 1216 2650 358 1677 -230 
C 1747 -288 1882 -429 1926 -512 
C 2976 109 3136 1126 3136 1990 
L 3136 4173 
L 2765 4173 
z
M 1293 5370 
C 1043 4390 646 3411 173 2752 
C 250 2643 378 2406 422 2304 
C 589 2534 749 2810 896 3104 
L 896 -493 
L 1299 -493 
L 1299 4013 
C 1459 4422 1600 4845 1715 5267 
L 1293 5370 
z
" transform="scale(0.015625)"/>
      <path id="NotoSansCJKjp-Regular-7684" d="M 3533 2707 
C 3885 2240 4320 1600 4512 1210 
L 4922 1466 
C 4710 1843 4269 2464 3904 2918 
L 3533 2707 
z
M 1536 5389 
C 1485 5082 1376 4659 1274 4346 
L 557 4346 
L 557 -346 
L 998 -346 
L 998 160 
L 2784 160 
L 2784 4346 
L 1715 4346 
C 1824 4621 1946 4979 2054 5299 
L 1536 5389 
z
M 998 3917 
L 2342 3917 
L 2342 2566 
L 998 2566 
L 998 3917 
z
M 998 595 
L 998 2144 
L 2342 2144 
L 2342 595 
L 998 595 
z
M 3827 5402 
C 3622 4518 3277 3635 2835 3066 
C 2950 3002 3149 2867 3238 2790 
C 3456 3098 3661 3488 3840 3923 
L 5478 3923 
C 5402 1357 5299 371 5094 154 
C 5018 64 4947 45 4819 45 
C 4672 45 4288 51 3866 83 
C 3955 -38 4013 -243 4026 -378 
C 4384 -397 4762 -410 4979 -390 
C 5210 -365 5350 -314 5498 -122 
C 5754 192 5843 1184 5939 4122 
C 5946 4186 5946 4365 5946 4365 
L 4013 4365 
C 4115 4666 4211 4986 4288 5299 
L 3827 5402 
z
" transform="scale(0.015625)"/>
      <path id="NotoSansCJKjp-Regular-5df2" d="M 595 4979 
L 595 4499 
L 4781 4499 
L 4781 2816 
L 1421 2816 
L 1421 3872 
L 934 3872 
L 934 653 
C 934 -141 1261 -333 2298 -333 
C 2541 -333 4448 -333 4704 -333 
C 5760 -333 5971 19 6093 1197 
C 5952 1222 5734 1306 5606 1395 
C 5517 365 5408 141 4710 141 
C 4275 141 2611 141 2272 141 
C 1568 141 1421 237 1421 646 
L 1421 2342 
L 4781 2342 
L 4781 2022 
L 5280 2022 
L 5280 4979 
L 595 4979 
z
" transform="scale(0.015625)"/>
      <path id="NotoSansCJKjp-Regular-7ecf" d="M 256 365 
L 346 -115 
C 934 45 1715 243 2451 442 
L 2400 864 
C 1606 672 794 474 256 365 
z
M 371 2707 
C 467 2752 627 2790 1453 2906 
C 1158 2496 890 2176 762 2048 
C 550 1811 403 1658 256 1632 
C 314 1498 390 1267 416 1165 
C 557 1248 774 1312 2419 1638 
C 2413 1741 2413 1933 2426 2061 
L 1152 1830 
C 1658 2394 2163 3078 2592 3770 
L 2176 4038 
C 2048 3802 1901 3565 1754 3341 
L 877 3251 
C 1267 3802 1651 4493 1952 5165 
L 1498 5376 
C 1229 4608 742 3776 589 3565 
C 448 3341 333 3194 211 3168 
C 269 3040 346 2803 371 2707 
z
M 2714 5037 
L 2714 4595 
L 4973 4595 
C 4384 3763 3296 3085 2285 2746 
C 2381 2650 2515 2464 2579 2349 
C 3149 2560 3731 2854 4250 3226 
C 4845 2970 5542 2605 5907 2355 
L 6182 2752 
C 5830 2976 5197 3290 4634 3526 
C 5082 3910 5459 4358 5715 4877 
L 5370 5056 
L 5280 5037 
L 2714 5037 
z
M 2758 2125 
L 2758 1683 
L 4032 1683 
L 4032 115 
L 2374 115 
L 2374 -333 
L 6150 -333 
L 6150 115 
L 4506 115 
L 4506 1683 
L 5850 1683 
L 5850 2125 
L 2758 2125 
z
" transform="scale(0.015625)"/>
      <path id="NotoSansCJKjp-Regular-786e" d="M 314 5024 
L 314 4582 
L 1107 4582 
C 947 3469 666 2426 173 1747 
C 269 1651 422 1427 474 1331 
C 595 1498 698 1683 800 1882 
L 800 -166 
L 1235 -166 
L 1235 378 
L 2490 378 
L 2490 3117 
L 1267 3117 
C 1395 3578 1498 4070 1574 4582 
L 2707 4582 
L 2707 5024 
L 314 5024 
z
M 1235 2688 
L 2054 2688 
L 2054 806 
L 1235 806 
L 1235 2688 
z
M 4218 1498 
L 3405 1498 
C 3418 1690 3424 1875 3424 2048 
L 3424 2246 
L 4218 2246 
L 4218 1498 
z
M 4640 1498 
L 4640 2246 
L 5472 2246 
L 5472 1498 
L 4640 1498 
z
M 3680 5382 
C 3430 4627 2989 3891 2490 3418 
C 2598 3341 2778 3181 2848 3098 
L 2976 3238 
L 2976 2048 
C 2976 1331 2906 422 2285 -224 
C 2381 -275 2560 -435 2624 -531 
C 3053 -90 3258 499 3354 1075 
L 5472 1075 
L 5472 45 
C 5472 -45 5446 -70 5357 -77 
C 5267 -83 4947 -83 4621 -70 
C 4685 -198 4755 -390 4768 -525 
C 5216 -525 5517 -518 5696 -442 
C 5875 -371 5933 -224 5933 38 
L 5933 3744 
L 4781 3744 
C 4973 4019 5171 4358 5312 4653 
L 4998 4864 
L 4928 4845 
L 3962 4845 
C 4019 4986 4077 5126 4128 5267 
L 3680 5382 
z
M 4218 2630 
L 3424 2630 
L 3424 3328 
L 4218 3328 
L 4218 2630 
z
M 4640 2630 
L 4640 3328 
L 5472 3328 
L 5472 2630 
L 4640 2630 
z
M 3424 3744 
L 3360 3744 
C 3507 3962 3642 4198 3770 4442 
L 4691 4442 
C 4582 4198 4429 3936 4294 3744 
L 3424 3744 
z
" transform="scale(0.015625)"/>
      <path id="NotoSansCJKjp-Regular-5b9a" d="M 1421 2413 
C 1286 1248 934 333 224 -218 
C 339 -294 538 -461 621 -544 
C 1037 -179 1350 307 1574 896 
C 2163 -198 3117 -422 4454 -422 
L 5952 -422 
C 5971 -282 6061 -51 6131 64 
C 5818 58 4717 58 4480 58 
C 4109 58 3757 77 3443 134 
L 3443 1440 
L 5350 1440 
L 5350 1888 
L 3443 1888 
L 3443 2957 
L 5088 2957 
L 5088 3418 
L 1350 3418 
L 1350 2957 
L 2944 2957 
L 2944 269 
C 2419 461 2016 832 1760 1504 
C 1824 1766 1882 2054 1920 2355 
L 1421 2413 
z
M 525 4640 
L 525 3245 
L 998 3245 
L 998 4186 
L 5382 4186 
L 5382 3245 
L 5875 3245 
L 5875 4640 
L 3443 4640 
L 3443 5376 
L 2938 5376 
L 2938 4640 
L 525 4640 
z
" transform="scale(0.015625)"/>
      <path id="NotoSansCJKjp-Regular-ff0c" d="M 1005 -685 
C 1677 -448 2112 77 2112 768 
C 2112 1216 1920 1504 1568 1504 
C 1306 1504 1082 1344 1082 1043 
C 1082 742 1299 589 1562 589 
L 1670 602 
C 1638 160 1357 -141 864 -346 
L 1005 -685 
z
" transform="scale(0.015625)"/>
      <path id="NotoSansCJKjp-Regular-4e0d" d="M 3578 3059 
C 4339 2547 5299 1792 5754 1299 
L 6144 1670 
C 5664 2163 4691 2880 3936 3366 
L 3578 3059 
z
M 442 4928 
L 442 4435 
L 3290 4435 
C 2656 3341 1555 2259 282 1632 
C 384 1523 531 1331 608 1210 
C 1498 1677 2291 2336 2938 3078 
L 2938 -499 
L 3456 -499 
L 3456 3738 
C 3622 3962 3770 4198 3904 4435 
L 5958 4435 
L 5958 4928 
L 442 4928 
z
" transform="scale(0.015625)"/>
      <path id="NotoSansCJKjp-Regular-4f1a" d="M 1664 3392 
L 1664 2944 
L 4717 2944 
L 4717 3392 
L 1664 3392 
z
M 3174 4902 
C 3776 4077 4902 3213 5894 2739 
C 5984 2874 6099 3053 6208 3168 
C 5190 3584 4077 4416 3398 5370 
L 2899 5370 
C 2406 4550 1338 3616 230 3098 
C 333 2989 461 2816 518 2701 
C 1606 3245 2656 4128 3174 4902 
z
M 3840 1197 
C 4128 947 4429 640 4691 333 
L 2093 230 
C 2349 678 2624 1235 2854 1709 
L 5875 1709 
L 5875 2163 
L 570 2163 
L 570 1709 
L 2259 1709 
C 2080 1242 1811 653 1562 218 
L 621 186 
L 685 -288 
C 1792 -243 3456 -179 5037 -96 
C 5158 -256 5261 -403 5338 -531 
L 5766 -262 
C 5472 218 4838 915 4250 1421 
L 3840 1197 
z
" transform="scale(0.015625)"/>
      <path id="NotoSansCJKjp-Regular-53d7" d="M 5248 5402 
C 4147 5165 2176 4998 525 4928 
C 570 4819 627 4634 634 4512 
C 2304 4582 4294 4742 5581 5011 
L 5248 5402 
z
M 2765 4518 
C 2912 4218 3046 3814 3085 3565 
L 3533 3680 
C 3494 3930 3347 4320 3194 4614 
L 2765 4518 
z
M 4947 4627 
C 4806 4294 4563 3846 4358 3526 
L 1549 3526 
L 1926 3654 
C 1856 3885 1658 4237 1478 4499 
L 1062 4378 
C 1229 4115 1414 3763 1485 3526 
L 461 3526 
L 461 2221 
L 915 2221 
L 915 3104 
L 5472 3104 
L 5472 2221 
L 5946 2221 
L 5946 3526 
L 4845 3526 
C 5043 3814 5261 4160 5440 4480 
L 4947 4627 
z
M 4442 1933 
C 4141 1478 3725 1114 3219 819 
C 2694 1120 2272 1491 1958 1933 
L 4442 1933 
z
M 1242 2381 
L 1242 1933 
L 1510 1933 
L 1446 1907 
C 1779 1382 2221 941 2752 582 
C 2042 262 1203 58 333 -64 
C 429 -166 557 -371 608 -493 
C 1542 -339 2438 -90 3213 307 
C 3936 -83 4806 -352 5773 -493 
C 5837 -352 5965 -154 6067 -45 
C 5178 64 4371 269 3686 582 
C 4314 986 4826 1510 5158 2195 
L 4838 2400 
L 4749 2381 
L 1242 2381 
z
" transform="scale(0.015625)"/>
      <path id="NotoSansCJKjp-Regular-53e6" d="M 1517 4621 
L 4896 4621 
L 4896 3226 
L 1517 3226 
L 1517 4621 
z
M 1043 5075 
L 1043 2765 
L 2842 2765 
C 2822 2541 2790 2323 2752 2118 
L 461 2118 
L 461 1677 
L 2637 1677 
C 2368 864 1786 243 320 -90 
C 422 -192 544 -390 595 -512 
C 2240 -109 2874 666 3162 1677 
L 5120 1677 
C 5043 595 4960 141 4819 13 
C 4755 -51 4685 -58 4550 -58 
C 4403 -58 4000 -51 3590 -19 
C 3680 -147 3744 -346 3757 -486 
C 4154 -512 4550 -512 4749 -499 
C 4973 -486 5114 -442 5248 -307 
C 5446 -96 5542 474 5638 1894 
C 5645 1965 5658 2118 5658 2118 
L 3258 2118 
C 3296 2323 3328 2541 3347 2765 
L 5395 2765 
L 5395 5075 
L 1043 5075 
z
" transform="scale(0.015625)"/>
      <path id="NotoSansCJKjp-Regular-4e00" d="M 282 2758 
L 282 2234 
L 6144 2234 
L 6144 2758 
L 282 2758 
z
" transform="scale(0.015625)"/>
      <path id="NotoSansCJKjp-Regular-672a" d="M 2938 5370 
L 2938 4326 
L 851 4326 
L 851 3853 
L 2938 3853 
L 2938 2746 
L 397 2746 
L 397 2272 
L 2662 2272 
C 2086 1446 1114 646 218 250 
C 326 154 486 -32 570 -154 
C 1414 282 2317 1043 2938 1894 
L 2938 -512 
L 3443 -512 
L 3443 1920 
C 4070 1062 4979 269 5830 -160 
C 5914 -32 6074 160 6182 256 
C 5286 646 4307 1446 3718 2272 
L 6029 2272 
L 6029 2746 
L 3443 2746 
L 3443 3853 
L 5594 3853 
L 5594 4326 
L 3443 4326 
L 3443 5370 
L 2938 5370 
z
" transform="scale(0.015625)"/>
      <path id="NotoSansCJKjp-Regular-77e5" d="M 3501 4819 
L 3501 -326 
L 3968 -326 
L 3968 179 
L 5325 179 
L 5325 -256 
L 5811 -256 
L 5811 4819 
L 3501 4819 
z
M 3968 634 
L 3968 4365 
L 5325 4365 
L 5325 634 
L 3968 634 
z
M 1005 5382 
C 858 4595 589 3834 211 3341 
C 320 3270 518 3136 602 3059 
C 794 3334 973 3686 1120 4070 
L 1613 4070 
L 1613 3021 
L 1613 2790 
L 288 2790 
L 288 2330 
L 1581 2330 
C 1498 1478 1190 557 218 -134 
C 314 -205 493 -397 550 -493 
C 1286 32 1677 717 1882 1408 
C 2227 1011 2733 403 2950 90 
L 3277 499 
C 3085 717 2304 1594 1997 1894 
C 2029 2042 2048 2189 2061 2330 
L 3296 2330 
L 3296 2790 
L 2086 2790 
L 2093 3014 
L 2093 4070 
L 3110 4070 
L 3110 4518 
L 1274 4518 
C 1350 4768 1414 5024 1472 5286 
L 1005 5382 
z
" transform="scale(0.015625)"/>
      <path id="NotoSansCJKjp-Regular-60c5" d="M 973 5376 
L 973 -506 
L 1408 -506 
L 1408 5376 
L 973 5376 
z
M 467 4141 
C 429 3642 326 2931 173 2496 
L 550 2368 
C 698 2848 800 3590 826 4096 
L 467 4141 
z
M 1466 4314 
C 1600 4013 1747 3610 1805 3366 
L 2144 3533 
C 2080 3763 1926 4147 1786 4442 
L 1466 4314 
z
M 2854 1344 
L 5171 1344 
L 5171 858 
L 2854 858 
L 2854 1344 
z
M 2854 1709 
L 2854 2189 
L 5171 2189 
L 5171 1709 
L 2854 1709 
z
M 3776 5376 
L 3776 4877 
L 2138 4877 
L 2138 4506 
L 3776 4506 
L 3776 4096 
L 2291 4096 
L 2291 3744 
L 3776 3744 
L 3776 3302 
L 1946 3302 
L 1946 2931 
L 6131 2931 
L 6131 3302 
L 4250 3302 
L 4250 3744 
L 5779 3744 
L 5779 4096 
L 4250 4096 
L 4250 4506 
L 5939 4506 
L 5939 4877 
L 4250 4877 
L 4250 5376 
L 3776 5376 
z
M 2406 2560 
L 2406 -506 
L 2854 -506 
L 2854 493 
L 5171 493 
L 5171 32 
C 5171 -45 5139 -70 5056 -77 
C 4966 -83 4659 -83 4333 -70 
C 4390 -186 4454 -365 4474 -486 
C 4928 -486 5216 -486 5395 -410 
C 5574 -339 5626 -211 5626 26 
L 5626 2560 
L 2406 2560 
z
" transform="scale(0.015625)"/>
      <path id="NotoSansCJKjp-Regular-51b5" d="M 454 4698 
C 858 4378 1325 3904 1536 3584 
L 1894 3942 
C 1670 4256 1190 4704 787 5011 
L 454 4698 
z
M 256 570 
L 640 230 
C 1030 826 1504 1645 1856 2330 
L 1530 2656 
C 1139 1926 614 1069 256 570 
z
M 2810 4614 
L 5254 4614 
L 5254 2880 
L 2810 2880 
L 2810 4614 
z
M 2349 5075 
L 2349 2419 
L 3085 2419 
C 3014 1133 2803 307 1555 -134 
C 1664 -224 1798 -397 1856 -512 
C 3213 6 3482 960 3571 2419 
L 4326 2419 
L 4326 237 
C 4326 -269 4448 -416 4934 -416 
C 5030 -416 5485 -416 5594 -416 
C 6035 -416 6150 -160 6195 819 
C 6067 858 5869 928 5766 1011 
C 5747 160 5722 19 5542 19 
C 5446 19 5069 19 4998 19 
C 4826 19 4787 51 4787 243 
L 4787 2419 
L 5741 2419 
L 5741 5075 
L 2349 5075 
z
" transform="scale(0.015625)"/>
      <path id="NotoSansCJKjp-Regular-5f71" d="M 1203 1939 
L 3078 1939 
L 3078 1344 
L 1203 1344 
L 1203 1939 
z
M 1165 4141 
L 3117 4141 
L 3117 3738 
L 1165 3738 
L 1165 4141 
z
M 1165 4826 
L 3117 4826 
L 3117 4435 
L 1165 4435 
L 1165 4826 
z
M 979 838 
C 819 499 557 154 262 -83 
C 365 -141 544 -262 621 -326 
C 909 -64 1210 339 1389 736 
L 979 838 
z
M 5421 5267 
C 5062 4774 4397 4250 3840 3949 
C 3962 3859 4102 3712 4186 3610 
C 4781 3955 5446 4518 5875 5082 
L 5421 5267 
z
M 5594 3494 
C 5197 2976 4474 2426 3872 2106 
C 3994 2016 4134 1869 4218 1766 
C 4858 2131 5574 2714 6035 3302 
L 5594 3494 
z
M 730 5133 
L 730 3430 
L 1901 3430 
L 1901 3040 
L 294 3040 
L 294 2656 
L 3942 2656 
L 3942 3040 
L 2342 3040 
L 2342 3430 
L 3571 3430 
L 3571 5133 
L 730 5133 
z
M 781 2278 
L 781 1005 
L 1901 1005 
L 1901 -45 
C 1901 -109 1888 -128 1805 -128 
C 1722 -141 1485 -134 1197 -128 
C 1261 -237 1344 -397 1376 -512 
C 1734 -512 1971 -512 2138 -442 
C 2298 -378 2342 -269 2342 -51 
L 2342 1005 
L 3520 1005 
L 3520 2278 
L 781 2278 
z
M 5760 1683 
C 5357 979 4595 346 3795 -32 
C 3661 211 3366 570 3117 832 
L 2752 646 
C 3002 378 3290 0 3424 -243 
L 3629 -128 
C 3744 -237 3878 -397 3955 -506 
C 4877 -64 5722 659 6227 1510 
L 5760 1683 
z
" transform="scale(0.015625)"/>
      <path id="NotoSansCJKjp-Regular-54cd" d="M 474 4768 
L 474 576 
L 902 576 
L 902 1190 
L 2074 1190 
L 2074 4768 
L 474 4768 
z
M 902 4320 
L 1664 4320 
L 1664 1638 
L 902 1638 
L 902 4320 
z
M 4006 5389 
C 3930 5069 3789 4634 3648 4301 
L 2554 4301 
L 2554 -467 
L 3008 -467 
L 3008 3878 
L 5510 3878 
L 5510 58 
C 5510 -26 5485 -51 5402 -51 
C 5318 -58 5056 -58 4774 -45 
C 4832 -166 4902 -365 4922 -486 
C 5318 -493 5587 -480 5760 -403 
C 5926 -326 5978 -192 5978 51 
L 5978 4301 
L 4147 4301 
C 4282 4595 4429 4960 4557 5274 
L 4006 5389 
z
M 3878 2790 
L 4640 2790 
L 4640 1376 
L 3878 1376 
L 3878 2790 
z
M 3539 3149 
L 3539 653 
L 3878 653 
L 3878 1018 
L 4986 1018 
L 4986 3149 
L 3539 3149 
z
" transform="scale(0.015625)"/>
     </defs>
     <use xlink:href="#NotoSansCJKjp-Regular-8f83"/>
     <use xlink:href="#NotoSansCJKjp-Regular-5c0f" transform="translate(99.999985 0)"/>
     <use xlink:href="#NotoSansCJKjp-Regular-4fa7" transform="translate(199.999969 0)"/>
     <use xlink:href="#NotoSansCJKjp-Regular-7684" transform="translate(299.999954 0)"/>
     <use xlink:href="#NotoSansCJKjp-Regular-20" transform="translate(399.999939 0)"/>
     <use xlink:href="#NotoSansCJKjp-Regular-6d" transform="translate(422.399933 0)"/>
     <use xlink:href="#NotoSansCJKjp-Regular-61" transform="translate(514.999924 0)"/>
     <use xlink:href="#NotoSansCJKjp-Regular-78" transform="translate(571.299911 0)"/>
     <use xlink:href="#NotoSansCJKjp-Regular-20" transform="translate(621.099899 0)"/>
     <use xlink:href="#NotoSansCJKjp-Regular-5df2" transform="translate(643.499893 0)"/>
     <use xlink:href="#NotoSansCJKjp-Regular-7ecf" transform="translate(743.499878 0)"/>
     <use xlink:href="#NotoSansCJKjp-Regular-786e" transform="translate(843.499863 0)"/>
     <use xlink:href="#NotoSansCJKjp-Regular-5b9a" transform="translate(943.499847 0)"/>
     <use xlink:href="#NotoSansCJKjp-Regular-ff0c" transform="translate(1043.499832 0)"/>
     <use xlink:href="#NotoSansCJKjp-Regular-4e0d" transform="translate(1143.499817 0)"/>
     <use xlink:href="#NotoSansCJKjp-Regular-4f1a" transform="translate(1243.499802 0)"/>
     <use xlink:href="#NotoSansCJKjp-Regular-53d7" transform="translate(1343.499786 0)"/>
     <use xlink:href="#NotoSansCJKjp-Regular-53e6" transform="translate(1443.499771 0)"/>
     <use xlink:href="#NotoSansCJKjp-Regular-4e00" transform="translate(1543.499756 0)"/>
     <use xlink:href="#NotoSansCJKjp-Regular-4fa7" transform="translate(1643.499741 0)"/>
     <use xlink:href="#NotoSansCJKjp-Regular-672a" transform="translate(1743.499725 0)"/>
     <use xlink:href="#NotoSansCJKjp-Regular-77e5" transform="translate(1843.49971 0)"/>
     <use xlink:href="#NotoSansCJKjp-Regular-60c5" transform="translate(1943.499695 0)"/>
     <use xlink:href="#NotoSansCJKjp-Regular-51b5" transform="translate(2043.49968 0)"/>
     <use xlink:href="#NotoSansCJKjp-Regular-5f71" transform="translate(2143.499664 0)"/>
     <use xlink:href="#NotoSansCJKjp-Regular-54cd" transform="translate(2243.499649 0)"/>
    </g>
   </g>
   <g id="text_12">
    <!-- 双指针：移动高度较小的一侧 -->
    <g style="fill: #2c3e50" transform="translate(165.4 15.159375) scale(0.1 -0.1)">
     <defs>
      <path id="NotoSansCJKjp-Regular-53cc" d="M 5350 4422 
C 5190 3392 4890 2509 4480 1798 
C 4141 2547 3917 3443 3770 4422 
L 5350 4422 
z
M 3155 4883 
L 3155 4422 
L 3315 4422 
C 3501 3226 3763 2176 4179 1318 
C 3731 685 3181 211 2573 -96 
C 2682 -192 2829 -384 2893 -506 
C 3482 -179 4000 262 4448 838 
C 4800 269 5248 -192 5811 -525 
C 5888 -390 6042 -211 6157 -115 
C 5568 198 5107 678 4749 1280 
C 5312 2170 5702 3334 5882 4813 
L 5568 4902 
L 5485 4883 
L 3155 4883 
z
M 467 3482 
C 877 2995 1312 2419 1690 1856 
C 1306 973 806 294 224 -128 
C 339 -211 499 -390 576 -506 
C 1139 -58 1626 563 2003 1370 
C 2246 986 2451 627 2586 326 
L 2995 653 
C 2822 1005 2554 1446 2234 1907 
C 2547 2720 2771 3686 2886 4813 
L 2579 4902 
L 2496 4883 
L 410 4883 
L 410 4422 
L 2374 4422 
C 2272 3674 2112 2995 1901 2387 
C 1555 2861 1178 3334 826 3750 
L 467 3482 
z
" transform="scale(0.015625)"/>
      <path id="NotoSansCJKjp-Regular-6307" d="M 5357 4998 
C 4870 4781 4058 4557 3296 4397 
L 3296 5350 
L 2822 5350 
L 2822 3533 
C 2822 2976 3021 2835 3763 2835 
C 3917 2835 5094 2835 5254 2835 
C 5888 2835 6048 3046 6118 3904 
C 5984 3930 5779 4006 5677 4077 
C 5638 3386 5581 3270 5229 3270 
C 4973 3270 3981 3270 3789 3270 
C 3373 3270 3296 3315 3296 3533 
L 3296 4000 
C 4128 4160 5075 4378 5722 4640 
L 5357 4998 
z
M 3277 858 
L 5363 858 
L 5363 186 
L 3277 186 
L 3277 858 
z
M 3277 1248 
L 3277 1888 
L 5363 1888 
L 5363 1248 
L 3277 1248 
z
M 2822 2298 
L 2822 -506 
L 3277 -506 
L 3277 -211 
L 5363 -211 
L 5363 -480 
L 5837 -480 
L 5837 2298 
L 2822 2298 
z
M 1178 5376 
L 1178 4083 
L 282 4083 
L 282 3629 
L 1178 3629 
L 1178 2253 
L 198 1984 
L 339 1517 
L 1178 1766 
L 1178 51 
C 1178 -38 1139 -64 1056 -70 
C 973 -70 710 -70 416 -64 
C 474 -192 544 -390 563 -506 
C 992 -512 1248 -493 1421 -422 
C 1587 -346 1645 -218 1645 58 
L 1645 1907 
L 2496 2170 
L 2438 2618 
L 1645 2387 
L 1645 3629 
L 2406 3629 
L 2406 4083 
L 1645 4083 
L 1645 5376 
L 1178 5376 
z
" transform="scale(0.015625)"/>
      <path id="NotoSansCJKjp-Regular-9488" d="M 4237 5318 
L 4237 3232 
L 2726 3232 
L 2726 2758 
L 4237 2758 
L 4237 -506 
L 4730 -506 
L 4730 2758 
L 6106 2758 
L 6106 3232 
L 4730 3232 
L 4730 5318 
L 4237 5318 
z
M 1190 5363 
C 979 4762 608 4192 198 3814 
C 275 3712 403 3462 442 3366 
C 678 3590 896 3866 1094 4179 
L 2707 4179 
L 2707 4634 
L 1357 4634 
C 1453 4832 1542 5030 1619 5235 
L 1190 5363 
z
M 390 2202 
L 390 1760 
L 1350 1760 
L 1350 435 
C 1350 166 1171 13 1050 -51 
C 1133 -154 1248 -358 1286 -480 
C 1395 -371 1581 -262 2835 390 
C 2803 486 2758 672 2746 806 
L 1811 339 
L 1811 1760 
L 2669 1760 
L 2669 2202 
L 1811 2202 
L 1811 3066 
L 2534 3066 
L 2534 3501 
L 691 3501 
L 691 3066 
L 1350 3066 
L 1350 2202 
L 390 2202 
z
" transform="scale(0.015625)"/>
      <path id="NotoSansCJKjp-Regular-ff1a" d="M 3200 3482 
C 3456 3482 3686 3667 3686 3962 
C 3686 4256 3456 4442 3200 4442 
C 2944 4442 2714 4256 2714 3962 
C 2714 3667 2944 3482 3200 3482 
z
M 3200 346 
C 3456 346 3686 538 3686 826 
C 3686 1120 3456 1312 3200 1312 
C 2944 1312 2714 1120 2714 826 
C 2714 538 2944 346 3200 346 
z
" transform="scale(0.015625)"/>
      <path id="NotoSansCJKjp-Regular-9ad8" d="M 1939 3635 
L 4448 3635 
L 4448 3021 
L 1939 3021 
L 1939 3635 
z
M 1478 3987 
L 1478 2662 
L 4928 2662 
L 4928 3987 
L 1478 3987 
z
M 2918 5382 
L 2918 4768 
L 416 4768 
L 416 4346 
L 5978 4346 
L 5978 4768 
L 3411 4768 
L 3411 5382 
L 2918 5382 
z
M 704 2266 
L 704 -512 
L 1171 -512 
L 1171 1856 
L 5261 1856 
L 5261 70 
C 5261 -19 5235 -45 5120 -51 
C 5018 -58 4653 -58 4237 -45 
C 4301 -179 4371 -365 4390 -499 
C 4922 -499 5267 -499 5478 -422 
C 5683 -346 5741 -205 5741 64 
L 5741 2266 
L 704 2266 
z
M 2406 1088 
L 3994 1088 
L 3994 435 
L 2406 435 
L 2406 1088 
z
M 1984 1440 
L 1984 -243 
L 2406 -243 
L 2406 83 
L 4422 83 
L 4422 1440 
L 1984 1440 
z
" transform="scale(0.015625)"/>
      <path id="NotoSansCJKjp-Regular-5ea6" d="M 2470 4141 
L 2470 3584 
L 1440 3584 
L 1440 3187 
L 2470 3187 
L 2470 2125 
L 4960 2125 
L 4960 3187 
L 5997 3187 
L 5997 3584 
L 4960 3584 
L 4960 4141 
L 4486 4141 
L 4486 3584 
L 2931 3584 
L 2931 4141 
L 2470 4141 
z
M 4486 3187 
L 4486 2509 
L 2931 2509 
L 2931 3187 
L 4486 3187 
z
M 4851 1318 
C 4582 986 4211 717 3770 506 
C 3334 723 2970 992 2720 1318 
L 4851 1318 
z
M 1530 1715 
L 1530 1318 
L 2502 1318 
L 2259 1222 
C 2515 858 2861 550 3270 301 
C 2662 90 1978 -38 1280 -109 
C 1357 -211 1453 -397 1485 -512 
C 2291 -416 3072 -243 3757 45 
C 4365 -237 5088 -422 5869 -525 
C 5933 -403 6048 -211 6150 -109 
C 5466 -38 4819 96 4269 294 
C 4813 608 5261 1024 5549 1574 
L 5248 1734 
L 5165 1715 
L 1530 1715 
z
M 774 4742 
L 774 2893 
C 774 1965 730 659 198 -256 
C 314 -307 512 -435 595 -518 
C 1152 448 1235 1901 1235 2893 
L 1235 4307 
L 6035 4307 
L 6035 4742 
L 3635 4742 
L 3635 5376 
L 3142 5376 
L 3142 4742 
L 774 4742 
z
" transform="scale(0.015625)"/>
     </defs>
     <use xlink:href="#NotoSansCJKjp-Regular-53cc"/>
     <use xlink:href="#NotoSansCJKjp-Regular-6307" transform="translate(99.999985 0)"/>
     <use xlink:href="#NotoSansCJKjp-Regular-9488" transform="translate(199.999969 0)"/>
     <use xlink:href="#NotoSansCJKjp-Regular-ff1a" transform="translate(299.999954 0)"/>
     <use xlink:href="#NotoSansCJKjp-Regular-79fb" transform="translate(399.999939 0)"/>
     <use xlink:href="#NotoSansCJKjp-Regular-52a8" transform="translate(499.999924 0)"/>
     <use xlink:href="#NotoSansCJKjp-Regular-9ad8" transform="translate(599.999908 0)"/>
     <use xlink:href="#NotoSansCJKjp-Regular-5ea6" transform="translate(699.999893 0)"/>
     <use xlink:href="#NotoSansCJKjp-Regular-8f83" transform="translate(799.999878 0)"/>
     <use xlink:href="#NotoSansCJKjp-Regular-5c0f" transform="translate(899.999863 0)"/>
     <use xlink:href="#NotoSansCJKjp-Regular-7684" transform="translate(999.999847 0)"/>
     <use xlink:href="#NotoSansCJKjp-Regular-4e00" transform="translate(1099.999832 0)"/>
     <use xlink:href="#NotoSansCJKjp-Regular-4fa7" transform="translate(1199.999817 0)"/>
    </g>
   </g>
  </g>
 </g>
 <defs>
  <clipPath id="p03e54f5ee9">
   <rect x="7.2" y="30.159375" width="446.4" height="249.48"/>
  </clipPath>
 </defs>
</svg>
