<svg xmlns="http://www.w3.org/2000/svg" width="760" height="480" viewBox="0 0 760 480">
  <rect width="760" height="480" fill="#0d1117"/>
  <text x="380" y="36" text-anchor="middle" font-size="22" font-weight="bold" fill="#c9d1d9">Warp Reduce Butterfly 模式（5 步归约）</text>

  <!-- 32 lanes represented as 8 for clarity -->
  <g transform="translate(80, 60)">
    <!-- Lane labels -->
    <text x="-10" y="24" text-anchor="end" font-size="11" fill="#8b949e">Lane 0</text>
    <text x="-10" y="64" text-anchor="end" font-size="11" fill="#8b949e">Lane 1</text>
    <text x="-10" y="104" text-anchor="end" font-size="11" fill="#8b949e">...</text>
    <text x="-10" y="144" text-anchor="end" font-size="11" fill="#8b949e">Lane 15</text>
    <text x="-10" y="184" text-anchor="end" font-size="11" fill="#8b949e">Lane 16</text>
    <text x="-10" y="224" text-anchor="end" font-size="11" fill="#8b949e">...</text>
    <text x="-10" y="264" text-anchor="end" font-size="11" fill="#8b949e">Lane 30</text>
    <text x="-10" y="304" text-anchor="end" font-size="11" fill="#8b949e">Lane 31</text>

    <!-- Step 0: initial values -->
    <text x="50" y="0" text-anchor="middle" font-size="11" fill="#58a6ff" font-weight="bold">初始</text>
    <circle cx="50" cy="20" r="10" fill="#30363d" stroke="#58a6ff"/><text x="50" y="24" text-anchor="middle" font-size="8" fill="#c9d1d9">v0</text>
    <circle cx="50" cy="60" r="10" fill="#30363d" stroke="#58a6ff"/><text x="50" y="64" text-anchor="middle" font-size="8" fill="#c9d1d9">v1</text>
    <circle cx="50" cy="100" r="10" fill="#30363d" stroke="#58a6ff"/>
    <circle cx="50" cy="140" r="10" fill="#30363d" stroke="#58a6ff"/><text x="50" y="144" text-anchor="middle" font-size="8" fill="#c9d1d9">v15</text>
    <circle cx="50" cy="180" r="10" fill="#30363d" stroke="#58a6ff"/><text x="50" y="184" text-anchor="middle" font-size="8" fill="#c9d1d9">v16</text>
    <circle cx="50" cy="220" r="10" fill="#30363d" stroke="#58a6ff"/>
    <circle cx="50" cy="260" r="10" fill="#30363d" stroke="#58a6ff"/><text x="50" y="264" text-anchor="middle" font-size="8" fill="#c9d1d9">v30</text>
    <circle cx="50" cy="300" r="10" fill="#30363d" stroke="#58a6ff"/><text x="50" y="304" text-anchor="middle" font-size="8" fill="#c9d1d9">v31</text>

    <!-- Step 1: offset=16 -->
    <text x="190" y="0" text-anchor="middle" font-size="11" fill="#d29922" font-weight="bold">Step 1: offset=16</text>
    <line x1="60" y1="20" x2="180" y2="180" stroke="#d29922" stroke-width="1.5"/>
    <line x1="60" y1="180" x2="180" y2="20" stroke="#d29922" stroke-width="1.5"/>
    <circle cx="190" cy="20" r="10" fill="#1f6feb" opacity="0.5" stroke="#d29922"/><text x="190" y="24" text-anchor="middle" font-size="7" fill="#c9d1d9">v0+16</text>
    <circle cx="190" cy="60" r="10" fill="#1f6feb" opacity="0.5" stroke="#d29922"/>
    <circle cx="190" cy="100" r="10" fill="#1f6feb" opacity="0.5" stroke="#d29922"/>
    <circle cx="190" cy="140" r="10" fill="#1f6feb" opacity="0.5" stroke="#d29922"/>
    <circle cx="190" cy="180" r="10" fill="#1f6feb" opacity="0.5" stroke="#d29922"/>
    <circle cx="190" cy="220" r="10" fill="#1f6feb" opacity="0.5" stroke="#d29922"/>
    <circle cx="190" cy="260" r="10" fill="#1f6feb" opacity="0.5" stroke="#d29922"/>
    <circle cx="190" cy="300" r="10" fill="#8b949e" opacity="0.3" stroke="#484f58"/>

    <!-- Step 2: offset=8 -->
    <text x="330" y="0" text-anchor="middle" font-size="11" fill="#d29922" font-weight="bold">Step 2: offset=8</text>
    <line x1="200" y1="20" x2="320" y2="100" stroke="#d29922" stroke-width="1.5"/>
    <line x1="200" y1="100" x2="320" y2="20" stroke="#d29922" stroke-width="1.5"/>
    <circle cx="330" cy="20" r="10" fill="#1f6feb" opacity="0.6" stroke="#d29922"/><text x="330" y="24" text-anchor="middle" font-size="7" fill="#c9d1d9">+v8</text>
    <circle cx="330" cy="60" r="10" fill="#1f6feb" opacity="0.6" stroke="#d29922"/>
    <circle cx="330" cy="100" r="10" fill="#1f6feb" opacity="0.6" stroke="#d29922"/>
    <circle cx="330" cy="140" r="10" fill="#8b949e" opacity="0.3" stroke="#484f58"/>
    <circle cx="330" cy="180" r="10" fill="#8b949e" opacity="0.3" stroke="#484f58"/>
    <circle cx="330" cy="220" r="10" fill="#8b949e" opacity="0.3" stroke="#484f58"/>
    <circle cx="330" cy="260" r="10" fill="#8b949e" opacity="0.3" stroke="#484f58"/>
    <circle cx="330" cy="300" r="10" fill="#8b949e" opacity="0.3" stroke="#484f58"/>

    <!-- Step 3: offset=4 -->
    <text x="470" y="0" text-anchor="middle" font-size="11" fill="#d29922" font-weight="bold">Step 3: offset=4</text>
    <line x1="340" y1="20" x2="460" y2="60" stroke="#d29922" stroke-width="1.5"/>
    <line x1="340" y1="60" x2="460" y2="20" stroke="#d29922" stroke-width="1.5"/>
    <circle cx="470" cy="20" r="10" fill="#1f6feb" opacity="0.7" stroke="#d29922"/><text x="470" y="24" text-anchor="middle" font-size="7" fill="#c9d1d9">+v4</text>
    <circle cx="470" cy="60" r="10" fill="#8b949e" opacity="0.3" stroke="#484f58"/>
    <circle cx="470" cy="100" r="10" fill="#8b949e" opacity="0.3" stroke="#484f58"/>
    <circle cx="470" cy="140" r="10" fill="#8b949e" opacity="0.3" stroke="#484f58"/>
    <circle cx="470" cy="180" r="10" fill="#8b949e" opacity="0.3" stroke="#484f58"/>
    <circle cx="470" cy="220" r="10" fill="#8b949e" opacity="0.3" stroke="#484f58"/>
    <circle cx="470" cy="260" r="10" fill="#8b949e" opacity="0.3" stroke="#484f58"/>
    <circle cx="470" cy="300" r="10" fill="#8b949e" opacity="0.3" stroke="#484f58"/>

    <!-- Step 4: offset=2 -->
    <text x="570" y="0" text-anchor="middle" font-size="11" fill="#d29922" font-weight="bold">offset=2</text>
    <line x1="480" y1="20" x2="560" y2="40" stroke="#d29922" stroke-width="1.5"/>
    <circle cx="570" cy="20" r="10" fill="#1f6feb" opacity="0.8" stroke="#d29922"/><text x="570" y="24" text-anchor="middle" font-size="7" fill="#c9d1d9">+v2</text>

    <!-- Step 5: offset=1 -->
    <text x="660" y="0" text-anchor="middle" font-size="11" fill="#3fb950" font-weight="bold">offset=1</text>
    <line x1="580" y1="20" x2="650" y2="30" stroke="#3fb950" stroke-width="1.5"/>
    <circle cx="660" cy="20" r="12" fill="#238636" stroke="#3fb950" stroke-width="2"/><text x="660" y="24" text-anchor="middle" font-size="8" fill="#fff" font-weight="bold">SUM</text>
  </g>

  <!-- Result annotation -->
  <rect x="200" y="400" width="360" height="30" rx="6" fill="#161b22" stroke="#30363d"/>
  <text x="380" y="420" text-anchor="middle" font-size="13" fill="#3fb950" font-weight="bold">5 步后 lane 0 持有 32 线程的累加和</text>

  <text x="380" y="450" text-anchor="middle" font-size="12" fill="#8b949e">每步: val += __shfl_down_sync(0xFFFFFFFF, val, offset)</text>
</svg>