<svg xmlns="http://www.w3.org/2000/svg" width="760" height="460" viewBox="0 0 760 460">
  <rect width="760" height="460" fill="#0d1117"/>
  <text x="380" y="36" text-anchor="middle" font-size="22" font-weight="bold" fill="#c9d1d9">Default Stream 隐式同步陷阱</text>

  <!-- Scenario: multi-stream without default stream -->
  <text x="380" y="72" text-anchor="middle" font-size="15" fill="#3fb950" font-weight="bold">✅ 正确：全部使用 Explicit Stream，并发正常</text>
  <g transform="translate(80, 85)">
    <text x="0" y="22" font-size="12" fill="#8b949e">Stream A</text>
    <rect x="70" y="5" width="120" height="30" rx="4" fill="#58a6ff" opacity="0.3" stroke="#58a6ff"/>
    <text x="130" y="25" text-anchor="middle" font-size="11" fill="#c9d1d9">Kernel A</text>
    <rect x="190" y="5" width="120" height="30" rx="4" fill="#a371f7" opacity="0.3" stroke="#a371f7"/>
    <text x="250" y="25" text-anchor="middle" font-size="11" fill="#c9d1d9">D2H A</text>

    <text x="0" y="57" font-size="12" fill="#8b949e">Stream B</text>
    <rect x="110" y="40" width="120" height="30" rx="4" fill="#3fb950" opacity="0.3" stroke="#3fb950"/>
    <text x="170" y="60" text-anchor="middle" font-size="11" fill="#c9d1d9">Kernel B</text>
    <rect x="230" y="40" width="120" height="30" rx="4" fill="#d29922" opacity="0.3" stroke="#d29922"/>
    <text x="290" y="60" text-anchor="middle" font-size="11" fill="#c9d1d9">D2H B</text>

    <rect x="110" y="5" width="200" height="65" fill="none" stroke="#3fb950" stroke-width="2" stroke-dasharray="4" rx="4"/>
    <text x="210" y="88" text-anchor="middle" font-size="11" fill="#3fb950">↑ A 和 B 并发执行</text>
  </g>

  <line x1="40" y1="200" x2="720" y2="200" stroke="#30363d" stroke-width="1"/>

  <!-- Scenario: default stream breaks concurrency -->
  <text x="380" y="235" text-anchor="middle" font-size="15" fill="#f85149" font-weight="bold">❌ 错误：某处调用 cudaMemcpy（Default Stream），打断所有并发</text>
  <g transform="translate(80, 250)">
    <text x="0" y="22" font-size="12" fill="#8b949e">Stream A</text>
    <rect x="70" y="5" width="100" height="30" rx="4" fill="#58a6ff" opacity="0.3" stroke="#58a6ff"/>
    <text x="120" y="25" text-anchor="middle" font-size="11" fill="#c9d1d9">Kernel A</text>

    <text x="0" y="57" font-size="12" fill="#8b949e">Stream B</text>
    <rect x="110" y="40" width="100" height="30" rx="4" fill="#3fb950" opacity="0.3" stroke="#3fb950"/>
    <text x="160" y="60" text-anchor="middle" font-size="11" fill="#c9d1d9">Kernel B</text>

    <!-- Default stream blocks everything -->
    <text x="0" y="92" font-size="12" fill="#f85149" font-weight="bold">Default</text>
    <rect x="70" y="75" width="200" height="30" rx="4" fill="#f85149" opacity="0.3" stroke="#f85149" stroke-width="2"/>
    <text x="170" y="95" text-anchor="middle" font-size="11" fill="#c9d1d9">cudaMemcpy（同步阻塞）</text>

    <!-- blocked annotation -->
    <line x1="180" y1="10" x2="180" y2="75" stroke="#f85149" stroke-width="1" stroke-dasharray="3"/>
    <line x1="220" y1="45" x2="220" y2="75" stroke="#f85149" stroke-width="1" stroke-dasharray="3"/>
    <text x="350" y="50" font-size="11" fill="#f85149">← 所有 Stream 被阻塞</text>
    <text x="350" y="68" font-size="11" fill="#f85149">   等待 Default Stream 完成</text>

    <!-- After default stream -->
    <text x="0" y="127" font-size="12" fill="#8b949e">Stream A</text>
    <rect x="270" y="110" width="100" height="30" rx="4" fill="#58a6ff" opacity="0.3" stroke="#58a6ff"/>
    <text x="320" y="130" text-anchor="middle" font-size="11" fill="#c9d1d9">续 A</text>

    <text x="0" y="162" font-size="12" fill="#8b949e">Stream B</text>
    <rect x="270" y="145" width="100" height="30" rx="4" fill="#3fb950" opacity="0.3" stroke="#3fb950"/>
    <text x="320" y="165" text-anchor="middle" font-size="11" fill="#c9d1d9">续 B</text>
  </g>

  <rect x="100" y="425" width="560" height="30" rx="6" fill="#161b22" stroke="#30363d"/>
  <text x="380" y="445" text-anchor="middle" font-size="13" fill="#c9d1d9">解决：cudaStreamCreateWithFlags(&amp;stream, cudaStreamNonBlocking) 或 --default-stream per-thread</text>
</svg>