<svg xmlns="http://www.w3.org/2000/svg" width="760" height="420" viewBox="0 0 760 420">
  <rect width="760" height="420" fill="#0d1117"/>
  <text x="380" y="36" text-anchor="middle" font-size="22" font-weight="bold" fill="#c9d1d9">Double Buffering（软件流水线）</text>

  <!-- Single buffer (top) -->
  <text x="380" y="72" text-anchor="middle" font-size="15" fill="#f85149" font-weight="bold">单缓冲：Load 和 Compute 串行，存在空闲等待</text>
  <g transform="translate(80, 85)">
    <rect x="0" y="0" width="120" height="35" rx="4" fill="#d29922" opacity="0.3" stroke="#d29922"/>
    <text x="60" y="22" text-anchor="middle" font-size="12" fill="#c9d1d9">Load Tile 0</text>
    <rect x="120" y="0" width="120" height="35" rx="4" fill="#58a6ff" opacity="0.3" stroke="#58a6ff"/>
    <text x="180" y="22" text-anchor="middle" font-size="12" fill="#c9d1d9">Compute 0</text>
    <rect x="240" y="0" width="120" height="35" rx="4" fill="#d29922" opacity="0.3" stroke="#d29922"/>
    <text x="300" y="22" text-anchor="middle" font-size="12" fill="#c9d1d9">Load Tile 1</text>
    <rect x="360" y="0" width="120" height="35" rx="4" fill="#58a6ff" opacity="0.3" stroke="#58a6ff"/>
    <text x="420" y="22" text-anchor="middle" font-size="12" fill="#c9d1d9">Compute 1</text>

    <!-- idle gap -->
    <rect x="120" y="40" width="120" height="15" fill="none" stroke="#f85149" stroke-dasharray="3"/>
    <text x="180" y="68" text-anchor="middle" font-size="10" fill="#f85149">↑ 空闲等待</text>
  </g>

  <line x1="40" y1="180" x2="720" y2="180" stroke="#30363d" stroke-width="1"/>

  <!-- Double buffer (bottom) -->
  <text x="380" y="215" text-anchor="middle" font-size="15" fill="#3fb950" font-weight="bold">双缓冲：Compute 和 Load 并行，掩盖传输延迟</text>
  <g transform="translate(80, 230)">
    <!-- Lane 1 (Buf 0) -->
    <text x="-10" y="22" text-anchor="end" font-size="11" fill="#8b949e">Buf 0</text>
    <rect x="0" y="0" width="120" height="35" rx="4" fill="#d29922" opacity="0.4" stroke="#d29922"/>
    <text x="60" y="22" text-anchor="middle" font-size="12" fill="#c9d1d9">Load 0</text>
    <rect x="240" y="0" width="120" height="35" rx="4" fill="#d29922" opacity="0.4" stroke="#d29922"/>
    <text x="300" y="22" text-anchor="middle" font-size="12" fill="#c9d1d9">Load 2</text>
    <rect x="480" y="0" width="120" height="35" rx="4" fill="#d29922" opacity="0.4" stroke="#d29922"/>
    <text x="540" y="22" text-anchor="middle" font-size="12" fill="#c9d1d9">Load 4</text>

    <!-- Lane 2 (Buf 1) -->
    <text x="-10" y="62" text-anchor="end" font-size="11" fill="#8b949e">Buf 1</text>
    <rect x="120" y="40" width="120" height="35" rx="4" fill="#d29922" opacity="0.4" stroke="#d29922"/>
    <text x="180" y="62" text-anchor="middle" font-size="12" fill="#c9d1d9">Load 1</text>
    <rect x="360" y="40" width="120" height="35" rx="4" fill="#d29922" opacity="0.4" stroke="#d29922"/>
    <text x="420" y="62" text-anchor="middle" font-size="12" fill="#c9d1d9">Load 3</text>

    <!-- Compute lane -->
    <text x="-10" y="105" text-anchor="end" font-size="11" fill="#8b949e">Compute</text>
    <rect x="120" y="85" width="120" height="35" rx="4" fill="#58a6ff" opacity="0.4" stroke="#58a6ff"/>
    <text x="180" y="107" text-anchor="middle" font-size="12" fill="#c9d1d9">Compute 0</text>
    <rect x="240" y="85" width="120" height="35" rx="4" fill="#58a6ff" opacity="0.4" stroke="#58a6ff"/>
    <text x="300" y="107" text-anchor="middle" font-size="12" fill="#c9d1d9">Compute 1</text>
    <rect x="360" y="85" width="120" height="35" rx="4" fill="#58a6ff" opacity="0.4" stroke="#58a6ff"/>
    <text x="420" y="107" text-anchor="middle" font-size="12" fill="#c9d1d9">Compute 2</text>
    <rect x="480" y="85" width="120" height="35" rx="4" fill="#58a6ff" opacity="0.4" stroke="#58a6ff"/>
    <text x="540" y="107" text-anchor="middle" font-size="12" fill="#c9d1d9">Compute 3</text>

    <!-- overlap annotation -->
    <rect x="120" y="40" width="120" height="80" fill="none" stroke="#3fb950" stroke-width="2" stroke-dasharray="4" rx="4"/>
    <text x="180" y="140" text-anchor="middle" font-size="10" fill="#3fb950">↑ Load 与 Compute 重叠</text>
  </g>

  <rect x="160" y="385" width="440" height="30" rx="6" fill="#161b22" stroke="#30363d"/>
  <text x="380" y="405" text-anchor="middle" font-size="13" fill="#c9d1d9">声明两份 shared memory buffer，奇偶 tile 交替使用</text>
</svg>