<svg xmlns="http://www.w3.org/2000/svg" width="760" height="560" viewBox="0 0 760 560">
  <rect width="760" height="560" fill="#0d1117"/>
  <text x="380" y="36" text-anchor="middle" font-size="22" font-weight="bold" fill="#c9d1d9">GEMM 优化层次：从 1% 到 70%+</text>

  <!-- Level 0: Naive -->
  <g transform="translate(80, 60)">
    <rect x="0" y="0" width="600" height="42" rx="6" fill="#f85149" opacity="0.15" stroke="#f85149"/>
    <text x="15" y="27" font-size="13" fill="#c9d1d9">Naive GEMM</text>
    <text x="200" y="27" font-size="12" fill="#8b949e">每线程算 1 元素，直接访问 Global Memory</text>
    <text x="560" y="27" font-size="14" fill="#f85149" font-weight="bold">~1%</text>
  </g>

  <!-- Level 1: Shared Memory Tiling -->
  <g transform="translate(80, 112)">
    <rect x="0" y="0" width="600" height="42" rx="6" fill="#d29922" opacity="0.15" stroke="#d29922"/>
    <text x="15" y="27" font-size="13" fill="#c9d1d9">+ Shared Memory Tiling</text>
    <text x="200" y="27" font-size="12" fill="#8b949e">A/B tile 预取到 Shared Memory，K 维度复用</text>
    <text x="560" y="27" font-size="14" fill="#d29922" font-weight="bold">~15%</text>
  </g>

  <!-- Level 2: Register Blocking -->
  <g transform="translate(80, 164)">
    <rect x="0" y="0" width="600" height="42" rx="6" fill="#a371f7" opacity="0.15" stroke="#a371f7"/>
    <text x="15" y="27" font-size="13" fill="#c9d1d9">+ Register Blocking (Day 2)</text>
    <text x="200" y="27" font-size="12" fill="#8b949e">TM×TN thread tile，累加器驻留寄存器</text>
    <text x="560" y="27" font-size="14" fill="#a371f7" font-weight="bold">~45%</text>
  </g>

  <!-- Level 3: float4 -->
  <g transform="translate(80, 216)">
    <rect x="0" y="0" width="600" height="42" rx="6" fill="#58a6ff" opacity="0.15" stroke="#58a6ff"/>
    <text x="15" y="27" font-size="13" fill="#c9d1d9">+ float4 向量化加载 (Day 6)</text>
    <text x="200" y="27" font-size="12" fill="#8b949e">128-bit load，提升带宽利用率</text>
    <text x="560" y="27" font-size="14" fill="#58a6ff" font-weight="bold">~55%</text>
  </g>

  <!-- Level 4: Warp Shuffle -->
  <g transform="translate(80, 268)">
    <rect x="0" y="0" width="600" height="42" rx="6" fill="#3fb950" opacity="0.15" stroke="#3fb950"/>
    <text x="15" y="27" font-size="13" fill="#c9d1d9">+ Warp Shuffle 写回优化 (Day 6)</text>
    <text x="200" y="27" font-size="12" fill="#8b949e">Warp 内协作，减少非合并访问</text>
    <text x="560" y="27" font-size="14" fill="#3fb950" font-weight="bold">~60%</text>
  </g>

  <!-- Level 5: Double Buffer -->
  <g transform="translate(80, 320)">
    <rect x="0" y="0" width="600" height="42" rx="6" fill="#238636" opacity="0.15" stroke="#238636"/>
    <text x="15" y="27" font-size="13" fill="#c9d1d9">+ Double Buffering</text>
    <text x="200" y="27" font-size="12" fill="#8b949e">软件流水线，计算掩盖传输延迟</text>
    <text x="560" y="27" font-size="14" fill="#3fb950" font-weight="bold">~70%</text>
  </g>

  <!-- Level 6: Auto-tuning -->
  <g transform="translate(80, 372)">
    <rect x="0" y="0" width="600" height="42" rx="6" fill="#1f6feb" opacity="0.1" stroke="#58a6ff" stroke-dasharray="4"/>
    <text x="15" y="27" font-size="13" fill="#8b949e">+ 参数 Auto-tuning (进阶)</text>
    <text x="200" y="27" font-size="12" fill="#8b949e">针对不同尺寸选择最优 BM/BN/BK/TM/TN</text>
    <text x="560" y="27" font-size="14" fill="#58a6ff">~80%+</text>
  </g>

  <!-- Level 7: Tensor Core -->
  <g transform="translate(80, 424)">
    <rect x="0" y="0" width="600" height="42" rx="6" fill="#1f6feb" opacity="0.1" stroke="#58a6ff" stroke-dasharray="4"/>
    <text x="15" y="27" font-size="13" fill="#8b949e">+ Tensor Core / CUTLASS (进阶)</text>
    <text x="200" y="27" font-size="12" fill="#8b949e">WMMA 指令，矩阵乘加硬件加速</text>
    <text x="560" y="27" font-size="14" fill="#58a6ff">~90%+</text>
  </g>

  <!-- cuBLAS -->
  <g transform="translate(80, 476)">
    <rect x="0" y="0" width="600" height="42" rx="6" fill="#161b22" stroke="#30363d" stroke-width="2"/>
    <text x="15" y="27" font-size="13" fill="#c9d1d9">cuBLAS（NVIDIA 官方优化）</text>
    <text x="200" y="27" font-size="12" fill="#8b949e">PTX 内联 + 完整流水线 + Tensor Core + auto-tuning</text>
    <text x="560" y="27" font-size="14" fill="#c9d1d9" font-weight="bold">100%</text>
  </g>

  <!-- Day 2 vs Day 6 marker -->
  <line x1="690" y1="185" x2="730" y2="185" stroke="#a371f7" stroke-width="2"/>
  <text x="735" y="180" font-size="10" fill="#a371f7" font-weight="bold" transform="rotate(90, 735, 180)">Day 2</text>

  <line x1="690" y1="341" x2="730" y2="341" stroke="#3fb950" stroke-width="2"/>
  <text x="735" y="336" font-size="10" fill="#3fb950" font-weight="bold" transform="rotate(90, 735, 336)">Day 6</text>

  <text x="380" y="545" text-anchor="middle" font-size="13" fill="#c9d1d9">Day 6 目标：从 ~45% 跨越到 70%+</text>
</svg>