<svg xmlns="http://www.w3.org/2000/svg" width="760" height="500" viewBox="0 0 760 500">
  <rect width="760" height="500" fill="#0d1117"/>
  <text x="380" y="36" text-anchor="middle" font-size="22" font-weight="bold" fill="#c9d1d9">Register Blocking 三级数据复用</text>

  <!-- Global Memory -->
  <rect x="40" y="70" width="160" height="80" rx="8" fill="#d29922" opacity="0.2" stroke="#e3b341" stroke-width="2"/>
  <text x="120" y="100" text-anchor="middle" font-size="15" fill="#c9d1d9" font-weight="bold">Global Memory</text>
  <text x="120" y="122" text-anchor="middle" font-size="12" fill="#8b949e">A[M][K], B[K][N]</text>
  <text x="120" y="140" text-anchor="middle" font-size="11" fill="#8b949e">~400-800 cycles</text>

  <!-- Arrow down -->
  <line x1="120" y1="150" x2="120" y2="185" stroke="#58a6ff" stroke-width="2" marker-end="url(#arr5)"/>
  <text x="135" y="170" font-size="11" fill="#58a6ff">协作加载</text>

  <!-- Shared Memory -->
  <rect x="40" y="190" width="160" height="80" rx="8" fill="#a371f7" opacity="0.2" stroke="#a371f7" stroke-width="2"/>
  <text x="120" y="220" text-anchor="middle" font-size="15" fill="#c9d1d9" font-weight="bold">Shared Memory</text>
  <text x="120" y="242" text-anchor="middle" font-size="12" fill="#8b949e">s_A[BM][BK], s_B[BK][BN]</text>
  <text x="120" y="260" text-anchor="middle" font-size="11" fill="#8b949e">~20-30 cycles</text>

  <!-- Arrows to registers -->
  <line x1="120" y1="270" x2="120" y2="305" stroke="#58a6ff" stroke-width="2" marker-end="url(#arr5)"/>
  <text x="135" y="290" font-size="11" fill="#58a6ff">加载到寄存器</text>

  <!-- Registers -->
  <rect x="20" y="310" width="80" height="60" rx="6" fill="#238636" opacity="0.2" stroke="#3fb950" stroke-width="2"/>
  <text x="60" y="335" text-anchor="middle" font-size="13" fill="#c9d1d9" font-weight="bold">r_A[TM]</text>
  <text x="60" y="355" text-anchor="middle" font-size="10" fill="#8b949e">A 子行</text>

  <rect x="120" y="310" width="80" height="60" rx="6" fill="#238636" opacity="0.2" stroke="#3fb950" stroke-width="2"/>
  <text x="160" y="335" text-anchor="middle" font-size="13" fill="#c9d1d9" font-weight="bold">r_B[TN]</text>
  <text x="160" y="355" text-anchor="middle" font-size="10" fill="#8b949e">B 子列</text>

  <!-- FMA -->
  <line x1="60" y1="370" x2="100" y2="410" stroke="#3fb950" stroke-width="2"/>
  <line x1="160" y1="370" x2="120" y2="410" stroke="#3fb950" stroke-width="2"/>

  <rect x="40" y="410" width="140" height="60" rx="8" fill="#1f6feb" opacity="0.3" stroke="#58a6ff" stroke-width="2"/>
  <text x="110" y="435" text-anchor="middle" font-size="14" fill="#c9d1d9" font-weight="bold">FMA 累加</text>
  <text x="110" y="455" text-anchor="middle" font-size="13" fill="#58a6ff" font-weight="bold">acc[TM][TN]</text>

  <!-- Right side: optimization levels -->
  <g transform="translate(320, 80)">
    <text x="180" y="0" text-anchor="middle" font-size="16" fill="#c9d1d9" font-weight="bold">优化层次与性能目标</text>

    <rect x="0" y="20" width="360" height="35" rx="6" fill="#f85149" opacity="0.15" stroke="#f85149"/>
    <text x="15" y="42" font-size="12" fill="#c9d1d9">Naive GEMM</text>
    <text x="200" y="42" font-size="12" fill="#f85149" font-weight="bold">~1-3% peak</text>

    <rect x="0" y="65" width="360" height="35" rx="6" fill="#d29922" opacity="0.15" stroke="#d29922"/>
    <text x="15" y="87" font-size="12" fill="#c9d1d9">Shared Memory Tiling</text>
    <text x="200" y="87" font-size="12" fill="#d29922" font-weight="bold">~15-25% peak</text>

    <rect x="0" y="110" width="360" height="35" rx="6" fill="#a371f7" opacity="0.15" stroke="#a371f7"/>
    <text x="15" y="132" font-size="12" fill="#c9d1d9">Register Blocking</text>
    <text x="200" y="132" font-size="12" fill="#a371f7" font-weight="bold">~40-60% peak</text>

    <rect x="0" y="155" width="360" height="35" rx="6" fill="#58a6ff" opacity="0.15" stroke="#58a6ff"/>
    <text x="15" y="177" font-size="12" fill="#c9d1d9">Warp-level + Shuffle</text>
    <text x="200" y="177" font-size="12" fill="#58a6ff" font-weight="bold">~60-80% peak</text>

    <rect x="0" y="200" width="360" height="35" rx="6" fill="#3fb950" opacity="0.15" stroke="#3fb950"/>
    <text x="15" y="222" font-size="12" fill="#c9d1d9">软件流水线 (Double Buffer)</text>
    <text x="200" y="222" font-size="12" fill="#3fb950" font-weight="bold">~80-95% peak</text>

    <!-- Register usage -->
    <text x="180" y="270" text-anchor="middle" font-size="14" fill="#c9d1d9" font-weight="bold">Register 使用量（TM=TN=8）</text>
    <rect x="20" y="285" width="320" height="140" rx="8" fill="#161b22" stroke="#30363d" stroke-width="2"/>
    <text x="40" y="310" font-size="12" fill="#3fb950">acc[8][8] = 64 个 float</text>
    <text x="40" y="332" font-size="12" fill="#58a6ff">r_A[8] = 8 个 float</text>
    <text x="40" y="354" font-size="12" fill="#58a6ff">r_B[8] = 8 个 float</text>
    <text x="40" y="376" font-size="12" fill="#8b949e">索引/临时变量 ≈ 8 个</text>
    <line x1="40" y1="388" x2="320" y2="388" stroke="#30363d"/>
    <text x="40" y="412" font-size="14" fill="#e3b341" font-weight="bold">总计 ≈ 88 registers（上限 255）</text>
  </g>
</svg>