<svg xmlns="http://www.w3.org/2000/svg" width="760" height="400" viewBox="0 0 760 400">
  <rect width="760" height="400" fill="#0d1117"/>
  <text x="380" y="36" text-anchor="middle" font-size="22" font-weight="bold" fill="#c9d1d9">cudaEvent 跨 Stream 依赖管理</text>

  <!-- Stream A -->
  <text x="380" y="72" text-anchor="middle" font-size="14" fill="#8b949e">场景：Stream C 必须等待 Stream A 和 Stream B 的 D2H 都完成</text>
  <g transform="translate(80, 90)">
    <text x="0" y="22" font-size="13" fill="#58a6ff" font-weight="bold">Stream A</text>
    <rect x="80" y="5" width="100" height="30" rx="4" fill="#58a6ff" opacity="0.3" stroke="#58a6ff"/>
    <text x="130" y="25" text-anchor="middle" font-size="11" fill="#c9d1d9">Kernel A</text>
    <rect x="180" y="5" width="100" height="30" rx="4" fill="#a371f7" opacity="0.3" stroke="#a371f7"/>
    <text x="230" y="25" text-anchor="middle" font-size="11" fill="#c9d1d9">D2H A</text>
    <circle cx="290" cy="20" r="8" fill="#d29922"/><text x="290" y="24" text-anchor="middle" font-size="8" fill="#0d1117" font-weight="bold">E1</text>
    <text x="310" y="24" font-size="10" fill="#d29922">cudaEventRecord(event1, streamA)</text>
  </g>

  <g transform="translate(80, 140)">
    <text x="0" y="22" font-size="13" fill="#3fb950" font-weight="bold">Stream B</text>
    <rect x="80" y="5" width="100" height="30" rx="4" fill="#3fb950" opacity="0.3" stroke="#3fb950"/>
    <text x="130" y="25" text-anchor="middle" font-size="11" fill="#c9d1d9">Kernel B</text>
    <rect x="180" y="5" width="100" height="30" rx="4" fill="#a371f7" opacity="0.3" stroke="#a371f7"/>
    <text x="230" y="25" text-anchor="middle" font-size="11" fill="#c9d1d9">D2H B</text>
    <circle cx="290" cy="20" r="8" fill="#d29922"/><text x="290" y="24" text-anchor="middle" font-size="8" fill="#0d1117" font-weight="bold">E2</text>
    <text x="310" y="24" font-size="10" fill="#d29922">cudaEventRecord(event2, streamB)</text>
  </g>

  <!-- Arrows to Stream C -->
  <line x1="370" y1="110" x2="370" y2="195" stroke="#d29922" stroke-width="2" stroke-dasharray="4" marker-end="url(#arrY)"/>
  <line x1="370" y1="160" x2="370" y2="195" stroke="#d29922" stroke-width="2" stroke-dasharray="4" marker-end="url(#arrY)"/>
  <text x="390" y="180" font-size="10" fill="#d29922">cudaStreamWaitEvent</text>

  <g transform="translate(80, 200)">
    <text x="0" y="22" font-size="13" fill="#e3b341" font-weight="bold">Stream C</text>
    <rect x="290" y="5" width="120" height="30" rx="4" fill="#d29922" opacity="0.3" stroke="#e3b341"/>
    <text x="350" y="25" text-anchor="middle" font-size="11" fill="#c9d1d9">Post-process</text>
    <text x="420" y="24" font-size="10" fill="#3fb950">← 仅在 E1 和 E2 都完成后才开始</text>
  </g>

  <!-- Code snippet -->
  <g transform="translate(80, 260)">
    <rect x="0" y="0" width="600" height="120" rx="8" fill="#161b22" stroke="#30363d" stroke-width="2"/>
    <text x="15" y="25" font-size="12" fill="#8b949e" font-family="monospace">// 1. 在 Stream A 和 B 中记录事件</text>
    <text x="15" y="45" font-size="12" fill="#58a6ff" font-family="monospace">cudaEventRecord(event1, streamA);</text>
    <text x="15" y="65" font-size="12" fill="#3fb950" font-family="monospace">cudaEventRecord(event2, streamB);</text>
    <text x="15" y="85" font-size="12" fill="#8b949e" font-family="monospace">// 2. Stream C 等待两个事件</text>
    <text x="15" y="105" font-size="12" fill="#d29922" font-family="monospace">cudaStreamWaitEvent(streamC, event1, 0);</text>
    <text x="300" y="105" font-size="12" fill="#d29922" font-family="monospace">cudaStreamWaitEvent(streamC, event2, 0);</text>
  </g>
</svg>