<svg xmlns="http://www.w3.org/2000/svg" width="720" height="400" viewBox="0 0 720 400">
  <rect width="720" height="400" fill="#0d1117"/>
  <text x="360" y="36" text-anchor="middle" font-size="22" font-weight="bold" fill="#c9d1d9">CUDA C Programming Guide 第 5 章核心要点</text>

  <!-- Central node -->
  <rect x="280" y="90" width="160" height="60" rx="8" fill="#1f6feb" stroke="#58a6ff" stroke-width="2"/>
  <text x="360" y="125" text-anchor="middle" font-size="15" fill="#c9d1d9" font-weight="bold">Performance Guidelines</text>

  <!-- Branches -->
  <rect x="60" y="200" width="150" height="80" rx="8" fill="#238636" opacity="0.2" stroke="#3fb950" stroke-width="2"/>
  <text x="135" y="235" text-anchor="middle" font-size="13" fill="#c9d1d9" font-weight="bold">Memory Coalescing</text>
  <text x="135" y="260" text-anchor="middle" font-size="11" fill="#8b949e">合并全局内存访问</text>

  <rect x="220" y="200" width="150" height="80" rx="8" fill="#d29922" opacity="0.2" stroke="#e3b341" stroke-width="2"/>
  <text x="295" y="235" text-anchor="middle" font-size="13" fill="#c9d1d9" font-weight="bold">Shared Memory</text>
  <text x="295" y="260" text-anchor="middle" font-size="11" fill="#8b949e">Bank conflict / Tiling</text>

  <rect x="380" y="200" width="150" height="80" rx="8" fill="#8957e5" opacity="0.2" stroke="#a371f7" stroke-width="2"/>
  <text x="455" y="235" text-anchor="middle" font-size="13" fill="#c9d1d9" font-weight="bold">Occupancy</text>
  <text x="455" y="260" text-anchor="middle" font-size="11" fill="#8b949e">隐藏延迟能力</text>

  <rect x="540" y="200" width="150" height="80" rx="8" fill="#f85149" opacity="0.2" stroke="#f85149" stroke-width="2"/>
  <text x="615" y="235" text-anchor="middle" font-size="13" fill="#c9d1d9" font-weight="bold">Instruction Throughput</text>
  <text x="615" y="260" text-anchor="middle" font-size="11" fill="#8b949e">指令吞吐优化</text>

  <!-- Lines -->
  <line x1="320" y1="150" x2="135" y2="200" stroke="#8b949e" stroke-width="2"/>
  <line x1="360" y1="150" x2="295" y2="200" stroke="#8b949e" stroke-width="2"/>
  <line x1="400" y1="150" x2="455" y2="200" stroke="#8b949e" stroke-width="2"/>
  <line x1="440" y1="150" x2="615" y2="200" stroke="#8b949e" stroke-width="2"/>

  <!-- Bottom note -->
  <text x="360" y="330" text-anchor="middle" font-size="14" fill="#c9d1d9" font-weight="bold">这一章是 CUDA 性能优化的官方圣经</text>
  <text x="360" y="355" text-anchor="middle" font-size="13" fill="#8b949e">建议通读一遍，后续 Day 4-6 会反复用到这些概念</text>
</svg>