<svg xmlns="http://www.w3.org/2000/svg" width="720" height="480" viewBox="0 0 720 480">
  <rect width="720" height="480" fill="#0d1117"/>
  <text x="360" y="36" text-anchor="middle" font-size="22" font-weight="bold" fill="#c9d1d9">GPU 性能优化决策树</text>

  <!-- Start -->
  <rect x="280" y="70" width="160" height="50" rx="8" fill="#1f6feb" stroke="#58a6ff" stroke-width="2"/>
  <text x="360" y="100" text-anchor="middle" font-size="13" fill="#c9d1d9" font-weight="bold">Profiling 找到瓶颈</text>

  <!-- Question 1 -->
  <rect x="280" y="150" width="160" height="50" rx="8" fill="#161b22" stroke="#30363d" stroke-width="2"/>
  <text x="360" y="175" text-anchor="middle" font-size="12" fill="#c9d1d9" font-weight="bold">Occupancy 低？</text>

  <line x1="360" y1="120" x2="360" y2="150" stroke="#8b949e" stroke-width="2"/>

  <!-- Yes branch -->
  <line x1="280" y1="175" x2="160" y2="230" stroke="#8b949e" stroke-width="2"/>
  <text x="200" y="195" font-size="11" fill="#3fb950">是</text>

  <rect x="60" y="230" width="180" height="80" rx="8" fill="#238636" opacity="0.2" stroke="#3fb950" stroke-width="2"/>
  <text x="150" y="255" text-anchor="middle" font-size="12" fill="#c9d1d9" font-weight="bold">优化 Occupancy</text>
  <text x="70" y="280" font-size="11" fill="#8b949e">• 减少寄存器使用</text>
  <text x="70" y="300" font-size="11" fill="#8b949e">• 调整 block 大小</text>

  <!-- No branch -->
  <line x1="440" y1="175" x2="560" y2="230" stroke="#8b949e" stroke-width="2"/>
  <text x="500" y="195" font-size="11" fill="#f85149">否</text>

  <rect x="480" y="230" width="180" height="80" rx="8" fill="#d29922" opacity="0.2" stroke="#e3b341" stroke-width="2"/>
  <text x="570" y="255" text-anchor="middle" font-size="12" fill="#c9d1d9" font-weight="bold">判断瓶颈类型</text>
  <text x="490" y="280" font-size="11" fill="#8b949e">• Memory-bound?</text>
  <text x="490" y="300" font-size="11" fill="#8b949e">• Compute-bound?</text>

  <!-- Memory bound -->
  <line x1="520" y1="310" x2="440" y2="360" stroke="#8b949e" stroke-width="2"/>
  <text x="470" y="335" font-size="11" fill="#e3b341">Memory</text>

  <rect x="320" y="360" width="180" height="90" rx="8" fill="#d29922" opacity="0.2" stroke="#e3b341" stroke-width="2"/>
  <text x="410" y="385" text-anchor="middle" font-size="12" fill="#c9d1d9" font-weight="bold">内存优化</text>
  <text x="330" y="410" font-size="11" fill="#8b949e">• Coalesced access</text>
  <text x="330" y="430" font-size="11" fill="#8b949e">• Shared memory tiling</text>
  <text x="330" y="450" font-size="11" fill="#8b949e">• 减少数据读写</text>

  <!-- Compute bound -->
  <line x1="620" y1="310" x2="620" y2="360" stroke="#8b949e" stroke-width="2"/>
  <text x="625" y="340" font-size="11" fill="#3fb950">Compute</text>

  <rect x="530" y="360" width="180" height="90" rx="8" fill="#238636" opacity="0.2" stroke="#3fb950" stroke-width="2"/>
  <text x="620" y="385" text-anchor="middle" font-size="12" fill="#c9d1d9" font-weight="bold">计算优化</text>
  <text x="540" y="410" font-size="11" fill="#8b949e">• Tensor Core</text>
  <text x="540" y="430" font-size="11" fill="#8b949e">• 指令级优化</text>
  <text x="540" y="450" font-size="11" fill="#8b949e">• 提高指令吞吐</text>
</svg>