<svg xmlns="http://www.w3.org/2000/svg" width="720" height="420" viewBox="0 0 720 420">
  <rect width="720" height="420" fill="#0d1117"/>
  <text x="360" y="36" text-anchor="middle" font-size="22" font-weight="bold" fill="#c9d1d9">Padding 解决 Bank Conflict</text>

  <!-- Without padding -->
  <text x="180" y="70" text-anchor="middle" font-size="16" font-weight="bold" fill="#f85149">❌ 无 Padding</text>
  <text x="180" y="95" text-anchor="middle" font-size="12" fill="#8b949e">float tile[32][32]</text>

  <g transform="translate(60, 110)">
    <rect x="0" y="0" width="30" height="30" fill="#f85149" stroke="#ff7b72" stroke-width="2"/>
    <text x="15" y="20" text-anchor="middle" font-size="9" fill="#fff">B0</text>
    <rect x="30" y="0" width="30" height="30" fill="#f85149" stroke="#ff7b72" stroke-width="2"/>
    <text x="45" y="20" text-anchor="middle" font-size="9" fill="#fff">B1</text>
    <rect x="60" y="0" width="30" height="30" fill="#f85149" stroke="#ff7b72" stroke-width="2"/>
    <text x="75" y="20" text-anchor="middle" font-size="9" fill="#fff">B2</text>
    <rect x="90" y="0" width="30" height="30" fill="#f85149" stroke="#ff7b72" stroke-width="2"/>
    <text x="105" y="20" text-anchor="middle" font-size="9" fill="#fff">...</text>
    <rect x="120" y="0" width="30" height="30" fill="#f85149" stroke="#ff7b72" stroke-width="2"/>
    <text x="135" y="20" text-anchor="middle" font-size="9" fill="#fff">B31</text>

    <rect x="0" y="30" width="30" height="30" fill="#f85149" stroke="#ff7b72" stroke-width="2"/>
    <text x="15" y="50" text-anchor="middle" font-size="9" fill="#fff">B0</text>
    <rect x="30" y="30" width="30" height="30" fill="#f85149" stroke="#ff7b72" stroke-width="2"/>
    <text x="45" y="50" text-anchor="middle" font-size="9" fill="#fff">B1</text>

    <text x="75" y="90" text-anchor="middle" font-size="11" fill="#f85149">同一列的数据都在同一个 bank</text>
    <text x="75" y="110" text-anchor="middle" font-size="11" fill="#f85149">按列读 → 32-way conflict</text>
  </g>

  <!-- With padding -->
  <text x="540" y="70" text-anchor="middle" font-size="16" font-weight="bold" fill="#3fb950">✅ 有 Padding</text>
  <text x="540" y="95" text-anchor="middle" font-size="12" fill="#8b949e">float tile[32][33]</text>

  <g transform="translate(420, 110)">
    <rect x="0" y="0" width="30" height="30" fill="#3fb950" stroke="#56d364" stroke-width="2"/>
    <text x="15" y="20" text-anchor="middle" font-size="9" fill="#0d1117">B0</text>
    <rect x="30" y="0" width="30" height="30" fill="#3fb950" stroke="#56d364" stroke-width="2"/>
    <text x="45" y="20" text-anchor="middle" font-size="9" fill="#0d1117">B1</text>
    <rect x="60" y="0" width="30" height="30" fill="#3fb950" stroke="#56d364" stroke-width="2"/>
    <text x="75" y="20" text-anchor="middle" font-size="9" fill="#0d1117">B2</text>
    <rect x="90" y="0" width="30" height="30" fill="#3fb950" stroke="#56d364" stroke-width="2"/>
    <text x="105" y="20" text-anchor="middle" font-size="9" fill="#0d1117">...</text>
    <rect x="120" y="0" width="30" height="30" fill="#3fb950" stroke="#56d364" stroke-width="2"/>
    <text x="135" y="20" text-anchor="middle" font-size="9" fill="#0d1117">B31</text>
    <rect x="150" y="0" width="20" height="30" fill="#30363d" stroke="#484f58"/>
    <text x="160" y="20" text-anchor="middle" font-size="8" fill="#8b949e">pad</text>

    <rect x="0" y="30" width="30" height="30" fill="#238636" stroke="#3fb950" stroke-width="2"/>
    <text x="15" y="50" text-anchor="middle" font-size="9" fill="#fff">B1</text>
    <rect x="30" y="30" width="30" height="30" fill="#238636" stroke="#3fb950" stroke-width="2"/>
    <text x="45" y="50" text-anchor="middle" font-size="9" fill="#fff">B2</text>

    <text x="85" y="90" text-anchor="middle" font-size="11" fill="#3fb950">每行多一个 padding 单元</text>
    <text x="85" y="110" text-anchor="middle" font-size="11" fill="#3fb950">同一列的数据错开 bank</text>
  </g>

  <!-- Code -->
  <rect x="60" y="260" width="600" height="120" rx="8" fill="#1f2937" stroke="#30363d" stroke-width="2"/>
  <text x="70" y="290" font-family="monospace" font-size="13" fill="#c9d1d9">// 有 conflict</text>
  <text x="70" y="310" font-family="monospace" font-size="13" fill="#c9d1d9">__shared__ float tile[TILE_DIM][TILE_DIM];</text>
  <text x="70" y="340" font-family="monospace" font-size="13" fill="#c9d1d9">// 无 conflict</text>
  <text x="70" y="360" font-family="monospace" font-size="13" fill="#c9d1d9">__shared__ float tile[TILE_DIM][TILE_DIM + 1];</text>
</svg>