<svg xmlns="http://www.w3.org/2000/svg" width="720" height="420" viewBox="0 0 720 420">
  <rect width="720" height="420" fill="#0d1117"/>
  <text x="360" y="36" text-anchor="middle" font-size="22" font-weight="bold" fill="#c9d1d9">Shared Memory Bank Conflict</text>

  <!-- Banks -->
  <text x="360" y="70" text-anchor="middle" font-size="15" fill="#8b949e">Shared Memory：32 banks，每 bank 4 bytes</text>

  <!-- Bank columns -->
  <g transform="translate(120, 100)">
    <!-- Headers -->
    <rect x="0" y="0" width="40" height="30" fill="#30363d" stroke="#484f58"/>
    <text x="20" y="20" text-anchor="middle" font-size="11" fill="#c9d1d9">B0</text>
    <rect x="40" y="0" width="40" height="30" fill="#30363d" stroke="#484f58"/>
    <text x="60" y="20" text-anchor="middle" font-size="11" fill="#c9d1d9">B1</text>
    <rect x="80" y="0" width="40" height="30" fill="#30363d" stroke="#484f58"/>
    <text x="100" y="20" text-anchor="middle" font-size="11" fill="#c9d1d9">B2</text>
    <rect x="120" y="0" width="40" height="30" fill="#30363d" stroke="#484f58"/>
    <text x="140" y="20" text-anchor="middle" font-size="11" fill="#c9d1d9">...</text>
    <rect x="160" y="0" width="40" height="30" fill="#30363d" stroke="#484f58"/>
    <text x="180" y="20" text-anchor="middle" font-size="11" fill="#c9d1d9">B31</text>

    <!-- Data row -->
    <rect x="0" y="30" width="40" height="40" fill="#238636" stroke="#3fb950" stroke-width="2"/>
    <rect x="40" y="30" width="40" height="40" fill="#238636" stroke="#3fb950" stroke-width="2"/>
    <rect x="80" y="30" width="40" height="40" fill="#238636" stroke="#3fb950" stroke-width="2"/>
    <rect x="120" y="30" width="40" height="40" fill="#238636" stroke="#3fb950" stroke-width="2"/>
    <rect x="160" y="30" width="40" height="40" fill="#238636" stroke="#3fb950" stroke-width="2"/>
  </g>

  <!-- Conflict case -->
  <text x="360" y="210" text-anchor="middle" font-size="16" font-weight="bold" fill="#f85149">❌ Bank Conflict：同一 warp 的多个线程同时访问同一个 bank</text>
  <circle cx="200" cy="260" r="16" fill="#f85149"/>
  <text x="200" y="265" text-anchor="middle" font-size="10" fill="#fff" font-weight="bold">T0</text>
  <circle cx="240" cy="260" r="16" fill="#f85149"/>
  <text x="240" y="265" text-anchor="middle" font-size="10" fill="#fff" font-weight="bold">T1</text>
  <circle cx="280" cy="260" r="16" fill="#f85149"/>
  <text x="280" y="265" text-anchor="middle" font-size="10" fill="#fff" font-weight="bold">T2</text>

  <line x1="200" y1="276" x2="200" y2="330" stroke="#f85149" stroke-width="2"/>
  <line x1="240" y1="276" x2="240" y2="330" stroke="#f85149" stroke-width="2"/>
  <line x1="280" y1="276" x2="280" y2="330" stroke="#f85149" stroke-width="2"/>

  <text x="240" y="350" text-anchor="middle" font-size="13" fill="#f85149">T0/T1/T2 都访问 Bank 0 → 串行执行</text>

  <!-- Padding fix -->
  <text x="360" y="390" text-anchor="middle" font-size="14" fill="#3fb950">✅ 解决：tile[TILE_DIM][TILE_DIM + 1] padding 让数据错开 bank</text>
</svg>