<svg xmlns="http://www.w3.org/2000/svg" width="720" height="420" viewBox="0 0 720 420">
  <rect width="720" height="420" fill="#0d1117"/>
  <text x="360" y="36" text-anchor="middle" font-size="22" font-weight="bold" fill="#c9d1d9">Shared Memory Tiling 原理</text>

  <!-- Global memory matrix -->
  <rect x="60" y="80" width="240" height="240" fill="none" stroke="#58a6ff" stroke-width="2"/>
  <text x="180" y="70" text-anchor="middle" font-size="14" fill="#c9d1d9" font-weight="bold">Global Memory（大矩阵）</text>

  <!-- Tiles in global -->
  <rect x="60" y="80" width="80" height="80" fill="#1f6feb" opacity="0.3" stroke="#58a6ff" stroke-width="2"/>
  <text x="100" y="125" text-anchor="middle" font-size="11" fill="#c9d1d9">Tile 0</text>
  <rect x="140" y="80" width="80" height="80" fill="#1f6feb" opacity="0.1" stroke="#58a6ff" stroke-width="1"/>
  <rect x="220" y="80" width="80" height="80" fill="#1f6feb" opacity="0.1" stroke="#58a6ff" stroke-width="1"/>
  <rect x="60" y="160" width="80" height="80" fill="#1f6feb" opacity="0.1" stroke="#58a6ff" stroke-width="1"/>
  <rect x="140" y="160" width="80" height="80" fill="#1f6feb" opacity="0.1" stroke="#58a6ff" stroke-width="1"/>
  <rect x="220" y="160" width="80" height="80" fill="#1f6feb" opacity="0.1" stroke="#58a6ff" stroke-width="1"/>
  <rect x="60" y="240" width="80" height="80" fill="#1f6feb" opacity="0.1" stroke="#58a6ff" stroke-width="1"/>
  <rect x="140" y="240" width="80" height="80" fill="#1f6feb" opacity="0.1" stroke="#58a6ff" stroke-width="1"/>
  <rect x="220" y="240" width="80" height="80" fill="#1f6feb" opacity="0.1" stroke="#58a6ff" stroke-width="1"/>

  <!-- Shared memory tile -->
  <rect x="420" y="120" width="120" height="120" rx="4" fill="#238636" opacity="0.3" stroke="#3fb950" stroke-width="2"/>
  <text x="480" y="115" text-anchor="middle" font-size="14" fill="#c9d1d9" font-weight="bold">Shared Memory（Tile）</text>

  <line x1="320" y1="160" x2="420" y2="180" stroke="#8b949e" stroke-width="2" marker-end="url(#arrowRight)"/>
  <text x="370" y="160" text-anchor="middle" font-size="12" fill="#8b949e">加载</text>

  <line x1="480" y1="240" x2="480" y2="300" stroke="#8b949e" stroke-width="2" marker-end="url(#arrowDown)"/>
  <text x="520" y="280" text-anchor="start" font-size="12" fill="#8b949e">在 SM 内快速复用</text>

  <!-- Steps -->
  <rect x="60" y="350" width="600" height="50" rx="8" fill="#161b22" stroke="#30363d" stroke-width="2"/>
  <text x="360" y="380" text-anchor="middle" font-size="13" fill="#c9d1d9">1. 将大矩阵分块  →  2. 加载一个 tile 到 Shared Memory  →  3. 在线程间复用数据</text>
</svg>