<svg xmlns="http://www.w3.org/2000/svg" width="720" height="360" viewBox="0 0 720 360">
  <rect width="720" height="360" fill="#0d1117"/>
  <text x="360" y="36" text-anchor="middle" font-size="22" font-weight="bold" fill="#c9d1d9">Coalesced vs Stride Access</text>

  <!-- Coalesced -->
  <text x="180" y="80" text-anchor="middle" font-size="16" font-weight="bold" fill="#3fb950">✅ Coalesced</text>

  <circle cx="80" cy="120" r="14" fill="#58a6ff"/>
  <text x="80" y="125" text-anchor="middle" font-size="9" fill="#0d1117" font-weight="bold">T0</text>
  <circle cx="120" cy="120" r="14" fill="#58a6ff"/>
  <text x="120" y="125" text-anchor="middle" font-size="9" fill="#0d1117" font-weight="bold">T1</text>
  <circle cx="160" cy="120" r="14" fill="#58a6ff"/>
  <text x="160" y="125" text-anchor="middle" font-size="9" fill="#0d1117" font-weight="bold">T2</text>
  <circle cx="200" cy="120" r="14" fill="#58a6ff"/>
  <text x="200" y="125" text-anchor="middle" font-size="9" fill="#0d1117" font-weight="bold">T3</text>

  <line x1="80" y1="134" x2="80" y2="170" stroke="#58a6ff" stroke-width="2"/>
  <line x1="120" y1="134" x2="120" y2="170" stroke="#58a6ff" stroke-width="2"/>
  <line x1="160" y1="134" x2="160" y2="170" stroke="#58a6ff" stroke-width="2"/>
  <line x1="200" y1="134" x2="200" y2="170" stroke="#58a6ff" stroke-width="2"/>

  <rect x="70" y="170" width="150" height="40" rx="4" fill="#238636" stroke="#3fb950" stroke-width="2"/>
  <text x="145" y="195" text-anchor="middle" font-size="12" fill="#0d1117" font-weight="bold">1 次内存事务</text>

  <!-- Stride -->
  <text x="540" y="80" text-anchor="middle" font-size="16" font-weight="bold" fill="#f85149">❌ Stride</text>

  <circle cx="440" cy="120" r="14" fill="#58a6ff"/>
  <text x="440" y="125" text-anchor="middle" font-size="9" fill="#0d1117" font-weight="bold">T0</text>
  <circle cx="480" cy="120" r="14" fill="#58a6ff"/>
  <text x="480" y="125" text-anchor="middle" font-size="9" fill="#0d1117" font-weight="bold">T1</text>
  <circle cx="520" cy="120" r="14" fill="#58a6ff"/>
  <text x="520" y="125" text-anchor="middle" font-size="9" fill="#0d1117" font-weight="bold">T2</text>
  <circle cx="560" cy="120" r="14" fill="#58a6ff"/>
  <text x="560" y="125" text-anchor="middle" font-size="9" fill="#0d1117" font-weight="bold">T3</text>

  <line x1="440" y1="134" x2="440" y2="170" stroke="#58a6ff" stroke-width="2"/>
  <line x1="480" y1="134" x2="520" y2="170" stroke="#58a6ff" stroke-width="2"/>
  <line x1="520" y1="134" x2="600" y2="170" stroke="#58a6ff" stroke-width="2"/>
  <line x1="560" y1="134" x2="680" y2="170" stroke="#58a6ff" stroke-width="2"/>

  <rect x="430" y="170" width="60" height="40" rx="4" fill="#d29922" stroke="#e3b341" stroke-width="2"/>
  <rect x="500" y="170" width="60" height="40" rx="4" fill="#d29922" stroke="#e3b341" stroke-width="2"/>
  <rect x="570" y="170" width="60" height="40" rx="4" fill="#d29922" stroke="#e3b341" stroke-width="2"/>
  <rect x="640" y="170" width="60" height="40" rx="4" fill="#d29922" stroke="#e3b341" stroke-width="2"/>
  <text x="565" y="235" text-anchor="middle" font-size="12" fill="#f85149" font-weight="bold">4 次内存事务</text>

  <!-- Code examples -->
  <rect x="60" y="270" width="280" height="70" rx="8" fill="#1f2937" stroke="#30363d"/>
  <text x="70" y="295" font-family="monospace" font-size="12" fill="#c9d1d9">// Coalesced</text>
  <text x="70" y="315" font-family="monospace" font-size="12" fill="#c9d1d9">x[idx]</text>

  <rect x="380" y="270" width="320" height="70" rx="8" fill="#1f2937" stroke="#30363d"/>
  <text x="390" y="295" font-family="monospace" font-size="12" fill="#c9d1d9">// Stride</text>
  <text x="390" y="315" font-family="monospace" font-size="12" fill="#c9d1d9">x[idx * 32]</text>
</svg>