<svg xmlns="http://www.w3.org/2000/svg" width="1000" height="740" viewBox="0 0 1000 740">
  <defs>
    <marker id="arrowRight" markerWidth="10" markerHeight="10" refX="8" refY="3" orient="auto" markerUnits="strokeWidth">
      <path d="M0,0 L0,6 L9,3 z" fill="#8b949e"/>
    </marker>
  </defs>
  <rect width="1000" height="740" fill="#0d1117"/>
  <text x="500.0" y="36" text-anchor="middle" font-size="22" font-weight="bold" fill="#c9d1d9">Tiled 矩阵转置：数据划分、线程映射与 Shared Memory 中转</text>

  <!-- Input matrix -->
  <text x="172.0" y="90" text-anchor="middle" font-size="15" font-weight="bold" fill="#58a6ff">Input A（行优先）</text>
  <text x="172.0" y="105" text-anchor="middle" font-size="11" fill="#8b949e">8×8，TILE_DIM=4</text>
    <rect x="60" y="110" width="28" height="28" fill="#161b22" opacity="1" stroke="#30363d" stroke-width="1"/>
    <text x="74.0" y="128.0" text-anchor="middle" font-size="7" fill="#c9d1d9">A[0][0]</text>
    <rect x="88" y="110" width="28" height="28" fill="#161b22" opacity="1" stroke="#30363d" stroke-width="1"/>
    <text x="102.0" y="128.0" text-anchor="middle" font-size="7" fill="#c9d1d9">A[0][1]</text>
    <rect x="116" y="110" width="28" height="28" fill="#161b22" opacity="1" stroke="#30363d" stroke-width="1"/>
    <text x="130.0" y="128.0" text-anchor="middle" font-size="7" fill="#c9d1d9">A[0][2]</text>
    <rect x="144" y="110" width="28" height="28" fill="#161b22" opacity="1" stroke="#30363d" stroke-width="1"/>
    <text x="158.0" y="128.0" text-anchor="middle" font-size="7" fill="#c9d1d9">A[0][3]</text>
    <rect x="172" y="110" width="28" height="28" fill="#1f6feb" opacity="0.45" stroke="#58a6ff" stroke-width="1"/>
    <text x="186.0" y="128.0" text-anchor="middle" font-size="7" fill="#c9d1d9">A[0][4]</text>
    <rect x="200" y="110" width="28" height="28" fill="#1f6feb" opacity="0.45" stroke="#58a6ff" stroke-width="1"/>
    <text x="214.0" y="128.0" text-anchor="middle" font-size="7" fill="#c9d1d9">A[0][5]</text>
    <rect x="228" y="110" width="28" height="28" fill="#1f6feb" opacity="0.45" stroke="#58a6ff" stroke-width="1"/>
    <text x="242.0" y="128.0" text-anchor="middle" font-size="7" fill="#c9d1d9">A[0][6]</text>
    <rect x="256" y="110" width="28" height="28" fill="#1f6feb" opacity="0.45" stroke="#58a6ff" stroke-width="1"/>
    <text x="270.0" y="128.0" text-anchor="middle" font-size="7" fill="#c9d1d9">A[0][7]</text>
    <rect x="60" y="138" width="28" height="28" fill="#161b22" opacity="1" stroke="#30363d" stroke-width="1"/>
    <text x="74.0" y="156.0" text-anchor="middle" font-size="7" fill="#c9d1d9">A[1][0]</text>
    <rect x="88" y="138" width="28" height="28" fill="#161b22" opacity="1" stroke="#30363d" stroke-width="1"/>
    <text x="102.0" y="156.0" text-anchor="middle" font-size="7" fill="#c9d1d9">A[1][1]</text>
    <rect x="116" y="138" width="28" height="28" fill="#161b22" opacity="1" stroke="#30363d" stroke-width="1"/>
    <text x="130.0" y="156.0" text-anchor="middle" font-size="7" fill="#c9d1d9">A[1][2]</text>
    <rect x="144" y="138" width="28" height="28" fill="#161b22" opacity="1" stroke="#30363d" stroke-width="1"/>
    <text x="158.0" y="156.0" text-anchor="middle" font-size="7" fill="#c9d1d9">A[1][3]</text>
    <rect x="172" y="138" width="28" height="28" fill="#1f6feb" opacity="0.45" stroke="#58a6ff" stroke-width="1"/>
    <text x="186.0" y="156.0" text-anchor="middle" font-size="7" fill="#c9d1d9">A[1][4]</text>
    <rect x="200" y="138" width="28" height="28" fill="#1f6feb" opacity="0.45" stroke="#58a6ff" stroke-width="1"/>
    <text x="214.0" y="156.0" text-anchor="middle" font-size="7" fill="#c9d1d9">A[1][5]</text>
    <rect x="228" y="138" width="28" height="28" fill="#1f6feb" opacity="0.45" stroke="#58a6ff" stroke-width="1"/>
    <text x="242.0" y="156.0" text-anchor="middle" font-size="7" fill="#c9d1d9">A[1][6]</text>
    <rect x="256" y="138" width="28" height="28" fill="#1f6feb" opacity="0.45" stroke="#58a6ff" stroke-width="1"/>
    <text x="270.0" y="156.0" text-anchor="middle" font-size="7" fill="#c9d1d9">A[1][7]</text>
    <rect x="60" y="166" width="28" height="28" fill="#161b22" opacity="1" stroke="#30363d" stroke-width="1"/>
    <text x="74.0" y="184.0" text-anchor="middle" font-size="7" fill="#c9d1d9">A[2][0]</text>
    <rect x="88" y="166" width="28" height="28" fill="#161b22" opacity="1" stroke="#30363d" stroke-width="1"/>
    <text x="102.0" y="184.0" text-anchor="middle" font-size="7" fill="#c9d1d9">A[2][1]</text>
    <rect x="116" y="166" width="28" height="28" fill="#161b22" opacity="1" stroke="#30363d" stroke-width="1"/>
    <text x="130.0" y="184.0" text-anchor="middle" font-size="7" fill="#c9d1d9">A[2][2]</text>
    <rect x="144" y="166" width="28" height="28" fill="#161b22" opacity="1" stroke="#30363d" stroke-width="1"/>
    <text x="158.0" y="184.0" text-anchor="middle" font-size="7" fill="#c9d1d9">A[2][3]</text>
    <rect x="172" y="166" width="28" height="28" fill="#1f6feb" opacity="0.45" stroke="#58a6ff" stroke-width="1"/>
    <text x="186.0" y="184.0" text-anchor="middle" font-size="7" fill="#c9d1d9">A[2][4]</text>
    <rect x="200" y="166" width="28" height="28" fill="#1f6feb" opacity="0.45" stroke="#58a6ff" stroke-width="1"/>
    <text x="214.0" y="184.0" text-anchor="middle" font-size="7" fill="#c9d1d9">A[2][5]</text>
    <rect x="228" y="166" width="28" height="28" fill="#1f6feb" opacity="0.45" stroke="#58a6ff" stroke-width="1"/>
    <text x="242.0" y="184.0" text-anchor="middle" font-size="7" fill="#c9d1d9">A[2][6]</text>
    <rect x="256" y="166" width="28" height="28" fill="#1f6feb" opacity="0.45" stroke="#58a6ff" stroke-width="1"/>
    <text x="270.0" y="184.0" text-anchor="middle" font-size="7" fill="#c9d1d9">A[2][7]</text>
    <rect x="60" y="194" width="28" height="28" fill="#161b22" opacity="1" stroke="#30363d" stroke-width="1"/>
    <text x="74.0" y="212.0" text-anchor="middle" font-size="7" fill="#c9d1d9">A[3][0]</text>
    <rect x="88" y="194" width="28" height="28" fill="#161b22" opacity="1" stroke="#30363d" stroke-width="1"/>
    <text x="102.0" y="212.0" text-anchor="middle" font-size="7" fill="#c9d1d9">A[3][1]</text>
    <rect x="116" y="194" width="28" height="28" fill="#161b22" opacity="1" stroke="#30363d" stroke-width="1"/>
    <text x="130.0" y="212.0" text-anchor="middle" font-size="7" fill="#c9d1d9">A[3][2]</text>
    <rect x="144" y="194" width="28" height="28" fill="#161b22" opacity="1" stroke="#30363d" stroke-width="1"/>
    <text x="158.0" y="212.0" text-anchor="middle" font-size="7" fill="#c9d1d9">A[3][3]</text>
    <rect x="172" y="194" width="28" height="28" fill="#1f6feb" opacity="0.45" stroke="#58a6ff" stroke-width="1"/>
    <text x="186.0" y="212.0" text-anchor="middle" font-size="7" fill="#c9d1d9">A[3][4]</text>
    <rect x="200" y="194" width="28" height="28" fill="#1f6feb" opacity="0.45" stroke="#58a6ff" stroke-width="1"/>
    <text x="214.0" y="212.0" text-anchor="middle" font-size="7" fill="#c9d1d9">A[3][5]</text>
    <rect x="228" y="194" width="28" height="28" fill="#1f6feb" opacity="0.45" stroke="#58a6ff" stroke-width="1"/>
    <text x="242.0" y="212.0" text-anchor="middle" font-size="7" fill="#c9d1d9">A[3][6]</text>
    <rect x="256" y="194" width="28" height="28" fill="#1f6feb" opacity="0.45" stroke="#58a6ff" stroke-width="1"/>
    <text x="270.0" y="212.0" text-anchor="middle" font-size="7" fill="#c9d1d9">A[3][7]</text>
    <rect x="60" y="222" width="28" height="28" fill="#161b22" opacity="1" stroke="#30363d" stroke-width="1"/>
    <text x="74.0" y="240.0" text-anchor="middle" font-size="7" fill="#c9d1d9">A[4][0]</text>
    <rect x="88" y="222" width="28" height="28" fill="#161b22" opacity="1" stroke="#30363d" stroke-width="1"/>
    <text x="102.0" y="240.0" text-anchor="middle" font-size="7" fill="#c9d1d9">A[4][1]</text>
    <rect x="116" y="222" width="28" height="28" fill="#161b22" opacity="1" stroke="#30363d" stroke-width="1"/>
    <text x="130.0" y="240.0" text-anchor="middle" font-size="7" fill="#c9d1d9">A[4][2]</text>
    <rect x="144" y="222" width="28" height="28" fill="#161b22" opacity="1" stroke="#30363d" stroke-width="1"/>
    <text x="158.0" y="240.0" text-anchor="middle" font-size="7" fill="#c9d1d9">A[4][3]</text>
    <rect x="172" y="222" width="28" height="28" fill="#161b22" opacity="1" stroke="#30363d" stroke-width="1"/>
    <text x="186.0" y="240.0" text-anchor="middle" font-size="7" fill="#c9d1d9">A[4][4]</text>
    <rect x="200" y="222" width="28" height="28" fill="#161b22" opacity="1" stroke="#30363d" stroke-width="1"/>
    <text x="214.0" y="240.0" text-anchor="middle" font-size="7" fill="#c9d1d9">A[4][5]</text>
    <rect x="228" y="222" width="28" height="28" fill="#161b22" opacity="1" stroke="#30363d" stroke-width="1"/>
    <text x="242.0" y="240.0" text-anchor="middle" font-size="7" fill="#c9d1d9">A[4][6]</text>
    <rect x="256" y="222" width="28" height="28" fill="#161b22" opacity="1" stroke="#30363d" stroke-width="1"/>
    <text x="270.0" y="240.0" text-anchor="middle" font-size="7" fill="#c9d1d9">A[4][7]</text>
    <rect x="60" y="250" width="28" height="28" fill="#161b22" opacity="1" stroke="#30363d" stroke-width="1"/>
    <text x="74.0" y="268.0" text-anchor="middle" font-size="7" fill="#c9d1d9">A[5][0]</text>
    <rect x="88" y="250" width="28" height="28" fill="#161b22" opacity="1" stroke="#30363d" stroke-width="1"/>
    <text x="102.0" y="268.0" text-anchor="middle" font-size="7" fill="#c9d1d9">A[5][1]</text>
    <rect x="116" y="250" width="28" height="28" fill="#161b22" opacity="1" stroke="#30363d" stroke-width="1"/>
    <text x="130.0" y="268.0" text-anchor="middle" font-size="7" fill="#c9d1d9">A[5][2]</text>
    <rect x="144" y="250" width="28" height="28" fill="#161b22" opacity="1" stroke="#30363d" stroke-width="1"/>
    <text x="158.0" y="268.0" text-anchor="middle" font-size="7" fill="#c9d1d9">A[5][3]</text>
    <rect x="172" y="250" width="28" height="28" fill="#161b22" opacity="1" stroke="#30363d" stroke-width="1"/>
    <text x="186.0" y="268.0" text-anchor="middle" font-size="7" fill="#c9d1d9">A[5][4]</text>
    <rect x="200" y="250" width="28" height="28" fill="#161b22" opacity="1" stroke="#30363d" stroke-width="1"/>
    <text x="214.0" y="268.0" text-anchor="middle" font-size="7" fill="#c9d1d9">A[5][5]</text>
    <rect x="228" y="250" width="28" height="28" fill="#161b22" opacity="1" stroke="#30363d" stroke-width="1"/>
    <text x="242.0" y="268.0" text-anchor="middle" font-size="7" fill="#c9d1d9">A[5][6]</text>
    <rect x="256" y="250" width="28" height="28" fill="#161b22" opacity="1" stroke="#30363d" stroke-width="1"/>
    <text x="270.0" y="268.0" text-anchor="middle" font-size="7" fill="#c9d1d9">A[5][7]</text>
    <rect x="60" y="278" width="28" height="28" fill="#161b22" opacity="1" stroke="#30363d" stroke-width="1"/>
    <text x="74.0" y="296.0" text-anchor="middle" font-size="7" fill="#c9d1d9">A[6][0]</text>
    <rect x="88" y="278" width="28" height="28" fill="#161b22" opacity="1" stroke="#30363d" stroke-width="1"/>
    <text x="102.0" y="296.0" text-anchor="middle" font-size="7" fill="#c9d1d9">A[6][1]</text>
    <rect x="116" y="278" width="28" height="28" fill="#161b22" opacity="1" stroke="#30363d" stroke-width="1"/>
    <text x="130.0" y="296.0" text-anchor="middle" font-size="7" fill="#c9d1d9">A[6][2]</text>
    <rect x="144" y="278" width="28" height="28" fill="#161b22" opacity="1" stroke="#30363d" stroke-width="1"/>
    <text x="158.0" y="296.0" text-anchor="middle" font-size="7" fill="#c9d1d9">A[6][3]</text>
    <rect x="172" y="278" width="28" height="28" fill="#161b22" opacity="1" stroke="#30363d" stroke-width="1"/>
    <text x="186.0" y="296.0" text-anchor="middle" font-size="7" fill="#c9d1d9">A[6][4]</text>
    <rect x="200" y="278" width="28" height="28" fill="#161b22" opacity="1" stroke="#30363d" stroke-width="1"/>
    <text x="214.0" y="296.0" text-anchor="middle" font-size="7" fill="#c9d1d9">A[6][5]</text>
    <rect x="228" y="278" width="28" height="28" fill="#161b22" opacity="1" stroke="#30363d" stroke-width="1"/>
    <text x="242.0" y="296.0" text-anchor="middle" font-size="7" fill="#c9d1d9">A[6][6]</text>
    <rect x="256" y="278" width="28" height="28" fill="#161b22" opacity="1" stroke="#30363d" stroke-width="1"/>
    <text x="270.0" y="296.0" text-anchor="middle" font-size="7" fill="#c9d1d9">A[6][7]</text>
    <rect x="60" y="306" width="28" height="28" fill="#161b22" opacity="1" stroke="#30363d" stroke-width="1"/>
    <text x="74.0" y="324.0" text-anchor="middle" font-size="7" fill="#c9d1d9">A[7][0]</text>
    <rect x="88" y="306" width="28" height="28" fill="#161b22" opacity="1" stroke="#30363d" stroke-width="1"/>
    <text x="102.0" y="324.0" text-anchor="middle" font-size="7" fill="#c9d1d9">A[7][1]</text>
    <rect x="116" y="306" width="28" height="28" fill="#161b22" opacity="1" stroke="#30363d" stroke-width="1"/>
    <text x="130.0" y="324.0" text-anchor="middle" font-size="7" fill="#c9d1d9">A[7][2]</text>
    <rect x="144" y="306" width="28" height="28" fill="#161b22" opacity="1" stroke="#30363d" stroke-width="1"/>
    <text x="158.0" y="324.0" text-anchor="middle" font-size="7" fill="#c9d1d9">A[7][3]</text>
    <rect x="172" y="306" width="28" height="28" fill="#161b22" opacity="1" stroke="#30363d" stroke-width="1"/>
    <text x="186.0" y="324.0" text-anchor="middle" font-size="7" fill="#c9d1d9">A[7][4]</text>
    <rect x="200" y="306" width="28" height="28" fill="#161b22" opacity="1" stroke="#30363d" stroke-width="1"/>
    <text x="214.0" y="324.0" text-anchor="middle" font-size="7" fill="#c9d1d9">A[7][5]</text>
    <rect x="228" y="306" width="28" height="28" fill="#161b22" opacity="1" stroke="#30363d" stroke-width="1"/>
    <text x="242.0" y="324.0" text-anchor="middle" font-size="7" fill="#c9d1d9">A[7][6]</text>
    <rect x="256" y="306" width="28" height="28" fill="#161b22" opacity="1" stroke="#30363d" stroke-width="1"/>
    <text x="270.0" y="324.0" text-anchor="middle" font-size="7" fill="#c9d1d9">A[7][7]</text>

  <!-- Highlight block(1,0) tile in input -->
  <rect x="172" y="110" width="112" height="112" fill="none" stroke="#58a6ff" stroke-width="3" stroke-dasharray="4,2"/>
  <text x="228.0" y="242" text-anchor="middle" font-size="12" fill="#58a6ff" font-weight="bold">Block(1,0) 读取此 tile</text>

  <!-- Output matrix -->
  <text x="832.0" y="90" text-anchor="middle" font-size="15" font-weight="bold" fill="#3fb950">Output A^T（行优先）</text>
  <text x="832.0" y="105" text-anchor="middle" font-size="11" fill="#8b949e">8×8，TILE_DIM=4</text>
    <rect x="720" y="110" width="28" height="28" fill="#161b22" opacity="1" stroke="#30363d" stroke-width="1"/>
    <text x="734.0" y="128.0" text-anchor="middle" font-size="7" fill="#c9d1d9">O[0][0]</text>
    <rect x="748" y="110" width="28" height="28" fill="#161b22" opacity="1" stroke="#30363d" stroke-width="1"/>
    <text x="762.0" y="128.0" text-anchor="middle" font-size="7" fill="#c9d1d9">O[0][1]</text>
    <rect x="776" y="110" width="28" height="28" fill="#161b22" opacity="1" stroke="#30363d" stroke-width="1"/>
    <text x="790.0" y="128.0" text-anchor="middle" font-size="7" fill="#c9d1d9">O[0][2]</text>
    <rect x="804" y="110" width="28" height="28" fill="#161b22" opacity="1" stroke="#30363d" stroke-width="1"/>
    <text x="818.0" y="128.0" text-anchor="middle" font-size="7" fill="#c9d1d9">O[0][3]</text>
    <rect x="832" y="110" width="28" height="28" fill="#161b22" opacity="1" stroke="#30363d" stroke-width="1"/>
    <text x="846.0" y="128.0" text-anchor="middle" font-size="7" fill="#c9d1d9">O[0][4]</text>
    <rect x="860" y="110" width="28" height="28" fill="#161b22" opacity="1" stroke="#30363d" stroke-width="1"/>
    <text x="874.0" y="128.0" text-anchor="middle" font-size="7" fill="#c9d1d9">O[0][5]</text>
    <rect x="888" y="110" width="28" height="28" fill="#161b22" opacity="1" stroke="#30363d" stroke-width="1"/>
    <text x="902.0" y="128.0" text-anchor="middle" font-size="7" fill="#c9d1d9">O[0][6]</text>
    <rect x="916" y="110" width="28" height="28" fill="#161b22" opacity="1" stroke="#30363d" stroke-width="1"/>
    <text x="930.0" y="128.0" text-anchor="middle" font-size="7" fill="#c9d1d9">O[0][7]</text>
    <rect x="720" y="138" width="28" height="28" fill="#161b22" opacity="1" stroke="#30363d" stroke-width="1"/>
    <text x="734.0" y="156.0" text-anchor="middle" font-size="7" fill="#c9d1d9">O[1][0]</text>
    <rect x="748" y="138" width="28" height="28" fill="#161b22" opacity="1" stroke="#30363d" stroke-width="1"/>
    <text x="762.0" y="156.0" text-anchor="middle" font-size="7" fill="#c9d1d9">O[1][1]</text>
    <rect x="776" y="138" width="28" height="28" fill="#161b22" opacity="1" stroke="#30363d" stroke-width="1"/>
    <text x="790.0" y="156.0" text-anchor="middle" font-size="7" fill="#c9d1d9">O[1][2]</text>
    <rect x="804" y="138" width="28" height="28" fill="#161b22" opacity="1" stroke="#30363d" stroke-width="1"/>
    <text x="818.0" y="156.0" text-anchor="middle" font-size="7" fill="#c9d1d9">O[1][3]</text>
    <rect x="832" y="138" width="28" height="28" fill="#161b22" opacity="1" stroke="#30363d" stroke-width="1"/>
    <text x="846.0" y="156.0" text-anchor="middle" font-size="7" fill="#c9d1d9">O[1][4]</text>
    <rect x="860" y="138" width="28" height="28" fill="#161b22" opacity="1" stroke="#30363d" stroke-width="1"/>
    <text x="874.0" y="156.0" text-anchor="middle" font-size="7" fill="#c9d1d9">O[1][5]</text>
    <rect x="888" y="138" width="28" height="28" fill="#161b22" opacity="1" stroke="#30363d" stroke-width="1"/>
    <text x="902.0" y="156.0" text-anchor="middle" font-size="7" fill="#c9d1d9">O[1][6]</text>
    <rect x="916" y="138" width="28" height="28" fill="#161b22" opacity="1" stroke="#30363d" stroke-width="1"/>
    <text x="930.0" y="156.0" text-anchor="middle" font-size="7" fill="#c9d1d9">O[1][7]</text>
    <rect x="720" y="166" width="28" height="28" fill="#161b22" opacity="1" stroke="#30363d" stroke-width="1"/>
    <text x="734.0" y="184.0" text-anchor="middle" font-size="7" fill="#c9d1d9">O[2][0]</text>
    <rect x="748" y="166" width="28" height="28" fill="#161b22" opacity="1" stroke="#30363d" stroke-width="1"/>
    <text x="762.0" y="184.0" text-anchor="middle" font-size="7" fill="#c9d1d9">O[2][1]</text>
    <rect x="776" y="166" width="28" height="28" fill="#161b22" opacity="1" stroke="#30363d" stroke-width="1"/>
    <text x="790.0" y="184.0" text-anchor="middle" font-size="7" fill="#c9d1d9">O[2][2]</text>
    <rect x="804" y="166" width="28" height="28" fill="#161b22" opacity="1" stroke="#30363d" stroke-width="1"/>
    <text x="818.0" y="184.0" text-anchor="middle" font-size="7" fill="#c9d1d9">O[2][3]</text>
    <rect x="832" y="166" width="28" height="28" fill="#161b22" opacity="1" stroke="#30363d" stroke-width="1"/>
    <text x="846.0" y="184.0" text-anchor="middle" font-size="7" fill="#c9d1d9">O[2][4]</text>
    <rect x="860" y="166" width="28" height="28" fill="#161b22" opacity="1" stroke="#30363d" stroke-width="1"/>
    <text x="874.0" y="184.0" text-anchor="middle" font-size="7" fill="#c9d1d9">O[2][5]</text>
    <rect x="888" y="166" width="28" height="28" fill="#161b22" opacity="1" stroke="#30363d" stroke-width="1"/>
    <text x="902.0" y="184.0" text-anchor="middle" font-size="7" fill="#c9d1d9">O[2][6]</text>
    <rect x="916" y="166" width="28" height="28" fill="#161b22" opacity="1" stroke="#30363d" stroke-width="1"/>
    <text x="930.0" y="184.0" text-anchor="middle" font-size="7" fill="#c9d1d9">O[2][7]</text>
    <rect x="720" y="194" width="28" height="28" fill="#161b22" opacity="1" stroke="#30363d" stroke-width="1"/>
    <text x="734.0" y="212.0" text-anchor="middle" font-size="7" fill="#c9d1d9">O[3][0]</text>
    <rect x="748" y="194" width="28" height="28" fill="#161b22" opacity="1" stroke="#30363d" stroke-width="1"/>
    <text x="762.0" y="212.0" text-anchor="middle" font-size="7" fill="#c9d1d9">O[3][1]</text>
    <rect x="776" y="194" width="28" height="28" fill="#161b22" opacity="1" stroke="#30363d" stroke-width="1"/>
    <text x="790.0" y="212.0" text-anchor="middle" font-size="7" fill="#c9d1d9">O[3][2]</text>
    <rect x="804" y="194" width="28" height="28" fill="#161b22" opacity="1" stroke="#30363d" stroke-width="1"/>
    <text x="818.0" y="212.0" text-anchor="middle" font-size="7" fill="#c9d1d9">O[3][3]</text>
    <rect x="832" y="194" width="28" height="28" fill="#161b22" opacity="1" stroke="#30363d" stroke-width="1"/>
    <text x="846.0" y="212.0" text-anchor="middle" font-size="7" fill="#c9d1d9">O[3][4]</text>
    <rect x="860" y="194" width="28" height="28" fill="#161b22" opacity="1" stroke="#30363d" stroke-width="1"/>
    <text x="874.0" y="212.0" text-anchor="middle" font-size="7" fill="#c9d1d9">O[3][5]</text>
    <rect x="888" y="194" width="28" height="28" fill="#161b22" opacity="1" stroke="#30363d" stroke-width="1"/>
    <text x="902.0" y="212.0" text-anchor="middle" font-size="7" fill="#c9d1d9">O[3][6]</text>
    <rect x="916" y="194" width="28" height="28" fill="#161b22" opacity="1" stroke="#30363d" stroke-width="1"/>
    <text x="930.0" y="212.0" text-anchor="middle" font-size="7" fill="#c9d1d9">O[3][7]</text>
    <rect x="720" y="222" width="28" height="28" fill="#238636" opacity="0.45" stroke="#3fb950" stroke-width="1"/>
    <text x="734.0" y="240.0" text-anchor="middle" font-size="7" fill="#c9d1d9">O[4][0]</text>
    <rect x="748" y="222" width="28" height="28" fill="#238636" opacity="0.45" stroke="#3fb950" stroke-width="1"/>
    <text x="762.0" y="240.0" text-anchor="middle" font-size="7" fill="#c9d1d9">O[4][1]</text>
    <rect x="776" y="222" width="28" height="28" fill="#238636" opacity="0.45" stroke="#3fb950" stroke-width="1"/>
    <text x="790.0" y="240.0" text-anchor="middle" font-size="7" fill="#c9d1d9">O[4][2]</text>
    <rect x="804" y="222" width="28" height="28" fill="#238636" opacity="0.45" stroke="#3fb950" stroke-width="1"/>
    <text x="818.0" y="240.0" text-anchor="middle" font-size="7" fill="#c9d1d9">O[4][3]</text>
    <rect x="832" y="222" width="28" height="28" fill="#161b22" opacity="1" stroke="#30363d" stroke-width="1"/>
    <text x="846.0" y="240.0" text-anchor="middle" font-size="7" fill="#c9d1d9">O[4][4]</text>
    <rect x="860" y="222" width="28" height="28" fill="#161b22" opacity="1" stroke="#30363d" stroke-width="1"/>
    <text x="874.0" y="240.0" text-anchor="middle" font-size="7" fill="#c9d1d9">O[4][5]</text>
    <rect x="888" y="222" width="28" height="28" fill="#161b22" opacity="1" stroke="#30363d" stroke-width="1"/>
    <text x="902.0" y="240.0" text-anchor="middle" font-size="7" fill="#c9d1d9">O[4][6]</text>
    <rect x="916" y="222" width="28" height="28" fill="#161b22" opacity="1" stroke="#30363d" stroke-width="1"/>
    <text x="930.0" y="240.0" text-anchor="middle" font-size="7" fill="#c9d1d9">O[4][7]</text>
    <rect x="720" y="250" width="28" height="28" fill="#238636" opacity="0.45" stroke="#3fb950" stroke-width="1"/>
    <text x="734.0" y="268.0" text-anchor="middle" font-size="7" fill="#c9d1d9">O[5][0]</text>
    <rect x="748" y="250" width="28" height="28" fill="#238636" opacity="0.45" stroke="#3fb950" stroke-width="1"/>
    <text x="762.0" y="268.0" text-anchor="middle" font-size="7" fill="#c9d1d9">O[5][1]</text>
    <rect x="776" y="250" width="28" height="28" fill="#238636" opacity="0.45" stroke="#3fb950" stroke-width="1"/>
    <text x="790.0" y="268.0" text-anchor="middle" font-size="7" fill="#c9d1d9">O[5][2]</text>
    <rect x="804" y="250" width="28" height="28" fill="#238636" opacity="0.45" stroke="#3fb950" stroke-width="1"/>
    <text x="818.0" y="268.0" text-anchor="middle" font-size="7" fill="#c9d1d9">O[5][3]</text>
    <rect x="832" y="250" width="28" height="28" fill="#161b22" opacity="1" stroke="#30363d" stroke-width="1"/>
    <text x="846.0" y="268.0" text-anchor="middle" font-size="7" fill="#c9d1d9">O[5][4]</text>
    <rect x="860" y="250" width="28" height="28" fill="#161b22" opacity="1" stroke="#30363d" stroke-width="1"/>
    <text x="874.0" y="268.0" text-anchor="middle" font-size="7" fill="#c9d1d9">O[5][5]</text>
    <rect x="888" y="250" width="28" height="28" fill="#161b22" opacity="1" stroke="#30363d" stroke-width="1"/>
    <text x="902.0" y="268.0" text-anchor="middle" font-size="7" fill="#c9d1d9">O[5][6]</text>
    <rect x="916" y="250" width="28" height="28" fill="#161b22" opacity="1" stroke="#30363d" stroke-width="1"/>
    <text x="930.0" y="268.0" text-anchor="middle" font-size="7" fill="#c9d1d9">O[5][7]</text>
    <rect x="720" y="278" width="28" height="28" fill="#238636" opacity="0.45" stroke="#3fb950" stroke-width="1"/>
    <text x="734.0" y="296.0" text-anchor="middle" font-size="7" fill="#c9d1d9">O[6][0]</text>
    <rect x="748" y="278" width="28" height="28" fill="#238636" opacity="0.45" stroke="#3fb950" stroke-width="1"/>
    <text x="762.0" y="296.0" text-anchor="middle" font-size="7" fill="#c9d1d9">O[6][1]</text>
    <rect x="776" y="278" width="28" height="28" fill="#238636" opacity="0.45" stroke="#3fb950" stroke-width="1"/>
    <text x="790.0" y="296.0" text-anchor="middle" font-size="7" fill="#c9d1d9">O[6][2]</text>
    <rect x="804" y="278" width="28" height="28" fill="#238636" opacity="0.45" stroke="#3fb950" stroke-width="1"/>
    <text x="818.0" y="296.0" text-anchor="middle" font-size="7" fill="#c9d1d9">O[6][3]</text>
    <rect x="832" y="278" width="28" height="28" fill="#161b22" opacity="1" stroke="#30363d" stroke-width="1"/>
    <text x="846.0" y="296.0" text-anchor="middle" font-size="7" fill="#c9d1d9">O[6][4]</text>
    <rect x="860" y="278" width="28" height="28" fill="#161b22" opacity="1" stroke="#30363d" stroke-width="1"/>
    <text x="874.0" y="296.0" text-anchor="middle" font-size="7" fill="#c9d1d9">O[6][5]</text>
    <rect x="888" y="278" width="28" height="28" fill="#161b22" opacity="1" stroke="#30363d" stroke-width="1"/>
    <text x="902.0" y="296.0" text-anchor="middle" font-size="7" fill="#c9d1d9">O[6][6]</text>
    <rect x="916" y="278" width="28" height="28" fill="#161b22" opacity="1" stroke="#30363d" stroke-width="1"/>
    <text x="930.0" y="296.0" text-anchor="middle" font-size="7" fill="#c9d1d9">O[6][7]</text>
    <rect x="720" y="306" width="28" height="28" fill="#238636" opacity="0.45" stroke="#3fb950" stroke-width="1"/>
    <text x="734.0" y="324.0" text-anchor="middle" font-size="7" fill="#c9d1d9">O[7][0]</text>
    <rect x="748" y="306" width="28" height="28" fill="#238636" opacity="0.45" stroke="#3fb950" stroke-width="1"/>
    <text x="762.0" y="324.0" text-anchor="middle" font-size="7" fill="#c9d1d9">O[7][1]</text>
    <rect x="776" y="306" width="28" height="28" fill="#238636" opacity="0.45" stroke="#3fb950" stroke-width="1"/>
    <text x="790.0" y="324.0" text-anchor="middle" font-size="7" fill="#c9d1d9">O[7][2]</text>
    <rect x="804" y="306" width="28" height="28" fill="#238636" opacity="0.45" stroke="#3fb950" stroke-width="1"/>
    <text x="818.0" y="324.0" text-anchor="middle" font-size="7" fill="#c9d1d9">O[7][3]</text>
    <rect x="832" y="306" width="28" height="28" fill="#161b22" opacity="1" stroke="#30363d" stroke-width="1"/>
    <text x="846.0" y="324.0" text-anchor="middle" font-size="7" fill="#c9d1d9">O[7][4]</text>
    <rect x="860" y="306" width="28" height="28" fill="#161b22" opacity="1" stroke="#30363d" stroke-width="1"/>
    <text x="874.0" y="324.0" text-anchor="middle" font-size="7" fill="#c9d1d9">O[7][5]</text>
    <rect x="888" y="306" width="28" height="28" fill="#161b22" opacity="1" stroke="#30363d" stroke-width="1"/>
    <text x="902.0" y="324.0" text-anchor="middle" font-size="7" fill="#c9d1d9">O[7][6]</text>
    <rect x="916" y="306" width="28" height="28" fill="#161b22" opacity="1" stroke="#30363d" stroke-width="1"/>
    <text x="930.0" y="324.0" text-anchor="middle" font-size="7" fill="#c9d1d9">O[7][7]</text>

  <!-- Highlight block(0,1) tile in output -->
  <rect x="720" y="222" width="112" height="112" fill="none" stroke="#3fb950" stroke-width="3" stroke-dasharray="4,2"/>
  <text x="776.0" y="242" text-anchor="middle" font-size="12" fill="#3fb950" font-weight="bold">Block(1,0) 写入此 tile</text>

  <!-- Shared Memory read layout -->
  <text x="446.0" y="135" text-anchor="middle" font-size="14" font-weight="bold" fill="#3fb950">Shared Memory Tile</text>
  <text x="446.0" y="150" text-anchor="middle" font-size="11" fill="#8b949e">按 tile[y][x] 写入</text>
    <rect x="390" y="160" width="28" height="28" fill="#238636" opacity="0.25" stroke="#3fb950" stroke-width="1"/>
    <text x="404.0" y="178.0" text-anchor="middle" font-size="7" fill="#c9d1d9">tile[0][0]</text>
    <rect x="418" y="160" width="28" height="28" fill="#238636" opacity="0.25" stroke="#3fb950" stroke-width="1"/>
    <text x="432.0" y="178.0" text-anchor="middle" font-size="7" fill="#c9d1d9">tile[0][1]</text>
    <rect x="446" y="160" width="28" height="28" fill="#238636" opacity="0.25" stroke="#3fb950" stroke-width="1"/>
    <text x="460.0" y="178.0" text-anchor="middle" font-size="7" fill="#c9d1d9">tile[0][2]</text>
    <rect x="474" y="160" width="28" height="28" fill="#238636" opacity="0.25" stroke="#3fb950" stroke-width="1"/>
    <text x="488.0" y="178.0" text-anchor="middle" font-size="7" fill="#c9d1d9">tile[0][3]</text>
    <rect x="390" y="188" width="28" height="28" fill="#238636" opacity="0.25" stroke="#3fb950" stroke-width="1"/>
    <text x="404.0" y="206.0" text-anchor="middle" font-size="7" fill="#c9d1d9">tile[1][0]</text>
    <rect x="418" y="188" width="28" height="28" fill="#238636" opacity="0.25" stroke="#3fb950" stroke-width="1"/>
    <text x="432.0" y="206.0" text-anchor="middle" font-size="7" fill="#c9d1d9">tile[1][1]</text>
    <rect x="446" y="188" width="28" height="28" fill="#238636" opacity="0.25" stroke="#3fb950" stroke-width="1"/>
    <text x="460.0" y="206.0" text-anchor="middle" font-size="7" fill="#c9d1d9">tile[1][2]</text>
    <rect x="474" y="188" width="28" height="28" fill="#238636" opacity="0.25" stroke="#3fb950" stroke-width="1"/>
    <text x="488.0" y="206.0" text-anchor="middle" font-size="7" fill="#c9d1d9">tile[1][3]</text>
    <rect x="390" y="216" width="28" height="28" fill="#238636" opacity="0.25" stroke="#3fb950" stroke-width="1"/>
    <text x="404.0" y="234.0" text-anchor="middle" font-size="7" fill="#c9d1d9">tile[2][0]</text>
    <rect x="418" y="216" width="28" height="28" fill="#238636" opacity="0.25" stroke="#3fb950" stroke-width="1"/>
    <text x="432.0" y="234.0" text-anchor="middle" font-size="7" fill="#c9d1d9">tile[2][1]</text>
    <rect x="446" y="216" width="28" height="28" fill="#238636" opacity="0.25" stroke="#3fb950" stroke-width="1"/>
    <text x="460.0" y="234.0" text-anchor="middle" font-size="7" fill="#c9d1d9">tile[2][2]</text>
    <rect x="474" y="216" width="28" height="28" fill="#238636" opacity="0.25" stroke="#3fb950" stroke-width="1"/>
    <text x="488.0" y="234.0" text-anchor="middle" font-size="7" fill="#c9d1d9">tile[2][3]</text>
    <rect x="390" y="244" width="28" height="28" fill="#238636" opacity="0.25" stroke="#3fb950" stroke-width="1"/>
    <text x="404.0" y="262.0" text-anchor="middle" font-size="7" fill="#c9d1d9">tile[3][0]</text>
    <rect x="418" y="244" width="28" height="28" fill="#238636" opacity="0.25" stroke="#3fb950" stroke-width="1"/>
    <text x="432.0" y="262.0" text-anchor="middle" font-size="7" fill="#c9d1d9">tile[3][1]</text>
    <rect x="446" y="244" width="28" height="28" fill="#238636" opacity="0.25" stroke="#3fb950" stroke-width="1"/>
    <text x="460.0" y="262.0" text-anchor="middle" font-size="7" fill="#c9d1d9">tile[3][2]</text>
    <rect x="474" y="244" width="28" height="28" fill="#238636" opacity="0.25" stroke="#3fb950" stroke-width="1"/>
    <text x="488.0" y="262.0" text-anchor="middle" font-size="7" fill="#c9d1d9">tile[3][3]</text>

    <line x1="284" y1="124.0" x2="380" y2="174.0" stroke="#58a6ff" stroke-width="1.5" marker-end="url(#arrowRight)"/>
    <line x1="284" y1="152.0" x2="380" y2="202.0" stroke="#58a6ff" stroke-width="1.5" marker-end="url(#arrowRight)"/>
    <line x1="284" y1="180.0" x2="380" y2="230.0" stroke="#58a6ff" stroke-width="1.5" marker-end="url(#arrowRight)"/>
    <line x1="284" y1="208.0" x2="380" y2="258.0" stroke="#58a6ff" stroke-width="1.5" marker-end="url(#arrowRight)"/>

  <text x="337.0" y="70" text-anchor="middle" font-size="12" fill="#58a6ff" font-weight="bold">① Coalesced Read</text>
  <text x="337.0" y="85" text-anchor="middle" font-size="11" fill="#8b949e">连续线程读连续地址</text>

  <!-- Shared Memory write layout -->
  <text x="446.0" y="340" text-anchor="middle" font-size="11" fill="#8b949e">按 tile[x][y] 读出</text>
    <rect x="390" y="350" width="28" height="28" fill="#d29922" opacity="0.25" stroke="#e3b341" stroke-width="1"/>
    <text x="404.0" y="368.0" text-anchor="middle" font-size="7" fill="#c9d1d9">tile[0][0]</text>
    <rect x="418" y="350" width="28" height="28" fill="#d29922" opacity="0.25" stroke="#e3b341" stroke-width="1"/>
    <text x="432.0" y="368.0" text-anchor="middle" font-size="7" fill="#c9d1d9">tile[1][0]</text>
    <rect x="446" y="350" width="28" height="28" fill="#d29922" opacity="0.25" stroke="#e3b341" stroke-width="1"/>
    <text x="460.0" y="368.0" text-anchor="middle" font-size="7" fill="#c9d1d9">tile[2][0]</text>
    <rect x="474" y="350" width="28" height="28" fill="#d29922" opacity="0.25" stroke="#e3b341" stroke-width="1"/>
    <text x="488.0" y="368.0" text-anchor="middle" font-size="7" fill="#c9d1d9">tile[3][0]</text>
    <rect x="390" y="378" width="28" height="28" fill="#d29922" opacity="0.25" stroke="#e3b341" stroke-width="1"/>
    <text x="404.0" y="396.0" text-anchor="middle" font-size="7" fill="#c9d1d9">tile[0][1]</text>
    <rect x="418" y="378" width="28" height="28" fill="#d29922" opacity="0.25" stroke="#e3b341" stroke-width="1"/>
    <text x="432.0" y="396.0" text-anchor="middle" font-size="7" fill="#c9d1d9">tile[1][1]</text>
    <rect x="446" y="378" width="28" height="28" fill="#d29922" opacity="0.25" stroke="#e3b341" stroke-width="1"/>
    <text x="460.0" y="396.0" text-anchor="middle" font-size="7" fill="#c9d1d9">tile[2][1]</text>
    <rect x="474" y="378" width="28" height="28" fill="#d29922" opacity="0.25" stroke="#e3b341" stroke-width="1"/>
    <text x="488.0" y="396.0" text-anchor="middle" font-size="7" fill="#c9d1d9">tile[3][1]</text>
    <rect x="390" y="406" width="28" height="28" fill="#d29922" opacity="0.25" stroke="#e3b341" stroke-width="1"/>
    <text x="404.0" y="424.0" text-anchor="middle" font-size="7" fill="#c9d1d9">tile[0][2]</text>
    <rect x="418" y="406" width="28" height="28" fill="#d29922" opacity="0.25" stroke="#e3b341" stroke-width="1"/>
    <text x="432.0" y="424.0" text-anchor="middle" font-size="7" fill="#c9d1d9">tile[1][2]</text>
    <rect x="446" y="406" width="28" height="28" fill="#d29922" opacity="0.25" stroke="#e3b341" stroke-width="1"/>
    <text x="460.0" y="424.0" text-anchor="middle" font-size="7" fill="#c9d1d9">tile[2][2]</text>
    <rect x="474" y="406" width="28" height="28" fill="#d29922" opacity="0.25" stroke="#e3b341" stroke-width="1"/>
    <text x="488.0" y="424.0" text-anchor="middle" font-size="7" fill="#c9d1d9">tile[3][2]</text>
    <rect x="390" y="434" width="28" height="28" fill="#d29922" opacity="0.25" stroke="#e3b341" stroke-width="1"/>
    <text x="404.0" y="452.0" text-anchor="middle" font-size="7" fill="#c9d1d9">tile[0][3]</text>
    <rect x="418" y="434" width="28" height="28" fill="#d29922" opacity="0.25" stroke="#e3b341" stroke-width="1"/>
    <text x="432.0" y="452.0" text-anchor="middle" font-size="7" fill="#c9d1d9">tile[1][3]</text>
    <rect x="446" y="434" width="28" height="28" fill="#d29922" opacity="0.25" stroke="#e3b341" stroke-width="1"/>
    <text x="460.0" y="452.0" text-anchor="middle" font-size="7" fill="#c9d1d9">tile[2][3]</text>
    <rect x="474" y="434" width="28" height="28" fill="#d29922" opacity="0.25" stroke="#e3b341" stroke-width="1"/>
    <text x="488.0" y="452.0" text-anchor="middle" font-size="7" fill="#c9d1d9">tile[3][3]</text>

    <line x1="512" y1="364.0" x2="710" y2="236.0" stroke="#e3b341" stroke-width="1.5" marker-end="url(#arrowRight)"/>
    <line x1="512" y1="392.0" x2="710" y2="264.0" stroke="#e3b341" stroke-width="1.5" marker-end="url(#arrowRight)"/>
    <line x1="512" y1="420.0" x2="710" y2="292.0" stroke="#e3b341" stroke-width="1.5" marker-end="url(#arrowRight)"/>
    <line x1="512" y1="448.0" x2="710" y2="320.0" stroke="#e3b341" stroke-width="1.5" marker-end="url(#arrowRight)"/>

  <text x="611.0" y="379" text-anchor="middle" font-size="12" fill="#e3b341" font-weight="bold">② Coalesced Write</text>
  <text x="611.0" y="394" text-anchor="middle" font-size="11" fill="#8b949e">连续线程写连续地址</text>

  <!-- Warp highlight -->
    <rect x="172" y="110" width="28" height="28" fill="none" stroke="#f85149" stroke-width="2"/>
    <text x="186.0" y="106" text-anchor="middle" font-size="8" fill="#f85149">T0,0</text>
    <rect x="200" y="110" width="28" height="28" fill="none" stroke="#f85149" stroke-width="2"/>
    <text x="214.0" y="106" text-anchor="middle" font-size="8" fill="#f85149">T1,0</text>
    <rect x="228" y="110" width="28" height="28" fill="none" stroke="#f85149" stroke-width="2"/>
    <text x="242.0" y="106" text-anchor="middle" font-size="8" fill="#f85149">T2,0</text>
    <rect x="256" y="110" width="28" height="28" fill="none" stroke="#f85149" stroke-width="2"/>
    <text x="270.0" y="106" text-anchor="middle" font-size="8" fill="#f85149">T3,0</text>
    <rect x="720" y="222" width="28" height="28" fill="none" stroke="#f85149" stroke-width="2"/>
    <text x="734.0" y="218" text-anchor="middle" font-size="8" fill="#f85149">T0,0</text>
    <rect x="748" y="222" width="28" height="28" fill="none" stroke="#f85149" stroke-width="2"/>
    <text x="762.0" y="218" text-anchor="middle" font-size="8" fill="#f85149">T1,0</text>
    <rect x="776" y="222" width="28" height="28" fill="none" stroke="#f85149" stroke-width="2"/>
    <text x="790.0" y="218" text-anchor="middle" font-size="8" fill="#f85149">T2,0</text>
    <rect x="804" y="222" width="28" height="28" fill="none" stroke="#f85149" stroke-width="2"/>
    <text x="818.0" y="218" text-anchor="middle" font-size="8" fill="#f85149">T3,0</text>


  <!-- Coordinate formulas -->
  <rect x="60" y="520" width="880" height="180" rx="10" fill="#161b22" stroke="#30363d" stroke-width="2"/>
  <text x="70" y="545" font-size="14" font-weight="bold" fill="#c9d1d9">为什么读是 tile[y][x]，写是 tile[x][y]？</text>

  <text x="70" y="570" font-size="12" fill="#58a6ff" font-weight="bold">读阶段（保证 global memory 连续）：</text>
  <text x="90" y="590" font-family="monospace" font-size="12" fill="#c9d1d9">x = blockIdx.x * TILE_DIM + threadIdx.x;  y = blockIdx.y * TILE_DIM + threadIdx.y;</text>
  <text x="90" y="610" font-family="monospace" font-size="12" fill="#c9d1d9">tile[threadIdx.y][threadIdx.x] = in[y * width + x];</text>
  <text x="90" y="630" font-size="11" fill="#8b949e">→ 一个 warp 内 threadIdx.x 连续变化，x 连续递增，in[y*width+x] 地址连续（coalesced read）</text>

  <text x="70" y="655" font-size="12" fill="#e3b341" font-weight="bold">写阶段（保证 global memory 连续）：</text>
  <text x="90" y="675" font-family="monospace" font-size="12" fill="#c9d1d9">x = blockIdx.y * TILE_DIM + threadIdx.x;  y = blockIdx.x * TILE_DIM + threadIdx.y;</text>
  <text x="90" y="695" font-family="monospace" font-size="12" fill="#c9d1d9">out[y * height + x] = tile[threadIdx.x][threadIdx.y];</text>
  <text x="90" y="715" font-size="11" fill="#8b949e">→ 交换 blockIdx.x/blockIdx.y 后，threadIdx.x 仍对应输出地址的连续维度；tile 索引交换完成真正的转置</text>
</svg>