<svg xmlns="http://www.w3.org/2000/svg" width="720" height="400" viewBox="0 0 720 400">
  <rect width="720" height="400" fill="#0d1117"/>
  <text x="360" y="36" text-anchor="middle" font-size="22" font-weight="bold" fill="#c9d1d9">Warp Divergence（分支发散）</text>

  <!-- Warp threads -->
  <text x="80" y="80" text-anchor="start" font-size="15" fill="#8b949e">一个 Warp 中的 8 个线程（实际为 32 个）</text>
  <circle cx="100" cy="110" r="16" fill="#58a6ff"/>
  <text x="100" y="115" text-anchor="middle" font-size="10" fill="#0d1117" font-weight="bold">T0</text>
  <circle cx="150" cy="110" r="16" fill="#58a6ff"/>
  <text x="150" y="115" text-anchor="middle" font-size="10" fill="#0d1117" font-weight="bold">T1</text>
  <circle cx="200" cy="110" r="16" fill="#58a6ff"/>
  <text x="200" y="115" text-anchor="middle" font-size="10" fill="#0d1117" font-weight="bold">T2</text>
  <circle cx="250" cy="110" r="16" fill="#58a6ff"/>
  <text x="250" y="115" text-anchor="middle" font-size="10" fill="#0d1117" font-weight="bold">T3</text>
  <circle cx="300" cy="110" r="16" fill="#f85149"/>
  <text x="300" y="115" text-anchor="middle" font-size="10" fill="#fff" font-weight="bold">T4</text>
  <circle cx="350" cy="110" r="16" fill="#f85149"/>
  <text x="350" y="115" text-anchor="middle" font-size="10" fill="#fff" font-weight="bold">T5</text>
  <circle cx="400" cy="110" r="16" fill="#58a6ff"/>
  <text x="400" y="115" text-anchor="middle" font-size="10" fill="#0d1117" font-weight="bold">T6</text>
  <circle cx="450" cy="110" r="16" fill="#58a6ff"/>
  <text x="450" y="115" text-anchor="middle" font-size="10" fill="#0d1117" font-weight="bold">T7</text>

  <!-- Code -->
  <rect x="80" y="150" width="560" height="60" rx="8" fill="#1f2937" stroke="#30363d"/>
  <text x="100" y="180" font-family="monospace" font-size="14" fill="#c9d1d9">if (threadIdx.x % 2 == 0) { /* 蓝色线程执行 */ }</text>
  <text x="100" y="200" font-family="monospace" font-size="14" fill="#c9d1d9">else { /* 红色线程执行 */ }</text>

  <!-- Divergence visualization -->
  <rect x="80" y="240" width="300" height="100" rx="8" fill="#1f6feb" opacity="0.3" stroke="#58a6ff" stroke-width="2"/>
  <text x="230" y="275" text-anchor="middle" font-size="14" fill="#c9d1d9" font-weight="bold">路径 A：蓝色线程</text>
  <text x="230" y="300" text-anchor="middle" font-size="13" fill="#8b949e">执行的线程：T0, T1, T2, T3, T6, T7</text>
  <text x="230" y="322" text-anchor="middle" font-size="13" fill="#8b949e">红色线程被 mask 掉</text>

  <rect x="400" y="240" width="300" height="100" rx="8" fill="#f85149" opacity="0.3" stroke="#f85149" stroke-width="2"/>
  <text x="550" y="275" text-anchor="middle" font-size="14" fill="#c9d1d9" font-weight="bold">路径 B：红色线程</text>
  <text x="550" y="300" text-anchor="middle" font-size="13" fill="#8b949e">执行的线程：T4, T5</text>
  <text x="550" y="322" text-anchor="middle" font-size="13" fill="#8b949e">蓝色线程被 mask 掉</text>

  <text x="360" y="370" text-anchor="middle" font-size="14" fill="#f85149" font-weight="bold">两条路径串行执行 → 性能下降</text>
</svg>