<svg xmlns="http://www.w3.org/2000/svg" width="760" height="440" viewBox="0 0 760 440">
  <rect width="760" height="440" fill="#0d1117"/>
  <text x="380" y="36" text-anchor="middle" font-size="22" font-weight="bold" fill="#c9d1d9">float4 向量化加载 vs 逐元素加载</text>

  <!-- 逐元素加载 -->
  <g transform="translate(40, 65)">
    <text x="0" y="0" font-size="15" fill="#f85149" font-weight="bold">逐元素加载：4 条 32-bit load 指令</text>
    <rect x="0" y="15" width="320" height="140" rx="8" fill="#f85149" opacity="0.08" stroke="#f85149" stroke-width="2"/>

    <text x="15" y="40" font-size="12" fill="#c9d1d9" font-family="monospace">float a0 = ptr[0];  // load 32-bit</text>
    <text x="15" y="60" font-size="12" fill="#c9d1d9" font-family="monospace">float a1 = ptr[1];  // load 32-bit</text>
    <text x="15" y="80" font-size="12" fill="#c9d1d9" font-family="monospace">float a2 = ptr[2];  // load 32-bit</text>
    <text x="15" y="100" font-size="12" fill="#c9d1d9" font-family="monospace">float a3 = ptr[3];  // load 32-bit</text>

    <rect x="15" y="115" width="120" height="28" rx="4" fill="#f85149" opacity="0.2" stroke="#f85149"/>
    <text x="75" y="133" text-anchor="middle" font-size="12" fill="#f85149" font-weight="bold">4 条指令</text>
  </g>

  <!-- float4 加载 -->
  <g transform="translate(400, 65)">
    <text x="0" y="0" font-size="15" fill="#3fb950" font-weight="bold">float4 加载：1 条 128-bit load 指令</text>
    <rect x="0" y="15" width="320" height="140" rx="8" fill="#3fb950" opacity="0.08" stroke="#3fb950" stroke-width="2"/>

    <text x="15" y="40" font-size="12" fill="#c9d1d9" font-family="monospace">float4 val =</text>
    <text x="15" y="60" font-size="12" fill="#c9d1d9" font-family="monospace">  reinterpret_cast&lt;const float4*&gt;(ptr)[0];</text>
    <text x="15" y="85" font-size="12" fill="#8b949e">// val.x = ptr[0]</text>
    <text x="15" y="105" font-size="12" fill="#8b949e">// val.y = ptr[1]</text>
    <text x="15" y="125" font-size="12" fill="#8b949e">// val.z = ptr[2], val.w = ptr[3]</text>

    <rect x="180" y="115" width="120" height="28" rx="4" fill="#3fb950" opacity="0.2" stroke="#3fb950"/>
    <text x="240" y="133" text-anchor="middle" font-size="12" fill="#3fb950" font-weight="bold">1 条指令</text>
  </g>

  <!-- Conditions -->
  <g transform="translate(40, 235)">
    <rect x="0" y="0" width="680" height="115" rx="8" fill="#161b22" stroke="#30363d" stroke-width="2"/>
    <text x="340" y="25" text-anchor="middle" font-size="15" fill="#58a6ff" font-weight="bold">使用条件</text>

    <text x="20" y="55" font-size="13" fill="#3fb950">✅ 地址 16 字节对齐</text>
    <text x="200" y="55" font-size="11" fill="#8b949e">cudaMalloc 分配的内存天然对齐</text>

    <text x="20" y="80" font-size="13" fill="#3fb950">✅ Coalesced 访问模式</text>
    <text x="200" y="80" font-size="11" fill="#8b949e">连续线程访问连续地址，合并为最少 cache line</text>

    <text x="20" y="105" font-size="13" fill="#3fb950">✅ 数据布局支持</text>
    <text x="200" y="105" font-size="11" fill="#8b949e">行优先矩阵的连续行元素天然连续</text>
  </g>

  <!-- Performance -->
  <rect x="160" y="370" width="440" height="40" rx="8" fill="#1f6feb" opacity="0.2" stroke="#58a6ff" stroke-width="2"/>
  <text x="380" y="395" text-anchor="middle" font-size="14" fill="#58a6ff" font-weight="bold">收益：Global Memory 带宽利用率提升 10-15%</text>
</svg>