<svg xmlns="http://www.w3.org/2000/svg" width="760" height="500" viewBox="0 0 760 500">
  <rect width="760" height="500" fill="#0d1117"/>
  <text x="380" y="36" text-anchor="middle" font-size="22" font-weight="bold" fill="#c9d1d9">ncu 关键性能指标分类</text>

  <!-- Parallelism -->
  <g transform="translate(40, 65)">
    <rect x="0" y="0" width="220" height="130" rx="8" fill="#1f6feb" opacity="0.1" stroke="#58a6ff" stroke-width="2"/>
    <text x="110" y="25" text-anchor="middle" font-size="14" fill="#58a6ff" font-weight="bold">并行度</text>
    <text x="15" y="50" font-size="11" fill="#c9d1d9">sm__occupancy.avg</text>
    <text x="15" y="70" font-size="10" fill="#8b949e">Occupancy 百分比</text>
    <text x="15" y="90" font-size="11" fill="#c9d1d9">launch__registers_per_thread</text>
    <text x="15" y="110" font-size="10" fill="#8b949e">每线程寄存器数</text>
  </g>

  <!-- Memory -->
  <g transform="translate(270, 65)">
    <rect x="0" y="0" width="220" height="130" rx="8" fill="#a371f7" opacity="0.1" stroke="#a371f7" stroke-width="2"/>
    <text x="110" y="25" text-anchor="middle" font-size="14" fill="#a371f7" font-weight="bold">内存</text>
    <text x="15" y="50" font-size="11" fill="#c9d1d9">dram__throughput.avg</text>
    <text x="15" y="70" font-size="10" fill="#8b949e">显存带宽利用率</text>
    <text x="15" y="90" font-size="11" fill="#c9d1d9">l1tex__data_bank_conflicts</text>
    <text x="15" y="110" font-size="10" fill="#8b949e">Shared mem bank conflict</text>
  </g>

  <!-- Compute -->
  <g transform="translate(500, 65)">
    <rect x="0" y="0" width="220" height="130" rx="8" fill="#3fb950" opacity="0.1" stroke="#3fb950" stroke-width="2"/>
    <text x="110" y="25" text-anchor="middle" font-size="14" fill="#3fb950" font-weight="bold">计算</text>
    <text x="15" y="50" font-size="11" fill="#c9d1d9">sm__throughput.avg</text>
    <text x="15" y="70" font-size="10" fill="#8b949e">SM 计算利用率</text>
    <text x="15" y="90" font-size="11" fill="#c9d1d9">sm__cycles_elapsed.avg</text>
    <text x="15" y="110" font-size="10" fill="#8b949e">执行周期数</text>
  </g>

  <!-- Stall Reasons -->
  <g transform="translate(40, 215)">
    <rect x="0" y="0" width="680" height="120" rx="8" fill="#f85149" opacity="0.1" stroke="#f85149" stroke-width="2"/>
    <text x="340" y="25" text-anchor="middle" font-size="14" fill="#f85149" font-weight="bold">Warp Stall Reasons（阻塞原因分布）</text>
    <text x="15" y="50" font-size="11" fill="#c9d1d9">Long Scoreboard</text>
    <text x="170" y="50" font-size="10" fill="#8b949e">全局内存加载等待 → 增加 tiling / double buffer</text>
    <text x="15" y="72" font-size="11" fill="#c9d1d9">Math Pipe Throttle</text>
    <text x="170" y="72" font-size="10" fill="#8b949e">FMA 过载 → 增加独立指令 / ILP</text>
    <text x="15" y="94" font-size="11" fill="#c9d1d9">MIO Throttle</text>
    <text x="170" y="94" font-size="10" fill="#8b949e">内存指令发射瓶颈 → 减少 smem 访问</text>
    <text x="15" y="116" font-size="11" fill="#c9d1d9">Wait / Barrier</text>
    <text x="170" y="116" font-size="10" fill="#8b949e">同步等待 → 减少同步点</text>
  </g>

  <!-- Normal ranges -->
  <g transform="translate(40, 355)">
    <rect x="0" y="0" width="680" height="120" rx="8" fill="#161b22" stroke="#30363d" stroke-width="2"/>
    <text x="340" y="25" text-anchor="middle" font-size="14" fill="#c9d1d9" font-weight="bold">正常范围参考</text>
    <text x="20" y="50" font-size="12" fill="#3fb950">SM Throughput &gt; 60%</text>
    <text x="200" y="50" font-size="12" fill="#3fb950">Memory Throughput &gt; 60%</text>
    <text x="420" y="50" font-size="12" fill="#3fb950">Occupancy &gt; 理论值 70%</text>
    <text x="20" y="75" font-size="12" fill="#3fb950">L1 Hit Rate &gt; 80%</text>
    <text x="200" y="75" font-size="12" fill="#d29922">每项 Stall &lt; 20%</text>
    <text x="420" y="75" font-size="12" fill="#3fb950">Register &lt; 80%</text>
    <text x="340" y="105" text-anchor="middle" font-size="12" fill="#58a6ff">指标不达标 → 针对性优化 → 重新 profile 验证</text>
  </g>
</svg>