<svg xmlns="http://www.w3.org/2000/svg" width="880" height="520" viewBox="0 0 880 520" font-family="'Comic Sans MS','Kaiti SC','Marker Felt','Segoe UI',cursive">
  <defs>
    <filter id="sk" x="-3%" y="-3%" width="106%" height="106%">
      <feTurbulence type="fractalNoise" baseFrequency="0.018" numOctaves="2" seed="41" result="n"/>
      <feDisplacementMap in="SourceGraphic" in2="n" scale="1.8"/>
    </filter>
  </defs>
  <rect width="880" height="520" fill="#fdfcf7"/>
  <text x="440" y="32" text-anchor="middle" font-size="20" font-weight="bold" fill="#2b2b2b">Positional Encoding：不同频率的 sin/cos 叠加</text>
  <path d="M 230 42 Q 440 50 650 42" stroke="#2b2b2b" stroke-width="1.5" fill="none" filter="url(#sk)"/>
  <text x="440" y="62" text-anchor="middle" font-size="12" fill="#2b2b2b">PE(pos, 2i) = sin(pos / 10000^(2i/d_model))　　PE(pos, 2i+1) = cos(pos / 10000^(2i/d_model))</text>

  <!-- ===== 坐标轴 ===== -->
  <line x1="70" y1="80" x2="70" y2="380" stroke="#8a8471" stroke-width="1.2" filter="url(#sk)"/>
  <text x="40" y="85" font-size="11" fill="#555">+1</text>
  <text x="44" y="234" font-size="11" fill="#555">0</text>
  <text x="40" y="334" font-size="11" fill="#555">−1</text>
  <text x="30" y="230" text-anchor="middle" font-size="11" fill="#555" transform="rotate(-90 30 230)">PE 值</text>

  <!-- 零线 -->
  <line x1="70" y1="230" x2="820" y2="230" stroke="#8a8471" stroke-width="0.8" stroke-dasharray="2 4" filter="url(#sk)"/>
  <!-- +1 / -1 参考线 -->
  <line x1="70" y1="130" x2="820" y2="130" stroke="#ccc" stroke-width="0.6" stroke-dasharray="1 5"/>
  <line x1="70" y1="330" x2="820" y2="330" stroke="#ccc" stroke-width="0.6" stroke-dasharray="1 5"/>
  <text x="826" y="234" font-size="12" fill="#555">pos →</text>

  <!-- ===== 三条曲线（同一基线 y=230，振幅 100） ===== -->
  <!-- 高频：i 小，波长约 2π -->
  <polyline points="70.0,230.0 73.0,209.2 75.9,189.3 78.9,171.2 81.8,155.7 84.8,143.4 87.8,134.9 90.7,130.5 93.7,130.5 96.6,134.9 99.6,143.4 102.6,155.7 105.5,171.2 108.5,189.3 111.4,209.2 114.4,230.0 117.4,250.8 120.3,270.7 123.3,288.8 126.2,304.3 129.2,316.6 132.2,325.1 135.1,329.5 138.1,329.5 141.0,325.1 144.0,316.6 147.0,304.3 149.9,288.8 152.9,270.7 155.8,250.8 158.8,230.0 161.8,209.2 164.7,189.3 167.7,171.2 170.6,155.7 173.6,143.4 176.6,134.9 179.5,130.5 182.5,130.5 185.4,134.9 188.4,143.4 191.4,155.7 194.3,171.2 197.3,189.3 200.2,209.2 203.2,230.0 206.2,250.8 209.1,270.7 212.1,288.8 215.0,304.3 218.0,316.6 221.0,325.1 223.9,329.5 226.9,329.5 229.8,325.1 232.8,316.6 235.8,304.3 238.7,288.8 241.7,270.7 244.6,250.8 247.6,230.0 250.6,209.2 253.5,189.3 256.5,171.2 259.4,155.7 262.4,143.4 265.4,134.9 268.3,130.5 271.3,130.5 274.2,134.9 277.2,143.4 280.2,155.7 283.1,171.2 286.1,189.3 289.0,209.2 292.0,230.0 295.0,250.8 297.9,270.7 300.9,288.8 303.8,304.3 306.8,316.6 309.8,325.1 312.7,329.5 315.7,329.5 318.6,325.1 321.6,316.6 324.6,304.3 327.5,288.8 330.5,270.7 333.4,250.8 336.4,230.0 339.4,209.2 342.3,189.3 345.3,171.2 348.2,155.7 351.2,143.4 354.2,134.9 357.1,130.5 360.1,130.5 363.0,134.9 366.0,143.4 369.0,155.7 371.9,171.2 374.9,189.3 377.8,209.2 380.8,230.0 383.8,250.8 386.7,270.7 389.7,288.8 392.6,304.3 395.6,316.6 398.6,325.1 401.5,329.5 404.5,329.5 407.4,325.1 410.4,316.6 413.4,304.3 416.3,288.8 419.3,270.7 422.2,250.8 425.2,230.0 428.2,209.2 431.1,189.3 434.1,171.2 437.0,155.7 440.0,143.4 443.0,134.9 445.9,130.5 448.9,130.5 451.8,134.9 454.8,143.4 457.8,155.7 460.7,171.2 463.7,189.3 466.6,209.2 469.6,230.0 472.6,250.8 475.5,270.7 478.5,288.8 481.4,304.3 484.4,316.6 487.4,325.1 490.3,329.5 493.3,329.5 496.2,325.1 499.2,316.6 502.2,304.3 505.1,288.8 508.1,270.7 511.0,250.8 514.0,230.0 517.0,209.2 519.9,189.3 522.9,171.2 525.8,155.7 528.8,143.4 531.8,134.9 534.7,130.5 537.7,130.5 540.6,134.9 543.6,143.4 546.6,155.7 549.5,171.2 552.5,189.3 555.4,209.2 558.4,230.0 561.4,250.8 564.3,270.7 567.3,288.8 570.2,304.3 573.2,316.6 576.2,325.1 579.1,329.5 582.1,329.5 585.0,325.1 588.0,316.6 591.0,304.3 593.9,288.8 596.9,270.7 599.8,250.8 602.8,230.0 605.8,209.2 608.7,189.3 611.7,171.2 614.6,155.7 617.6,143.4 620.6,134.9 623.5,130.5 626.5,130.5 629.4,134.9 632.4,143.4 635.4,155.7 638.3,171.2 641.3,189.3 644.2,209.2 647.2,230.0 650.2,250.8 653.1,270.7 656.1,288.8 659.0,304.3 662.0,316.6 665.0,325.1 667.9,329.5 670.9,329.5 673.8,325.1 676.8,316.6 679.8,304.3 682.7,288.8 685.7,270.7 688.6,250.8 691.6,230.0 694.6,209.2 697.5,189.3 700.5,171.2 703.4,155.7 706.4,143.4 709.4,134.9 712.3,130.5 715.3,130.5 718.2,134.9 721.2,143.4 724.2,155.7 727.1,171.2 730.1,189.3 733.0,209.2 736.0,230.0 739.0,250.8 741.9,270.7 744.9,288.8 747.8,304.3 750.8,316.6 753.8,325.1 756.7,329.5 759.7,329.5 762.6,325.1 765.6,316.6 768.6,304.3 771.5,288.8 774.5,270.7 777.4,250.8 780.4,230.0 783.4,209.2 786.3,189.3 789.3,171.2 792.2,155.7 795.2,143.4 798.2,134.9 801.1,130.5 804.1,130.5 807.0,134.9 810.0,143.4" fill="none" stroke="#4a8edb" stroke-width="1.8" filter="url(#sk)" opacity="0.75"/>

  <!-- 中频：i 中等 -->
  <polyline points="70.0,230.0 73.0,223.7 75.9,217.5 78.9,211.3 81.8,205.1 84.8,199.1 87.8,193.2 90.7,187.4 93.7,181.8 96.6,176.4 99.6,171.2 102.6,166.3 105.5,161.5 108.5,157.1 111.4,152.9 114.4,149.1 117.4,145.6 120.3,142.4 123.3,139.5 126.2,137.0 129.2,134.9 132.2,133.1 135.1,131.8 138.1,130.8 141.0,130.2 144.0,130.0 147.0,130.2 149.9,130.8 152.9,131.8 155.8,133.1 158.8,134.9 161.8,137.0 164.7,139.5 167.7,142.4 170.6,145.6 173.6,149.1 176.6,152.9 179.5,157.1 182.5,161.5 185.4,166.3 188.4,171.2 191.4,176.4 194.3,181.8 197.3,187.4 200.2,193.2 203.2,199.1 206.2,205.1 209.1,211.3 212.1,217.5 215.0,223.7 218.0,230.0 221.0,236.3 223.9,242.5 226.9,248.7 229.8,254.9 232.8,260.9 235.8,266.8 238.7,272.6 241.7,278.2 244.6,283.6 247.6,288.8 250.6,293.7 253.5,298.5 256.5,302.9 259.4,307.1 262.4,310.9 265.4,314.4 268.3,317.6 271.3,320.5 274.2,323.0 277.2,325.1 280.2,326.9 283.1,328.2 286.1,329.2 289.0,329.8 292.0,330.0 295.0,329.8 297.9,329.2 300.9,328.2 303.8,326.9 306.8,325.1 309.8,323.0 312.7,320.5 315.7,317.6 318.6,314.4 321.6,310.9 324.6,307.1 327.5,302.9 330.5,298.5 333.4,293.7 336.4,288.8 339.4,283.6 342.3,278.2 345.3,272.6 348.2,266.8 351.2,260.9 354.2,254.9 357.1,248.7 360.1,242.5 363.0,236.3 366.0,230.0 369.0,223.7 371.9,217.5 374.9,211.3 377.8,205.1 380.8,199.1 383.8,193.2 386.7,187.4 389.7,181.8 392.6,176.4 395.6,171.2 398.6,166.3 401.5,161.5 404.5,157.1 407.4,152.9 410.4,149.1 413.4,145.6 416.3,142.4 419.3,139.5 422.2,137.0 425.2,134.9 428.2,133.1 431.1,131.8 434.1,130.8 437.0,130.2 440.0,130.0 443.0,130.2 445.9,130.8 448.9,131.8 451.8,133.1 454.8,134.9 457.8,137.0 460.7,139.5 463.7,142.4 466.6,145.6 469.6,149.1 472.6,152.9 475.5,157.1 478.5,161.5 481.4,166.3 484.4,171.2 487.4,176.4 490.3,181.8 493.3,187.4 496.2,193.2 499.2,199.1 502.2,205.1 505.1,211.3 508.1,217.5 511.0,223.7 514.0,230.0 517.0,236.3 519.9,242.5 522.9,248.7 525.8,254.9 528.8,260.9 531.8,266.8 534.7,272.6 537.7,278.2 540.6,283.6 543.6,288.8 546.6,293.7 549.5,298.5 552.5,302.9 555.4,307.1 558.4,310.9 561.4,314.4 564.3,317.6 567.3,320.5 570.2,323.0 573.2,325.1 576.2,326.9 579.1,328.2 582.1,329.2 585.0,329.8 588.0,330.0 591.0,329.8 593.9,329.2 596.9,328.2 599.8,326.9 602.8,325.1 605.8,323.0 608.7,320.5 611.7,317.6 614.6,314.4 617.6,310.9 620.6,307.1 623.5,302.9 626.5,298.5 629.4,293.7 632.4,288.8 635.4,283.6 638.3,278.2 641.3,272.6 644.2,266.8 647.2,260.9 650.2,254.9 653.1,248.7 656.1,242.5 659.0,236.3 662.0,230.0 665.0,223.7 667.9,217.5 670.9,211.3 673.8,205.1 676.8,199.1 679.8,193.2 682.7,187.4 685.7,181.8 688.6,176.4 691.6,171.2 694.6,166.3 697.5,161.5 700.5,157.1 703.4,152.9 706.4,149.1 709.4,145.6 712.3,142.4 715.3,139.5 718.2,137.0 721.2,134.9 724.2,133.1 727.1,131.8 730.1,130.8 733.0,130.2 736.0,130.0 739.0,130.2 741.9,130.8 744.9,131.8 747.8,133.1 750.8,134.9 753.8,137.0 756.7,139.5 759.7,142.4 762.6,145.6 765.6,149.1 768.6,152.9 771.5,157.1 774.5,161.5 777.4,166.3 780.4,171.2 783.4,176.4 786.3,181.8 789.3,187.4 792.2,193.2 795.2,199.1 798.2,205.1 801.1,211.3 804.1,217.5 807.0,223.7 810.0,230.0" fill="none" stroke="#c98a2b" stroke-width="1.8" filter="url(#sk)" opacity="0.75"/>

  <!-- 低频：i 大，波长约 10000·2π -->
  <polyline points="70.0,230.0 73.0,227.9 75.9,225.8 78.9,223.7 81.8,221.6 84.8,219.5 87.8,217.5 90.7,215.4 93.7,213.3 96.6,211.3 99.6,209.2 102.6,207.2 105.5,205.1 108.5,203.1 111.4,201.1 114.4,199.1 117.4,197.1 120.3,195.1 123.3,193.2 126.2,191.2 129.2,189.3 132.2,187.4 135.1,185.5 138.1,183.7 141.0,181.8 144.0,180.0 147.0,178.2 149.9,176.4 152.9,174.7 155.8,172.9 158.8,171.2 161.8,169.5 164.7,167.9 167.7,166.3 170.6,164.7 173.6,163.1 176.6,161.5 179.5,160.0 182.5,158.6 185.4,157.1 188.4,155.7 191.4,154.3 194.3,152.9 197.3,151.6 200.2,150.3 203.2,149.1 206.2,147.9 209.1,146.7 212.1,145.6 215.0,144.5 218.0,143.4 221.0,142.4 223.9,141.4 226.9,140.4 229.8,139.5 232.8,138.6 235.8,137.8 238.7,137.0 241.7,136.3 244.6,135.6 247.6,134.9 250.6,134.3 253.5,133.7 256.5,133.1 259.4,132.6 262.4,132.2 265.4,131.8 268.3,131.4 271.3,131.1 274.2,130.8 277.2,130.5 280.2,130.4 283.1,130.2 286.1,130.1 289.0,130.0 292.0,130.0 295.0,130.0 297.9,130.1 300.9,130.2 303.8,130.4 306.8,130.5 309.8,130.8 312.7,131.1 315.7,131.4 318.6,131.8 321.6,132.2 324.6,132.6 327.5,133.1 330.5,133.7 333.4,134.3 336.4,134.9 339.4,135.6 342.3,136.3 345.3,137.0 348.2,137.8 351.2,138.6 354.2,139.5 357.1,140.4 360.1,141.4 363.0,142.4 366.0,143.4 369.0,144.5 371.9,145.6 374.9,146.7 377.8,147.9 380.8,149.1 383.8,150.3 386.7,151.6 389.7,152.9 392.6,154.3 395.6,155.7 398.6,157.1 401.5,158.6 404.5,160.0 407.4,161.5 410.4,163.1 413.4,164.7 416.3,166.3 419.3,167.9 422.2,169.5 425.2,171.2 428.2,172.9 431.1,174.7 434.1,176.4 437.0,178.2 440.0,180.0 443.0,181.8 445.9,183.7 448.9,185.5 451.8,187.4 454.8,189.3 457.8,191.2 460.7,193.2 463.7,195.1 466.6,197.1 469.6,199.1 472.6,201.1 475.5,203.1 478.5,205.1 481.4,207.2 484.4,209.2 487.4,211.3 490.3,213.3 493.3,215.4 496.2,217.5 499.2,219.5 502.2,221.6 505.1,223.7 508.1,225.8 511.0,227.9 514.0,230.0 517.0,232.1 519.9,234.2 522.9,236.3 525.8,238.4 528.8,240.5 531.8,242.5 534.7,244.6 537.7,246.7 540.6,248.7 543.6,250.8 546.6,252.8 549.5,254.9 552.5,256.9 555.4,258.9 558.4,260.9 561.4,262.9 564.3,264.9 567.3,266.8 570.2,268.8 573.2,270.7 576.2,272.6 579.1,274.5 582.1,276.3 585.0,278.2 588.0,280.0 591.0,281.8 593.9,283.6 596.9,285.3 599.8,287.1 602.8,288.8 605.8,290.5 608.7,292.1 611.7,293.7 614.6,295.3 617.6,296.9 620.6,298.5 623.5,300.0 626.5,301.4 629.4,302.9 632.4,304.3 635.4,305.7 638.3,307.1 641.3,308.4 644.2,309.7 647.2,310.9 650.2,312.1 653.1,313.3 656.1,314.4 659.0,315.5 662.0,316.6 665.0,317.6 667.9,318.6 670.9,319.6 673.8,320.5 676.8,321.4 679.8,322.2 682.7,323.0 685.7,323.7 688.6,324.4 691.6,325.1 694.6,325.7 697.5,326.3 700.5,326.9 703.4,327.4 706.4,327.8 709.4,328.2 712.3,328.6 715.3,328.9 718.2,329.2 721.2,329.5 724.2,329.6 727.1,329.8 730.1,329.9 733.0,330.0 736.0,330.0 739.0,330.0 741.9,329.9 744.9,329.8 747.8,329.6 750.8,329.5 753.8,329.2 756.7,328.9 759.7,328.6 762.6,328.2 765.6,327.8 768.6,327.4 771.5,326.9 774.5,326.3 777.4,325.7 780.4,325.1 783.4,324.4 786.3,323.7 789.3,323.0 792.2,322.2 795.2,321.4 798.2,320.5 801.1,319.6 804.1,318.6 807.0,317.6 810.0,316.6" fill="none" stroke="#57a773" stroke-width="2" filter="url(#sk)" opacity="0.85"/>

  <!-- ===== 图例（右上角） ===== -->
  <g filter="url(#sk)"><rect x="600" y="78" width="225" height="78" rx="8" fill="#fdfcf7" stroke="#8a8471" stroke-width="1.2" stroke-dasharray="4 3"/></g>
  <line x1="612" y1="98" x2="636" y2="98" stroke="#4a8edb" stroke-width="2" filter="url(#sk)"/>
  <text x="642" y="102" font-size="11" fill="#2b2b2b">i 小（低维）：高频，波长 ~2π</text>
  <line x1="612" y1="118" x2="636" y2="118" stroke="#c98a2b" stroke-width="2" filter="url(#sk)"/>
  <text x="642" y="122" font-size="11" fill="#2b2b2b">i 中等：中频，波长 ~20</text>
  <line x1="612" y1="138" x2="636" y2="138" stroke="#57a773" stroke-width="2" filter="url(#sk)"/>
  <text x="642" y="142" font-size="11" fill="#2b2b2b">i 大（高维）：低频，波长 ~10000·2π</text>

  <!-- ===== 底部注释 ===== -->
  <g filter="url(#sk)"><rect x="150" y="400" width="580" height="105" rx="10" fill="none" stroke="#8a8471" stroke-width="1.5" stroke-dasharray="7 4"/></g>
  <text x="440" y="426" text-anchor="middle" font-size="12" font-weight="bold" fill="#2b2b2b">每个位置 = 512 维向量（256 对 sin/cos）</text>
  <text x="440" y="446" text-anchor="middle" font-size="11" fill="#555">相邻维度频率几何递减，覆盖 2π ~ 10000·2π 波长</text>
  <text x="440" y="466" text-anchor="middle" font-size="11" fill="#555">PE(pos+k) 是 PE(pos) 的线性函数 → 模型容易学到相对位置</text>
  <text x="440" y="486" text-anchor="middle" font-size="11" fill="#555">与 Embedding 直接相加（同为 d_model 维），注入顺序信息</text>
</svg>
