<?xml version="1.0" encoding="utf-8" standalone="no"?>
<!DOCTYPE svg PUBLIC "-//W3C//DTD SVG 1.1//EN"
  "http://www.w3.org/Graphics/SVG/1.1/DTD/svg11.dtd">
<svg xmlns:xlink="http://www.w3.org/1999/xlink" width="460.8pt" height="287.339375pt" viewBox="0 0 460.8 287.339375" xmlns="http://www.w3.org/2000/svg" version="1.1">
 <metadata>
  <rdf:RDF xmlns:dc="http://purl.org/dc/elements/1.1/" xmlns:cc="http://creativecommons.org/ns#" xmlns:rdf="http://www.w3.org/1999/02/22-rdf-syntax-ns#">
   <cc:Work>
    <dc:type rdf:resource="http://purl.org/dc/dcmitype/StillImage"/>
    <dc:date>2026-07-06T14:51:19.142971</dc:date>
    <dc:format>image/svg+xml</dc:format>
    <dc:creator>
     <cc:Agent>
      <dc:title>Matplotlib v3.10.9, https://matplotlib.org/</dc:title>
     </cc:Agent>
    </dc:creator>
   </cc:Work>
  </rdf:RDF>
 </metadata>
 <defs>
  <style type="text/css">*{stroke-linejoin: round; stroke-linecap: butt}</style>
 </defs>
 <g id="figure_1">
  <g id="patch_1">
   <path d="M 0 287.339375 
L 460.8 287.339375 
L 460.8 0 
L 0 0 
z
" style="fill: #ffffff"/>
  </g>
  <g id="axes_1">
   <g id="patch_2">
    <path d="M 35.1 169.259375 
L 88.11 169.259375 
L 88.11 124.907375 
L 35.1 124.907375 
z
" clip-path="url(#p0e9af11ff3)" style="fill: #eaf2f8; stroke: #2980b9; stroke-width: 2; stroke-linejoin: miter"/>
   </g>
   <g id="patch_3">
    <path d="M 88.11 169.259375 
L 141.12 169.259375 
L 141.12 124.907375 
L 88.11 124.907375 
z
" clip-path="url(#p0e9af11ff3)" style="fill: #eaf2f8; stroke: #2980b9; stroke-width: 2; stroke-linejoin: miter"/>
   </g>
   <g id="patch_4">
    <path d="M 141.12 169.259375 
L 194.13 169.259375 
L 194.13 124.907375 
L 141.12 124.907375 
z
" clip-path="url(#p0e9af11ff3)" style="fill: #eaf2f8; stroke: #2980b9; stroke-width: 2; stroke-linejoin: miter"/>
   </g>
   <g id="patch_5">
    <path d="M 194.13 169.259375 
L 247.14 169.259375 
L 247.14 124.907375 
L 194.13 124.907375 
z
" clip-path="url(#p0e9af11ff3)" style="fill: #eaf2f8; stroke: #2980b9; stroke-width: 2; stroke-linejoin: miter"/>
   </g>
   <g id="patch_6">
    <path d="M 247.14 169.259375 
L 300.15 169.259375 
L 300.15 124.907375 
L 247.14 124.907375 
z
" clip-path="url(#p0e9af11ff3)" style="fill: #eaf2f8; stroke: #2980b9; stroke-width: 2; stroke-linejoin: miter"/>
   </g>
   <g id="patch_7">
    <path d="M 300.15 169.259375 
L 353.16 169.259375 
L 353.16 124.907375 
L 300.15 124.907375 
z
" clip-path="url(#p0e9af11ff3)" style="fill: #eaf2f8; stroke: #2980b9; stroke-width: 2; stroke-linejoin: miter"/>
   </g>
   <g id="patch_8">
    <path d="M 96.48 260.735375 
L 364.32 260.735375 
Q 372.69 260.735375 372.69 252.419375 
L 372.69 230.243375 
Q 372.69 221.927375 364.32 221.927375 
L 96.48 221.927375 
Q 88.11 221.927375 88.11 230.243375 
L 88.11 252.419375 
Q 88.11 260.735375 96.48 260.735375 
z
" clip-path="url(#p0e9af11ff3)" style="fill: #fef9e7; stroke: #f39c12; stroke-width: 2; stroke-linejoin: miter"/>
   </g>
   <g id="text_1">
    <!-- nums[0]=-2 -->
    <g style="fill: #2c3e50" transform="translate(35.110469 141.60175) scale(0.1 -0.1)">
     <defs>
      <path id="NotoSansCJKjp-Regular-6e" d="M 589 0 
L 1178 0 
L 1178 2522 
C 1523 2874 1766 3053 2125 3053 
C 2586 3053 2784 2778 2784 2125 
L 2784 0 
L 3366 0 
L 3366 2202 
C 3366 3085 3034 3565 2304 3565 
C 1830 3565 1466 3302 1139 2970 
L 1126 2970 
L 1069 3475 
L 589 3475 
L 589 0 
z
" transform="scale(0.015625)"/>
      <path id="NotoSansCJKjp-Regular-75" d="M 1606 -83 
C 2080 -83 2426 166 2752 544 
L 2771 544 
L 2816 0 
L 3302 0 
L 3302 3475 
L 2720 3475 
L 2720 1011 
C 2387 602 2138 422 1779 422 
C 1318 422 1126 698 1126 1344 
L 1126 3475 
L 538 3475 
L 538 1274 
C 538 384 870 -83 1606 -83 
z
" transform="scale(0.015625)"/>
      <path id="NotoSansCJKjp-Regular-6d" d="M 589 0 
L 1178 0 
L 1178 2522 
C 1491 2880 1786 3053 2048 3053 
C 2490 3053 2694 2778 2694 2125 
L 2694 0 
L 3277 0 
L 3277 2522 
C 3603 2880 3885 3053 4154 3053 
C 4595 3053 4800 2778 4800 2125 
L 4800 0 
L 5382 0 
L 5382 2202 
C 5382 3085 5043 3565 4333 3565 
C 3904 3565 3546 3290 3181 2899 
C 3040 3309 2758 3565 2221 3565 
C 1805 3565 1446 3302 1139 2970 
L 1126 2970 
L 1069 3475 
L 589 3475 
L 589 0 
z
" transform="scale(0.015625)"/>
      <path id="NotoSansCJKjp-Regular-73" d="M 1498 -83 
C 2317 -83 2758 384 2758 947 
C 2758 1606 2208 1811 1702 2003 
C 1312 2150 954 2278 954 2605 
C 954 2880 1158 3110 1600 3110 
C 1907 3110 2150 2976 2387 2803 
L 2669 3168 
C 2406 3386 2022 3565 1594 3565 
C 832 3565 397 3130 397 2579 
C 397 1984 922 1754 1408 1574 
C 1792 1434 2202 1267 2202 915 
C 2202 614 1978 371 1517 371 
C 1101 371 794 538 486 787 
L 205 397 
C 531 122 1005 -83 1498 -83 
z
" transform="scale(0.015625)"/>
      <path id="NotoSansCJKjp-Regular-5b" d="M 678 -1088 
L 1946 -1088 
L 1946 -755 
L 1114 -755 
L 1114 4730 
L 1946 4730 
L 1946 5069 
L 678 5069 
L 678 -1088 
z
" transform="scale(0.015625)"/>
      <path id="NotoSansCJKjp-Regular-30" d="M 1779 -83 
C 2669 -83 3238 723 3238 2362 
C 3238 3987 2669 4774 1779 4774 
C 883 4774 320 3987 320 2362 
C 320 723 883 -83 1779 -83 
z
M 1779 390 
C 1248 390 883 986 883 2362 
C 883 3731 1248 4314 1779 4314 
C 2310 4314 2675 3731 2675 2362 
C 2675 986 2310 390 1779 390 
z
" transform="scale(0.015625)"/>
      <path id="NotoSansCJKjp-Regular-5d" d="M 218 -1088 
L 1491 -1088 
L 1491 5069 
L 218 5069 
L 218 4730 
L 1050 4730 
L 1050 -755 
L 218 -755 
L 218 -1088 
z
" transform="scale(0.015625)"/>
      <path id="NotoSansCJKjp-Regular-3d" d="M 243 2912 
L 3315 2912 
L 3315 3347 
L 243 3347 
L 243 2912 
z
M 243 1376 
L 3315 1376 
L 3315 1811 
L 243 1811 
L 243 1376 
z
" transform="scale(0.015625)"/>
      <path id="NotoSansCJKjp-Regular-2d" d="M 294 1568 
L 1933 1568 
L 1933 2016 
L 294 2016 
L 294 1568 
z
" transform="scale(0.015625)"/>
      <path id="NotoSansCJKjp-Regular-32" d="M 282 0 
L 3232 0 
L 3232 506 
L 1933 506 
C 1696 506 1408 480 1165 461 
C 2266 1504 3008 2458 3008 3398 
C 3008 4230 2477 4774 1638 4774 
C 1043 4774 634 4506 256 4090 
L 595 3757 
C 858 4070 1184 4301 1568 4301 
C 2150 4301 2432 3910 2432 3373 
C 2432 2566 1754 1632 282 346 
L 282 0 
z
" transform="scale(0.015625)"/>
     </defs>
     <use xlink:href="#NotoSansCJKjp-Regular-6e"/>
     <use xlink:href="#NotoSansCJKjp-Regular-75" transform="translate(60.999985 0)"/>
     <use xlink:href="#NotoSansCJKjp-Regular-6d" transform="translate(121.699982 0)"/>
     <use xlink:href="#NotoSansCJKjp-Regular-73" transform="translate(214.299973 0)"/>
     <use xlink:href="#NotoSansCJKjp-Regular-5b" transform="translate(261.09996 0)"/>
     <use xlink:href="#NotoSansCJKjp-Regular-30" transform="translate(294.899948 0)"/>
     <use xlink:href="#NotoSansCJKjp-Regular-5d" transform="translate(350.399933 0)"/>
     <use xlink:href="#NotoSansCJKjp-Regular-3d" transform="translate(384.199921 0)"/>
     <use xlink:href="#NotoSansCJKjp-Regular-2d" transform="translate(439.699905 0)"/>
     <use xlink:href="#NotoSansCJKjp-Regular-32" transform="translate(474.399902 0)"/>
    </g>
   </g>
   <g id="text_2">
    <!-- dp=-2 -->
    <g style="fill: #27ae60" transform="translate(48.119844 163.77775) scale(0.1 -0.1)">
     <defs>
      <path id="NotoSansCJKjp-Regular-64" d="M 1773 -83 
C 2189 -83 2560 141 2829 410 
L 2848 410 
L 2899 0 
L 3379 0 
L 3379 5094 
L 2790 5094 
L 2790 3757 
L 2822 3162 
C 2515 3411 2253 3565 1843 3565 
C 1050 3565 339 2861 339 1734 
C 339 576 902 -83 1773 -83 
z
M 1901 410 
C 1293 410 941 902 941 1741 
C 941 2534 1389 3072 1946 3072 
C 2234 3072 2502 2970 2790 2707 
L 2790 883 
C 2502 563 2221 410 1901 410 
z
" transform="scale(0.015625)"/>
      <path id="NotoSansCJKjp-Regular-70" d="M 589 -1466 
L 1178 -1466 
L 1178 -288 
L 1158 320 
C 1472 58 1805 -83 2118 -83 
C 2912 -83 3629 602 3629 1792 
C 3629 2867 3142 3565 2246 3565 
C 1843 3565 1453 3334 1139 3072 
L 1126 3072 
L 1069 3475 
L 589 3475 
L 589 -1466 
z
M 2022 410 
C 1792 410 1485 499 1178 768 
L 1178 2598 
C 1510 2906 1811 3072 2099 3072 
C 2765 3072 3021 2560 3021 1786 
C 3021 928 2598 410 2022 410 
z
" transform="scale(0.015625)"/>
     </defs>
     <use xlink:href="#NotoSansCJKjp-Regular-64"/>
     <use xlink:href="#NotoSansCJKjp-Regular-70" transform="translate(61.999985 0)"/>
     <use xlink:href="#NotoSansCJKjp-Regular-3d" transform="translate(123.999969 0)"/>
     <use xlink:href="#NotoSansCJKjp-Regular-2d" transform="translate(179.499954 0)"/>
     <use xlink:href="#NotoSansCJKjp-Regular-32" transform="translate(214.199951 0)"/>
    </g>
   </g>
   <g id="text_3">
    <!-- nums[1]=1 -->
    <g style="fill: #2c3e50" transform="translate(89.855625 141.60175) scale(0.1 -0.1)">
     <defs>
      <path id="NotoSansCJKjp-Regular-31" d="M 563 0 
L 3136 0 
L 3136 486 
L 2195 486 
L 2195 4691 
L 1747 4691 
C 1491 4544 1190 4435 774 4358 
L 774 3987 
L 1613 3987 
L 1613 486 
L 563 486 
L 563 0 
z
" transform="scale(0.015625)"/>
     </defs>
     <use xlink:href="#NotoSansCJKjp-Regular-6e"/>
     <use xlink:href="#NotoSansCJKjp-Regular-75" transform="translate(60.999985 0)"/>
     <use xlink:href="#NotoSansCJKjp-Regular-6d" transform="translate(121.699982 0)"/>
     <use xlink:href="#NotoSansCJKjp-Regular-73" transform="translate(214.299973 0)"/>
     <use xlink:href="#NotoSansCJKjp-Regular-5b" transform="translate(261.09996 0)"/>
     <use xlink:href="#NotoSansCJKjp-Regular-31" transform="translate(294.899948 0)"/>
     <use xlink:href="#NotoSansCJKjp-Regular-5d" transform="translate(350.399933 0)"/>
     <use xlink:href="#NotoSansCJKjp-Regular-3d" transform="translate(384.199921 0)"/>
     <use xlink:href="#NotoSansCJKjp-Regular-31" transform="translate(439.699905 0)"/>
    </g>
   </g>
   <g id="text_4">
    <!-- dp=1 -->
    <g style="fill: #27ae60" transform="translate(102.865 163.77775) scale(0.1 -0.1)">
     <use xlink:href="#NotoSansCJKjp-Regular-64"/>
     <use xlink:href="#NotoSansCJKjp-Regular-70" transform="translate(61.999985 0)"/>
     <use xlink:href="#NotoSansCJKjp-Regular-3d" transform="translate(123.999969 0)"/>
     <use xlink:href="#NotoSansCJKjp-Regular-31" transform="translate(179.499954 0)"/>
    </g>
   </g>
   <g id="text_5">
    <!-- nums[2]=-3 -->
    <g style="fill: #2c3e50" transform="translate(141.130469 141.60175) scale(0.1 -0.1)">
     <defs>
      <path id="NotoSansCJKjp-Regular-33" d="M 1683 -83 
C 2522 -83 3194 416 3194 1254 
C 3194 1901 2752 2310 2202 2445 
L 2202 2477 
C 2701 2650 3034 3034 3034 3603 
C 3034 4346 2458 4774 1664 4774 
C 1126 4774 710 4538 358 4218 
L 672 3846 
C 941 4115 1267 4301 1645 4301 
C 2138 4301 2438 4006 2438 3558 
C 2438 3053 2112 2662 1139 2662 
L 1139 2214 
C 2227 2214 2598 1843 2598 1274 
C 2598 736 2208 403 1645 403 
C 1114 403 762 659 486 941 
L 186 563 
C 493 224 954 -83 1683 -83 
z
" transform="scale(0.015625)"/>
     </defs>
     <use xlink:href="#NotoSansCJKjp-Regular-6e"/>
     <use xlink:href="#NotoSansCJKjp-Regular-75" transform="translate(60.999985 0)"/>
     <use xlink:href="#NotoSansCJKjp-Regular-6d" transform="translate(121.699982 0)"/>
     <use xlink:href="#NotoSansCJKjp-Regular-73" transform="translate(214.299973 0)"/>
     <use xlink:href="#NotoSansCJKjp-Regular-5b" transform="translate(261.09996 0)"/>
     <use xlink:href="#NotoSansCJKjp-Regular-32" transform="translate(294.899948 0)"/>
     <use xlink:href="#NotoSansCJKjp-Regular-5d" transform="translate(350.399933 0)"/>
     <use xlink:href="#NotoSansCJKjp-Regular-3d" transform="translate(384.199921 0)"/>
     <use xlink:href="#NotoSansCJKjp-Regular-2d" transform="translate(439.699905 0)"/>
     <use xlink:href="#NotoSansCJKjp-Regular-33" transform="translate(474.399902 0)"/>
    </g>
   </g>
   <g id="text_6">
    <!-- dp=-2 -->
    <g style="fill: #27ae60" transform="translate(154.139844 163.77775) scale(0.1 -0.1)">
     <use xlink:href="#NotoSansCJKjp-Regular-64"/>
     <use xlink:href="#NotoSansCJKjp-Regular-70" transform="translate(61.999985 0)"/>
     <use xlink:href="#NotoSansCJKjp-Regular-3d" transform="translate(123.999969 0)"/>
     <use xlink:href="#NotoSansCJKjp-Regular-2d" transform="translate(179.499954 0)"/>
     <use xlink:href="#NotoSansCJKjp-Regular-32" transform="translate(214.199951 0)"/>
    </g>
   </g>
   <g id="text_7">
    <!-- nums[3]=4 -->
    <g style="fill: #2c3e50" transform="translate(195.875625 141.60175) scale(0.1 -0.1)">
     <defs>
      <path id="NotoSansCJKjp-Regular-34" d="M 2176 0 
L 2726 0 
L 2726 1293 
L 3354 1293 
L 3354 1760 
L 2726 1760 
L 2726 4691 
L 2080 4691 
L 128 1677 
L 128 1293 
L 2176 1293 
L 2176 0 
z
M 2176 1760 
L 736 1760 
L 1805 3360 
C 1939 3590 2067 3827 2182 4051 
L 2208 4051 
C 2195 3814 2176 3430 2176 3200 
L 2176 1760 
z
" transform="scale(0.015625)"/>
     </defs>
     <use xlink:href="#NotoSansCJKjp-Regular-6e"/>
     <use xlink:href="#NotoSansCJKjp-Regular-75" transform="translate(60.999985 0)"/>
     <use xlink:href="#NotoSansCJKjp-Regular-6d" transform="translate(121.699982 0)"/>
     <use xlink:href="#NotoSansCJKjp-Regular-73" transform="translate(214.299973 0)"/>
     <use xlink:href="#NotoSansCJKjp-Regular-5b" transform="translate(261.09996 0)"/>
     <use xlink:href="#NotoSansCJKjp-Regular-33" transform="translate(294.899948 0)"/>
     <use xlink:href="#NotoSansCJKjp-Regular-5d" transform="translate(350.399933 0)"/>
     <use xlink:href="#NotoSansCJKjp-Regular-3d" transform="translate(384.199921 0)"/>
     <use xlink:href="#NotoSansCJKjp-Regular-34" transform="translate(439.699905 0)"/>
    </g>
   </g>
   <g id="text_8">
    <!-- dp=4 -->
    <g style="fill: #27ae60" transform="translate(208.885 163.77775) scale(0.1 -0.1)">
     <use xlink:href="#NotoSansCJKjp-Regular-64"/>
     <use xlink:href="#NotoSansCJKjp-Regular-70" transform="translate(61.999985 0)"/>
     <use xlink:href="#NotoSansCJKjp-Regular-3d" transform="translate(123.999969 0)"/>
     <use xlink:href="#NotoSansCJKjp-Regular-34" transform="translate(179.499954 0)"/>
    </g>
   </g>
   <g id="text_9">
    <!-- nums[4]=-1 -->
    <g style="fill: #2c3e50" transform="translate(247.150469 141.60175) scale(0.1 -0.1)">
     <use xlink:href="#NotoSansCJKjp-Regular-6e"/>
     <use xlink:href="#NotoSansCJKjp-Regular-75" transform="translate(60.999985 0)"/>
     <use xlink:href="#NotoSansCJKjp-Regular-6d" transform="translate(121.699982 0)"/>
     <use xlink:href="#NotoSansCJKjp-Regular-73" transform="translate(214.299973 0)"/>
     <use xlink:href="#NotoSansCJKjp-Regular-5b" transform="translate(261.09996 0)"/>
     <use xlink:href="#NotoSansCJKjp-Regular-34" transform="translate(294.899948 0)"/>
     <use xlink:href="#NotoSansCJKjp-Regular-5d" transform="translate(350.399933 0)"/>
     <use xlink:href="#NotoSansCJKjp-Regular-3d" transform="translate(384.199921 0)"/>
     <use xlink:href="#NotoSansCJKjp-Regular-2d" transform="translate(439.699905 0)"/>
     <use xlink:href="#NotoSansCJKjp-Regular-31" transform="translate(474.399902 0)"/>
    </g>
   </g>
   <g id="text_10">
    <!-- dp=3 -->
    <g style="fill: #27ae60" transform="translate(261.895 163.77775) scale(0.1 -0.1)">
     <use xlink:href="#NotoSansCJKjp-Regular-64"/>
     <use xlink:href="#NotoSansCJKjp-Regular-70" transform="translate(61.999985 0)"/>
     <use xlink:href="#NotoSansCJKjp-Regular-3d" transform="translate(123.999969 0)"/>
     <use xlink:href="#NotoSansCJKjp-Regular-33" transform="translate(179.499954 0)"/>
    </g>
   </g>
   <g id="text_11">
    <!-- nums[5]=2 -->
    <g style="fill: #2c3e50" transform="translate(301.895625 141.60175) scale(0.1 -0.1)">
     <defs>
      <path id="NotoSansCJKjp-Regular-35" d="M 1677 -83 
C 2464 -83 3213 499 3213 1523 
C 3213 2560 2573 3021 1798 3021 
C 1517 3021 1306 2950 1094 2835 
L 1216 4192 
L 2982 4192 
L 2982 4691 
L 704 4691 
L 550 2502 
L 864 2304 
C 1133 2483 1331 2579 1645 2579 
C 2234 2579 2618 2182 2618 1510 
C 2618 826 2176 403 1619 403 
C 1075 403 730 653 467 922 
L 173 538 
C 493 224 941 -83 1677 -83 
z
" transform="scale(0.015625)"/>
     </defs>
     <use xlink:href="#NotoSansCJKjp-Regular-6e"/>
     <use xlink:href="#NotoSansCJKjp-Regular-75" transform="translate(60.999985 0)"/>
     <use xlink:href="#NotoSansCJKjp-Regular-6d" transform="translate(121.699982 0)"/>
     <use xlink:href="#NotoSansCJKjp-Regular-73" transform="translate(214.299973 0)"/>
     <use xlink:href="#NotoSansCJKjp-Regular-5b" transform="translate(261.09996 0)"/>
     <use xlink:href="#NotoSansCJKjp-Regular-35" transform="translate(294.899948 0)"/>
     <use xlink:href="#NotoSansCJKjp-Regular-5d" transform="translate(350.399933 0)"/>
     <use xlink:href="#NotoSansCJKjp-Regular-3d" transform="translate(384.199921 0)"/>
     <use xlink:href="#NotoSansCJKjp-Regular-32" transform="translate(439.699905 0)"/>
    </g>
   </g>
   <g id="text_12">
    <!-- dp=5 -->
    <g style="fill: #27ae60" transform="translate(314.905 163.77775) scale(0.1 -0.1)">
     <use xlink:href="#NotoSansCJKjp-Regular-64"/>
     <use xlink:href="#NotoSansCJKjp-Regular-70" transform="translate(61.999985 0)"/>
     <use xlink:href="#NotoSansCJKjp-Regular-3d" transform="translate(123.999969 0)"/>
     <use xlink:href="#NotoSansCJKjp-Regular-35" transform="translate(179.499954 0)"/>
    </g>
   </g>
   <g id="patch_9">
    <path d="M 63.607758 122.135375 
Q 88.110474 122.135375 110.936139 122.135375 
" style="fill: none; stroke: #7f8c8d; stroke-width: 1.5; stroke-linecap: round"/>
    <path d="M 106.936139 120.135375 
L 110.936139 122.135375 
L 106.936139 124.135375 
" style="fill: none; stroke: #7f8c8d; stroke-width: 1.5; stroke-linecap: round"/>
   </g>
   <g id="patch_10">
    <path d="M 116.617758 122.135375 
Q 141.120474 122.135375 163.946139 122.135375 
" style="fill: none; stroke: #7f8c8d; stroke-width: 1.5; stroke-linecap: round"/>
    <path d="M 159.946139 120.135375 
L 163.946139 122.135375 
L 159.946139 124.135375 
" style="fill: none; stroke: #7f8c8d; stroke-width: 1.5; stroke-linecap: round"/>
   </g>
   <g id="patch_11">
    <path d="M 169.627758 122.135375 
Q 194.130474 122.135375 216.956139 122.135375 
" style="fill: none; stroke: #7f8c8d; stroke-width: 1.5; stroke-linecap: round"/>
    <path d="M 212.956139 120.135375 
L 216.956139 122.135375 
L 212.956139 124.135375 
" style="fill: none; stroke: #7f8c8d; stroke-width: 1.5; stroke-linecap: round"/>
   </g>
   <g id="patch_12">
    <path d="M 222.637758 122.135375 
Q 247.140474 122.135375 269.966139 122.135375 
" style="fill: none; stroke: #7f8c8d; stroke-width: 1.5; stroke-linecap: round"/>
    <path d="M 265.966139 120.135375 
L 269.966139 122.135375 
L 265.966139 124.135375 
" style="fill: none; stroke: #7f8c8d; stroke-width: 1.5; stroke-linecap: round"/>
   </g>
   <g id="patch_13">
    <path d="M 275.647758 122.135375 
Q 300.150474 122.135375 322.976139 122.135375 
" style="fill: none; stroke: #7f8c8d; stroke-width: 1.5; stroke-linecap: round"/>
    <path d="M 318.976139 120.135375 
L 322.976139 122.135375 
L 318.976139 124.135375 
" style="fill: none; stroke: #7f8c8d; stroke-width: 1.5; stroke-linecap: round"/>
   </g>
   <g id="patch_14">
    <path d="M 120.800034 99.959375 
Q 160.650209 99.959375 198.264317 99.959375 
" style="fill: none; stroke: #e74c3c; stroke-width: 2; stroke-linecap: round"/>
    <path d="M 194.264317 97.959375 
L 198.264317 99.959375 
L 194.264317 101.959375 
" style="fill: none; stroke: #e74c3c; stroke-width: 2; stroke-linecap: round"/>
   </g>
   <g id="text_13">
    <!-- dp[i-1] &lt;= 0 -->
    <g style="fill: #e74c3c" transform="translate(36.969531 77.510875) scale(0.1 -0.1)">
     <defs>
      <path id="NotoSansCJKjp-Regular-69" d="M 589 0 
L 1178 0 
L 1178 3475 
L 589 3475 
L 589 0 
z
M 883 4192 
C 1114 4192 1274 4346 1274 4582 
C 1274 4806 1114 4960 883 4960 
C 653 4960 499 4806 499 4582 
C 499 4346 653 4192 883 4192 
z
" transform="scale(0.015625)"/>
      <path id="NotoSansCJKjp-Regular-20" transform="scale(0.015625)"/>
      <path id="NotoSansCJKjp-Regular-3c" d="M 3315 934 
L 3315 1446 
L 1798 2003 
L 838 2362 
L 838 2387 
L 1798 2746 
L 3315 3309 
L 3315 3814 
L 243 2605 
L 243 2144 
L 3315 934 
z
" transform="scale(0.015625)"/>
     </defs>
     <use xlink:href="#NotoSansCJKjp-Regular-64"/>
     <use xlink:href="#NotoSansCJKjp-Regular-70" transform="translate(61.999985 0)"/>
     <use xlink:href="#NotoSansCJKjp-Regular-5b" transform="translate(123.999969 0)"/>
     <use xlink:href="#NotoSansCJKjp-Regular-69" transform="translate(157.799957 0)"/>
     <use xlink:href="#NotoSansCJKjp-Regular-2d" transform="translate(185.299942 0)"/>
     <use xlink:href="#NotoSansCJKjp-Regular-31" transform="translate(219.999939 0)"/>
     <use xlink:href="#NotoSansCJKjp-Regular-5d" transform="translate(275.499924 0)"/>
     <use xlink:href="#NotoSansCJKjp-Regular-20" transform="translate(309.299911 0)"/>
     <use xlink:href="#NotoSansCJKjp-Regular-3c" transform="translate(331.699905 0)"/>
     <use xlink:href="#NotoSansCJKjp-Regular-3d" transform="translate(387.19989 0)"/>
     <use xlink:href="#NotoSansCJKjp-Regular-20" transform="translate(442.699875 0)"/>
     <use xlink:href="#NotoSansCJKjp-Regular-30" transform="translate(465.099869 0)"/>
    </g>
    <!-- 从 nums[i] 重新开始 -->
    <g style="fill: #e74c3c" transform="translate(17.95 89.35275) scale(0.1 -0.1)">
     <defs>
      <path id="NotoSansCJKjp-Regular-4ece" d="M 3974 5146 
C 3949 3827 3917 1126 2099 -141 
C 2259 -237 2419 -371 2528 -499 
C 3520 243 4006 1408 4243 2547 
C 4493 1382 4941 211 5824 -512 
C 5907 -371 6086 -147 6202 -45 
C 5005 832 4614 2624 4448 4128 
C 4474 4506 4480 4851 4486 5146 
L 3974 5146 
z
M 1670 5158 
C 1574 2803 1306 915 230 -192 
C 358 -269 614 -442 698 -518 
C 1306 179 1658 1094 1882 2208 
C 2234 1760 2579 1261 2758 909 
L 3117 1318 
C 2893 1734 2432 2355 1990 2848 
C 2093 3546 2157 4314 2202 5139 
L 1670 5158 
z
" transform="scale(0.015625)"/>
      <path id="NotoSansCJKjp-Regular-91cd" d="M 1018 3456 
L 1018 1466 
L 2938 1466 
L 2938 1024 
L 813 1024 
L 813 640 
L 2938 640 
L 2938 83 
L 333 83 
L 333 -307 
L 6074 -307 
L 6074 83 
L 3418 83 
L 3418 640 
L 5670 640 
L 5670 1024 
L 3418 1024 
L 3418 1466 
L 5427 1466 
L 5427 3456 
L 3418 3456 
L 3418 3846 
L 6042 3846 
L 6042 4243 
L 3418 4243 
L 3418 4736 
C 4166 4794 4870 4870 5421 4966 
L 5165 5338 
C 4154 5158 2342 5037 851 4998 
C 896 4902 947 4730 954 4621 
C 1581 4634 2266 4659 2938 4698 
L 2938 4243 
L 371 4243 
L 371 3846 
L 2938 3846 
L 2938 3456 
L 1018 3456 
z
M 1485 2304 
L 2938 2304 
L 2938 1818 
L 1485 1818 
L 1485 2304 
z
M 3418 2304 
L 4941 2304 
L 4941 1818 
L 3418 1818 
L 3418 2304 
z
M 1485 3110 
L 2938 3110 
L 2938 2630 
L 1485 2630 
L 1485 3110 
z
M 3418 3110 
L 4941 3110 
L 4941 2630 
L 3418 2630 
L 3418 3110 
z
" transform="scale(0.015625)"/>
      <path id="NotoSansCJKjp-Regular-65b0" d="M 774 4179 
C 902 3891 1005 3501 1024 3251 
L 1434 3360 
C 1402 3610 1293 3987 1158 4269 
L 774 4179 
z
M 2419 4282 
C 2349 4013 2208 3610 2093 3360 
L 2483 3264 
C 2598 3501 2733 3859 2854 4186 
L 2419 4282 
z
M 5670 5306 
C 5254 5094 4538 4890 3872 4749 
L 3526 4851 
L 3526 2611 
C 3526 1709 3443 602 2624 -211 
C 2733 -275 2906 -435 2970 -538 
C 3866 352 3987 1645 3987 2605 
L 3987 2765 
L 4954 2765 
L 4954 -480 
L 5414 -480 
L 5414 2765 
L 6144 2765 
L 6144 3213 
L 3987 3213 
L 3987 4365 
C 4704 4506 5510 4704 6061 4954 
L 5670 5306 
z
M 1581 5350 
L 1581 4704 
L 390 4704 
L 390 4301 
L 3219 4301 
L 3219 4704 
L 2048 4704 
L 2048 5350 
L 1581 5350 
z
M 301 3245 
L 301 2835 
L 1581 2835 
L 1581 2170 
L 320 2170 
L 320 1747 
L 1472 1747 
C 1152 1184 640 595 179 301 
C 282 224 422 64 506 -45 
C 870 243 1267 698 1581 1197 
L 1581 -499 
L 2048 -499 
L 2048 1139 
C 2317 896 2637 576 2778 416 
L 3066 774 
C 2912 909 2291 1421 2048 1594 
L 2048 1747 
L 3245 1747 
L 3245 2170 
L 2048 2170 
L 2048 2835 
L 3296 2835 
L 3296 3245 
L 301 3245 
z
" transform="scale(0.015625)"/>
      <path id="NotoSansCJKjp-Regular-5f00" d="M 4154 4499 
L 4154 2675 
L 2362 2675 
L 2362 2950 
L 2362 4499 
L 4154 4499 
z
M 333 2675 
L 333 2214 
L 1843 2214 
C 1754 1338 1427 480 346 -179 
C 474 -262 646 -422 730 -538 
C 1914 211 2246 1210 2336 2214 
L 4154 2214 
L 4154 -518 
L 4646 -518 
L 4646 2214 
L 6074 2214 
L 6074 2675 
L 4646 2675 
L 4646 4499 
L 5875 4499 
L 5875 4960 
L 570 4960 
L 570 4499 
L 1875 4499 
L 1875 2950 
L 1869 2675 
L 333 2675 
z
" transform="scale(0.015625)"/>
      <path id="NotoSansCJKjp-Regular-59cb" d="M 3136 2086 
L 3136 -518 
L 3597 -518 
L 3597 -230 
L 5389 -230 
L 5389 -493 
L 5869 -493 
L 5869 2086 
L 3136 2086 
z
M 3597 211 
L 3597 1645 
L 5389 1645 
L 5389 211 
L 3597 211 
z
M 3942 5382 
C 3782 4723 3482 3808 3213 3181 
L 2694 3155 
L 2752 2682 
L 5632 2893 
C 5709 2726 5779 2573 5824 2438 
L 6240 2669 
C 6074 3136 5632 3853 5203 4384 
L 4819 4192 
C 5018 3923 5222 3616 5402 3315 
L 3686 3206 
C 3955 3808 4250 4608 4474 5267 
L 3942 5382 
z
M 1254 5382 
C 1178 4979 1082 4518 979 4051 
L 282 4051 
L 282 3603 
L 883 3603 
C 698 2803 499 2016 339 1466 
L 742 1254 
L 819 1536 
C 1043 1395 1267 1235 1485 1075 
C 1178 512 787 109 314 -141 
C 416 -237 550 -416 614 -531 
C 1120 -224 1536 198 1862 774 
C 2131 544 2368 320 2528 122 
L 2816 506 
C 2643 717 2374 960 2067 1197 
C 2381 1920 2579 2835 2662 4006 
L 2374 4070 
L 2291 4051 
L 1434 4051 
C 1536 4499 1632 4934 1709 5325 
L 1254 5382 
z
M 1331 3603 
L 2176 3603 
C 2093 2765 1926 2061 1683 1485 
C 1434 1658 1178 1818 928 1958 
C 1062 2464 1197 3034 1331 3603 
z
" transform="scale(0.015625)"/>
     </defs>
     <use xlink:href="#NotoSansCJKjp-Regular-4ece"/>
     <use xlink:href="#NotoSansCJKjp-Regular-20" transform="translate(99.999985 0)"/>
     <use xlink:href="#NotoSansCJKjp-Regular-6e" transform="translate(122.399979 0)"/>
     <use xlink:href="#NotoSansCJKjp-Regular-75" transform="translate(183.399963 0)"/>
     <use xlink:href="#NotoSansCJKjp-Regular-6d" transform="translate(244.09996 0)"/>
     <use xlink:href="#NotoSansCJKjp-Regular-73" transform="translate(336.699951 0)"/>
     <use xlink:href="#NotoSansCJKjp-Regular-5b" transform="translate(383.499939 0)"/>
     <use xlink:href="#NotoSansCJKjp-Regular-69" transform="translate(417.299927 0)"/>
     <use xlink:href="#NotoSansCJKjp-Regular-5d" transform="translate(444.799911 0)"/>
     <use xlink:href="#NotoSansCJKjp-Regular-20" transform="translate(478.599899 0)"/>
     <use xlink:href="#NotoSansCJKjp-Regular-91cd" transform="translate(500.999893 0)"/>
     <use xlink:href="#NotoSansCJKjp-Regular-65b0" transform="translate(600.999878 0)"/>
     <use xlink:href="#NotoSansCJKjp-Regular-5f00" transform="translate(700.999863 0)"/>
     <use xlink:href="#NotoSansCJKjp-Regular-59cb" transform="translate(800.999847 0)"/>
    </g>
   </g>
   <g id="patch_15">
    <path d="M 260.300034 99.959375 
Q 300.150209 99.959375 337.764317 99.959375 
" style="fill: none; stroke: #2ecc71; stroke-width: 2; stroke-linecap: round"/>
    <path d="M 333.764317 97.959375 
L 337.764317 99.959375 
L 333.764317 101.959375 
" style="fill: none; stroke: #2ecc71; stroke-width: 2; stroke-linecap: round"/>
   </g>
   <g id="text_14">
    <!-- dp[i-1] &gt; 0 -->
    <g style="fill: #2ecc71" transform="translate(374.544531 77.510875) scale(0.1 -0.1)">
     <defs>
      <path id="NotoSansCJKjp-Regular-3e" d="M 243 934 
L 3315 2144 
L 3315 2605 
L 243 3814 
L 243 3309 
L 1754 2746 
L 2714 2387 
L 2714 2362 
L 1754 2003 
L 243 1446 
L 243 934 
z
" transform="scale(0.015625)"/>
     </defs>
     <use xlink:href="#NotoSansCJKjp-Regular-64"/>
     <use xlink:href="#NotoSansCJKjp-Regular-70" transform="translate(61.999985 0)"/>
     <use xlink:href="#NotoSansCJKjp-Regular-5b" transform="translate(123.999969 0)"/>
     <use xlink:href="#NotoSansCJKjp-Regular-69" transform="translate(157.799957 0)"/>
     <use xlink:href="#NotoSansCJKjp-Regular-2d" transform="translate(185.299942 0)"/>
     <use xlink:href="#NotoSansCJKjp-Regular-31" transform="translate(219.999939 0)"/>
     <use xlink:href="#NotoSansCJKjp-Regular-5d" transform="translate(275.499924 0)"/>
     <use xlink:href="#NotoSansCJKjp-Regular-20" transform="translate(309.299911 0)"/>
     <use xlink:href="#NotoSansCJKjp-Regular-3e" transform="translate(331.699905 0)"/>
     <use xlink:href="#NotoSansCJKjp-Regular-20" transform="translate(387.19989 0)"/>
     <use xlink:href="#NotoSansCJKjp-Regular-30" transform="translate(409.599884 0)"/>
    </g>
    <!-- 接在后面 -->
    <g style="fill: #2ecc71" transform="translate(377.8 89.35275) scale(0.1 -0.1)">
     <defs>
      <path id="NotoSansCJKjp-Regular-63a5" d="M 1152 5370 
L 1152 4083 
L 282 4083 
L 282 3635 
L 1152 3635 
L 1152 2240 
L 173 1971 
L 288 1504 
L 1152 1766 
L 1152 70 
C 1152 -19 1120 -51 1037 -51 
C 954 -51 691 -51 397 -45 
C 461 -179 525 -384 544 -506 
C 966 -512 1222 -493 1389 -416 
C 1555 -339 1613 -198 1613 77 
L 1613 1914 
L 2176 2086 
L 2176 1722 
L 3123 1722 
C 2938 1331 2752 954 2592 672 
L 3014 531 
L 3110 704 
C 3373 621 3648 518 3923 403 
C 3475 134 2854 -26 2016 -109 
C 2093 -205 2170 -378 2208 -506 
C 3187 -378 3898 -160 4397 198 
C 4915 -32 5382 -288 5690 -518 
L 5990 -154 
C 5690 64 5242 301 4755 518 
C 5043 832 5229 1229 5344 1722 
L 6112 1722 
L 6112 2144 
L 3827 2144 
L 4115 2771 
L 6138 2771 
L 6138 3194 
L 4966 3194 
C 5101 3482 5248 3885 5376 4250 
L 5184 4275 
L 5952 4275 
L 5952 4698 
L 4397 4698 
L 4397 5376 
L 3917 5376 
L 3917 4698 
L 2394 4698 
L 2394 4275 
L 3290 4275 
L 3002 4218 
C 3123 3898 3226 3475 3258 3194 
L 2138 3194 
L 2138 2771 
L 3597 2771 
L 3322 2144 
L 2291 2144 
L 2234 2554 
L 1613 2374 
L 1613 3635 
L 2234 3635 
L 2234 4083 
L 1613 4083 
L 1613 5370 
L 1152 5370 
z
M 3430 4275 
L 4890 4275 
C 4806 3955 4659 3507 4538 3219 
L 4685 3194 
L 3526 3194 
L 3706 3238 
C 3680 3501 3558 3936 3430 4275 
z
M 3622 1722 
L 4858 1722 
C 4749 1306 4576 966 4314 704 
C 3968 845 3622 966 3296 1062 
L 3622 1722 
z
" transform="scale(0.015625)"/>
      <path id="NotoSansCJKjp-Regular-5728" d="M 2502 5376 
C 2413 5050 2298 4710 2163 4384 
L 403 4384 
L 403 3923 
L 1952 3923 
C 1542 3104 979 2342 243 1830 
C 320 1722 442 1517 493 1389 
C 762 1581 1011 1798 1235 2035 
L 1235 -486 
L 1715 -486 
L 1715 2605 
C 2016 3014 2278 3462 2496 3923 
L 6010 3923 
L 6010 4384 
L 2694 4384 
C 2810 4672 2912 4966 3002 5254 
L 2502 5376 
z
M 3827 3590 
L 3827 2355 
L 2387 2355 
L 2387 1907 
L 3827 1907 
L 3827 90 
L 2131 90 
L 2131 -358 
L 6003 -358 
L 6003 90 
L 4307 90 
L 4307 1907 
L 5760 1907 
L 5760 2355 
L 4307 2355 
L 4307 3590 
L 3827 3590 
z
" transform="scale(0.015625)"/>
      <path id="NotoSansCJKjp-Regular-540e" d="M 5222 5325 
C 4352 5088 2829 4902 1446 4787 
L 954 4883 
L 954 3085 
C 954 2099 883 774 205 -198 
C 326 -256 512 -416 582 -518 
C 1338 538 1434 2048 1434 3078 
L 1434 3142 
L 6163 3142 
L 6163 3603 
L 1434 3603 
L 1434 4358 
C 2886 4461 4518 4653 5626 4947 
L 5222 5325 
z
M 1997 2227 
L 1997 -518 
L 2458 -518 
L 2458 -186 
L 5114 -186 
L 5114 -506 
L 5600 -506 
L 5600 2227 
L 1997 2227 
z
M 2458 262 
L 2458 1779 
L 5114 1779 
L 5114 262 
L 2458 262 
z
" transform="scale(0.015625)"/>
      <path id="NotoSansCJKjp-Regular-9762" d="M 2490 2138 
L 3846 2138 
L 3846 1414 
L 2490 1414 
L 2490 2138 
z
M 2490 2528 
L 2490 3238 
L 3846 3238 
L 3846 2528 
L 2490 2528 
z
M 2490 1024 
L 3846 1024 
L 3846 275 
L 2490 275 
L 2490 1024 
z
M 371 4954 
L 371 4493 
L 2842 4493 
C 2797 4230 2726 3930 2662 3686 
L 666 3686 
L 666 -512 
L 1126 -512 
L 1126 -173 
L 5248 -173 
L 5248 -512 
L 5734 -512 
L 5734 3686 
L 3155 3686 
L 3405 4493 
L 6048 4493 
L 6048 4954 
L 371 4954 
z
M 1126 275 
L 1126 3238 
L 2048 3238 
L 2048 275 
L 1126 275 
z
M 5248 275 
L 4288 275 
L 4288 3238 
L 5248 3238 
L 5248 275 
z
" transform="scale(0.015625)"/>
     </defs>
     <use xlink:href="#NotoSansCJKjp-Regular-63a5"/>
     <use xlink:href="#NotoSansCJKjp-Regular-5728" transform="translate(99.999985 0)"/>
     <use xlink:href="#NotoSansCJKjp-Regular-540e" transform="translate(199.999969 0)"/>
     <use xlink:href="#NotoSansCJKjp-Regular-9762" transform="translate(299.999954 0)"/>
    </g>
   </g>
   <g id="text_15">
    <!-- dp[i] = max(nums[i], dp[i-1] + nums[i]) -->
    <g transform="translate(89.524687 244.961375) scale(0.12 -0.12)">
     <defs>
      <path id="DejaVuSansMono-Bold-64" d="M 2472 3003 
L 2472 4863 
L 3384 4863 
L 3384 0 
L 2472 0 
L 2472 519 
Q 2325 216 2092 62 
Q 1859 -91 1544 -91 
Q 944 -91 612 390 
Q 281 872 281 1747 
Q 281 2634 617 3109 
Q 953 3584 1575 3584 
Q 1856 3584 2079 3439 
Q 2303 3294 2472 3003 
z
M 1197 1741 
Q 1197 1234 1365 946 
Q 1534 659 1831 659 
Q 2128 659 2300 946 
Q 2472 1234 2472 1741 
Q 2472 2247 2300 2534 
Q 2128 2822 1831 2822 
Q 1534 2822 1365 2534 
Q 1197 2247 1197 1741 
z
" transform="scale(0.015625)"/>
      <path id="DejaVuSansMono-Bold-70" d="M 1381 494 
L 1381 -1331 
L 469 -1331 
L 469 3500 
L 1381 3500 
L 1381 2975 
Q 1525 3278 1759 3431 
Q 1994 3584 2309 3584 
Q 2909 3584 3240 3103 
Q 3572 2622 3572 1747 
Q 3572 859 3236 384 
Q 2900 -91 2278 -91 
Q 1997 -91 1773 54 
Q 1550 200 1381 494 
z
M 2656 1753 
Q 2656 2259 2487 2546 
Q 2319 2834 2022 2834 
Q 1725 2834 1553 2546 
Q 1381 2259 1381 1753 
Q 1381 1247 1553 959 
Q 1725 672 2022 672 
Q 2319 672 2487 959 
Q 2656 1247 2656 1753 
z
" transform="scale(0.015625)"/>
      <path id="DejaVuSansMono-Bold-5b" d="M 1319 4863 
L 2906 4863 
L 2906 4269 
L 2150 4269 
L 2150 -250 
L 2906 -250 
L 2906 -844 
L 1319 -844 
L 1319 4863 
z
" transform="scale(0.015625)"/>
      <path id="DejaVuSansMono-Bold-69" d="M 691 3500 
L 2503 3500 
L 2503 703 
L 3641 703 
L 3641 0 
L 447 0 
L 447 703 
L 1588 703 
L 1588 2797 
L 691 2797 
L 691 3500 
z
M 1588 5203 
L 2503 5203 
L 2503 4134 
L 1588 4134 
L 1588 5203 
z
" transform="scale(0.015625)"/>
      <path id="DejaVuSansMono-Bold-5d" d="M 2534 4863 
L 2534 -844 
L 947 -844 
L 947 -250 
L 1703 -250 
L 1703 4269 
L 947 4269 
L 947 4863 
L 2534 4863 
z
" transform="scale(0.015625)"/>
      <path id="DejaVuSansMono-Bold-20" transform="scale(0.015625)"/>
      <path id="DejaVuSansMono-Bold-3d" d="M 275 1663 
L 3578 1663 
L 3578 922 
L 275 922 
L 275 1663 
z
M 275 3084 
L 3578 3084 
L 3578 2350 
L 275 2350 
L 275 3084 
z
" transform="scale(0.015625)"/>
      <path id="DejaVuSansMono-Bold-6d" d="M 2156 3150 
Q 2259 3372 2418 3478 
Q 2578 3584 2809 3584 
Q 3263 3584 3436 3271 
Q 3609 2959 3609 1972 
L 3609 0 
L 2859 0 
L 2859 2247 
Q 2859 2638 2800 2769 
Q 2741 2900 2584 2900 
Q 2428 2900 2365 2765 
Q 2303 2631 2303 2247 
L 2303 0 
L 1563 0 
L 1563 2247 
Q 1563 2631 1500 2765 
Q 1438 2900 1281 2900 
Q 1125 2900 1065 2769 
Q 1006 2638 1006 2247 
L 1006 0 
L 256 0 
L 256 3500 
L 922 3500 
L 922 3138 
Q 1000 3344 1172 3464 
Q 1344 3584 1556 3584 
Q 1769 3584 1944 3457 
Q 2119 3331 2156 3150 
z
" transform="scale(0.015625)"/>
      <path id="DejaVuSansMono-Bold-61" d="M 2188 1644 
Q 1675 1644 1472 1512 
Q 1269 1381 1269 1063 
Q 1269 825 1409 684 
Q 1550 544 1791 544 
Q 2153 544 2353 817 
Q 2553 1091 2553 1581 
L 2553 1644 
L 2188 1644 
z
M 3463 1997 
L 3463 0 
L 2553 0 
L 2553 391 
Q 2388 159 2128 34 
Q 1869 -91 1556 -91 
Q 959 -91 626 225 
Q 294 541 294 1106 
Q 294 1719 691 2011 
Q 1088 2303 1919 2303 
L 2553 2303 
L 2553 2456 
Q 2553 2678 2392 2792 
Q 2231 2906 1919 2906 
Q 1591 2906 1283 2823 
Q 975 2741 641 2559 
L 641 3341 
Q 944 3466 1256 3525 
Q 1569 3584 1919 3584 
Q 2772 3584 3117 3237 
Q 3463 2891 3463 1997 
z
" transform="scale(0.015625)"/>
      <path id="DejaVuSansMono-Bold-78" d="M 3578 3500 
L 2400 1825 
L 3681 0 
L 2613 0 
L 1925 1178 
L 1241 0 
L 172 0 
L 1466 1825 
L 275 3500 
L 1344 3500 
L 1925 2456 
L 2509 3500 
L 3578 3500 
z
" transform="scale(0.015625)"/>
      <path id="DejaVuSansMono-Bold-28" d="M 2888 4856 
Q 2475 4109 2275 3409 
Q 2075 2709 2075 2009 
Q 2075 1316 2275 611 
Q 2475 -94 2888 -844 
L 2175 -844 
Q 1678 -122 1437 579 
Q 1197 1281 1197 2009 
Q 1197 2734 1439 3439 
Q 1681 4144 2175 4856 
L 2888 4856 
z
" transform="scale(0.015625)"/>
      <path id="DejaVuSansMono-Bold-6e" d="M 3347 2272 
L 3347 0 
L 2438 0 
L 2438 2131 
Q 2438 2513 2330 2677 
Q 2222 2841 1978 2841 
Q 1731 2841 1589 2619 
Q 1447 2397 1447 2003 
L 1447 0 
L 538 0 
L 538 3500 
L 1447 3500 
L 1447 2975 
Q 1544 3266 1778 3425 
Q 2013 3584 2344 3584 
Q 2841 3584 3094 3254 
Q 3347 2925 3347 2272 
z
" transform="scale(0.015625)"/>
      <path id="DejaVuSansMono-Bold-75" d="M 500 1222 
L 500 3500 
L 1416 3500 
L 1416 1363 
Q 1416 984 1522 821 
Q 1628 659 1875 659 
Q 2122 659 2261 878 
Q 2400 1097 2400 1491 
L 2400 3500 
L 3316 3500 
L 3316 0 
L 2400 0 
L 2400 519 
Q 2303 228 2070 68 
Q 1838 -91 1509 -91 
Q 1009 -91 754 240 
Q 500 572 500 1222 
z
" transform="scale(0.015625)"/>
      <path id="DejaVuSansMono-Bold-73" d="M 3097 3391 
L 3097 2591 
Q 2844 2753 2570 2836 
Q 2297 2919 2022 2919 
Q 1716 2919 1559 2830 
Q 1403 2741 1403 2566 
Q 1403 2316 2072 2159 
L 2106 2150 
L 2369 2088 
Q 2869 1969 3101 1705 
Q 3334 1441 3334 991 
Q 3334 450 2979 179 
Q 2625 -91 1913 -91 
Q 1597 -91 1265 -36 
Q 934 19 594 128 
L 594 928 
Q 897 756 1211 665 
Q 1525 575 1819 575 
Q 2141 575 2306 669 
Q 2472 763 2472 941 
Q 2472 1116 2355 1209 
Q 2238 1303 1797 1409 
L 1544 1466 
Q 1019 1584 778 1837 
Q 538 2091 538 2516 
Q 538 3022 903 3303 
Q 1269 3584 1931 3584 
Q 2228 3584 2523 3536 
Q 2819 3488 3097 3391 
z
" transform="scale(0.015625)"/>
      <path id="DejaVuSansMono-Bold-2c" d="M 1441 1147 
L 2419 1147 
L 2419 300 
L 1806 -897 
L 1131 -897 
L 1441 300 
L 1441 1147 
z
" transform="scale(0.015625)"/>
      <path id="DejaVuSansMono-Bold-2d" d="M 941 2297 
L 2913 2297 
L 2913 1388 
L 941 1388 
L 941 2297 
z
" transform="scale(0.015625)"/>
      <path id="DejaVuSansMono-Bold-31" d="M 588 813 
L 1619 813 
L 1619 3841 
L 659 3603 
L 659 4434 
L 1625 4666 
L 2516 4666 
L 2516 813 
L 3547 813 
L 3547 0 
L 588 0 
L 588 813 
z
" transform="scale(0.015625)"/>
      <path id="DejaVuSansMono-Bold-2b" d="M 2297 3725 
L 2297 2381 
L 3641 2381 
L 3641 1638 
L 2297 1638 
L 2297 288 
L 1556 288 
L 1556 1638 
L 206 1638 
L 206 2381 
L 1556 2381 
L 1556 3725 
L 2297 3725 
z
" transform="scale(0.015625)"/>
      <path id="DejaVuSansMono-Bold-29" d="M 966 4856 
L 1678 4856 
Q 2172 4144 2414 3439 
Q 2656 2734 2656 2009 
Q 2656 1281 2415 579 
Q 2175 -122 1678 -844 
L 966 -844 
Q 1378 -94 1578 611 
Q 1778 1316 1778 2009 
Q 1778 2709 1578 3409 
Q 1378 4109 966 4856 
z
" transform="scale(0.015625)"/>
     </defs>
     <use xlink:href="#DejaVuSansMono-Bold-64"/>
     <use xlink:href="#DejaVuSansMono-Bold-70" transform="translate(60.205078 0)"/>
     <use xlink:href="#DejaVuSansMono-Bold-5b" transform="translate(120.410156 0)"/>
     <use xlink:href="#DejaVuSansMono-Bold-69" transform="translate(180.615234 0)"/>
     <use xlink:href="#DejaVuSansMono-Bold-5d" transform="translate(240.820312 0)"/>
     <use xlink:href="#DejaVuSansMono-Bold-20" transform="translate(301.025391 0)"/>
     <use xlink:href="#DejaVuSansMono-Bold-3d" transform="translate(361.230469 0)"/>
     <use xlink:href="#DejaVuSansMono-Bold-20" transform="translate(421.435547 0)"/>
     <use xlink:href="#DejaVuSansMono-Bold-6d" transform="translate(481.640625 0)"/>
     <use xlink:href="#DejaVuSansMono-Bold-61" transform="translate(541.845703 0)"/>
     <use xlink:href="#DejaVuSansMono-Bold-78" transform="translate(602.050781 0)"/>
     <use xlink:href="#DejaVuSansMono-Bold-28" transform="translate(662.255859 0)"/>
     <use xlink:href="#DejaVuSansMono-Bold-6e" transform="translate(722.460938 0)"/>
     <use xlink:href="#DejaVuSansMono-Bold-75" transform="translate(782.666016 0)"/>
     <use xlink:href="#DejaVuSansMono-Bold-6d" transform="translate(842.871094 0)"/>
     <use xlink:href="#DejaVuSansMono-Bold-73" transform="translate(903.076172 0)"/>
     <use xlink:href="#DejaVuSansMono-Bold-5b" transform="translate(963.28125 0)"/>
     <use xlink:href="#DejaVuSansMono-Bold-69" transform="translate(1023.486328 0)"/>
     <use xlink:href="#DejaVuSansMono-Bold-5d" transform="translate(1083.691406 0)"/>
     <use xlink:href="#DejaVuSansMono-Bold-2c" transform="translate(1143.896484 0)"/>
     <use xlink:href="#DejaVuSansMono-Bold-20" transform="translate(1204.101562 0)"/>
     <use xlink:href="#DejaVuSansMono-Bold-64" transform="translate(1264.306641 0)"/>
     <use xlink:href="#DejaVuSansMono-Bold-70" transform="translate(1324.511719 0)"/>
     <use xlink:href="#DejaVuSansMono-Bold-5b" transform="translate(1384.716797 0)"/>
     <use xlink:href="#DejaVuSansMono-Bold-69" transform="translate(1444.921875 0)"/>
     <use xlink:href="#DejaVuSansMono-Bold-2d" transform="translate(1505.126953 0)"/>
     <use xlink:href="#DejaVuSansMono-Bold-31" transform="translate(1565.332031 0)"/>
     <use xlink:href="#DejaVuSansMono-Bold-5d" transform="translate(1625.537109 0)"/>
     <use xlink:href="#DejaVuSansMono-Bold-20" transform="translate(1685.742188 0)"/>
     <use xlink:href="#DejaVuSansMono-Bold-2b" transform="translate(1745.947266 0)"/>
     <use xlink:href="#DejaVuSansMono-Bold-20" transform="translate(1806.152344 0)"/>
     <use xlink:href="#DejaVuSansMono-Bold-6e" transform="translate(1866.357422 0)"/>
     <use xlink:href="#DejaVuSansMono-Bold-75" transform="translate(1926.5625 0)"/>
     <use xlink:href="#DejaVuSansMono-Bold-6d" transform="translate(1986.767578 0)"/>
     <use xlink:href="#DejaVuSansMono-Bold-73" transform="translate(2046.972656 0)"/>
     <use xlink:href="#DejaVuSansMono-Bold-5b" transform="translate(2107.177734 0)"/>
     <use xlink:href="#DejaVuSansMono-Bold-69" transform="translate(2167.382812 0)"/>
     <use xlink:href="#DejaVuSansMono-Bold-5d" transform="translate(2227.587891 0)"/>
     <use xlink:href="#DejaVuSansMono-Bold-29" transform="translate(2287.792969 0)"/>
    </g>
   </g>
   <g id="text_16">
    <!-- Kadane：dp[i] 选择「继承」或「重新开始」 -->
    <g style="fill: #2c3e50" transform="translate(130.545312 15.659375) scale(0.1 -0.1)">
     <defs>
      <path id="NotoSansCJKjp-Regular-4b" d="M 646 0 
L 1235 0 
L 1235 1485 
L 2042 2445 
L 3450 0 
L 4109 0 
L 2413 2912 
L 3885 4691 
L 3213 4691 
L 1248 2336 
L 1235 2336 
L 1235 4691 
L 646 4691 
L 646 0 
z
" transform="scale(0.015625)"/>
      <path id="NotoSansCJKjp-Regular-61" d="M 1389 -83 
C 1818 -83 2208 141 2541 416 
L 2560 416 
L 2611 0 
L 3091 0 
L 3091 2138 
C 3091 3002 2739 3565 1888 3565 
C 1325 3565 838 3315 525 3110 
L 749 2707 
C 1024 2893 1389 3078 1792 3078 
C 2362 3078 2509 2650 2509 2202 
C 1030 2035 378 1658 378 902 
C 378 275 806 -83 1389 -83 
z
M 1555 390 
C 1210 390 941 544 941 941 
C 941 1389 1338 1677 2509 1811 
L 2509 845 
C 2170 544 1888 390 1555 390 
z
" transform="scale(0.015625)"/>
      <path id="NotoSansCJKjp-Regular-65" d="M 1997 -83 
C 2464 -83 2835 70 3136 269 
L 2931 659 
C 2669 486 2400 384 2061 384 
C 1402 384 947 858 909 1600 
L 3251 1600 
C 3264 1690 3277 1805 3277 1933 
C 3277 2925 2778 3565 1888 3565 
C 1094 3565 333 2867 333 1734 
C 333 589 1069 -83 1997 -83 
z
M 902 2016 
C 973 2707 1408 3098 1901 3098 
C 2445 3098 2765 2720 2765 2016 
L 902 2016 
z
" transform="scale(0.015625)"/>
      <path id="NotoSansCJKjp-Regular-ff1a" d="M 3200 3482 
C 3456 3482 3686 3667 3686 3962 
C 3686 4256 3456 4442 3200 4442 
C 2944 4442 2714 4256 2714 3962 
C 2714 3667 2944 3482 3200 3482 
z
M 3200 346 
C 3456 346 3686 538 3686 826 
C 3686 1120 3456 1312 3200 1312 
C 2944 1312 2714 1120 2714 826 
C 2714 538 2944 346 3200 346 
z
" transform="scale(0.015625)"/>
      <path id="NotoSansCJKjp-Regular-9009" d="M 390 4896 
C 762 4582 1197 4134 1382 3821 
L 1779 4122 
C 1574 4429 1133 4864 755 5158 
L 390 4896 
z
M 2854 5184 
C 2701 4614 2432 4051 2086 3674 
C 2202 3616 2406 3488 2496 3418 
C 2643 3597 2784 3821 2912 4070 
L 3859 4070 
L 3859 3136 
L 2048 3136 
L 2048 2707 
L 3206 2707 
C 3098 1869 2835 1261 1875 922 
C 1978 832 2118 653 2170 531 
C 3245 954 3565 1690 3686 2707 
L 4346 2707 
L 4346 1222 
C 4346 736 4454 595 4934 595 
C 5030 595 5466 595 5562 595 
C 5965 595 6093 800 6138 1613 
C 6003 1645 5805 1715 5715 1805 
C 5696 1133 5670 1043 5510 1043 
C 5421 1043 5069 1043 5005 1043 
C 4838 1043 4819 1062 4819 1222 
L 4819 2707 
L 6086 2707 
L 6086 3136 
L 4339 3136 
L 4339 4070 
L 5818 4070 
L 5818 4486 
L 4339 4486 
L 4339 5350 
L 3859 5350 
L 3859 4486 
L 3104 4486 
C 3187 4678 3258 4883 3315 5088 
L 2854 5184 
z
M 1606 2918 
L 358 2918 
L 358 2470 
L 1146 2470 
L 1146 531 
C 870 403 576 173 288 -96 
L 608 -512 
C 973 -115 1318 218 1555 218 
C 1696 218 1894 32 2144 -122 
C 2566 -371 3098 -435 3840 -435 
C 4467 -435 5549 -403 6048 -371 
C 6054 -230 6131 6 6182 128 
C 5549 64 4576 19 3846 19 
C 3168 19 2630 58 2234 294 
C 1926 474 1779 627 1606 640 
L 1606 2918 
z
" transform="scale(0.015625)"/>
      <path id="NotoSansCJKjp-Regular-62e9" d="M 1133 5370 
L 1133 4090 
L 294 4090 
L 294 3642 
L 1133 3642 
L 1133 2278 
C 794 2176 480 2086 230 2016 
L 352 1549 
L 1133 1798 
L 1133 77 
C 1133 -6 1101 -32 1024 -38 
C 947 -38 698 -45 422 -32 
C 486 -166 544 -365 563 -486 
C 973 -486 1222 -480 1382 -397 
C 1542 -320 1600 -186 1600 77 
L 1600 1952 
L 2342 2195 
L 2278 2637 
L 1600 2426 
L 1600 3642 
L 2362 3642 
L 2362 4090 
L 1600 4090 
L 1600 5370 
L 1133 5370 
z
M 5146 4602 
C 4915 4269 4602 3974 4237 3718 
C 3904 3974 3622 4269 3405 4602 
L 5146 4602 
z
M 2534 5037 
L 2534 4602 
L 2944 4602 
C 3181 4173 3494 3802 3866 3482 
C 3366 3181 2803 2957 2259 2822 
C 2349 2726 2464 2547 2515 2432 
C 3098 2605 3693 2861 4224 3200 
C 4723 2854 5306 2592 5939 2426 
C 6003 2554 6138 2733 6234 2829 
C 5632 2957 5082 3174 4608 3469 
C 5114 3853 5542 4333 5818 4896 
L 5530 5056 
L 5446 5037 
L 2534 5037 
z
M 3968 2637 
L 3968 2074 
L 2669 2074 
L 2669 1638 
L 3968 1638 
L 3968 979 
L 2342 979 
L 2342 544 
L 3968 544 
L 3968 -525 
L 4448 -525 
L 4448 544 
L 6125 544 
L 6125 979 
L 4448 979 
L 4448 1638 
L 5664 1638 
L 5664 2074 
L 4448 2074 
L 4448 2637 
L 3968 2637 
z
" transform="scale(0.015625)"/>
      <path id="NotoSansCJKjp-Regular-300c" d="M 4160 5414 
L 4160 1274 
L 4634 1274 
L 4634 4973 
L 6182 4973 
L 6182 5414 
L 4160 5414 
z
" transform="scale(0.015625)"/>
      <path id="NotoSansCJKjp-Regular-7ee7" d="M 269 365 
L 358 -83 
C 934 58 1709 250 2445 435 
L 2406 838 
C 1606 653 800 467 269 365 
z
M 5549 4928 
C 5446 4563 5242 4038 5082 3712 
L 5382 3603 
C 5555 3917 5766 4403 5939 4813 
L 5549 4928 
z
M 3392 4832 
C 3539 4442 3712 3936 3782 3603 
L 4128 3712 
C 4051 4032 3872 4531 3718 4922 
L 3392 4832 
z
M 2656 5120 
L 2656 -173 
L 6099 -173 
L 6099 256 
L 3098 256 
L 3098 5120 
L 2656 5120 
z
M 384 2707 
C 480 2752 627 2790 1408 2893 
C 1126 2477 870 2144 755 2016 
C 563 1786 416 1619 282 1594 
C 326 1478 403 1261 429 1165 
C 557 1242 774 1306 2368 1626 
C 2362 1722 2355 1907 2368 2029 
L 1088 1798 
C 1581 2374 2054 3078 2458 3789 
L 2067 4019 
C 1952 3782 1811 3539 1677 3315 
L 858 3226 
C 1222 3782 1581 4499 1843 5178 
L 1389 5382 
C 1158 4608 723 3770 576 3558 
C 448 3334 339 3187 230 3155 
C 288 3034 358 2803 384 2707 
z
M 4442 5325 
L 4442 3334 
L 3277 3334 
L 3277 2918 
L 4307 2918 
C 4051 2336 3654 1722 3283 1376 
C 3354 1267 3456 1094 3494 979 
C 3840 1312 4186 1875 4442 2451 
L 4442 499 
L 4851 499 
L 4851 2451 
C 5158 2042 5568 1466 5722 1184 
L 6022 1517 
C 5856 1741 5152 2611 4870 2918 
L 6048 2918 
L 6048 3334 
L 4851 3334 
L 4851 5325 
L 4442 5325 
z
" transform="scale(0.015625)"/>
      <path id="NotoSansCJKjp-Regular-627f" d="M 1638 1126 
L 1638 717 
L 2925 717 
L 2925 70 
C 2925 -38 2893 -70 2771 -77 
C 2650 -77 2234 -83 1786 -70 
C 1862 -198 1939 -397 1971 -531 
C 2528 -531 2893 -518 3117 -448 
C 3328 -371 3405 -237 3405 70 
L 3405 717 
L 4762 717 
L 4762 1126 
L 3405 1126 
L 3405 1773 
L 4397 1773 
L 4397 2176 
L 3405 2176 
L 3405 2797 
L 4288 2797 
L 4288 3187 
L 3405 3187 
L 3405 3571 
C 4064 3872 4768 4333 5235 4806 
L 4902 5043 
L 4800 5018 
L 1165 5018 
L 1165 4576 
L 4294 4576 
C 4006 4352 3642 4122 3277 3949 
L 2925 3949 
L 2925 3187 
L 2131 3187 
L 2131 2797 
L 2925 2797 
L 2925 2176 
L 1997 2176 
L 1997 1773 
L 2925 1773 
L 2925 1126 
L 1638 1126 
z
M 378 3635 
L 378 3194 
L 1581 3194 
C 1344 1946 832 941 173 378 
C 288 307 461 134 544 26 
C 1280 691 1869 1926 2118 3539 
L 1818 3654 
L 1728 3635 
L 378 3635 
z
M 4710 3840 
L 4275 3763 
C 4525 2144 4986 762 5862 26 
C 5939 160 6106 339 6227 429 
C 5702 819 5325 1485 5062 2285 
C 5402 2592 5798 3014 6112 3379 
L 5728 3686 
C 5530 3398 5222 3027 4934 2733 
C 4838 3085 4768 3456 4710 3840 
z
" transform="scale(0.015625)"/>
      <path id="NotoSansCJKjp-Regular-300d" d="M 2240 -550 
L 2240 3590 
L 1766 3590 
L 1766 -109 
L 218 -109 
L 218 -550 
L 2240 -550 
z
" transform="scale(0.015625)"/>
      <path id="NotoSansCJKjp-Regular-6216" d="M 4429 5062 
C 4819 4870 5293 4576 5523 4358 
L 5818 4691 
C 5581 4909 5101 5190 4710 5357 
L 4429 5062 
z
M 397 422 
L 493 -70 
C 1235 90 2285 320 3270 538 
L 3232 992 
C 2189 774 1094 550 397 422 
z
M 1248 2893 
L 2554 2893 
L 2554 1779 
L 1248 1779 
L 1248 2893 
z
M 800 3315 
L 800 1363 
L 3021 1363 
L 3021 3315 
L 800 3315 
z
M 435 4352 
L 435 3878 
L 3590 3878 
C 3667 2835 3814 1875 4045 1120 
C 3616 602 3098 179 2502 -141 
C 2611 -230 2797 -416 2874 -512 
C 3379 -211 3834 160 4230 602 
C 4518 -96 4902 -518 5395 -518 
C 5888 -518 6067 -198 6157 902 
C 6022 954 5843 1062 5734 1178 
C 5696 320 5619 -19 5440 -19 
C 5120 -19 4832 378 4602 1050 
C 5075 1683 5459 2438 5741 3302 
L 5261 3418 
C 5056 2752 4774 2157 4429 1632 
C 4269 2259 4154 3027 4096 3878 
L 5990 3878 
L 5990 4352 
L 4064 4352 
C 4051 4678 4045 5018 4045 5363 
L 3533 5363 
C 3533 5024 3546 4685 3565 4352 
L 435 4352 
z
" transform="scale(0.015625)"/>
     </defs>
     <use xlink:href="#NotoSansCJKjp-Regular-4b"/>
     <use xlink:href="#NotoSansCJKjp-Regular-61" transform="translate(64.599991 0)"/>
     <use xlink:href="#NotoSansCJKjp-Regular-64" transform="translate(120.899979 0)"/>
     <use xlink:href="#NotoSansCJKjp-Regular-61" transform="translate(182.899963 0)"/>
     <use xlink:href="#NotoSansCJKjp-Regular-6e" transform="translate(239.199951 0)"/>
     <use xlink:href="#NotoSansCJKjp-Regular-65" transform="translate(300.199936 0)"/>
     <use xlink:href="#NotoSansCJKjp-Regular-ff1a" transform="translate(355.59993 0)"/>
     <use xlink:href="#NotoSansCJKjp-Regular-64" transform="translate(455.599915 0)"/>
     <use xlink:href="#NotoSansCJKjp-Regular-70" transform="translate(517.599899 0)"/>
     <use xlink:href="#NotoSansCJKjp-Regular-5b" transform="translate(579.599884 0)"/>
     <use xlink:href="#NotoSansCJKjp-Regular-69" transform="translate(613.399872 0)"/>
     <use xlink:href="#NotoSansCJKjp-Regular-5d" transform="translate(640.899857 0)"/>
     <use xlink:href="#NotoSansCJKjp-Regular-20" transform="translate(674.699844 0)"/>
     <use xlink:href="#NotoSansCJKjp-Regular-9009" transform="translate(697.099838 0)"/>
     <use xlink:href="#NotoSansCJKjp-Regular-62e9" transform="translate(797.099823 0)"/>
     <use xlink:href="#NotoSansCJKjp-Regular-300c" transform="translate(897.099808 0)"/>
     <use xlink:href="#NotoSansCJKjp-Regular-7ee7" transform="translate(997.099792 0)"/>
     <use xlink:href="#NotoSansCJKjp-Regular-627f" transform="translate(1097.099777 0)"/>
     <use xlink:href="#NotoSansCJKjp-Regular-300d" transform="translate(1197.099762 0)"/>
     <use xlink:href="#NotoSansCJKjp-Regular-6216" transform="translate(1297.099747 0)"/>
     <use xlink:href="#NotoSansCJKjp-Regular-300c" transform="translate(1397.099731 0)"/>
     <use xlink:href="#NotoSansCJKjp-Regular-91cd" transform="translate(1497.099716 0)"/>
     <use xlink:href="#NotoSansCJKjp-Regular-65b0" transform="translate(1597.099701 0)"/>
     <use xlink:href="#NotoSansCJKjp-Regular-5f00" transform="translate(1697.099686 0)"/>
     <use xlink:href="#NotoSansCJKjp-Regular-59cb" transform="translate(1797.09967 0)"/>
     <use xlink:href="#NotoSansCJKjp-Regular-300d" transform="translate(1897.099655 0)"/>
    </g>
   </g>
  </g>
 </g>
 <defs>
  <clipPath id="p0e9af11ff3">
   <rect x="7.2" y="30.659375" width="446.4" height="249.48"/>
  </clipPath>
 </defs>
</svg>
