<svg xmlns="http://www.w3.org/2000/svg" viewBox="0 0 720 540" font-family="'Comic Sans MS', 'Segoe UI', 'Kaiti SC', 楷体, cursive">
  <defs>
    <filter id="rough2">
      <feTurbulence type="fractalNoise" baseFrequency="0.025" numOctaves="2" seed="7"/>
      <feDisplacementMap in="SourceGraphic" scale="1.5"/>
    </filter>
    <marker id="arr" markerWidth="8" markerHeight="8" refX="6" refY="4" orient="auto">
      <path d="M 0 0 L 8 4 L 0 8 z" fill="#666"/>
    </marker>
  </defs>

  <rect width="720" height="540" fill="#fafafa"/>

  <text x="360" y="26" text-anchor="middle" font-size="15" fill="#444" font-weight="bold">Thread Tile 映射：BM×BN 切分为 (BM/TM)×(BN/TN) 个线程格</text>
  <text x="360" y="44" text-anchor="middle" font-size="11" fill="#888">block tile 128×128，每 thread 负责 8×8 输出 → 16×16 = 256 个 thread</text>

  <!-- ===== Left: block tile grid 8x8 (simplified) ===== -->
  <text x="20" y="72" font-size="12" fill="#446688" font-weight="bold">block tile：BM×BN = 128×128</text>
  <text x="20" y="88" font-size="10" fill="#888">切为 16×16 = 256 个 thread tile（图中 8×8 概览）</text>

  <!-- 8x8 grid, each 30x30, starts at (20, 100), total 240x240 -->
  <g font-size="8" fill="#888">
    <rect x="20" y="100" width="240" height="240" fill="none" stroke="#446688" stroke-width="1.5" rx="3" filter="url(#rough2)"/>
    <!-- Row 0 -->
    <rect x="20"  y="100" width="30" height="30" fill="#e8f0fe" stroke="#446688" stroke-width="0.6" rx="2" filter="url(#rough2)"/>
    <rect x="50"  y="100" width="30" height="30" fill="#e6f4ea" stroke="#4a7a3a" stroke-width="0.6" rx="2" filter="url(#rough2)"/>
    <rect x="80"  y="100" width="30" height="30" fill="#fff8e1" stroke="#d6a040" stroke-width="0.6" rx="2" filter="url(#rough2)"/>
    <rect x="110" y="100" width="30" height="30" fill="#fce4ec" stroke="#b85450" stroke-width="0.6" rx="2" filter="url(#rough2)"/>
    <rect x="140" y="100" width="30" height="30" fill="#e8f0fe" stroke="#446688" stroke-width="0.6" rx="2" filter="url(#rough2)"/>
    <rect x="170" y="100" width="30" height="30" fill="#e6f4ea" stroke="#4a7a3a" stroke-width="0.6" rx="2" filter="url(#rough2)"/>
    <rect x="200" y="100" width="30" height="30" fill="#fff8e1" stroke="#d6a040" stroke-width="0.6" rx="2" filter="url(#rough2)"/>
    <rect x="230" y="100" width="30" height="30" fill="#fce4ec" stroke="#b85450" stroke-width="0.6" rx="2" filter="url(#rough2)"/>
    <!-- Row 1 -->
    <rect x="20"  y="130" width="30" height="30" fill="#e6f4ea" stroke="#4a7a3a" stroke-width="0.6" rx="2" filter="url(#rough2)"/>
    <rect x="50"  y="130" width="30" height="30" fill="#fff8e1" stroke="#d6a040" stroke-width="0.6" rx="2" filter="url(#rough2)"/>
    <rect x="80"  y="130" width="30" height="30" fill="#fce4ec" stroke="#b85450" stroke-width="0.6" rx="2" filter="url(#rough2)"/>
    <rect x="110" y="130" width="30" height="30" fill="#e8f0fe" stroke="#446688" stroke-width="0.6" rx="2" filter="url(#rough2)"/>
    <rect x="140" y="130" width="30" height="30" fill="#e6f4ea" stroke="#4a7a3a" stroke-width="0.6" rx="2" filter="url(#rough2)"/>
    <rect x="170" y="130" width="30" height="30" fill="#fff8e1" stroke="#d6a040" stroke-width="0.6" rx="2" filter="url(#rough2)"/>
    <rect x="200" y="130" width="30" height="30" fill="#fce4ec" stroke="#b85450" stroke-width="0.6" rx="2" filter="url(#rough2)"/>
    <rect x="230" y="130" width="30" height="30" fill="#e8f0fe" stroke="#446688" stroke-width="0.6" rx="2" filter="url(#rough2)"/>
    <!-- Row 2 -->
    <rect x="20"  y="160" width="30" height="30" fill="#fff8e1" stroke="#d6a040" stroke-width="0.6" rx="2" filter="url(#rough2)"/>
    <rect x="50"  y="160" width="30" height="30" fill="#fce4ec" stroke="#b85450" stroke-width="0.6" rx="2" filter="url(#rough2)"/>
    <rect x="80"  y="160" width="30" height="30" fill="#e8f0fe" stroke="#446688" stroke-width="0.6" rx="2" filter="url(#rough2)"/>
    <rect x="110" y="160" width="30" height="30" fill="#e6f4ea" stroke="#4a7a3a" stroke-width="0.6" rx="2" filter="url(#rough2)"/>
    <rect x="140" y="160" width="30" height="30" fill="#fff8e1" stroke="#d6a040" stroke-width="0.6" rx="2" filter="url(#rough2)"/>
    <rect x="170" y="160" width="30" height="30" fill="#fce4ec" stroke="#b85450" stroke-width="0.6" rx="2" filter="url(#rough2)"/>
    <rect x="200" y="160" width="30" height="30" fill="#e8f0fe" stroke="#446688" stroke-width="0.6" rx="2" filter="url(#rough2)"/>
    <rect x="230" y="160" width="30" height="30" fill="#e6f4ea" stroke="#4a7a3a" stroke-width="0.6" rx="2" filter="url(#rough2)"/>
    <!-- Row 3 -->
    <rect x="20"  y="190" width="30" height="30" fill="#fce4ec" stroke="#b85450" stroke-width="0.6" rx="2" filter="url(#rough2)"/>
    <rect x="50"  y="190" width="30" height="30" fill="#e8f0fe" stroke="#446688" stroke-width="0.6" rx="2" filter="url(#rough2)"/>
    <rect x="80"  y="190" width="30" height="30" fill="#e6f4ea" stroke="#4a7a3a" stroke-width="0.6" rx="2" filter="url(#rough2)"/>
    <rect x="110" y="190" width="30" height="30" fill="#fff8e1" stroke="#d6a040" stroke-width="0.6" rx="2" filter="url(#rough2)"/>
    <rect x="140" y="190" width="30" height="30" fill="#fce4ec" stroke="#b85450" stroke-width="0.6" rx="2" filter="url(#rough2)"/>
    <rect x="170" y="190" width="30" height="30" fill="#e8f0fe" stroke="#446688" stroke-width="0.6" rx="2" filter="url(#rough2)"/>
    <rect x="200" y="190" width="30" height="30" fill="#e6f4ea" stroke="#4a7a3a" stroke-width="0.6" rx="2" filter="url(#rough2)"/>
    <rect x="230" y="190" width="30" height="30" fill="#fff8e1" stroke="#d6a040" stroke-width="0.6" rx="2" filter="url(#rough2)"/>
    <!-- Rows 4-7 (lighter) -->
    <g opacity="0.55">
      <rect x="20"  y="220" width="30" height="30" fill="#e8f0fe" stroke="#446688" stroke-width="0.6" rx="2" filter="url(#rough2)"/>
      <rect x="50"  y="220" width="30" height="30" fill="#e6f4ea" stroke="#4a7a3a" stroke-width="0.6" rx="2" filter="url(#rough2)"/>
      <rect x="80"  y="220" width="30" height="30" fill="#fff8e1" stroke="#d6a040" stroke-width="0.6" rx="2" filter="url(#rough2)"/>
      <rect x="110" y="220" width="30" height="30" fill="#fce4ec" stroke="#b85450" stroke-width="0.6" rx="2" filter="url(#rough2)"/>
      <rect x="140" y="220" width="30" height="30" fill="#e8f0fe" stroke="#446688" stroke-width="0.6" rx="2" filter="url(#rough2)"/>
      <rect x="170" y="220" width="30" height="30" fill="#e6f4ea" stroke="#4a7a3a" stroke-width="0.6" rx="2" filter="url(#rough2)"/>
      <rect x="200" y="220" width="30" height="30" fill="#fff8e1" stroke="#d6a040" stroke-width="0.6" rx="2" filter="url(#rough2)"/>
      <rect x="230" y="220" width="30" height="30" fill="#fce4ec" stroke="#b85450" stroke-width="0.6" rx="2" filter="url(#rough2)"/>

      <rect x="20"  y="250" width="30" height="30" fill="#e6f4ea" stroke="#4a7a3a" stroke-width="0.6" rx="2" filter="url(#rough2)"/>
      <rect x="50"  y="250" width="30" height="30" fill="#fff8e1" stroke="#d6a040" stroke-width="0.6" rx="2" filter="url(#rough2)"/>
      <rect x="80"  y="250" width="30" height="30" fill="#fce4ec" stroke="#b85450" stroke-width="0.6" rx="2" filter="url(#rough2)"/>
      <rect x="110" y="250" width="30" height="30" fill="#e8f0fe" stroke="#446688" stroke-width="0.6" rx="2" filter="url(#rough2)"/>
      <rect x="140" y="250" width="30" height="30" fill="#e6f4ea" stroke="#4a7a3a" stroke-width="0.6" rx="2" filter="url(#rough2)"/>
      <rect x="170" y="250" width="30" height="30" fill="#fff8e1" stroke="#d6a040" stroke-width="0.6" rx="2" filter="url(#rough2)"/>
      <rect x="200" y="250" width="30" height="30" fill="#fce4ec" stroke="#b85450" stroke-width="0.6" rx="2" filter="url(#rough2)"/>
      <rect x="230" y="250" width="30" height="30" fill="#e8f0fe" stroke="#446688" stroke-width="0.6" rx="2" filter="url(#rough2)"/>

      <rect x="20"  y="280" width="30" height="30" fill="#fff8e1" stroke="#d6a040" stroke-width="0.6" rx="2" filter="url(#rough2)"/>
      <rect x="50"  y="280" width="30" height="30" fill="#fce4ec" stroke="#b85450" stroke-width="0.6" rx="2" filter="url(#rough2)"/>
      <rect x="80"  y="280" width="30" height="30" fill="#e8f0fe" stroke="#446688" stroke-width="0.6" rx="2" filter="url(#rough2)"/>
      <rect x="110" y="280" width="30" height="30" fill="#e6f4ea" stroke="#4a7a3a" stroke-width="0.6" rx="2" filter="url(#rough2)"/>
      <rect x="140" y="280" width="30" height="30" fill="#fff8e1" stroke="#d6a040" stroke-width="0.6" rx="2" filter="url(#rough2)"/>
      <rect x="170" y="280" width="30" height="30" fill="#fce4ec" stroke="#b85450" stroke-width="0.6" rx="2" filter="url(#rough2)"/>
      <rect x="200" y="280" width="30" height="30" fill="#e8f0fe" stroke="#446688" stroke-width="0.6" rx="2" filter="url(#rough2)"/>
      <rect x="230" y="280" width="30" height="30" fill="#e6f4ea" stroke="#4a7a3a" stroke-width="0.6" rx="2" filter="url(#rough2)"/>

      <rect x="20"  y="310" width="30" height="30" fill="#fce4ec" stroke="#b85450" stroke-width="0.6" rx="2" filter="url(#rough2)"/>
      <rect x="50"  y="310" width="30" height="30" fill="#e8f0fe" stroke="#446688" stroke-width="0.6" rx="2" filter="url(#rough2)"/>
      <rect x="80"  y="310" width="30" height="30" fill="#e6f4ea" stroke="#4a7a3a" stroke-width="0.6" rx="2" filter="url(#rough2)"/>
      <rect x="110" y="310" width="30" height="30" fill="#fff8e1" stroke="#d6a040" stroke-width="0.6" rx="2" filter="url(#rough2)"/>
      <rect x="140" y="310" width="30" height="30" fill="#fce4ec" stroke="#b85450" stroke-width="0.6" rx="2" filter="url(#rough2)"/>
      <rect x="170" y="310" width="30" height="30" fill="#e8f0fe" stroke="#446688" stroke-width="0.6" rx="2" filter="url(#rough2)"/>
      <rect x="200" y="310" width="30" height="30" fill="#e6f4ea" stroke="#4a7a3a" stroke-width="0.6" rx="2" filter="url(#rough2)"/>
      <rect x="230" y="310" width="30" height="30" fill="#fff8e1" stroke="#d6a040" stroke-width="0.6" rx="2" filter="url(#rough2)"/>
    </g>

    <!-- highlight one thread tile (top-left) -->
    <rect x="20" y="100" width="30" height="30" fill="none" stroke="#b85450" stroke-width="2.5" rx="2" filter="url(#rough2)"/>
    <text x="35" y="120" text-anchor="middle" font-size="8" fill="#b85450" font-weight="bold">T0</text>
  </g>
  <text x="140" y="356" text-anchor="middle" font-size="9" fill="#888">（图为 8×8 概览，实际 16×16 = 256 个 thread tile）</text>

  <!-- ===== Right: zoomed thread tile ===== -->
  <text x="310" y="72" font-size="12" fill="#b85450" font-weight="bold">单个 thread 的 TM×TN = 8×8 输出</text>
  <text x="310" y="88" font-size="10" fill="#888">累加器 acc[8][8] 驻留寄存器，K 维循环累加</text>

  <!-- rB label above grid -->
  <text x="430" y="104" text-anchor="middle" font-size="9" fill="#4a7a3a" font-weight="bold">← TN=8 →  rB[0..7]</text>

  <!-- rA label left of grid (rotated) -->
  <text x="304" y="230" text-anchor="middle" font-size="9" fill="#446688" font-weight="bold" transform="rotate(-90 304 230)">TM=8  rA[0..7]</text>

  <g font-size="8" fill="#333">
    <rect x="310" y="110" width="240" height="240" fill="none" stroke="#b85450" stroke-width="1.5" rx="3" filter="url(#rough2)"/>
    <!-- 8x8 grid of acc cells, each 30x30 -->
    <!-- Row 0 -->
    <rect x="310" y="110" width="30" height="30" fill="#fce4ec" stroke="#b85450" stroke-width="0.5" filter="url(#rough2)"/>
    <rect x="340" y="110" width="30" height="30" fill="#fce4ec" stroke="#b85450" stroke-width="0.5" filter="url(#rough2)"/>
    <rect x="370" y="110" width="30" height="30" fill="#fce4ec" stroke="#b85450" stroke-width="0.5" filter="url(#rough2)"/>
    <rect x="400" y="110" width="30" height="30" fill="#fce4ec" stroke="#b85450" stroke-width="0.5" filter="url(#rough2)"/>
    <rect x="430" y="110" width="30" height="30" fill="#fce4ec" stroke="#b85450" stroke-width="0.5" filter="url(#rough2)"/>
    <rect x="460" y="110" width="30" height="30" fill="#fce4ec" stroke="#b85450" stroke-width="0.5" filter="url(#rough2)"/>
    <rect x="490" y="110" width="30" height="30" fill="#fce4ec" stroke="#b85450" stroke-width="0.5" filter="url(#rough2)"/>
    <rect x="520" y="110" width="30" height="30" fill="#fce4ec" stroke="#b85450" stroke-width="0.5" filter="url(#rough2)"/>
    <!-- Row 1 -->
    <rect x="310" y="140" width="30" height="30" fill="#fce4ec" stroke="#b85450" stroke-width="0.5" filter="url(#rough2)"/>
    <rect x="340" y="140" width="30" height="30" fill="#fce4ec" stroke="#b85450" stroke-width="0.5" filter="url(#rough2)"/>
    <rect x="370" y="140" width="30" height="30" fill="#fce4ec" stroke="#b85450" stroke-width="0.5" filter="url(#rough2)"/>
    <rect x="400" y="140" width="30" height="30" fill="#fce4ec" stroke="#b85450" stroke-width="0.5" filter="url(#rough2)"/>
    <rect x="430" y="140" width="30" height="30" fill="#fce4ec" stroke="#b85450" stroke-width="0.5" filter="url(#rough2)"/>
    <rect x="460" y="140" width="30" height="30" fill="#fce4ec" stroke="#b85450" stroke-width="0.5" filter="url(#rough2)"/>
    <rect x="490" y="140" width="30" height="30" fill="#fce4ec" stroke="#b85450" stroke-width="0.5" filter="url(#rough2)"/>
    <rect x="520" y="140" width="30" height="30" fill="#fce4ec" stroke="#b85450" stroke-width="0.5" filter="url(#rough2)"/>
    <!-- Row 2 -->
    <rect x="310" y="170" width="30" height="30" fill="#fce4ec" stroke="#b85450" stroke-width="0.5" filter="url(#rough2)"/>
    <rect x="340" y="170" width="30" height="30" fill="#fce4ec" stroke="#b85450" stroke-width="0.5" filter="url(#rough2)"/>
    <rect x="370" y="170" width="30" height="30" fill="#fce4ec" stroke="#b85450" stroke-width="0.5" filter="url(#rough2)"/>
    <rect x="400" y="170" width="30" height="30" fill="#fce4ec" stroke="#b85450" stroke-width="0.5" filter="url(#rough2)"/>
    <rect x="430" y="170" width="30" height="30" fill="#fce4ec" stroke="#b85450" stroke-width="0.5" filter="url(#rough2)"/>
    <rect x="460" y="170" width="30" height="30" fill="#fce4ec" stroke="#b85450" stroke-width="0.5" filter="url(#rough2)"/>
    <rect x="490" y="170" width="30" height="30" fill="#fce4ec" stroke="#b85450" stroke-width="0.5" filter="url(#rough2)"/>
    <rect x="520" y="170" width="30" height="30" fill="#fce4ec" stroke="#b85450" stroke-width="0.5" filter="url(#rough2)"/>
    <!-- Row 3 -->
    <rect x="310" y="200" width="30" height="30" fill="#fce4ec" stroke="#b85450" stroke-width="0.5" filter="url(#rough2)"/>
    <rect x="340" y="200" width="30" height="30" fill="#fce4ec" stroke="#b85450" stroke-width="0.5" filter="url(#rough2)"/>
    <rect x="370" y="200" width="30" height="30" fill="#fce4ec" stroke="#b85450" stroke-width="0.5" filter="url(#rough2)"/>
    <rect x="400" y="200" width="30" height="30" fill="#fce4ec" stroke="#b85450" stroke-width="0.5" filter="url(#rough2)"/>
    <rect x="430" y="200" width="30" height="30" fill="#fce4ec" stroke="#b85450" stroke-width="0.5" filter="url(#rough2)"/>
    <rect x="460" y="200" width="30" height="30" fill="#fce4ec" stroke="#b85450" stroke-width="0.5" filter="url(#rough2)"/>
    <rect x="490" y="200" width="30" height="30" fill="#fce4ec" stroke="#b85450" stroke-width="0.5" filter="url(#rough2)"/>
    <rect x="520" y="200" width="30" height="30" fill="#fce4ec" stroke="#b85450" stroke-width="0.5" filter="url(#rough2)"/>
    <!-- Row 4 -->
    <rect x="310" y="230" width="30" height="30" fill="#fce4ec" stroke="#b85450" stroke-width="0.5" filter="url(#rough2)"/>
    <rect x="340" y="230" width="30" height="30" fill="#fce4ec" stroke="#b85450" stroke-width="0.5" filter="url(#rough2)"/>
    <rect x="370" y="230" width="30" height="30" fill="#fce4ec" stroke="#b85450" stroke-width="0.5" filter="url(#rough2)"/>
    <rect x="400" y="230" width="30" height="30" fill="#fce4ec" stroke="#b85450" stroke-width="0.5" filter="url(#rough2)"/>
    <rect x="430" y="230" width="30" height="30" fill="#fce4ec" stroke="#b85450" stroke-width="0.5" filter="url(#rough2)"/>
    <rect x="460" y="230" width="30" height="30" fill="#fce4ec" stroke="#b85450" stroke-width="0.5" filter="url(#rough2)"/>
    <rect x="490" y="230" width="30" height="30" fill="#fce4ec" stroke="#b85450" stroke-width="0.5" filter="url(#rough2)"/>
    <rect x="520" y="230" width="30" height="30" fill="#fce4ec" stroke="#b85450" stroke-width="0.5" filter="url(#rough2)"/>
    <!-- Row 5 -->
    <rect x="310" y="260" width="30" height="30" fill="#fce4ec" stroke="#b85450" stroke-width="0.5" filter="url(#rough2)"/>
    <rect x="340" y="260" width="30" height="30" fill="#fce4ec" stroke="#b85450" stroke-width="0.5" filter="url(#rough2)"/>
    <rect x="370" y="260" width="30" height="30" fill="#fce4ec" stroke="#b85450" stroke-width="0.5" filter="url(#rough2)"/>
    <rect x="400" y="260" width="30" height="30" fill="#fce4ec" stroke="#b85450" stroke-width="0.5" filter="url(#rough2)"/>
    <rect x="430" y="260" width="30" height="30" fill="#fce4ec" stroke="#b85450" stroke-width="0.5" filter="url(#rough2)"/>
    <rect x="460" y="260" width="30" height="30" fill="#fce4ec" stroke="#b85450" stroke-width="0.5" filter="url(#rough2)"/>
    <rect x="490" y="260" width="30" height="30" fill="#fce4ec" stroke="#b85450" stroke-width="0.5" filter="url(#rough2)"/>
    <rect x="520" y="260" width="30" height="30" fill="#fce4ec" stroke="#b85450" stroke-width="0.5" filter="url(#rough2)"/>
    <!-- Row 6 -->
    <rect x="310" y="290" width="30" height="30" fill="#fce4ec" stroke="#b85450" stroke-width="0.5" filter="url(#rough2)"/>
    <rect x="340" y="290" width="30" height="30" fill="#fce4ec" stroke="#b85450" stroke-width="0.5" filter="url(#rough2)"/>
    <rect x="370" y="290" width="30" height="30" fill="#fce4ec" stroke="#b85450" stroke-width="0.5" filter="url(#rough2)"/>
    <rect x="400" y="290" width="30" height="30" fill="#fce4ec" stroke="#b85450" stroke-width="0.5" filter="url(#rough2)"/>
    <rect x="430" y="290" width="30" height="30" fill="#fce4ec" stroke="#b85450" stroke-width="0.5" filter="url(#rough2)"/>
    <rect x="460" y="290" width="30" height="30" fill="#fce4ec" stroke="#b85450" stroke-width="0.5" filter="url(#rough2)"/>
    <rect x="490" y="290" width="30" height="30" fill="#fce4ec" stroke="#b85450" stroke-width="0.5" filter="url(#rough2)"/>
    <rect x="520" y="290" width="30" height="30" fill="#fce4ec" stroke="#b85450" stroke-width="0.5" filter="url(#rough2)"/>
    <!-- Row 7 -->
    <rect x="310" y="320" width="30" height="30" fill="#fce4ec" stroke="#b85450" stroke-width="0.5" filter="url(#rough2)"/>
    <rect x="340" y="320" width="30" height="30" fill="#fce4ec" stroke="#b85450" stroke-width="0.5" filter="url(#rough2)"/>
    <rect x="370" y="320" width="30" height="30" fill="#fce4ec" stroke="#b85450" stroke-width="0.5" filter="url(#rough2)"/>
    <rect x="400" y="320" width="30" height="30" fill="#fce4ec" stroke="#b85450" stroke-width="0.5" filter="url(#rough2)"/>
    <rect x="430" y="320" width="30" height="30" fill="#fce4ec" stroke="#b85450" stroke-width="0.5" filter="url(#rough2)"/>
    <rect x="460" y="320" width="30" height="30" fill="#fce4ec" stroke="#b85450" stroke-width="0.5" filter="url(#rough2)"/>
    <rect x="490" y="320" width="30" height="30" fill="#fce4ec" stroke="#b85450" stroke-width="0.5" filter="url(#rough2)"/>
    <rect x="520" y="320" width="30" height="30" fill="#fce4ec" stroke="#b85450" stroke-width="0.5" filter="url(#rough2)"/>
  </g>

  <!-- mapping formula box -->
  <rect x="310" y="364" width="240" height="60" fill="#f6f6f6" stroke="#ccc" stroke-width="1" rx="6" filter="url(#rough2)"/>
  <text x="322" y="384" font-family="monospace" font-size="10" fill="#333">threadRow = tid / (BN/TN)  // 0..15</text>
  <text x="322" y="400" font-family="monospace" font-size="10" fill="#333">threadCol = tid % (BN/TN)  // 0..15</text>
  <text x="322" y="416" font-size="9" fill="#888">→ tid = threadRow × 16 + threadCol</text>

  <!-- bottom summary -->
  <rect x="20" y="442" width="680" height="84" fill="#fff8e1" stroke="#d6a040" stroke-width="1.3" rx="8" filter="url(#rough2)"/>
  <text x="36" y="464" font-size="12" fill="#444" font-weight="bold">为什么 register blocking 有效：</text>
  <text x="36" y="484" font-size="10" fill="#555">① 每 thread 读 1 次 rA[m] 可给 TN=8 个 acc 乘加 → A 的复用 ×8</text>
  <text x="36" y="500" font-size="10" fill="#555">② 每 thread 读 1 次 rB[n] 可给 TM=8 个 acc 乘加 → B 的复用 ×8</text>
  <text x="36" y="516" font-size="10" fill="#555">③ 256 thread × 64 输出 = 16384 输出 = 128×128 block tile，线程数减少 64×</text>
</svg>
