<svg xmlns="http://www.w3.org/2000/svg" viewBox="0 0 640 520" font-family="'Comic Sans MS', 'Segoe UI', 'Kaiti SC', 楷体, cursive">
  <defs>
    <filter id="rough2">
      <feTurbulence type="fractalNoise" baseFrequency="0.025" numOctaves="2" seed="7"/>
      <feDisplacementMap in="SourceGraphic" scale="1.5"/>
    </filter>
    <marker id="arr" markerWidth="8" markerHeight="8" refX="6" refY="4" orient="auto">
      <path d="M 0 0 L 8 4 L 0 8 z" fill="#666"/>
    </marker>
  </defs>

  <rect width="640" height="520" fill="#fafafa"/>

  <text x="320" y="26" text-anchor="middle" font-size="15" fill="#444" font-weight="bold">Thread Tile 映射：BM×BN 切分为 (BM/TM)×(BN/TN) 个线程格</text>
  <text x="320" y="44" text-anchor="middle" font-size="11" fill="#888">block tile 128×128，每 thread 负责 8×8 输出 → 16×16 = 256 个 thread</text>

  <!-- ===== Left: block tile grid 4x4 (simplified, actually 16x16) ===== -->
  <text x="30" y="74" font-size="12" fill="#446688" font-weight="bold">block tile：BM×BN = 128×128</text>
  <text x="30" y="90" font-size="10" fill="#888">切为 16×16 = 256 个 thread tile（每格 8×8 输出）</text>

  <!-- draw 8x8 simplified grid (instead of 16x16 for readability, with note) -->
  <g font-size="8" fill="#888">
    <rect x="30" y="100" width="280" height="280" fill="none" stroke="#446688" stroke-width="1.5" rx="3" filter="url(#rough2)"/>
    <!-- 8x8 cells, each 35x35 -->
    <!-- Row 0 -->
    <g>
      <rect x="30"  y="100" width="35" height="35" fill="#e8f0fe" stroke="#446688" stroke-width="0.6" rx="2" filter="url(#rough2)"/>
      <rect x="65"  y="100" width="35" height="35" fill="#e6f4ea" stroke="#4a7a3a" stroke-width="0.6" rx="2" filter="url(#rough2)"/>
      <rect x="100" y="100" width="35" height="35" fill="#fff8e1" stroke="#d6a040" stroke-width="0.6" rx="2" filter="url(#rough2)"/>
      <rect x="135" y="100" width="35" height="35" fill="#fce4ec" stroke="#b85450" stroke-width="0.6" rx="2" filter="url(#rough2)"/>
      <rect x="170" y="100" width="35" height="35" fill="#e8f0fe" stroke="#446688" stroke-width="0.6" rx="2" filter="url(#rough2)"/>
      <rect x="205" y="100" width="35" height="35" fill="#e6f4ea" stroke="#4a7a3a" stroke-width="0.6" rx="2" filter="url(#rough2)"/>
      <rect x="240" y="100" width="35" height="35" fill="#fff8e1" stroke="#d6a040" stroke-width="0.6" rx="2" filter="url(#rough2)"/>
      <rect x="275" y="100" width="35" height="35" fill="#fce4ec" stroke="#b85450" stroke-width="0.6" rx="2" filter="url(#rough2)"/>
    </g>
    <!-- Row 1 -->
    <g>
      <rect x="30"  y="135" width="35" height="35" fill="#e6f4ea" stroke="#4a7a3a" stroke-width="0.6" rx="2" filter="url(#rough2)"/>
      <rect x="65"  y="135" width="35" height="35" fill="#fff8e1" stroke="#d6a040" stroke-width="0.6" rx="2" filter="url(#rough2)"/>
      <rect x="100" y="135" width="35" height="35" fill="#fce4ec" stroke="#b85450" stroke-width="0.6" rx="2" filter="url(#rough2)"/>
      <rect x="135" y="135" width="35" height="35" fill="#e8f0fe" stroke="#446688" stroke-width="0.6" rx="2" filter="url(#rough2)"/>
      <rect x="170" y="135" width="35" height="35" fill="#e6f4ea" stroke="#4a7a3a" stroke-width="0.6" rx="2" filter="url(#rough2)"/>
      <rect x="205" y="135" width="35" height="35" fill="#fff8e1" stroke="#d6a040" stroke-width="0.6" rx="2" filter="url(#rough2)"/>
      <rect x="240" y="135" width="35" height="35" fill="#fce4ec" stroke="#b85450" stroke-width="0.6" rx="2" filter="url(#rough2)"/>
      <rect x="275" y="135" width="35" height="35" fill="#e8f0fe" stroke="#446688" stroke-width="0.6" rx="2" filter="url(#rough2)"/>
    </g>
    <!-- Row 2 -->
    <g>
      <rect x="30"  y="170" width="35" height="35" fill="#fff8e1" stroke="#d6a040" stroke-width="0.6" rx="2" filter="url(#rough2)"/>
      <rect x="65"  y="170" width="35" height="35" fill="#fce4ec" stroke="#b85450" stroke-width="0.6" rx="2" filter="url(#rough2)"/>
      <rect x="100" y="170" width="35" height="35" fill="#e8f0fe" stroke="#446688" stroke-width="0.6" rx="2" filter="url(#rough2)"/>
      <rect x="135" y="170" width="35" height="35" fill="#e6f4ea" stroke="#4a7a3a" stroke-width="0.6" rx="2" filter="url(#rough2)"/>
      <rect x="170" y="170" width="35" height="35" fill="#fff8e1" stroke="#d6a040" stroke-width="0.6" rx="2" filter="url(#rough2)"/>
      <rect x="205" y="170" width="35" height="35" fill="#fce4ec" stroke="#b85450" stroke-width="0.6" rx="2" filter="url(#rough2)"/>
      <rect x="240" y="170" width="35" height="35" fill="#e8f0fe" stroke="#446688" stroke-width="0.6" rx="2" filter="url(#rough2)"/>
      <rect x="275" y="170" width="35" height="35" fill="#e6f4ea" stroke="#4a7a3a" stroke-width="0.6" rx="2" filter="url(#rough2)"/>
    </g>
    <!-- Row 3 -->
    <g>
      <rect x="30"  y="205" width="35" height="35" fill="#fce4ec" stroke="#b85450" stroke-width="0.6" rx="2" filter="url(#rough2)"/>
      <rect x="65"  y="205" width="35" height="35" fill="#e8f0fe" stroke="#446688" stroke-width="0.6" rx="2" filter="url(#rough2)"/>
      <rect x="100" y="205" width="35" height="35" fill="#e6f4ea" stroke="#4a7a3a" stroke-width="0.6" rx="2" filter="url(#rough2)"/>
      <rect x="135" y="205" width="35" height="35" fill="#fff8e1" stroke="#d6a040" stroke-width="0.6" rx="2" filter="url(#rough2)"/>
      <rect x="170" y="205" width="35" height="35" fill="#fce4ec" stroke="#b85450" stroke-width="0.6" rx="2" filter="url(#rough2)"/>
      <rect x="205" y="205" width="35" height="35" fill="#e8f0fe" stroke="#446688" stroke-width="0.6" rx="2" filter="url(#rough2)"/>
      <rect x="240" y="205" width="35" height="35" fill="#e6f4ea" stroke="#4a7a3a" stroke-width="0.6" rx="2" filter="url(#rough2)"/>
      <rect x="275" y="205" width="35" height="35" fill="#fff8e1" stroke="#d6a040" stroke-width="0.6" rx="2" filter="url(#rough2)"/>
    </g>
    <!-- Rows 4-7 (lighter, to show it continues) -->
    <g opacity="0.55">
      <rect x="30"  y="240" width="35" height="35" fill="#e8f0fe" stroke="#446688" stroke-width="0.6" rx="2" filter="url(#rough2)"/>
      <rect x="65"  y="240" width="35" height="35" fill="#e6f4ea" stroke="#4a7a3a" stroke-width="0.6" rx="2" filter="url(#rough2)"/>
      <rect x="100" y="240" width="35" height="35" fill="#fff8e1" stroke="#d6a040" stroke-width="0.6" rx="2" filter="url(#rough2)"/>
      <rect x="135" y="240" width="35" height="35" fill="#fce4ec" stroke="#b85450" stroke-width="0.6" rx="2" filter="url(#rough2)"/>
      <rect x="170" y="240" width="35" height="35" fill="#e8f0fe" stroke="#446688" stroke-width="0.6" rx="2" filter="url(#rough2)"/>
      <rect x="205" y="240" width="35" height="35" fill="#e6f4ea" stroke="#4a7a3a" stroke-width="0.6" rx="2" filter="url(#rough2)"/>
      <rect x="240" y="240" width="35" height="35" fill="#fff8e1" stroke="#d6a040" stroke-width="0.6" rx="2" filter="url(#rough2)"/>
      <rect x="275" y="240" width="35" height="35" fill="#fce4ec" stroke="#b85450" stroke-width="0.6" rx="2" filter="url(#rough2)"/>

      <rect x="30"  y="275" width="35" height="35" fill="#e6f4ea" stroke="#4a7a3a" stroke-width="0.6" rx="2" filter="url(#rough2)"/>
      <rect x="65"  y="275" width="35" height="35" fill="#fff8e1" stroke="#d6a040" stroke-width="0.6" rx="2" filter="url(#rough2)"/>
      <rect x="100" y="275" width="35" height="35" fill="#fce4ec" stroke="#b85450" stroke-width="0.6" rx="2" filter="url(#rough2)"/>
      <rect x="135" y="275" width="35" height="35" fill="#e8f0fe" stroke="#446688" stroke-width="0.6" rx="2" filter="url(#rough2)"/>
      <rect x="170" y="275" width="35" height="35" fill="#e6f4ea" stroke="#4a7a3a" stroke-width="0.6" rx="2" filter="url(#rough2)"/>
      <rect x="205" y="275" width="35" height="35" fill="#fff8e1" stroke="#d6a040" stroke-width="0.6" rx="2" filter="url(#rough2)"/>
      <rect x="240" y="275" width="35" height="35" fill="#fce4ec" stroke="#b85450" stroke-width="0.6" rx="2" filter="url(#rough2)"/>
      <rect x="275" y="275" width="35" height="35" fill="#e8f0fe" stroke="#446688" stroke-width="0.6" rx="2" filter="url(#rough2)"/>

      <rect x="30"  y="310" width="35" height="35" fill="#fff8e1" stroke="#d6a040" stroke-width="0.6" rx="2" filter="url(#rough2)"/>
      <rect x="65"  y="310" width="35" height="35" fill="#fce4ec" stroke="#b85450" stroke-width="0.6" rx="2" filter="url(#rough2)"/>
      <rect x="100" y="310" width="35" height="35" fill="#e8f0fe" stroke="#446688" stroke-width="0.6" rx="2" filter="url(#rough2)"/>
      <rect x="135" y="310" width="35" height="35" fill="#e6f4ea" stroke="#4a7a3a" stroke-width="0.6" rx="2" filter="url(#rough2)"/>
      <rect x="170" y="310" width="35" height="35" fill="#fff8e1" stroke="#d6a040" stroke-width="0.6" rx="2" filter="url(#rough2)"/>
      <rect x="205" y="310" width="35" height="35" fill="#fce4ec" stroke="#b85450" stroke-width="0.6" rx="2" filter="url(#rough2)"/>
      <rect x="240" y="310" width="35" height="35" fill="#e8f0fe" stroke="#446688" stroke-width="0.6" rx="2" filter="url(#rough2)"/>
      <rect x="275" y="310" width="35" height="35" fill="#e6f4ea" stroke="#4a7a3a" stroke-width="0.6" rx="2" filter="url(#rough2)"/>

      <rect x="30"  y="345" width="35" height="35" fill="#fce4ec" stroke="#b85450" stroke-width="0.6" rx="2" filter="url(#rough2)"/>
      <rect x="65"  y="345" width="35" height="35" fill="#e8f0fe" stroke="#446688" stroke-width="0.6" rx="2" filter="url(#rough2)"/>
      <rect x="100" y="345" width="35" height="35" fill="#e6f4ea" stroke="#4a7a3a" stroke-width="0.6" rx="2" filter="url(#rough2)"/>
      <rect x="135" y="345" width="35" height="35" fill="#fff8e1" stroke="#d6a040" stroke-width="0.6" rx="2" filter="url(#rough2)"/>
      <rect x="170" y="345" width="35" height="35" fill="#fce4ec" stroke="#b85450" stroke-width="0.6" rx="2" filter="url(#rough2)"/>
      <rect x="205" y="345" width="35" height="35" fill="#e8f0fe" stroke="#446688" stroke-width="0.6" rx="2" filter="url(#rough2)"/>
      <rect x="240" y="345" width="35" height="35" fill="#e6f4ea" stroke="#4a7a3a" stroke-width="0.6" rx="2" filter="url(#rough2)"/>
      <rect x="275" y="345" width="35" height="35" fill="#fff8e1" stroke="#d6a040" stroke-width="0.6" rx="2" filter="url(#rough2)"/>
    </g>

    <!-- highlight one thread tile (top-left) -->
    <rect x="30" y="100" width="35" height="35" fill="none" stroke="#b85450" stroke-width="2.5" rx="2" filter="url(#rough2)"/>
    <text x="47" y="122" text-anchor="middle" font-size="8" fill="#b85450" font-weight="bold">T0</text>
  </g>
  <text x="170" y="396" text-anchor="middle" font-size="9" fill="#888">（图为 8×8 概览，实际 16×16 = 256 个 thread tile）</text>

  <!-- ===== Right: zoomed thread tile ===== -->
  <text x="380" y="74" font-size="12" fill="#b85450" font-weight="bold">单个 thread 的 TM×TN = 8×8 输出</text>
  <text x="380" y="90" font-size="10" fill="#888">累加器 acc[8][8] 驻留寄存器，K 维循环累加</text>

  <g font-size="8" fill="#333">
    <rect x="380" y="100" width="224" height="224" fill="none" stroke="#b85450" stroke-width="1.5" rx="3" filter="url(#rough2)"/>
    <!-- 8x8 grid of acc cells, each 28x28 -->
    <g>
      <rect x="380" y="100" width="28" height="28" fill="#fce4ec" stroke="#b85450" stroke-width="0.5" filter="url(#rough2)"/>
      <rect x="408" y="100" width="28" height="28" fill="#fce4ec" stroke="#b85450" stroke-width="0.5" filter="url(#rough2)"/>
      <rect x="436" y="100" width="28" height="28" fill="#fce4ec" stroke="#b85450" stroke-width="0.5" filter="url(#rough2)"/>
      <rect x="464" y="100" width="28" height="28" fill="#fce4ec" stroke="#b85450" stroke-width="0.5" filter="url(#rough2)"/>
      <rect x="492" y="100" width="28" height="28" fill="#fce4ec" stroke="#b85450" stroke-width="0.5" filter="url(#rough2)"/>
      <rect x="520" y="100" width="28" height="28" fill="#fce4ec" stroke="#b85450" stroke-width="0.5" filter="url(#rough2)"/>
      <rect x="548" y="100" width="28" height="28" fill="#fce4ec" stroke="#b85450" stroke-width="0.5" filter="url(#rough2)"/>
      <rect x="576" y="100" width="28" height="28" fill="#fce4ec" stroke="#b85450" stroke-width="0.5" filter="url(#rough2)"/>

      <rect x="380" y="128" width="28" height="28" fill="#fce4ec" stroke="#b85450" stroke-width="0.5" filter="url(#rough2)"/>
      <rect x="408" y="128" width="28" height="28" fill="#fce4ec" stroke="#b85450" stroke-width="0.5" filter="url(#rough2)"/>
      <rect x="436" y="128" width="28" height="28" fill="#fce4ec" stroke="#b85450" stroke-width="0.5" filter="url(#rough2)"/>
      <rect x="464" y="128" width="28" height="28" fill="#fce4ec" stroke="#b85450" stroke-width="0.5" filter="url(#rough2)"/>
      <rect x="492" y="128" width="28" height="28" fill="#fce4ec" stroke="#b85450" stroke-width="0.5" filter="url(#rough2)"/>
      <rect x="520" y="128" width="28" height="28" fill="#fce4ec" stroke="#b85450" stroke-width="0.5" filter="url(#rough2)"/>
      <rect x="548" y="128" width="28" height="28" fill="#fce4ec" stroke="#b85450" stroke-width="0.5" filter="url(#rough2)"/>
      <rect x="576" y="128" width="28" height="28" fill="#fce4ec" stroke="#b85450" stroke-width="0.5" filter="url(#rough2)"/>

      <rect x="380" y="156" width="28" height="28" fill="#fce4ec" stroke="#b85450" stroke-width="0.5" filter="url(#rough2)"/>
      <rect x="408" y="156" width="28" height="28" fill="#fce4ec" stroke="#b85450" stroke-width="0.5" filter="url(#rough2)"/>
      <rect x="436" y="156" width="28" height="28" fill="#fce4ec" stroke="#b85450" stroke-width="0.5" filter="url(#rough2)"/>
      <rect x="464" y="156" width="28" height="28" fill="#fce4ec" stroke="#b85450" stroke-width="0.5" filter="url(#rough2)"/>
      <rect x="492" y="156" width="28" height="28" fill="#fce4ec" stroke="#b85450" stroke-width="0.5" filter="url(#rough2)"/>
      <rect x="520" y="156" width="28" height="28" fill="#fce4ec" stroke="#b85450" stroke-width="0.5" filter="url(#rough2)"/>
      <rect x="548" y="156" width="28" height="28" fill="#fce4ec" stroke="#b85450" stroke-width="0.5" filter="url(#rough2)"/>
      <rect x="576" y="156" width="28" height="28" fill="#fce4ec" stroke="#b85450" stroke-width="0.5" filter="url(#rough2)"/>

      <rect x="380" y="184" width="28" height="28" fill="#fce4ec" stroke="#b85450" stroke-width="0.5" filter="url(#rough2)"/>
      <rect x="408" y="184" width="28" height="28" fill="#fce4ec" stroke="#b85450" stroke-width="0.5" filter="url(#rough2)"/>
      <rect x="436" y="184" width="28" height="28" fill="#fce4ec" stroke="#b85450" stroke-width="0.5" filter="url(#rough2)"/>
      <rect x="464" y="184" width="28" height="28" fill="#fce4ec" stroke="#b85450" stroke-width="0.5" filter="url(#rough2)"/>
      <rect x="492" y="184" width="28" height="28" fill="#fce4ec" stroke="#b85450" stroke-width="0.5" filter="url(#rough2)"/>
      <rect x="520" y="184" width="28" height="28" fill="#fce4ec" stroke="#b85450" stroke-width="0.5" filter="url(#rough2)"/>
      <rect x="548" y="184" width="28" height="28" fill="#fce4ec" stroke="#b85450" stroke-width="0.5" filter="url(#rough2)"/>
      <rect x="576" y="184" width="28" height="28" fill="#fce4ec" stroke="#b85450" stroke-width="0.5" filter="url(#rough2)"/>

      <rect x="380" y="212" width="28" height="28" fill="#fce4ec" stroke="#b85450" stroke-width="0.5" filter="url(#rough2)"/>
      <rect x="408" y="212" width="28" height="28" fill="#fce4ec" stroke="#b85450" stroke-width="0.5" filter="url(#rough2)"/>
      <rect x="436" y="212" width="28" height="28" fill="#fce4ec" stroke="#b85450" stroke-width="0.5" filter="url(#rough2)"/>
      <rect x="464" y="212" width="28" height="28" fill="#fce4ec" stroke="#b85450" stroke-width="0.5" filter="url(#rough2)"/>
      <rect x="492" y="212" width="28" height="28" fill="#fce4ec" stroke="#b85450" stroke-width="0.5" filter="url(#rough2)"/>
      <rect x="520" y="212" width="28" height="28" fill="#fce4ec" stroke="#b85450" stroke-width="0.5" filter="url(#rough2)"/>
      <rect x="548" y="212" width="28" height="28" fill="#fce4ec" stroke="#b85450" stroke-width="0.5" filter="url(#rough2)"/>
      <rect x="576" y="212" width="28" height="28" fill="#fce4ec" stroke="#b85450" stroke-width="0.5" filter="url(#rough2)"/>

      <rect x="380" y="240" width="28" height="28" fill="#fce4ec" stroke="#b85450" stroke-width="0.5" filter="url(#rough2)"/>
      <rect x="408" y="240" width="28" height="28" fill="#fce4ec" stroke="#b85450" stroke-width="0.5" filter="url(#rough2)"/>
      <rect x="436" y="240" width="28" height="28" fill="#fce4ec" stroke="#b85450" stroke-width="0.5" filter="url(#rough2)"/>
      <rect x="464" y="240" width="28" height="28" fill="#fce4ec" stroke="#b85450" stroke-width="0.5" filter="url(#rough2)"/>
      <rect x="492" y="240" width="28" height="28" fill="#fce4ec" stroke="#b85450" stroke-width="0.5" filter="url(#rough2)"/>
      <rect x="520" y="240" width="28" height="28" fill="#fce4ec" stroke="#b85450" stroke-width="0.5" filter="url(#rough2)"/>
      <rect x="548" y="240" width="28" height="28" fill="#fce4ec" stroke="#b85450" stroke-width="0.5" filter="url(#rough2)"/>
      <rect x="576" y="240" width="28" height="28" fill="#fce4ec" stroke="#b85450" stroke-width="0.5" filter="url(#rough2)"/>

      <rect x="380" y="268" width="28" height="28" fill="#fce4ec" stroke="#b85450" stroke-width="0.5" filter="url(#rough2)"/>
      <rect x="408" y="268" width="28" height="28" fill="#fce4ec" stroke="#b85450" stroke-width="0.5" filter="url(#rough2)"/>
      <rect x="436" y="268" width="28" height="28" fill="#fce4ec" stroke="#b85450" stroke-width="0.5" filter="url(#rough2)"/>
      <rect x="464" y="268" width="28" height="28" fill="#fce4ec" stroke="#b85450" stroke-width="0.5" filter="url(#rough2)"/>
      <rect x="492" y="268" width="28" height="28" fill="#fce4ec" stroke="#b85450" stroke-width="0.5" filter="url(#rough2)"/>
      <rect x="520" y="268" width="28" height="28" fill="#fce4ec" stroke="#b85450" stroke-width="0.5" filter="url(#rough2)"/>
      <rect x="548" y="268" width="28" height="28" fill="#fce4ec" stroke="#b85450" stroke-width="0.5" filter="url(#rough2)"/>
      <rect x="576" y="268" width="28" height="28" fill="#fce4ec" stroke="#b85450" stroke-width="0.5" filter="url(#rough2)"/>

      <rect x="380" y="296" width="28" height="28" fill="#fce4ec" stroke="#b85450" stroke-width="0.5" filter="url(#rough2)"/>
      <rect x="408" y="296" width="28" height="28" fill="#fce4ec" stroke="#b85450" stroke-width="0.5" filter="url(#rough2)"/>
      <rect x="436" y="296" width="28" height="28" fill="#fce4ec" stroke="#b85450" stroke-width="0.5" filter="url(#rough2)"/>
      <rect x="464" y="296" width="28" height="28" fill="#fce4ec" stroke="#b85450" stroke-width="0.5" filter="url(#rough2)"/>
      <rect x="492" y="296" width="28" height="28" fill="#fce4ec" stroke="#b85450" stroke-width="0.5" filter="url(#rough2)"/>
      <rect x="520" y="296" width="28" height="28" fill="#fce4ec" stroke="#b85450" stroke-width="0.5" filter="url(#rough2)"/>
      <rect x="548" y="296" width="28" height="28" fill="#fce4ec" stroke="#b85450" stroke-width="0.5" filter="url(#rough2)"/>
      <rect x="576" y="296" width="28" height="28" fill="#fce4ec" stroke="#b85450" stroke-width="0.5" filter="url(#rough2)"/>
    </g>
    <!-- labels: rA (row) and rB (col) -->
    <text x="492" y="92" text-anchor="middle" font-size="9" fill="#4a7a3a" font-weight="bold">← TN=8 →  rB[0..7]</text>
    <text x="372" y="216" text-anchor="middle" font-size="9" fill="#446688" font-weight="bold" transform="rotate(-90 372 216)">TM=8  rA[0..7]</text>
  </g>

  <!-- mapping formula -->
  <rect x="380" y="338" width="224" height="56" fill="#f6f6f6" stroke="#ccc" stroke-width="1" rx="6" filter="url(#rough2)"/>
  <text x="392" y="358" font-family="monospace" font-size="10" fill="#333">threadRow = tid / (BN/TN)  // 0..15</text>
  <text x="392" y="374" font-family="monospace" font-size="10" fill="#333">threadCol = tid % (BN/TN)  // 0..15</text>
  <text x="392" y="388" font-size="9" fill="#888">→ tid = threadRow × 16 + threadCol</text>

  <!-- bottom summary -->
  <rect x="30" y="416" width="580" height="84" fill="#fff8e1" stroke="#d6a040" stroke-width="1.3" rx="8" filter="url(#rough2)"/>
  <text x="44" y="438" font-size="12" fill="#444" font-weight="bold">为什么 register blocking 有效：</text>
  <text x="44" y="458" font-size="10" fill="#555">① 每 thread 读 1 次 rA[m] 可给 TN=8 个 acc 乘加 → A 的复用 ×8</text>
  <text x="44" y="474" font-size="10" fill="#555">② 每 thread 读 1 次 rB[n] 可给 TM=8 个 acc 乘加 → B 的复用 ×8</text>
  <text x="44" y="490" font-size="10" fill="#555">③ 256 thread × 64 输出 = 16384 输出 = 128×128 block tile，线程数减少 64×</text>
</svg>
