<?xml version="1.0" encoding="utf-8" standalone="no"?>
<!DOCTYPE svg PUBLIC "-//W3C//DTD SVG 1.1//EN"
  "http://www.w3.org/Graphics/SVG/1.1/DTD/svg11.dtd">
<svg xmlns:xlink="http://www.w3.org/1999/xlink" width="1116.8485pt" height="496.8pt" viewBox="0 0 1116.8485 496.8" xmlns="http://www.w3.org/2000/svg" version="1.1">
 <metadata>
  <rdf:RDF xmlns:dc="http://purl.org/dc/elements/1.1/" xmlns:cc="http://creativecommons.org/ns#" xmlns:rdf="http://www.w3.org/1999/02/22-rdf-syntax-ns#">
   <cc:Work>
    <dc:type rdf:resource="http://purl.org/dc/dcmitype/StillImage"/>
    <dc:date>2026-07-01T23:19:19.866715</dc:date>
    <dc:format>image/svg+xml</dc:format>
    <dc:creator>
     <cc:Agent>
      <dc:title>Matplotlib v3.9.4, https://matplotlib.org/</dc:title>
     </cc:Agent>
    </dc:creator>
   </cc:Work>
  </rdf:RDF>
 </metadata>
 <defs>
  <style type="text/css">*{stroke-linejoin: round; stroke-linecap: butt}</style>
 </defs>
 <g id="figure_1">
  <g id="patch_1">
   <path d="M 0 496.8 
L 1116.8485 496.8 
L 1116.8485 0 
L 0 0 
z
" style="fill: #ffffff"/>
  </g>
  <g id="axes_1">
   <g id="patch_2">
    <path d="M 76.10624 233.124 
L 115.67616 233.124 
Q 117.04064 233.124 117.04064 231.516 
L 117.04064 192.924 
Q 117.04064 191.316 115.67616 191.316 
L 76.10624 191.316 
Q 74.74176 191.316 74.74176 192.924 
L 74.74176 231.516 
Q 74.74176 233.124 76.10624 233.124 
z
" clip-path="url(#pf9a55cdbe7)" style="fill: #4c78a8; stroke: #000000; stroke-width: 1.5; stroke-linejoin: miter"/>
   </g>
   <g id="patch_3">
    <path d="M 120.45184 233.124 
L 160.02176 233.124 
Q 161.38624 233.124 161.38624 231.516 
L 161.38624 192.924 
Q 161.38624 191.316 160.02176 191.316 
L 120.45184 191.316 
Q 119.08736 191.316 119.08736 192.924 
L 119.08736 231.516 
Q 119.08736 233.124 120.45184 233.124 
z
" clip-path="url(#pf9a55cdbe7)" style="fill: #f58518; stroke: #000000; stroke-width: 1.5; stroke-linejoin: miter"/>
   </g>
   <g id="patch_4">
    <path d="M 164.79744 233.124 
L 204.36736 233.124 
Q 205.73184 233.124 205.73184 231.516 
L 205.73184 192.924 
Q 205.73184 191.316 204.36736 191.316 
L 164.79744 191.316 
Q 163.43296 191.316 163.43296 192.924 
L 163.43296 231.516 
Q 163.43296 233.124 164.79744 233.124 
z
" clip-path="url(#pf9a55cdbe7)" style="fill: #e45756; stroke: #000000; stroke-width: 1.5; stroke-linejoin: miter"/>
   </g>
   <g id="patch_5">
    <path d="M 209.14304 233.124 
L 248.71296 233.124 
Q 250.07744 233.124 250.07744 231.516 
L 250.07744 192.924 
Q 250.07744 191.316 248.71296 191.316 
L 209.14304 191.316 
Q 207.77856 191.316 207.77856 192.924 
L 207.77856 231.516 
Q 207.77856 233.124 209.14304 233.124 
z
" clip-path="url(#pf9a55cdbe7)" style="fill: #72b7b2; stroke: #000000; stroke-width: 1.5; stroke-linejoin: miter"/>
   </g>
   <g id="patch_6">
    <path d="M 253.48864 233.124 
L 293.05856 233.124 
Q 294.42304 233.124 294.42304 231.516 
L 294.42304 192.924 
Q 294.42304 191.316 293.05856 191.316 
L 253.48864 191.316 
Q 252.12416 191.316 252.12416 192.924 
L 252.12416 231.516 
Q 252.12416 233.124 253.48864 233.124 
z
" clip-path="url(#pf9a55cdbe7)" style="fill: #4c78a8; stroke: #000000; stroke-width: 1.5; stroke-linejoin: miter"/>
   </g>
   <g id="patch_7">
    <path d="M 297.83424 233.124 
L 337.40416 233.124 
Q 338.76864 233.124 338.76864 231.516 
L 338.76864 192.924 
Q 338.76864 191.316 337.40416 191.316 
L 297.83424 191.316 
Q 296.46976 191.316 296.46976 192.924 
L 296.46976 231.516 
Q 296.46976 233.124 297.83424 233.124 
z
" clip-path="url(#pf9a55cdbe7)" style="fill: #f58518; stroke: #000000; stroke-width: 1.5; stroke-linejoin: miter"/>
   </g>
   <g id="patch_8">
    <path d="M 342.17984 233.124 
L 381.74976 233.124 
Q 383.11424 233.124 383.11424 231.516 
L 383.11424 192.924 
Q 383.11424 191.316 381.74976 191.316 
L 342.17984 191.316 
Q 340.81536 191.316 340.81536 192.924 
L 340.81536 231.516 
Q 340.81536 233.124 342.17984 233.124 
z
" clip-path="url(#pf9a55cdbe7)" style="fill: #e45756; stroke: #000000; stroke-width: 1.5; stroke-linejoin: miter"/>
   </g>
   <g id="patch_9">
    <path d="M 386.52544 233.124 
L 426.09536 233.124 
Q 427.45984 233.124 427.45984 231.516 
L 427.45984 192.924 
Q 427.45984 191.316 426.09536 191.316 
L 386.52544 191.316 
Q 385.16096 191.316 385.16096 192.924 
L 385.16096 231.516 
Q 385.16096 233.124 386.52544 233.124 
z
" clip-path="url(#pf9a55cdbe7)" style="fill: #72b7b2; stroke: #000000; stroke-width: 1.5; stroke-linejoin: miter"/>
   </g>
   <g id="patch_10">
    <path d="M 430.87104 233.124 
L 470.44096 233.124 
Q 471.80544 233.124 471.80544 231.516 
L 471.80544 192.924 
Q 471.80544 191.316 470.44096 191.316 
L 430.87104 191.316 
Q 429.50656 191.316 429.50656 192.924 
L 429.50656 231.516 
Q 429.50656 233.124 430.87104 233.124 
z
" clip-path="url(#pf9a55cdbe7)" style="fill: #4c78a8; stroke: #000000; stroke-width: 1.5; stroke-linejoin: miter"/>
   </g>
   <g id="patch_11">
    <path d="M 475.21664 233.124 
L 514.78656 233.124 
Q 516.15104 233.124 516.15104 231.516 
L 516.15104 192.924 
Q 516.15104 191.316 514.78656 191.316 
L 475.21664 191.316 
Q 473.85216 191.316 473.85216 192.924 
L 473.85216 231.516 
Q 473.85216 233.124 475.21664 233.124 
z
" clip-path="url(#pf9a55cdbe7)" style="fill: #f58518; stroke: #000000; stroke-width: 1.5; stroke-linejoin: miter"/>
   </g>
   <g id="patch_12">
    <path d="M 519.56224 233.124 
L 559.13216 233.124 
Q 560.49664 233.124 560.49664 231.516 
L 560.49664 192.924 
Q 560.49664 191.316 559.13216 191.316 
L 519.56224 191.316 
Q 518.19776 191.316 518.19776 192.924 
L 518.19776 231.516 
Q 518.19776 233.124 519.56224 233.124 
z
" clip-path="url(#pf9a55cdbe7)" style="fill: #e45756; stroke: #000000; stroke-width: 1.5; stroke-linejoin: miter"/>
   </g>
   <g id="patch_13">
    <path d="M 563.90784 233.124 
L 603.47776 233.124 
Q 604.84224 233.124 604.84224 231.516 
L 604.84224 192.924 
Q 604.84224 191.316 603.47776 191.316 
L 563.90784 191.316 
Q 562.54336 191.316 562.54336 192.924 
L 562.54336 231.516 
Q 562.54336 233.124 563.90784 233.124 
z
" clip-path="url(#pf9a55cdbe7)" style="fill: #72b7b2; stroke: #000000; stroke-width: 1.5; stroke-linejoin: miter"/>
   </g>
   <g id="patch_14">
    <path d="M 608.25344 233.124 
L 647.82336 233.124 
Q 649.18784 233.124 649.18784 231.516 
L 649.18784 192.924 
Q 649.18784 191.316 647.82336 191.316 
L 608.25344 191.316 
Q 606.88896 191.316 606.88896 192.924 
L 606.88896 231.516 
Q 606.88896 233.124 608.25344 233.124 
z
" clip-path="url(#pf9a55cdbe7)" style="fill: #4c78a8; stroke: #000000; stroke-width: 1.5; stroke-linejoin: miter"/>
   </g>
   <g id="patch_15">
    <path d="M 652.59904 233.124 
L 692.16896 233.124 
Q 693.53344 233.124 693.53344 231.516 
L 693.53344 192.924 
Q 693.53344 191.316 692.16896 191.316 
L 652.59904 191.316 
Q 651.23456 191.316 651.23456 192.924 
L 651.23456 231.516 
Q 651.23456 233.124 652.59904 233.124 
z
" clip-path="url(#pf9a55cdbe7)" style="fill: #f58518; stroke: #000000; stroke-width: 1.5; stroke-linejoin: miter"/>
   </g>
   <g id="patch_16">
    <path d="M 696.94464 233.124 
L 736.51456 233.124 
Q 737.87904 233.124 737.87904 231.516 
L 737.87904 192.924 
Q 737.87904 191.316 736.51456 191.316 
L 696.94464 191.316 
Q 695.58016 191.316 695.58016 192.924 
L 695.58016 231.516 
Q 695.58016 233.124 696.94464 233.124 
z
" clip-path="url(#pf9a55cdbe7)" style="fill: #e45756; stroke: #000000; stroke-width: 1.5; stroke-linejoin: miter"/>
   </g>
   <g id="patch_17">
    <path d="M 741.29024 233.124 
L 780.86016 233.124 
Q 782.22464 233.124 782.22464 231.516 
L 782.22464 192.924 
Q 782.22464 191.316 780.86016 191.316 
L 741.29024 191.316 
Q 739.92576 191.316 739.92576 192.924 
L 739.92576 231.516 
Q 739.92576 233.124 741.29024 233.124 
z
" clip-path="url(#pf9a55cdbe7)" style="fill: #72b7b2; stroke: #000000; stroke-width: 1.5; stroke-linejoin: miter"/>
   </g>
   <g id="patch_18">
    <path d="M 76.10624 345.684 
L 136.14336 345.684 
Q 137.50784 345.684 137.50784 344.076 
L 137.50784 297.444 
Q 137.50784 295.836 136.14336 295.836 
L 76.10624 295.836 
Q 74.74176 295.836 74.74176 297.444 
L 74.74176 344.076 
Q 74.74176 345.684 76.10624 345.684 
z
" clip-path="url(#pf9a55cdbe7)" style="fill: #4c78a8; stroke: #000000; stroke-width: 1.5; stroke-linejoin: miter"/>
   </g>
   <g id="patch_19">
    <path d="M 144.33024 345.684 
L 204.36736 345.684 
Q 205.73184 345.684 205.73184 344.076 
L 205.73184 297.444 
Q 205.73184 295.836 204.36736 295.836 
L 144.33024 295.836 
Q 142.96576 295.836 142.96576 297.444 
L 142.96576 344.076 
Q 142.96576 345.684 144.33024 345.684 
z
" clip-path="url(#pf9a55cdbe7)" style="fill: #f58518; stroke: #000000; stroke-width: 1.5; stroke-linejoin: miter"/>
   </g>
   <g id="patch_20">
    <path d="M 212.55424 345.684 
L 272.59136 345.684 
Q 273.95584 345.684 273.95584 344.076 
L 273.95584 297.444 
Q 273.95584 295.836 272.59136 295.836 
L 212.55424 295.836 
Q 211.18976 295.836 211.18976 297.444 
L 211.18976 344.076 
Q 211.18976 345.684 212.55424 345.684 
z
" clip-path="url(#pf9a55cdbe7)" style="fill: #e45756; stroke: #000000; stroke-width: 1.5; stroke-linejoin: miter"/>
   </g>
   <g id="patch_21">
    <path d="M 280.77824 345.684 
L 340.81536 345.684 
Q 342.17984 345.684 342.17984 344.076 
L 342.17984 297.444 
Q 342.17984 295.836 340.81536 295.836 
L 280.77824 295.836 
Q 279.41376 295.836 279.41376 297.444 
L 279.41376 344.076 
Q 279.41376 345.684 280.77824 345.684 
z
" clip-path="url(#pf9a55cdbe7)" style="fill: #72b7b2; stroke: #000000; stroke-width: 1.5; stroke-linejoin: miter"/>
   </g>
   <g id="text_1">
    <!-- Grid-Stride Loop 工作原理 -->
    <g transform="translate(328.706703 118.523672) scale(0.21 -0.21)">
     <defs>
      <path id="ArialUnicodeMS-47" d="M 4569 641 
Q 3703 -78 2675 -78 
Q 1622 -78 976 564 
Q 331 1206 331 2272 
Q 331 2922 595 3483 
Q 859 4044 1373 4351 
Q 1888 4659 2631 4659 
Q 3403 4659 3870 4320 
Q 4338 3981 4500 3303 
L 3956 3150 
Q 3828 3644 3497 3892 
Q 3166 4141 2631 4141 
Q 1803 4141 1381 3634 
Q 959 3128 959 2309 
Q 959 1697 1164 1290 
Q 1369 884 1770 676 
Q 2172 469 2644 469 
Q 3363 469 3981 941 
L 3981 1791 
L 2631 1791 
L 2631 2338 
L 4569 2338 
L 4569 641 
z
" transform="scale(0.015625)"/>
      <path id="ArialUnicodeMS-72" d="M 2216 3213 
L 2022 2694 
Q 1813 2816 1613 2816 
Q 1297 2816 1134 2533 
Q 972 2250 972 1741 
L 972 0 
L 409 0 
L 409 3316 
L 922 3316 
L 922 2816 
L 934 2816 
Q 1203 3391 1638 3391 
Q 1925 3391 2216 3213 
z
" transform="scale(0.015625)"/>
      <path id="ArialUnicodeMS-69" d="M 991 0 
L 428 0 
L 428 3316 
L 991 3316 
L 991 0 
z
M 991 3944 
L 428 3944 
L 428 4581 
L 991 4581 
L 991 3944 
z
" transform="scale(0.015625)"/>
      <path id="ArialUnicodeMS-64" d="M 3109 0 
L 2584 0 
L 2584 422 
L 2572 422 
Q 2269 -78 1656 -78 
Q 1047 -78 639 405 
Q 231 888 231 1656 
Q 231 2459 615 2925 
Q 1000 3391 1631 3391 
Q 2225 3391 2534 2938 
L 2547 2938 
L 2547 4581 
L 3109 4581 
L 3109 0 
z
M 1716 384 
Q 2084 384 2340 687 
Q 2597 991 2597 1606 
Q 2597 2213 2362 2572 
Q 2128 2931 1691 2931 
Q 1253 2931 1029 2579 
Q 806 2228 806 1656 
Q 806 1244 926 958 
Q 1047 672 1262 528 
Q 1478 384 1716 384 
z
" transform="scale(0.015625)"/>
      <path id="ArialUnicodeMS-2d" d="M 1925 1375 
L 206 1375 
L 206 1941 
L 1925 1941 
L 1925 1375 
z
" transform="scale(0.015625)"/>
      <path id="ArialUnicodeMS-53" d="M 3213 3238 
Q 3175 3675 2897 3895 
Q 2619 4116 2100 4116 
Q 1631 4116 1337 3941 
Q 1044 3766 1044 3431 
Q 1044 3134 1270 2989 
Q 1497 2844 2138 2700 
Q 2706 2575 3065 2444 
Q 3425 2313 3681 2036 
Q 3938 1759 3938 1294 
Q 3938 703 3467 312 
Q 2997 -78 2241 -78 
Q 1275 -78 795 353 
Q 316 784 288 1472 
L 863 1522 
Q 903 972 1287 720 
Q 1672 469 2216 469 
Q 2725 469 3039 678 
Q 3353 888 3353 1247 
Q 3353 1622 3025 1794 
Q 2697 1966 1923 2133 
Q 1150 2300 809 2603 
Q 469 2906 469 3391 
Q 469 3941 900 4300 
Q 1331 4659 2075 4659 
Q 2838 4659 3302 4301 
Q 3766 3944 3794 3284 
L 3213 3238 
z
" transform="scale(0.015625)"/>
      <path id="ArialUnicodeMS-74" d="M 1722 6 
Q 1472 -44 1300 -44 
Q 931 -44 762 86 
Q 594 216 556 416 
Q 519 616 519 972 
L 519 2881 
L 109 2881 
L 109 3316 
L 519 3316 
L 519 4141 
L 1081 4481 
L 1081 3316 
L 1644 3316 
L 1644 2881 
L 1081 2881 
L 1081 941 
Q 1081 691 1132 586 
Q 1184 481 1394 481 
Q 1516 481 1644 506 
L 1722 6 
z
" transform="scale(0.015625)"/>
      <path id="ArialUnicodeMS-65" d="M 3309 1516 
L 825 1516 
Q 859 966 1139 675 
Q 1419 384 1838 384 
Q 2159 384 2378 554 
Q 2597 725 2713 1069 
L 3291 997 
Q 3150 478 2775 200 
Q 2400 -78 1838 -78 
Q 1091 -78 670 380 
Q 250 838 250 1631 
Q 250 2416 658 2903 
Q 1066 3391 1806 3391 
Q 2169 3391 2505 3231 
Q 2841 3072 3075 2689 
Q 3309 2306 3309 1516 
z
M 2731 1978 
Q 2697 2484 2417 2707 
Q 2138 2931 1806 2931 
Q 1409 2931 1153 2665 
Q 897 2400 856 1978 
L 2731 1978 
z
" transform="scale(0.015625)"/>
      <path id="ArialUnicodeMS-20" transform="scale(0.015625)"/>
      <path id="ArialUnicodeMS-4c" d="M 3347 0 
L 481 0 
L 481 4581 
L 1088 4581 
L 1088 544 
L 3347 544 
L 3347 0 
z
" transform="scale(0.015625)"/>
      <path id="ArialUnicodeMS-6f" d="M 1778 3391 
Q 2450 3391 2892 2953 
Q 3334 2516 3334 1709 
Q 3334 731 2856 326 
Q 2378 -78 1778 -78 
Q 1150 -78 687 337 
Q 225 753 225 1656 
Q 225 2531 672 2961 
Q 1119 3391 1778 3391 
z
M 1778 384 
Q 2259 384 2509 740 
Q 2759 1097 2759 1678 
Q 2759 2300 2476 2615 
Q 2194 2931 1778 2931 
Q 1350 2931 1075 2611 
Q 800 2291 800 1656 
Q 800 1025 1079 704 
Q 1359 384 1778 384 
z
" transform="scale(0.015625)"/>
      <path id="ArialUnicodeMS-70" d="M 959 2888 
Q 1275 3391 1906 3391 
Q 2559 3391 2937 2917 
Q 3316 2444 3316 1684 
Q 3316 875 2897 398 
Q 2478 -78 1869 -78 
Q 1334 -78 1013 347 
L 997 347 
L 997 -1275 
L 434 -1275 
L 434 3316 
L 947 3316 
L 947 2888 
L 959 2888 
z
M 1831 384 
Q 2225 384 2483 711 
Q 2741 1038 2741 1684 
Q 2741 2294 2492 2622 
Q 2244 2950 1856 2950 
Q 1456 2950 1198 2584 
Q 941 2219 941 1638 
Q 941 1022 1187 703 
Q 1434 384 1831 384 
z
" transform="scale(0.015625)"/>
      <path id="ArialUnicodeMS-5de5" d="M 5819 347 
L 609 347 
L 609 813 
L 2938 813 
L 2938 3988 
L 947 3988 
L 947 4453 
L 5472 4453 
L 5472 3988 
L 3481 3988 
L 3481 813 
L 5819 813 
L 5819 347 
z
" transform="scale(0.015625)"/>
      <path id="ArialUnicodeMS-4f5c" d="M 6106 3706 
L 3781 3706 
L 3781 2956 
L 5850 2956 
L 5850 2491 
L 3781 2491 
L 3781 1703 
L 5972 1703 
L 5984 1234 
L 3781 1234 
L 3781 -428 
L 3297 -428 
L 3297 3706 
Q 3041 2972 2316 2278 
L 1875 2516 
Q 2978 3916 3213 5422 
L 3694 5247 
Q 3628 4800 3391 4172 
L 6106 4172 
L 6106 3706 
z
M 2309 5125 
Q 2238 4878 2041 4366 
L 1844 3872 
L 1844 -428 
L 1356 -428 
L 1356 3034 
Q 1063 2494 684 2088 
L 238 2344 
Q 1313 3516 1875 5325 
L 2309 5125 
z
" transform="scale(0.015625)"/>
      <path id="ArialUnicodeMS-539f" d="M 5888 4569 
L 4063 4569 
Q 4006 4288 3909 4063 
L 5269 4078 
L 5269 1797 
L 3969 1797 
L 3969 38 
Q 3944 -213 3717 -316 
Q 3491 -419 3309 -409 
L 2853 -391 
L 2700 84 
Q 2906 56 3103 56 
Q 3481 56 3481 219 
L 3481 1797 
L 2088 1797 
L 2088 4063 
L 3366 4078 
Q 3463 4225 3572 4569 
L 1600 4569 
L 1600 2328 
Q 1600 1400 1454 812 
Q 1309 225 831 -391 
L 378 -116 
Q 753 359 933 850 
Q 1113 1341 1113 2209 
L 1113 5038 
L 5888 5038 
L 5888 4569 
z
M 4781 3175 
L 4781 3609 
L 2572 3609 
L 2572 3175 
L 4781 3175 
z
M 4781 2266 
L 4781 2706 
L 2572 2706 
L 2572 2266 
L 4781 2266 
z
M 5966 403 
L 5613 56 
Q 5028 850 4238 1306 
L 4569 1613 
Q 5275 1303 5966 403 
z
M 3034 1331 
Q 2700 581 1734 0 
L 1403 341 
Q 2328 903 2669 1594 
L 3034 1331 
z
" transform="scale(0.015625)"/>
      <path id="ArialUnicodeMS-7406" d="M 6047 -103 
L 2163 -103 
L 2163 366 
L 3853 366 
L 3853 1094 
L 2572 1094 
L 2572 1563 
L 3853 1563 
L 3853 2163 
L 2528 2163 
L 2528 4959 
L 5656 4959 
L 5656 2163 
L 4341 2163 
L 4341 1563 
L 5613 1563 
L 5613 1094 
L 4341 1094 
L 4341 366 
L 6047 366 
L 6047 -103 
z
M 5191 4494 
L 4341 4494 
L 4341 3822 
L 5178 3822 
L 5191 4494 
z
M 3853 3822 
L 3853 4494 
L 3016 4494 
L 3016 3822 
L 3853 3822 
z
M 5172 2631 
L 5172 3353 
L 4341 3353 
L 4341 2631 
L 5172 2631 
z
M 3853 2631 
L 3853 3353 
L 3016 3353 
L 3016 2631 
L 3853 2631 
z
M 2456 1153 
L 647 409 
L 225 794 
Q 553 891 1191 1131 
L 1191 2606 
L 544 2606 
L 544 3072 
L 1191 3072 
L 1191 4319 
L 416 4319 
L 416 4788 
L 2400 4788 
L 2400 4319 
L 1678 4319 
L 1678 3072 
L 2309 3072 
L 2309 2606 
L 1678 2606 
L 1678 1319 
Q 2200 1538 2456 1631 
L 2456 1153 
z
" transform="scale(0.015625)"/>
     </defs>
     <use xlink:href="#ArialUnicodeMS-47"/>
     <use xlink:href="#ArialUnicodeMS-72" x="77.783203"/>
     <use xlink:href="#ArialUnicodeMS-69" x="111.083984"/>
     <use xlink:href="#ArialUnicodeMS-64" x="133.300781"/>
     <use xlink:href="#ArialUnicodeMS-2d" x="188.916016"/>
     <use xlink:href="#ArialUnicodeMS-53" x="222.216797"/>
     <use xlink:href="#ArialUnicodeMS-74" x="288.916016"/>
     <use xlink:href="#ArialUnicodeMS-72" x="316.699219"/>
     <use xlink:href="#ArialUnicodeMS-69" x="350"/>
     <use xlink:href="#ArialUnicodeMS-64" x="372.216797"/>
     <use xlink:href="#ArialUnicodeMS-65" x="427.832031"/>
     <use xlink:href="#ArialUnicodeMS-20" x="483.447266"/>
     <use xlink:href="#ArialUnicodeMS-4c" x="511.230469"/>
     <use xlink:href="#ArialUnicodeMS-6f" x="566.845703"/>
     <use xlink:href="#ArialUnicodeMS-6f" x="622.460938"/>
     <use xlink:href="#ArialUnicodeMS-70" x="678.076172"/>
     <use xlink:href="#ArialUnicodeMS-20" x="733.691406"/>
     <use xlink:href="#ArialUnicodeMS-5de5" x="761.474609"/>
     <use xlink:href="#ArialUnicodeMS-4f5c" x="861.474609"/>
     <use xlink:href="#ArialUnicodeMS-539f" x="961.474609"/>
     <use xlink:href="#ArialUnicodeMS-7406" x="1061.474609"/>
    </g>
   </g>
   <g id="text_2">
    <!-- 0 -->
    <g style="fill: #ffffff" transform="translate(92.276591 215.577656) scale(0.13 -0.13)">
     <defs>
      <path id="ArialUnicodeMS-30" d="M 1778 4603 
Q 3272 4603 3272 2259 
Q 3272 1075 2886 498 
Q 2500 -78 1778 -78 
Q 288 -78 288 2259 
Q 288 3444 673 4023 
Q 1059 4603 1778 4603 
z
M 1778 384 
Q 2231 384 2462 823 
Q 2694 1263 2694 2259 
Q 2694 2953 2592 3351 
Q 2491 3750 2286 3945 
Q 2081 4141 1772 4141 
Q 1319 4141 1091 3694 
Q 863 3247 863 2259 
Q 863 1575 966 1175 
Q 1069 775 1272 579 
Q 1475 384 1778 384 
z
" transform="scale(0.015625)"/>
     </defs>
     <use xlink:href="#ArialUnicodeMS-30"/>
    </g>
   </g>
   <g id="text_3">
    <!-- 1 -->
    <g style="fill: #ffffff" transform="translate(136.622191 215.577656) scale(0.13 -0.13)">
     <defs>
      <path id="ArialUnicodeMS-31" d="M 2400 0 
L 1838 0 
L 1838 3584 
Q 1416 3184 709 2906 
L 709 3450 
Q 1681 3916 2034 4603 
L 2400 4603 
L 2400 0 
z
" transform="scale(0.015625)"/>
     </defs>
     <use xlink:href="#ArialUnicodeMS-31"/>
    </g>
   </g>
   <g id="text_4">
    <!-- 2 -->
    <g style="fill: #ffffff" transform="translate(180.967791 215.577656) scale(0.13 -0.13)">
     <defs>
      <path id="ArialUnicodeMS-32" d="M 3231 0 
L 197 0 
Q 197 388 467 784 
Q 738 1181 1478 1778 
Q 1931 2141 2287 2539 
Q 2644 2938 2644 3341 
Q 2644 3688 2398 3914 
Q 2153 4141 1778 4141 
Q 1400 4141 1144 3908 
Q 888 3675 884 3213 
L 306 3278 
Q 359 3922 764 4262 
Q 1169 4603 1791 4603 
Q 2466 4603 2842 4229 
Q 3219 3856 3219 3328 
Q 3219 2888 2901 2436 
Q 2584 1984 1638 1228 
Q 1141 831 978 544 
L 3231 544 
L 3231 0 
z
" transform="scale(0.015625)"/>
     </defs>
     <use xlink:href="#ArialUnicodeMS-32"/>
    </g>
   </g>
   <g id="text_5">
    <!-- 3 -->
    <g style="fill: #ffffff" transform="translate(225.313391 215.577656) scale(0.13 -0.13)">
     <defs>
      <path id="ArialUnicodeMS-33" d="M 2425 2478 
Q 2850 2397 3067 2067 
Q 3284 1738 3284 1350 
Q 3284 725 2829 323 
Q 2375 -78 1741 -78 
Q 1134 -78 740 275 
Q 347 628 281 1209 
L 844 1288 
Q 928 834 1151 609 
Q 1375 384 1741 384 
Q 2134 384 2407 661 
Q 2681 938 2681 1338 
Q 2681 1722 2432 1975 
Q 2184 2228 1784 2228 
Q 1622 2228 1388 2169 
L 1453 2663 
Q 1678 2663 1809 2684 
Q 1941 2706 2103 2790 
Q 2266 2875 2372 3033 
Q 2478 3191 2478 3425 
Q 2478 3766 2251 3953 
Q 2025 4141 1728 4141 
Q 1388 4141 1173 3925 
Q 959 3709 903 3309 
L 341 3413 
Q 450 4009 823 4306 
Q 1197 4603 1716 4603 
Q 2288 4603 2670 4258 
Q 3053 3913 3053 3413 
Q 3053 2772 2425 2491 
L 2425 2478 
z
" transform="scale(0.015625)"/>
     </defs>
     <use xlink:href="#ArialUnicodeMS-33"/>
    </g>
   </g>
   <g id="text_6">
    <!-- 4 -->
    <g style="fill: #ffffff" transform="translate(269.658991 215.577656) scale(0.13 -0.13)">
     <defs>
      <path id="ArialUnicodeMS-34" d="M 3263 1094 
L 2644 1094 
L 2644 0 
L 2081 0 
L 2081 1094 
L 97 1094 
L 97 1613 
L 2181 4581 
L 2644 4581 
L 2644 1613 
L 3263 1613 
L 3263 1094 
z
M 2081 1613 
L 2081 3681 
L 2069 3681 
L 647 1613 
L 2081 1613 
z
" transform="scale(0.015625)"/>
     </defs>
     <use xlink:href="#ArialUnicodeMS-34"/>
    </g>
   </g>
   <g id="text_7">
    <!-- 5 -->
    <g style="fill: #ffffff" transform="translate(314.004591 215.577656) scale(0.13 -0.13)">
     <defs>
      <path id="ArialUnicodeMS-35" d="M 1013 2753 
Q 1431 3041 1881 3041 
Q 2453 3041 2878 2636 
Q 3303 2231 3303 1556 
Q 3303 875 2872 398 
Q 2441 -78 1741 -78 
Q 1169 -78 750 245 
Q 331 569 269 1203 
L 856 1247 
Q 928 813 1162 598 
Q 1397 384 1741 384 
Q 2169 384 2434 707 
Q 2700 1031 2700 1503 
Q 2700 1984 2428 2262 
Q 2156 2541 1728 2541 
Q 1188 2541 897 2100 
L 366 2163 
L 813 4519 
L 3084 4519 
L 3084 3975 
L 1259 3975 
L 1013 2753 
z
" transform="scale(0.015625)"/>
     </defs>
     <use xlink:href="#ArialUnicodeMS-35"/>
    </g>
   </g>
   <g id="text_8">
    <!-- 6 -->
    <g style="fill: #ffffff" transform="translate(358.350191 215.577656) scale(0.13 -0.13)">
     <defs>
      <path id="ArialUnicodeMS-36" d="M 838 2363 
Q 1225 2969 1941 2969 
Q 2503 2969 2897 2553 
Q 3291 2138 3291 1491 
Q 3291 838 2898 380 
Q 2506 -78 1856 -78 
Q 1197 -78 733 409 
Q 269 897 269 2144 
Q 269 3369 689 3986 
Q 1109 4603 1906 4603 
Q 2422 4603 2778 4315 
Q 3134 4028 3213 3463 
L 2650 3413 
Q 2497 4141 1875 4141 
Q 1444 4141 1134 3712 
Q 825 3284 825 2363 
L 838 2363 
z
M 1844 384 
Q 2231 384 2472 696 
Q 2713 1009 2713 1453 
Q 2713 1897 2472 2187 
Q 2231 2478 1825 2478 
Q 1453 2478 1184 2204 
Q 916 1931 916 1484 
Q 916 1028 1180 706 
Q 1444 384 1844 384 
z
" transform="scale(0.015625)"/>
     </defs>
     <use xlink:href="#ArialUnicodeMS-36"/>
    </g>
   </g>
   <g id="text_9">
    <!-- 7 -->
    <g style="fill: #ffffff" transform="translate(402.695791 215.577656) scale(0.13 -0.13)">
     <defs>
      <path id="ArialUnicodeMS-37" d="M 3272 4084 
Q 2597 3344 2103 2253 
Q 1609 1163 1522 0 
L 947 0 
Q 969 934 1408 2051 
Q 1847 3169 2547 3975 
L 306 3975 
L 306 4519 
L 3272 4519 
L 3272 4084 
z
" transform="scale(0.015625)"/>
     </defs>
     <use xlink:href="#ArialUnicodeMS-37"/>
    </g>
   </g>
   <g id="text_10">
    <!-- 8 -->
    <g style="fill: #ffffff" transform="translate(447.041391 215.577656) scale(0.13 -0.13)">
     <defs>
      <path id="ArialUnicodeMS-38" d="M 2425 2478 
Q 3284 2203 3284 1306 
Q 3284 716 2862 319 
Q 2441 -78 1778 -78 
Q 1109 -78 689 322 
Q 269 722 269 1325 
Q 269 1759 505 2084 
Q 741 2409 1141 2478 
L 1141 2491 
Q 453 2703 453 3419 
Q 453 3925 815 4264 
Q 1178 4603 1766 4603 
Q 2363 4603 2730 4253 
Q 3097 3903 3097 3406 
Q 3097 2731 2425 2491 
L 2425 2478 
z
M 1778 2700 
Q 2094 2700 2308 2901 
Q 2522 3103 2522 3406 
Q 2522 3716 2305 3928 
Q 2088 4141 1772 4141 
Q 1450 4141 1240 3931 
Q 1031 3722 1031 3438 
Q 1031 3097 1247 2898 
Q 1463 2700 1778 2700 
z
M 1778 384 
Q 2175 384 2440 640 
Q 2706 897 2706 1306 
Q 2706 1716 2432 1978 
Q 2159 2241 1766 2241 
Q 1356 2241 1100 1970 
Q 844 1700 844 1319 
Q 844 922 1108 653 
Q 1372 384 1778 384 
z
" transform="scale(0.015625)"/>
     </defs>
     <use xlink:href="#ArialUnicodeMS-38"/>
    </g>
   </g>
   <g id="text_11">
    <!-- 9 -->
    <g style="fill: #ffffff" transform="translate(491.386991 215.577656) scale(0.13 -0.13)">
     <defs>
      <path id="ArialUnicodeMS-39" d="M 2713 2156 
Q 2547 1888 2258 1722 
Q 1969 1556 1631 1556 
Q 1066 1556 670 1970 
Q 275 2384 275 3053 
Q 275 3734 678 4168 
Q 1081 4603 1716 4603 
Q 2353 4603 2818 4106 
Q 3284 3609 3284 2388 
Q 3284 1147 2859 534 
Q 2434 -78 1644 -78 
Q 1128 -78 781 205 
Q 434 488 359 1063 
L 897 1106 
Q 1025 384 1656 384 
Q 2175 384 2450 857 
Q 2725 1331 2725 2156 
L 2713 2156 
z
M 1766 2047 
Q 2178 2047 2420 2339 
Q 2663 2631 2663 3078 
Q 2663 3531 2414 3836 
Q 2166 4141 1778 4141 
Q 1388 4141 1119 3817 
Q 850 3494 850 3034 
Q 850 2600 1114 2323 
Q 1378 2047 1766 2047 
z
" transform="scale(0.015625)"/>
     </defs>
     <use xlink:href="#ArialUnicodeMS-39"/>
    </g>
   </g>
   <g id="text_12">
    <!-- 10 -->
    <g style="fill: #ffffff" transform="translate(532.117981 215.577656) scale(0.13 -0.13)">
     <use xlink:href="#ArialUnicodeMS-31"/>
     <use xlink:href="#ArialUnicodeMS-30" x="55.615234"/>
    </g>
   </g>
   <g id="text_13">
    <!-- 11 -->
    <g style="fill: #ffffff" transform="translate(576.463581 215.577656) scale(0.13 -0.13)">
     <use xlink:href="#ArialUnicodeMS-31"/>
     <use xlink:href="#ArialUnicodeMS-31" x="55.615234"/>
    </g>
   </g>
   <g id="text_14">
    <!-- 12 -->
    <g style="fill: #ffffff" transform="translate(620.809181 215.577656) scale(0.13 -0.13)">
     <use xlink:href="#ArialUnicodeMS-31"/>
     <use xlink:href="#ArialUnicodeMS-32" x="55.615234"/>
    </g>
   </g>
   <g id="text_15">
    <!-- 13 -->
    <g style="fill: #ffffff" transform="translate(665.154781 215.577656) scale(0.13 -0.13)">
     <use xlink:href="#ArialUnicodeMS-31"/>
     <use xlink:href="#ArialUnicodeMS-33" x="55.615234"/>
    </g>
   </g>
   <g id="text_16">
    <!-- 14 -->
    <g style="fill: #ffffff" transform="translate(709.500381 215.577656) scale(0.13 -0.13)">
     <use xlink:href="#ArialUnicodeMS-31"/>
     <use xlink:href="#ArialUnicodeMS-34" x="55.615234"/>
    </g>
   </g>
   <g id="text_17">
    <!-- 15 -->
    <g style="fill: #ffffff" transform="translate(753.845981 215.577656) scale(0.13 -0.13)">
     <use xlink:href="#ArialUnicodeMS-31"/>
     <use xlink:href="#ArialUnicodeMS-35" x="55.615234"/>
    </g>
   </g>
   <g id="text_18">
    <!-- Input Array (N elements) -->
    <g transform="translate(368.966937 168) scale(0.15 -0.15)">
     <defs>
      <path id="ArialUnicodeMS-49" d="M 1197 0 
L 588 0 
L 588 4581 
L 1197 4581 
L 1197 0 
z
" transform="scale(0.015625)"/>
      <path id="ArialUnicodeMS-6e" d="M 3138 0 
L 2572 0 
L 2572 2016 
Q 2572 2525 2389 2715 
Q 2206 2906 1881 2906 
Q 1631 2906 1407 2784 
Q 1184 2663 1090 2441 
Q 997 2219 997 1813 
L 997 0 
L 434 0 
L 434 3316 
L 941 3316 
L 941 2847 
L 953 2847 
Q 1131 3119 1392 3255 
Q 1653 3391 1997 3391 
Q 2259 3391 2515 3297 
Q 2772 3203 2917 3015 
Q 3063 2828 3100 2615 
Q 3138 2403 3138 2041 
L 3138 0 
z
" transform="scale(0.015625)"/>
      <path id="ArialUnicodeMS-75" d="M 3116 0 
L 2613 0 
L 2613 488 
L 2597 488 
Q 2216 -78 1556 -78 
Q 1209 -78 914 83 
Q 619 244 520 526 
Q 422 809 422 1259 
L 422 3316 
L 984 3316 
L 984 1478 
Q 984 1038 1026 847 
Q 1069 656 1247 532 
Q 1425 409 1672 409 
Q 1991 409 2272 629 
Q 2553 850 2553 1544 
L 2553 3316 
L 3116 3316 
L 3116 0 
z
" transform="scale(0.015625)"/>
      <path id="ArialUnicodeMS-41" d="M 4275 0 
L 3591 0 
L 3053 1394 
L 1141 1394 
L 634 0 
L -6 0 
L 1753 4581 
L 2406 4581 
L 4275 0 
z
M 2869 1875 
Q 2306 3363 2234 3564 
Q 2163 3766 2075 4103 
L 2059 4103 
Q 1972 3641 1825 3247 
L 1313 1875 
L 2869 1875 
z
" transform="scale(0.015625)"/>
      <path id="ArialUnicodeMS-61" d="M 3303 0 
L 2713 0 
Q 2631 156 2597 409 
Q 2031 -78 1375 -78 
Q 850 -78 547 184 
Q 244 447 244 878 
Q 244 1291 536 1558 
Q 828 1825 1550 1913 
L 2075 1991 
Q 2369 2038 2559 2106 
Q 2559 2359 2543 2464 
Q 2528 2569 2451 2681 
Q 2375 2794 2206 2862 
Q 2038 2931 1753 2931 
Q 1391 2931 1180 2797 
Q 969 2663 891 2297 
L 341 2369 
Q 431 2878 806 3134 
Q 1181 3391 1838 3391 
Q 2434 3391 2714 3214 
Q 2994 3038 3058 2788 
Q 3122 2538 3122 2144 
L 3122 1388 
Q 3122 697 3148 461 
Q 3175 225 3303 0 
z
M 2559 1459 
L 2559 1663 
Q 2119 1516 1481 1430 
Q 844 1344 844 891 
Q 844 663 1016 514 
Q 1188 366 1509 366 
Q 1925 366 2242 614 
Q 2559 863 2559 1459 
z
" transform="scale(0.015625)"/>
      <path id="ArialUnicodeMS-79" d="M 3150 3316 
L 1881 -56 
Q 1878 -63 1875 -78 
Q 1694 -641 1451 -992 
Q 1209 -1344 763 -1344 
Q 613 -1344 397 -1281 
L 341 -750 
Q 503 -800 659 -800 
Q 972 -800 1092 -628 
Q 1213 -456 1363 -6 
L 103 3316 
L 709 3316 
L 1491 1144 
Q 1559 944 1638 628 
L 1650 628 
Q 1728 991 1850 1319 
L 2578 3316 
L 3150 3316 
z
" transform="scale(0.015625)"/>
      <path id="ArialUnicodeMS-28" d="M 1900 -1344 
L 1497 -1344 
Q 978 -681 681 103 
Q 384 888 384 1656 
Q 384 2528 700 3275 
Q 1016 4022 1497 4659 
L 1900 4659 
Q 1344 3747 1155 3059 
Q 966 2372 966 1663 
Q 966 153 1900 -1344 
z
" transform="scale(0.015625)"/>
      <path id="ArialUnicodeMS-4e" d="M 4109 0 
L 3488 0 
L 1094 3597 
L 1081 3597 
L 1081 0 
L 506 0 
L 506 4581 
L 1125 4581 
L 3519 984 
L 3531 984 
L 3531 4581 
L 4109 4581 
L 4109 0 
z
" transform="scale(0.015625)"/>
      <path id="ArialUnicodeMS-6c" d="M 991 0 
L 428 0 
L 428 4581 
L 991 4581 
L 991 0 
z
" transform="scale(0.015625)"/>
      <path id="ArialUnicodeMS-6d" d="M 4922 0 
L 4359 0 
L 4359 2094 
Q 4359 2325 4328 2489 
Q 4297 2653 4167 2779 
Q 4038 2906 3763 2906 
Q 3431 2906 3190 2675 
Q 2950 2444 2950 1925 
L 2950 0 
L 2388 0 
L 2388 2156 
Q 2388 2588 2236 2747 
Q 2084 2906 1806 2906 
Q 1444 2906 1211 2656 
Q 978 2406 978 1722 
L 978 0 
L 416 0 
L 416 3316 
L 922 3316 
L 922 2853 
L 934 2853 
Q 1272 3391 1925 3391 
Q 2291 3391 2527 3245 
Q 2763 3100 2869 2809 
Q 3238 3391 3891 3391 
Q 4406 3391 4664 3112 
Q 4922 2834 4922 2278 
L 4922 0 
z
" transform="scale(0.015625)"/>
      <path id="ArialUnicodeMS-73" d="M 2278 2388 
Q 2241 2659 2058 2795 
Q 1875 2931 1550 2931 
Q 1228 2931 1029 2822 
Q 831 2713 831 2503 
Q 831 2306 989 2222 
Q 1147 2138 1613 2016 
Q 2138 1881 2398 1778 
Q 2659 1675 2804 1489 
Q 2950 1303 2950 972 
Q 2950 528 2587 225 
Q 2225 -78 1619 -78 
Q 988 -78 633 189 
Q 278 456 197 991 
L 756 1075 
Q 800 728 1014 556 
Q 1228 384 1613 384 
Q 1981 384 2178 539 
Q 2375 694 2375 916 
Q 2375 1066 2284 1156 
Q 2194 1247 2058 1292 
Q 1922 1338 1447 1453 
Q 741 1622 514 1862 
Q 288 2103 288 2438 
Q 288 2853 619 3122 
Q 950 3391 1509 3391 
Q 2103 3391 2433 3158 
Q 2763 2925 2828 2463 
L 2278 2388 
z
" transform="scale(0.015625)"/>
      <path id="ArialUnicodeMS-29" d="M 634 4659 
Q 1153 3997 1450 3212 
Q 1747 2428 1747 1656 
Q 1747 788 1431 41 
Q 1116 -706 634 -1344 
L 231 -1344 
Q 788 -431 977 255 
Q 1166 941 1166 1650 
Q 1166 3163 231 4659 
L 634 4659 
z
" transform="scale(0.015625)"/>
     </defs>
     <use xlink:href="#ArialUnicodeMS-49"/>
     <use xlink:href="#ArialUnicodeMS-6e" x="27.783203"/>
     <use xlink:href="#ArialUnicodeMS-70" x="83.398438"/>
     <use xlink:href="#ArialUnicodeMS-75" x="139.013672"/>
     <use xlink:href="#ArialUnicodeMS-74" x="194.628906"/>
     <use xlink:href="#ArialUnicodeMS-20" x="222.412109"/>
     <use xlink:href="#ArialUnicodeMS-41" x="250.195312"/>
     <use xlink:href="#ArialUnicodeMS-72" x="316.894531"/>
     <use xlink:href="#ArialUnicodeMS-72" x="350.195312"/>
     <use xlink:href="#ArialUnicodeMS-61" x="383.496094"/>
     <use xlink:href="#ArialUnicodeMS-79" x="439.111328"/>
     <use xlink:href="#ArialUnicodeMS-20" x="489.111328"/>
     <use xlink:href="#ArialUnicodeMS-28" x="516.894531"/>
     <use xlink:href="#ArialUnicodeMS-4e" x="550.195312"/>
     <use xlink:href="#ArialUnicodeMS-20" x="622.412109"/>
     <use xlink:href="#ArialUnicodeMS-65" x="650.195312"/>
     <use xlink:href="#ArialUnicodeMS-6c" x="705.810547"/>
     <use xlink:href="#ArialUnicodeMS-65" x="728.027344"/>
     <use xlink:href="#ArialUnicodeMS-6d" x="783.642578"/>
     <use xlink:href="#ArialUnicodeMS-65" x="866.943359"/>
     <use xlink:href="#ArialUnicodeMS-6e" x="922.558594"/>
     <use xlink:href="#ArialUnicodeMS-74" x="978.173828"/>
     <use xlink:href="#ArialUnicodeMS-73" x="1005.957031"/>
     <use xlink:href="#ArialUnicodeMS-29" x="1055.957031"/>
    </g>
   </g>
   <g id="text_19">
    <!-- T0 -->
    <g style="fill: #ffffff" transform="translate(99.12355 317.510437) scale(0.12 -0.12)">
     <defs>
      <path id="ArialUnicodeMS-54" d="M 3769 4038 
L 2253 4038 
L 2253 0 
L 1644 0 
L 1644 4038 
L 141 4038 
L 141 4581 
L 3769 4581 
L 3769 4038 
z
" transform="scale(0.015625)"/>
     </defs>
     <use xlink:href="#ArialUnicodeMS-54"/>
     <use xlink:href="#ArialUnicodeMS-30" x="61.083984"/>
    </g>
    <!-- 0,4,8,12 -->
    <g style="fill: #ffffff" transform="translate(84.441362 330.208312) scale(0.12 -0.12)">
     <defs>
      <path id="ArialUnicodeMS-2c" d="M 1216 0 
Q 1216 -397 1064 -606 
Q 913 -816 691 -903 
L 538 -666 
Q 888 -516 891 0 
L 575 0 
L 575 641 
L 1216 641 
L 1216 0 
z
" transform="scale(0.015625)"/>
     </defs>
     <use xlink:href="#ArialUnicodeMS-30"/>
     <use xlink:href="#ArialUnicodeMS-2c" x="55.615234"/>
     <use xlink:href="#ArialUnicodeMS-34" x="83.398438"/>
     <use xlink:href="#ArialUnicodeMS-2c" x="139.013672"/>
     <use xlink:href="#ArialUnicodeMS-38" x="166.796875"/>
     <use xlink:href="#ArialUnicodeMS-2c" x="222.412109"/>
     <use xlink:href="#ArialUnicodeMS-31" x="250.195312"/>
     <use xlink:href="#ArialUnicodeMS-32" x="305.810547"/>
    </g>
   </g>
   <g id="patch_22">
    <path d="M 105.861944 294.65748 
Q 101.860785 264.479885 98.035967 235.632291 
" style="fill: none; stroke: #4c78a8; stroke-width: 1.2; stroke-linecap: round"/>
    <path d="M 96.579065 239.860463 
L 98.035967 235.632291 
L 100.544363 239.334715 
" style="fill: none; stroke: #4c78a8; stroke-width: 1.2; stroke-linecap: round"/>
   </g>
   <g id="text_20">
    <!-- T1 -->
    <g style="fill: #ffffff" transform="translate(167.34755 317.510437) scale(0.12 -0.12)">
     <use xlink:href="#ArialUnicodeMS-54"/>
     <use xlink:href="#ArialUnicodeMS-31" x="61.083984"/>
    </g>
    <!-- 1,5,9,13 -->
    <g style="fill: #ffffff" transform="translate(152.665362 330.208312) scale(0.12 -0.12)">
     <use xlink:href="#ArialUnicodeMS-31"/>
     <use xlink:href="#ArialUnicodeMS-2c" x="55.615234"/>
     <use xlink:href="#ArialUnicodeMS-35" x="83.398438"/>
     <use xlink:href="#ArialUnicodeMS-2c" x="139.013672"/>
     <use xlink:href="#ArialUnicodeMS-39" x="166.796875"/>
     <use xlink:href="#ArialUnicodeMS-2c" x="222.412109"/>
     <use xlink:href="#ArialUnicodeMS-31" x="250.195312"/>
     <use xlink:href="#ArialUnicodeMS-33" x="305.810547"/>
    </g>
   </g>
   <g id="patch_23">
    <path d="M 173.448842 294.85377 
Q 158.144642 264.478098 143.44411 235.300585 
" style="fill: none; stroke: #f58518; stroke-width: 1.2; stroke-linecap: round"/>
    <path d="M 143.457795 239.7727 
L 143.44411 235.300585 
L 147.030013 237.972906 
" style="fill: none; stroke: #f58518; stroke-width: 1.2; stroke-linecap: round"/>
   </g>
   <g id="text_21">
    <!-- T2 -->
    <g style="fill: #ffffff" transform="translate(235.57155 317.510437) scale(0.12 -0.12)">
     <use xlink:href="#ArialUnicodeMS-54"/>
     <use xlink:href="#ArialUnicodeMS-32" x="61.083984"/>
    </g>
    <!-- 2,6,10,14 -->
    <g style="fill: #ffffff" transform="translate(217.5528 330.208312) scale(0.12 -0.12)">
     <use xlink:href="#ArialUnicodeMS-32"/>
     <use xlink:href="#ArialUnicodeMS-2c" x="55.615234"/>
     <use xlink:href="#ArialUnicodeMS-36" x="83.398438"/>
     <use xlink:href="#ArialUnicodeMS-2c" x="139.013672"/>
     <use xlink:href="#ArialUnicodeMS-31" x="166.796875"/>
     <use xlink:href="#ArialUnicodeMS-30" x="222.412109"/>
     <use xlink:href="#ArialUnicodeMS-2c" x="278.027344"/>
     <use xlink:href="#ArialUnicodeMS-31" x="305.810547"/>
     <use xlink:href="#ArialUnicodeMS-34" x="361.425781"/>
    </g>
   </g>
   <g id="patch_24">
    <path d="M 241.255343 295.134463 
Q 214.430078 264.479632 188.488333 234.834452 
" style="fill: none; stroke: #e45756; stroke-width: 1.2; stroke-linecap: round"/>
    <path d="M 189.617381 239.161721 
L 188.488333 234.834452 
L 192.627577 236.527575 
" style="fill: none; stroke: #e45756; stroke-width: 1.2; stroke-linecap: round"/>
   </g>
   <g id="text_22">
    <!-- T3 -->
    <g style="fill: #ffffff" transform="translate(303.79555 317.510437) scale(0.12 -0.12)">
     <use xlink:href="#ArialUnicodeMS-54"/>
     <use xlink:href="#ArialUnicodeMS-33" x="61.083984"/>
    </g>
    <!-- 3,7,11,15 -->
    <g style="fill: #ffffff" transform="translate(285.7768 330.208312) scale(0.12 -0.12)">
     <use xlink:href="#ArialUnicodeMS-33"/>
     <use xlink:href="#ArialUnicodeMS-2c" x="55.615234"/>
     <use xlink:href="#ArialUnicodeMS-37" x="83.398438"/>
     <use xlink:href="#ArialUnicodeMS-2c" x="139.013672"/>
     <use xlink:href="#ArialUnicodeMS-31" x="166.796875"/>
     <use xlink:href="#ArialUnicodeMS-31" x="222.412109"/>
     <use xlink:href="#ArialUnicodeMS-2c" x="278.027344"/>
     <use xlink:href="#ArialUnicodeMS-31" x="305.810547"/>
     <use xlink:href="#ArialUnicodeMS-35" x="361.425781"/>
    </g>
   </g>
   <g id="patch_25">
    <path d="M 309.238452 295.389639 
Q 270.716845 264.48132 233.241676 234.412624 
" style="fill: none; stroke: #72b7b2; stroke-width: 1.2; stroke-linecap: round"/>
    <path d="M 235.109915 238.475835 
L 233.241676 234.412624 
L 237.613188 235.35596 
" style="fill: none; stroke: #72b7b2; stroke-width: 1.2; stroke-linecap: round"/>
   </g>
   <g id="text_23">
    <!-- 每个线程从自己的 tid 开始，以 stride = gridDim.x * blockDim.x 为步长遍历数组 -->
    <g transform="translate(206.992562 369) scale(0.14 -0.14)">
     <defs>
      <path id="ArialUnicodeMS-6bcf" d="M 5838 4372 
L 1906 4372 
Q 1556 3769 825 3047 
L 428 3347 
Q 1447 4247 1838 5394 
L 2303 5241 
Q 2272 5134 2119 4838 
L 5838 4838 
L 5838 4372 
z
M 6009 1941 
L 5228 1941 
L 5100 884 
L 5697 884 
L 5697 416 
L 5044 416 
Q 4956 -403 4203 -403 
Q 3819 -403 3309 -331 
L 3138 159 
Q 3741 44 4072 44 
Q 4506 44 4506 416 
L 1613 416 
L 1544 116 
L 1038 213 
Q 1172 644 1363 1941 
L 409 1941 
L 409 2413 
L 1434 2413 
Q 1497 2772 1600 3866 
L 5394 3866 
L 5281 2413 
L 6009 2413 
L 6009 1941 
z
M 4850 3397 
L 2053 3397 
Q 1984 2681 1941 2413 
L 4775 2413 
Q 4850 3094 4850 3397 
z
M 4166 2784 
L 3822 2431 
Q 3269 2881 2394 3016 
L 2725 3366 
Q 3719 3213 4166 2784 
z
M 4716 1941 
L 2675 1941 
Q 3525 1750 4122 1234 
L 3781 903 
Q 3309 1316 2278 1594 
L 2547 1941 
L 1875 1941 
L 1691 884 
L 4594 884 
Q 4656 1278 4716 1941 
z
" transform="scale(0.015625)"/>
      <path id="ArialUnicodeMS-4e2a" d="M 6113 2503 
L 5728 2163 
Q 3956 3153 3200 4469 
Q 2788 3750 2070 3109 
Q 1353 2469 609 2156 
L 191 2491 
Q 2191 3438 3116 5325 
L 3547 5125 
L 3463 4947 
Q 4066 3694 6113 2503 
z
M 3406 -447 
L 2919 -447 
L 2919 3531 
L 3406 3531 
L 3406 -447 
z
" transform="scale(0.015625)"/>
      <path id="ArialUnicodeMS-7ebf" d="M 2503 3981 
Q 1903 2625 1141 1947 
L 1153 1931 
L 2444 2144 
L 2456 1709 
Q 1428 1534 575 1313 
L 341 1772 
Q 934 2234 1344 2919 
L 563 2725 
L 347 3206 
Q 1059 4156 1325 5319 
Q 1403 5288 1551 5209 
Q 1700 5131 1791 5100 
Q 1441 3947 959 3316 
Q 1597 3375 1650 3397 
Q 1944 3938 2059 4225 
L 2503 3981 
z
M 5997 481 
Q 5925 44 5808 -170 
Q 5691 -384 5497 -384 
Q 5319 -384 4869 -115 
Q 4419 153 4031 666 
Q 3594 188 2388 -341 
L 2088 72 
Q 3097 466 3763 1088 
Q 3503 1550 3406 2419 
L 2484 2272 
L 2406 2725 
L 3378 2900 
L 3378 3397 
L 2606 3278 
L 2522 3731 
L 3378 3891 
L 3378 5209 
Q 3763 5288 3866 5294 
L 3866 3975 
L 5409 4231 
L 5497 3781 
Q 4550 3622 3866 3481 
L 3866 2994 
L 5772 3341 
Q 5825 3150 5856 2875 
L 3884 2516 
Q 3988 1794 4147 1466 
Q 4731 1991 5075 2484 
L 5453 2222 
Q 4731 1353 4372 1025 
Q 4753 456 5403 153 
Q 5494 378 5509 750 
L 5997 481 
z
M 5166 4544 
L 4831 4225 
Q 4478 4656 4019 4856 
L 4306 5178 
Q 4784 4956 5166 4544 
z
M 2578 872 
L 531 134 
Q 500 197 412 347 
Q 325 497 281 603 
L 2578 1369 
L 2578 872 
z
" transform="scale(0.015625)"/>
      <path id="ArialUnicodeMS-7a0b" d="M 2791 1844 
L 2394 1544 
Q 2159 2056 1856 2350 
L 1856 -447 
L 1369 -447 
L 1369 2034 
L 1363 2034 
Q 1100 1384 575 697 
L 184 1031 
Q 1006 1956 1319 3206 
L 403 3206 
L 403 3675 
L 1369 3675 
L 1369 4397 
Q 928 4284 588 4250 
L 366 4678 
Q 1678 4850 2463 5222 
L 2772 4878 
Q 2388 4669 1856 4506 
L 1856 3675 
L 2675 3675 
L 2675 3206 
L 1856 3206 
L 1856 2688 
L 2028 2841 
Q 2341 2547 2791 1844 
z
M 5575 3194 
L 2894 3194 
L 2894 5063 
L 5575 5063 
L 5575 3194 
z
M 5088 3659 
L 5088 4622 
L 3378 4622 
L 3378 3659 
L 5088 3659 
z
M 6075 -103 
L 2284 -103 
L 2284 341 
L 3988 341 
L 3988 1119 
L 2688 1119 
L 2688 1588 
L 3988 1588 
L 3988 2322 
L 2619 2322 
L 2619 2766 
L 5844 2766 
L 5844 2322 
L 4475 2322 
L 4475 1588 
L 5703 1588 
L 5703 1119 
L 4475 1119 
L 4475 341 
L 6075 341 
L 6075 -103 
z
" transform="scale(0.015625)"/>
      <path id="ArialUnicodeMS-4ece" d="M 6169 -50 
L 5784 -409 
Q 4606 778 4300 2478 
Q 3994 891 2509 -459 
L 2119 -97 
Q 2913 609 3283 1268 
Q 3653 1928 3804 2565 
Q 3956 3203 3956 5350 
L 4459 5350 
L 4441 3597 
Q 4878 1278 6169 -50 
z
M 3206 1344 
L 2772 997 
Q 2622 1666 1984 2491 
Q 1775 831 519 -397 
L 116 -38 
Q 903 763 1259 1769 
Q 1616 2775 1594 4422 
L 1581 5331 
L 2088 5331 
L 2059 3128 
Q 2959 2028 3206 1344 
z
" transform="scale(0.015625)"/>
      <path id="ArialUnicodeMS-81ea" d="M 5253 -428 
L 4722 -416 
L 4722 97 
L 1791 97 
L 1791 -428 
L 1288 -428 
L 1288 4416 
L 2766 4416 
Q 3081 4791 3425 5459 
L 3878 5216 
Q 3734 4866 3425 4416 
L 5253 4416 
L 5253 -428 
z
M 4722 3188 
L 4722 3950 
L 1791 3950 
L 1791 3188 
L 4722 3188 
z
M 4722 1906 
L 4722 2719 
L 1791 2719 
L 1791 1906 
L 4722 1906 
z
M 4722 581 
L 4722 1441 
L 1791 1441 
L 1791 581 
L 4722 581 
z
" transform="scale(0.015625)"/>
      <path id="ArialUnicodeMS-5df1" d="M 5741 1344 
Q 5616 366 5412 183 
Q 5209 0 4928 0 
L 1613 0 
Q 984 66 984 531 
L 984 3034 
L 4475 3034 
L 4475 4416 
L 728 4416 
L 728 4884 
L 5006 4884 
L 5006 2234 
L 4475 2234 
L 4475 2547 
L 1491 2547 
L 1491 775 
Q 1491 469 1741 469 
L 4928 469 
Q 5000 469 5076 639 
Q 5153 809 5259 1528 
L 5741 1344 
z
" transform="scale(0.015625)"/>
      <path id="ArialUnicodeMS-7684" d="M 5644 4281 
Q 5619 1694 5395 673 
Q 5172 -347 4606 -347 
Q 4350 -347 3609 -134 
L 3525 403 
Q 4247 134 4531 134 
Q 4806 134 4976 1142 
Q 5147 2150 5159 3841 
L 3794 3841 
Q 3550 3166 3053 2497 
L 2719 2713 
L 2719 -147 
L 2216 -147 
L 2216 269 
L 1153 269 
L 1153 -250 
L 647 -250 
L 647 4184 
L 1234 4184 
Q 1494 4644 1625 5313 
L 2088 5125 
Q 1903 4444 1741 4184 
L 2719 4184 
L 2719 2881 
Q 3431 3888 3681 5363 
L 4191 5247 
Q 4106 4869 3916 4281 
L 5644 4281 
z
M 2216 2484 
L 2216 3719 
L 1153 3719 
L 1153 2484 
L 2216 2484 
z
M 2216 738 
L 2216 2016 
L 1153 2016 
L 1153 738 
L 2216 738 
z
M 4775 1369 
L 4313 1166 
Q 4034 1925 3444 2669 
L 3841 2931 
Q 4484 2191 4775 1369 
z
" transform="scale(0.015625)"/>
      <path id="ArialUnicodeMS-5f00" d="M 5797 2541 
L 4331 2541 
L 4331 -366 
L 3847 -366 
L 3847 2541 
L 2400 2541 
Q 2416 397 628 -366 
L 231 19 
Q 1919 609 1919 2541 
L 359 2541 
L 359 3009 
L 1913 3009 
L 1913 4525 
L 603 4525 
L 603 4991 
L 5538 4991 
L 5538 4525 
L 4331 4525 
L 4331 3009 
L 5797 3009 
L 5797 2541 
z
M 3847 3009 
L 3847 4525 
L 2400 4525 
L 2400 3009 
L 3847 3009 
z
" transform="scale(0.015625)"/>
      <path id="ArialUnicodeMS-59cb" d="M 6047 2656 
L 5575 2456 
Q 5481 2788 5388 2975 
L 2719 2713 
L 2619 2981 
Q 2503 2059 2216 1331 
Q 2497 1147 2963 709 
L 2650 288 
Q 2131 825 1984 872 
Q 1525 13 709 -475 
L 347 -134 
Q 1250 472 1581 1106 
Q 1181 1356 588 1528 
Q 891 2266 1172 3591 
L 469 3591 
L 469 4056 
L 1253 4056 
Q 1381 4750 1409 5306 
L 1894 5147 
Q 1825 4497 1741 4056 
L 2731 4056 
L 2663 3244 
Q 2938 3244 3041 3272 
Q 3609 4163 4025 5344 
L 4525 5125 
Q 3866 3672 3566 3272 
L 5191 3391 
Q 4928 3825 4603 4116 
L 4997 4353 
Q 5722 3688 6047 2656 
z
M 2234 3591 
L 1656 3591 
Q 1444 2541 1172 1819 
Q 1459 1719 1784 1556 
Q 2078 2272 2234 3591 
z
M 5563 -416 
L 5075 -416 
L 5075 109 
L 3500 109 
L 3500 -416 
L 3016 -416 
L 3016 2328 
L 5563 2328 
L 5563 -416 
z
M 5075 575 
L 5075 1863 
L 3500 1863 
L 3500 575 
L 5075 575 
z
" transform="scale(0.015625)"/>
      <path id="ArialUnicodeMS-ff0c" d="M 3544 0 
Q 3544 -397 3392 -606 
Q 3241 -816 3019 -903 
L 2866 -666 
Q 3216 -516 3219 0 
L 2903 0 
L 2903 641 
L 3544 641 
L 3544 0 
z
" transform="scale(0.015625)"/>
      <path id="ArialUnicodeMS-4ee5" d="M 6047 147 
L 5631 -197 
Q 5091 731 4281 1319 
Q 3578 366 2375 -331 
L 2069 122 
Q 2797 494 3337 1031 
Q 3878 1569 4162 2219 
Q 4447 2869 4489 3445 
Q 4531 4022 4531 5131 
L 5056 5131 
L 5031 3744 
Q 5013 2603 4538 1753 
Q 5453 1138 6047 147 
z
M 3284 1797 
Q 2700 1441 738 397 
L 422 844 
L 1222 1253 
L 1222 4922 
L 1741 4922 
L 1741 1528 
L 3284 2363 
L 3284 1797 
z
M 3794 3456 
L 3450 3034 
Q 2956 3678 2100 4044 
L 2438 4397 
Q 3163 4144 3794 3456 
z
" transform="scale(0.015625)"/>
      <path id="ArialUnicodeMS-3d" d="M 3384 2694 
L 353 2694 
L 353 3219 
L 3384 3219 
L 3384 2694 
z
M 3384 1300 
L 353 1300 
L 353 1825 
L 3384 1825 
L 3384 1300 
z
" transform="scale(0.015625)"/>
      <path id="ArialUnicodeMS-67" d="M 3144 447 
Q 3144 -259 3003 -607 
Q 2863 -956 2503 -1150 
Q 2144 -1344 1644 -1344 
Q 1081 -1344 706 -1094 
Q 331 -844 331 -275 
L 878 -359 
Q 909 -622 1098 -753 
Q 1288 -884 1638 -884 
Q 2075 -884 2278 -706 
Q 2481 -528 2526 -272 
Q 2572 -16 2572 434 
Q 2206 0 1650 0 
Q 1003 0 611 478 
Q 219 956 219 1684 
Q 219 2416 600 2903 
Q 981 3391 1656 3391 
Q 2244 3391 2613 2919 
L 2625 2919 
L 2625 3316 
L 3144 3316 
L 3144 447 
z
M 1703 459 
Q 2063 459 2341 745 
Q 2619 1031 2619 1703 
Q 2619 2297 2353 2614 
Q 2088 2931 1697 2931 
Q 1297 2931 1045 2606 
Q 794 2281 794 1716 
Q 794 1063 1058 761 
Q 1322 459 1703 459 
z
" transform="scale(0.015625)"/>
      <path id="ArialUnicodeMS-44" d="M 513 4581 
L 2094 4581 
Q 2509 4581 2809 4539 
Q 3109 4497 3382 4333 
Q 3656 4169 3861 3881 
Q 4066 3594 4183 3220 
Q 4300 2847 4300 2316 
Q 4300 1303 3819 651 
Q 3338 0 2163 0 
L 513 0 
L 513 4581 
z
M 1119 544 
L 2100 544 
Q 2400 544 2636 581 
Q 2872 619 3114 784 
Q 3356 950 3515 1328 
Q 3675 1706 3675 2328 
Q 3675 2672 3614 2970 
Q 3553 3269 3389 3514 
Q 3225 3759 3012 3873 
Q 2800 3988 2598 4013 
Q 2397 4038 2081 4038 
L 1119 4038 
L 1119 544 
z
" transform="scale(0.015625)"/>
      <path id="ArialUnicodeMS-2e" d="M 1209 0 
L 569 0 
L 569 641 
L 1209 641 
L 1209 0 
z
" transform="scale(0.015625)"/>
      <path id="ArialUnicodeMS-78" d="M 3156 0 
L 2463 0 
L 1600 1313 
L 728 0 
L 44 0 
L 1259 1728 
L 141 3316 
L 838 3316 
Q 1519 2288 1581 2169 
L 2394 3316 
L 3066 3316 
L 1919 1759 
L 3156 0 
z
" transform="scale(0.015625)"/>
      <path id="ArialUnicodeMS-2a" d="M 2278 3738 
Q 1906 3622 1497 3566 
Q 1644 3434 2041 2975 
L 1663 2706 
Q 1478 2953 1234 3378 
Q 1006 2944 825 2706 
L 459 2975 
Q 919 3525 978 3566 
Q 525 3656 213 3738 
L 359 4184 
Q 928 3975 1081 3878 
Q 1019 4419 1019 4659 
L 1466 4659 
Q 1466 4372 1409 3956 
Q 1394 3934 1394 3884 
Q 1691 4031 2131 4184 
L 2278 3738 
z
" transform="scale(0.015625)"/>
      <path id="ArialUnicodeMS-62" d="M 1006 2944 
Q 1319 3391 1900 3391 
Q 2541 3391 2925 2925 
Q 3309 2459 3309 1709 
Q 3309 844 2879 383 
Q 2450 -78 1875 -78 
Q 1291 -78 966 416 
L 953 416 
L 953 0 
L 428 0 
L 428 4581 
L 991 4581 
L 991 2944 
L 1006 2944 
z
M 1831 384 
Q 2222 384 2476 720 
Q 2731 1056 2731 1663 
Q 2731 2247 2497 2589 
Q 2263 2931 1850 2931 
Q 1444 2931 1195 2578 
Q 947 2225 947 1684 
Q 947 1156 1050 932 
Q 1153 709 1361 546 
Q 1569 384 1831 384 
z
" transform="scale(0.015625)"/>
      <path id="ArialUnicodeMS-63" d="M 3144 1147 
Q 3034 513 2643 217 
Q 2253 -78 1759 -78 
Q 1038 -78 644 395 
Q 250 869 250 1650 
Q 250 2297 476 2686 
Q 703 3075 1043 3233 
Q 1384 3391 1759 3391 
Q 2272 3391 2636 3125 
Q 3000 2859 3084 2344 
L 2541 2259 
Q 2456 2594 2267 2762 
Q 2078 2931 1784 2931 
Q 1313 2931 1069 2597 
Q 825 2263 825 1663 
Q 825 1050 1064 717 
Q 1303 384 1753 384 
Q 2116 384 2323 592 
Q 2531 800 2584 1216 
L 3144 1147 
z
" transform="scale(0.015625)"/>
      <path id="ArialUnicodeMS-6b" d="M 3175 0 
L 2484 0 
L 1381 1697 
L 984 1319 
L 984 0 
L 422 0 
L 422 4581 
L 984 4581 
L 984 1972 
L 2316 3316 
L 3047 3316 
L 1778 2088 
L 3175 0 
z
" transform="scale(0.015625)"/>
      <path id="ArialUnicodeMS-4e3a" d="M 5350 3828 
L 5306 2566 
Q 5281 1881 5236 1293 
Q 5191 706 5117 340 
Q 5044 -25 4945 -145 
Q 4847 -266 4720 -327 
Q 4594 -388 4428 -388 
Q 4206 -388 3700 -275 
L 3622 225 
Q 3725 206 3978 145 
Q 4231 84 4384 84 
Q 4459 84 4545 143 
Q 4631 203 4731 1045 
Q 4831 1888 4863 3359 
L 3181 3359 
Q 3169 2088 2673 1128 
Q 2178 169 953 -416 
L 622 13 
Q 1219 216 1762 723 
Q 2306 1231 2511 2029 
Q 2716 2828 2694 3359 
L 525 3359 
L 525 3828 
L 2694 3828 
L 2694 5294 
Q 3047 5306 3181 5306 
L 3181 3828 
L 5350 3828 
z
M 2284 4231 
L 1869 3903 
Q 1706 4347 1056 4781 
L 1453 5081 
Q 2041 4650 2284 4231 
z
M 4500 1350 
L 4063 1081 
Q 3913 1684 3219 2419 
L 3622 2656 
Q 4219 2072 4500 1350 
z
" transform="scale(0.015625)"/>
      <path id="ArialUnicodeMS-6b65" d="M 5966 2791 
L 3681 2791 
L 3681 1331 
Q 3681 1159 3542 1004 
Q 3403 850 3225 850 
L 2791 850 
L 2613 1338 
L 3059 1325 
Q 3175 1325 3175 1447 
L 3175 2791 
L 628 2791 
L 628 3256 
L 1544 3256 
L 1544 4756 
L 2047 4756 
L 2047 3256 
L 3109 3256 
L 3109 5344 
L 3616 5344 
L 3616 4525 
L 5644 4525 
L 5644 4056 
L 3616 4056 
L 3616 3256 
L 5966 3256 
L 5966 2791 
z
M 5581 2284 
Q 5144 1372 4631 919 
Q 4119 466 3164 123 
Q 2209 -219 544 -384 
L 366 109 
Q 2163 278 3063 614 
Q 3963 950 4381 1384 
Q 4800 1819 5147 2572 
L 5581 2284 
z
M 2638 2241 
Q 1872 1294 806 806 
L 447 1203 
Q 1469 1631 2241 2534 
L 2638 2241 
z
" transform="scale(0.015625)"/>
      <path id="ArialUnicodeMS-957f" d="M 6125 306 
L 5797 -122 
Q 3488 722 2981 2413 
L 2259 2413 
L 2259 319 
L 3597 844 
L 3597 366 
L 1984 -347 
L 1697 84 
Q 1772 172 1772 331 
L 1772 2413 
L 384 2413 
L 384 2881 
L 1772 2881 
L 1772 5269 
L 2259 5269 
L 2259 3553 
Q 3700 4050 4738 4916 
L 5069 4550 
Q 3859 3588 2259 3084 
L 2259 2881 
L 5978 2881 
L 5978 2413 
L 3469 2413 
Q 3947 959 6125 306 
z
" transform="scale(0.015625)"/>
      <path id="ArialUnicodeMS-904d" d="M 5913 4750 
L 1978 4750 
L 1978 5216 
L 5913 5216 
L 5913 4750 
z
M 1784 4091 
L 1350 3744 
Q 1050 4359 519 4788 
L 884 5100 
Q 1419 4678 1784 4091 
z
M 6138 275 
L 5931 -238 
L 3219 -238 
Q 2194 -238 1478 563 
L 616 -288 
L 213 166 
L 1216 947 
L 1216 2669 
L 366 2669 
L 366 3138 
L 1703 3138 
L 1703 1006 
Q 1759 928 1784 897 
Q 2150 1509 2150 2694 
L 2150 4391 
L 5663 4391 
L 5663 3128 
L 2638 3128 
L 2638 2613 
Q 2638 1425 2181 575 
Q 2469 347 2787 283 
Q 3106 219 3584 219 
Q 4259 219 6138 275 
z
M 5178 3597 
L 5178 3922 
L 2638 3922 
L 2638 3597 
L 5178 3597 
z
M 5778 856 
Q 5778 666 5648 525 
Q 5519 384 5331 384 
L 4891 384 
L 4744 838 
Q 4956 813 5088 813 
Q 5325 813 5325 897 
L 5325 1422 
L 4903 1422 
L 4903 909 
L 4447 909 
L 4447 1422 
L 4078 1422 
L 4078 603 
L 3622 603 
L 3622 1422 
L 3231 1422 
L 3231 447 
L 2778 447 
L 2778 2834 
L 5778 2834 
L 5778 856 
z
M 5325 1888 
L 5325 2369 
L 4903 2369 
L 4903 1888 
L 5325 1888 
z
M 4447 1888 
L 4447 2369 
L 4078 2369 
L 4078 1888 
L 4447 1888 
z
M 3622 1888 
L 3622 2369 
L 3231 2369 
L 3231 1888 
L 3622 1888 
z
" transform="scale(0.015625)"/>
      <path id="ArialUnicodeMS-5386" d="M 5831 4563 
L 1472 4563 
L 1472 2081 
Q 1472 1406 1258 718 
Q 1044 31 678 -366 
L 250 -56 
Q 594 325 789 901 
Q 984 1478 984 2009 
L 984 5031 
L 5831 5031 
L 5831 4563 
z
M 5478 3494 
Q 5425 2381 5295 1287 
Q 5166 194 5016 -45 
Q 4866 -284 4550 -284 
Q 4350 -284 3794 -238 
L 3688 275 
Q 4141 178 4413 178 
Q 4547 178 4615 301 
Q 4684 425 4779 1128 
Q 4875 1831 4953 3028 
L 3578 3028 
Q 3409 1338 2928 611 
Q 2447 -116 2003 -353 
L 1588 25 
Q 2156 378 2550 984 
Q 2944 1591 3072 3028 
L 1684 3028 
L 1684 3494 
L 3116 3494 
L 3156 4378 
L 3628 4319 
L 3603 3494 
L 5478 3494 
z
" transform="scale(0.015625)"/>
      <path id="ArialUnicodeMS-6570" d="M 6138 19 
L 5806 -378 
Q 5031 194 4697 716 
Q 4344 144 3328 -441 
L 2981 -50 
Q 3966 434 4403 1153 
Q 4038 1834 3866 2753 
Q 3678 2356 3353 1919 
L 2950 2203 
Q 3838 3172 3963 5253 
L 4409 5125 
Q 4341 4384 4269 4006 
L 5984 4006 
L 5984 3547 
L 5619 3541 
L 5594 3341 
Q 5441 2113 4978 1191 
Q 5281 672 6138 19 
z
M 5166 3541 
L 4172 3541 
Q 4297 2419 4691 1650 
Q 5038 2513 5166 3541 
z
M 3438 3653 
L 2209 3653 
L 2209 2338 
L 1919 2338 
Q 1900 2269 1753 1931 
L 3225 1931 
L 3225 1472 
L 2913 1472 
Q 2763 991 2503 666 
Q 2947 353 3103 184 
L 2747 -172 
Q 2463 138 2150 313 
Q 1322 -225 563 -428 
L 269 6 
Q 1106 163 1684 563 
Q 1291 756 703 884 
L 1038 1472 
L 403 1472 
L 403 1931 
L 1259 1931 
Q 1328 2056 1466 2553 
L 1747 2484 
L 1747 3653 
L 1716 3653 
Q 1413 2881 678 2456 
L 378 2803 
Q 938 3091 1241 3653 
L 403 3653 
L 403 4122 
L 1747 4122 
L 1747 5228 
L 2209 5228 
L 2209 4122 
L 3438 4122 
L 3438 3653 
z
M 2406 1472 
L 1538 1472 
Q 1422 1241 1369 1153 
Q 1388 1159 2069 884 
Q 2219 1031 2406 1472 
z
M 1625 4441 
L 1288 4159 
Q 1022 4547 575 4813 
L 878 5075 
Q 1394 4844 1625 4441 
z
M 3384 4844 
Q 3097 4409 2669 4172 
L 2322 4481 
Q 2806 4759 3047 5069 
L 3384 4844 
z
M 3303 2888 
L 2944 2578 
Q 2706 3025 2291 3297 
L 2584 3566 
Q 2988 3359 3303 2888 
z
" transform="scale(0.015625)"/>
      <path id="ArialUnicodeMS-7ec4" d="M 2509 1619 
Q 853 1231 622 1147 
L 391 1575 
Q 1022 2209 1306 2625 
L 1294 2638 
Q 1284 2631 1023 2561 
Q 763 2491 609 2438 
L 366 2881 
Q 853 3669 1441 5166 
L 1875 4966 
Q 1300 3650 947 3022 
L 1619 3163 
Q 1797 3416 2047 3922 
L 2503 3719 
Q 1863 2416 1153 1772 
L 1166 1759 
L 2509 2053 
L 2509 1619 
z
M 5919 -91 
L 2150 -91 
L 2150 378 
L 2881 378 
L 2881 4941 
L 5184 4941 
L 5184 378 
L 5919 378 
L 5919 -91 
z
M 4697 3469 
L 4697 4475 
L 3366 4475 
L 3366 3469 
L 4697 3469 
z
M 4697 1972 
L 4697 3028 
L 3366 3028 
L 3366 1972 
L 4697 1972 
z
M 4697 378 
L 4697 1528 
L 3366 1528 
L 3366 378 
L 4697 378 
z
M 2650 691 
L 647 19 
L 409 459 
Q 2306 1044 2650 1172 
L 2650 691 
z
" transform="scale(0.015625)"/>
     </defs>
     <use xlink:href="#ArialUnicodeMS-6bcf"/>
     <use xlink:href="#ArialUnicodeMS-4e2a" x="100"/>
     <use xlink:href="#ArialUnicodeMS-7ebf" x="200"/>
     <use xlink:href="#ArialUnicodeMS-7a0b" x="300"/>
     <use xlink:href="#ArialUnicodeMS-4ece" x="400"/>
     <use xlink:href="#ArialUnicodeMS-81ea" x="500"/>
     <use xlink:href="#ArialUnicodeMS-5df1" x="600"/>
     <use xlink:href="#ArialUnicodeMS-7684" x="700"/>
     <use xlink:href="#ArialUnicodeMS-20" x="800"/>
     <use xlink:href="#ArialUnicodeMS-74" x="827.783203"/>
     <use xlink:href="#ArialUnicodeMS-69" x="855.566406"/>
     <use xlink:href="#ArialUnicodeMS-64" x="877.783203"/>
     <use xlink:href="#ArialUnicodeMS-20" x="933.398438"/>
     <use xlink:href="#ArialUnicodeMS-5f00" x="961.181641"/>
     <use xlink:href="#ArialUnicodeMS-59cb" x="1061.181641"/>
     <use xlink:href="#ArialUnicodeMS-ff0c" x="1161.181641"/>
     <use xlink:href="#ArialUnicodeMS-4ee5" x="1261.181641"/>
     <use xlink:href="#ArialUnicodeMS-20" x="1361.181641"/>
     <use xlink:href="#ArialUnicodeMS-73" x="1388.964844"/>
     <use xlink:href="#ArialUnicodeMS-74" x="1438.964844"/>
     <use xlink:href="#ArialUnicodeMS-72" x="1466.748047"/>
     <use xlink:href="#ArialUnicodeMS-69" x="1500.048828"/>
     <use xlink:href="#ArialUnicodeMS-64" x="1522.265625"/>
     <use xlink:href="#ArialUnicodeMS-65" x="1577.880859"/>
     <use xlink:href="#ArialUnicodeMS-20" x="1633.496094"/>
     <use xlink:href="#ArialUnicodeMS-3d" x="1661.279297"/>
     <use xlink:href="#ArialUnicodeMS-20" x="1719.677734"/>
     <use xlink:href="#ArialUnicodeMS-67" x="1747.460938"/>
     <use xlink:href="#ArialUnicodeMS-72" x="1803.076172"/>
     <use xlink:href="#ArialUnicodeMS-69" x="1836.376953"/>
     <use xlink:href="#ArialUnicodeMS-64" x="1858.59375"/>
     <use xlink:href="#ArialUnicodeMS-44" x="1914.208984"/>
     <use xlink:href="#ArialUnicodeMS-69" x="1986.425781"/>
     <use xlink:href="#ArialUnicodeMS-6d" x="2008.642578"/>
     <use xlink:href="#ArialUnicodeMS-2e" x="2091.943359"/>
     <use xlink:href="#ArialUnicodeMS-78" x="2119.726562"/>
     <use xlink:href="#ArialUnicodeMS-20" x="2169.726562"/>
     <use xlink:href="#ArialUnicodeMS-2a" x="2197.509766"/>
     <use xlink:href="#ArialUnicodeMS-20" x="2236.425781"/>
     <use xlink:href="#ArialUnicodeMS-62" x="2264.208984"/>
     <use xlink:href="#ArialUnicodeMS-6c" x="2319.824219"/>
     <use xlink:href="#ArialUnicodeMS-6f" x="2342.041016"/>
     <use xlink:href="#ArialUnicodeMS-63" x="2397.65625"/>
     <use xlink:href="#ArialUnicodeMS-6b" x="2447.65625"/>
     <use xlink:href="#ArialUnicodeMS-44" x="2497.65625"/>
     <use xlink:href="#ArialUnicodeMS-69" x="2569.873047"/>
     <use xlink:href="#ArialUnicodeMS-6d" x="2592.089844"/>
     <use xlink:href="#ArialUnicodeMS-2e" x="2675.390625"/>
     <use xlink:href="#ArialUnicodeMS-78" x="2703.173828"/>
     <use xlink:href="#ArialUnicodeMS-20" x="2753.173828"/>
     <use xlink:href="#ArialUnicodeMS-4e3a" x="2780.957031"/>
     <use xlink:href="#ArialUnicodeMS-6b65" x="2880.957031"/>
     <use xlink:href="#ArialUnicodeMS-957f" x="2980.957031"/>
     <use xlink:href="#ArialUnicodeMS-904d" x="3080.957031"/>
     <use xlink:href="#ArialUnicodeMS-5386" x="3180.957031"/>
     <use xlink:href="#ArialUnicodeMS-6570" x="3280.957031"/>
     <use xlink:href="#ArialUnicodeMS-7ec4" x="3380.957031"/>
    </g>
   </g>
   <g id="text_24">
    <g id="patch_26">
     <path d="M 791.776 213.787656 
L 1109.6485 213.787656 
Q 1112.9485 213.787656 1112.9485 210.487656 
L 1112.9485 150.156781 
Q 1112.9485 146.856781 1109.6485 146.856781 
L 791.776 146.856781 
Q 788.476 146.856781 788.476 150.156781 
L 788.476 210.487656 
Q 788.476 213.787656 791.776 213.787656 
z
" style="fill: #f3f4f6; stroke: #9ca3af; stroke-linejoin: miter"/>
    </g>
    <!-- int tid = blockIdx.x * blockDim.x + threadIdx.x; -->
    <g transform="translate(791.776 158.5735) scale(0.11 -0.11)">
     <defs>
      <path id="DejaVuSansMono-69" d="M 800 3500 
L 2272 3500 
L 2272 447 
L 3413 447 
L 3413 0 
L 556 0 
L 556 447 
L 1697 447 
L 1697 3053 
L 800 3053 
L 800 3500 
z
M 1697 4863 
L 2272 4863 
L 2272 4134 
L 1697 4134 
L 1697 4863 
z
" transform="scale(0.015625)"/>
      <path id="DejaVuSansMono-6e" d="M 3284 2169 
L 3284 0 
L 2706 0 
L 2706 2169 
Q 2706 2641 2540 2862 
Q 2375 3084 2022 3084 
Q 1619 3084 1401 2798 
Q 1184 2513 1184 1978 
L 1184 0 
L 609 0 
L 609 3500 
L 1184 3500 
L 1184 2975 
Q 1338 3275 1600 3429 
Q 1863 3584 2222 3584 
Q 2756 3584 3020 3232 
Q 3284 2881 3284 2169 
z
" transform="scale(0.015625)"/>
      <path id="DejaVuSansMono-74" d="M 1919 4494 
L 1919 3500 
L 3225 3500 
L 3225 3053 
L 1919 3053 
L 1919 1153 
Q 1919 766 2066 612 
Q 2213 459 2578 459 
L 3225 459 
L 3225 0 
L 2522 0 
Q 1875 0 1609 259 
Q 1344 519 1344 1153 
L 1344 3053 
L 409 3053 
L 409 3500 
L 1344 3500 
L 1344 4494 
L 1919 4494 
z
" transform="scale(0.015625)"/>
      <path id="DejaVuSansMono-20" transform="scale(0.015625)"/>
      <path id="DejaVuSansMono-64" d="M 2681 3053 
L 2681 4863 
L 3256 4863 
L 3256 0 
L 2681 0 
L 2681 441 
Q 2538 181 2298 45 
Q 2059 -91 1747 -91 
Q 1113 -91 748 401 
Q 384 894 384 1759 
Q 384 2613 750 3098 
Q 1116 3584 1747 3584 
Q 2063 3584 2303 3448 
Q 2544 3313 2681 3053 
z
M 991 1747 
Q 991 1078 1203 737 
Q 1416 397 1831 397 
Q 2247 397 2464 740 
Q 2681 1084 2681 1747 
Q 2681 2413 2464 2755 
Q 2247 3097 1831 3097 
Q 1416 3097 1203 2756 
Q 991 2416 991 1747 
z
" transform="scale(0.015625)"/>
      <path id="DejaVuSansMono-3d" d="M 275 1638 
L 3578 1638 
L 3578 1100 
L 275 1100 
L 275 1638 
z
M 275 2906 
L 3578 2906 
L 3578 2375 
L 275 2375 
L 275 2906 
z
" transform="scale(0.015625)"/>
      <path id="DejaVuSansMono-62" d="M 2869 1747 
Q 2869 2416 2656 2756 
Q 2444 3097 2028 3097 
Q 1609 3097 1393 2755 
Q 1178 2413 1178 1747 
Q 1178 1084 1393 740 
Q 1609 397 2028 397 
Q 2444 397 2656 737 
Q 2869 1078 2869 1747 
z
M 1178 3053 
Q 1316 3309 1558 3446 
Q 1800 3584 2119 3584 
Q 2750 3584 3112 3098 
Q 3475 2613 3475 1759 
Q 3475 894 3111 401 
Q 2747 -91 2113 -91 
Q 1800 -91 1561 45 
Q 1322 181 1178 441 
L 1178 0 
L 603 0 
L 603 4863 
L 1178 4863 
L 1178 3053 
z
" transform="scale(0.015625)"/>
      <path id="DejaVuSansMono-6c" d="M 1997 1269 
Q 1997 881 2139 684 
Q 2281 488 2559 488 
L 3231 488 
L 3231 0 
L 2503 0 
Q 1988 0 1705 331 
Q 1422 663 1422 1269 
L 1422 4447 
L 500 4447 
L 500 4897 
L 1997 4897 
L 1997 1269 
z
" transform="scale(0.015625)"/>
      <path id="DejaVuSansMono-6f" d="M 1925 3097 
Q 1488 3097 1263 2756 
Q 1038 2416 1038 1747 
Q 1038 1081 1263 739 
Q 1488 397 1925 397 
Q 2366 397 2591 739 
Q 2816 1081 2816 1747 
Q 2816 2416 2591 2756 
Q 2366 3097 1925 3097 
z
M 1925 3584 
Q 2653 3584 3039 3112 
Q 3425 2641 3425 1747 
Q 3425 850 3040 379 
Q 2656 -91 1925 -91 
Q 1197 -91 812 379 
Q 428 850 428 1747 
Q 428 2641 812 3112 
Q 1197 3584 1925 3584 
z
" transform="scale(0.015625)"/>
      <path id="DejaVuSansMono-63" d="M 3316 178 
Q 3084 44 2839 -23 
Q 2594 -91 2338 -91 
Q 1525 -91 1067 396 
Q 609 884 609 1747 
Q 609 2609 1067 3096 
Q 1525 3584 2338 3584 
Q 2591 3584 2831 3518 
Q 3072 3453 3316 3316 
L 3316 2713 
Q 3088 2916 2858 3006 
Q 2628 3097 2338 3097 
Q 1797 3097 1506 2747 
Q 1216 2397 1216 1747 
Q 1216 1100 1508 748 
Q 1800 397 2338 397 
Q 2638 397 2875 489 
Q 3113 581 3316 775 
L 3316 178 
z
" transform="scale(0.015625)"/>
      <path id="DejaVuSansMono-6b" d="M 738 4863 
L 1331 4863 
L 1331 2047 
L 2841 3500 
L 3541 3500 
L 2163 2181 
L 3756 0 
L 3053 0 
L 1759 1806 
L 1331 1403 
L 1331 0 
L 738 0 
L 738 4863 
z
" transform="scale(0.015625)"/>
      <path id="DejaVuSansMono-49" d="M 628 4666 
L 3219 4666 
L 3219 4134 
L 2241 4134 
L 2241 531 
L 3219 531 
L 3219 0 
L 628 0 
L 628 531 
L 1606 531 
L 1606 4134 
L 628 4134 
L 628 4666 
z
" transform="scale(0.015625)"/>
      <path id="DejaVuSansMono-78" d="M 3494 3500 
L 2241 1825 
L 3616 0 
L 2950 0 
L 1925 1403 
L 903 0 
L 238 0 
L 1613 1825 
L 359 3500 
L 997 3500 
L 1925 2234 
L 2847 3500 
L 3494 3500 
z
" transform="scale(0.015625)"/>
      <path id="DejaVuSansMono-2e" d="M 1528 953 
L 2316 953 
L 2316 0 
L 1528 0 
L 1528 953 
z
" transform="scale(0.015625)"/>
      <path id="DejaVuSansMono-2a" d="M 3334 3897 
L 2216 3291 
L 3334 2681 
L 3156 2375 
L 2106 3009 
L 2106 1831 
L 1747 1831 
L 1747 3009 
L 697 2375 
L 519 2681 
L 1638 3291 
L 519 3897 
L 697 4206 
L 1747 3572 
L 1747 4750 
L 2106 4750 
L 2106 3572 
L 3156 4206 
L 3334 3897 
z
" transform="scale(0.015625)"/>
      <path id="DejaVuSansMono-44" d="M 1363 519 
Q 2159 519 2475 911 
Q 2791 1303 2791 2328 
Q 2791 3363 2477 3755 
Q 2163 4147 1363 4147 
L 1063 4147 
L 1063 519 
L 1363 519 
z
M 1375 4666 
Q 2444 4666 2950 4097 
Q 3456 3528 3456 2328 
Q 3456 1134 2950 567 
Q 2444 0 1375 0 
L 428 0 
L 428 4666 
L 1375 4666 
z
" transform="scale(0.015625)"/>
      <path id="DejaVuSansMono-6d" d="M 2113 3144 
Q 2219 3369 2383 3476 
Q 2547 3584 2778 3584 
Q 3200 3584 3373 3257 
Q 3547 2931 3547 2028 
L 3547 0 
L 3022 0 
L 3022 2003 
Q 3022 2744 2939 2923 
Q 2856 3103 2638 3103 
Q 2388 3103 2295 2911 
Q 2203 2719 2203 2003 
L 2203 0 
L 1678 0 
L 1678 2003 
Q 1678 2753 1589 2928 
Q 1500 3103 1269 3103 
Q 1041 3103 952 2911 
Q 863 2719 863 2003 
L 863 0 
L 341 0 
L 341 3500 
L 863 3500 
L 863 3200 
Q 966 3388 1120 3486 
Q 1275 3584 1472 3584 
Q 1709 3584 1867 3475 
Q 2025 3366 2113 3144 
z
" transform="scale(0.015625)"/>
      <path id="DejaVuSansMono-2b" d="M 2188 3659 
L 2188 2272 
L 3578 2272 
L 3578 1741 
L 2188 1741 
L 2188 353 
L 1663 353 
L 1663 1741 
L 275 1741 
L 275 2272 
L 1663 2272 
L 1663 3659 
L 2188 3659 
z
" transform="scale(0.015625)"/>
      <path id="DejaVuSansMono-68" d="M 3284 2169 
L 3284 0 
L 2706 0 
L 2706 2169 
Q 2706 2641 2540 2862 
Q 2375 3084 2022 3084 
Q 1619 3084 1401 2798 
Q 1184 2513 1184 1978 
L 1184 0 
L 609 0 
L 609 4863 
L 1184 4863 
L 1184 2975 
Q 1338 3275 1600 3429 
Q 1863 3584 2222 3584 
Q 2756 3584 3020 3232 
Q 3284 2881 3284 2169 
z
" transform="scale(0.015625)"/>
      <path id="DejaVuSansMono-72" d="M 3609 2778 
Q 3425 2922 3234 2987 
Q 3044 3053 2816 3053 
Q 2278 3053 1993 2715 
Q 1709 2378 1709 1741 
L 1709 0 
L 1131 0 
L 1131 3500 
L 1709 3500 
L 1709 2816 
Q 1853 3188 2151 3386 
Q 2450 3584 2859 3584 
Q 3072 3584 3256 3531 
Q 3441 3478 3609 3366 
L 3609 2778 
z
" transform="scale(0.015625)"/>
      <path id="DejaVuSansMono-65" d="M 3475 1894 
L 3475 1613 
L 984 1613 
L 984 1594 
Q 984 1022 1282 709 
Q 1581 397 2125 397 
Q 2400 397 2700 484 
Q 3000 572 3341 750 
L 3341 178 
Q 3013 44 2708 -23 
Q 2403 -91 2119 -91 
Q 1303 -91 843 398 
Q 384 888 384 1747 
Q 384 2584 834 3084 
Q 1284 3584 2034 3584 
Q 2703 3584 3089 3131 
Q 3475 2678 3475 1894 
z
M 2900 2063 
Q 2888 2569 2661 2833 
Q 2434 3097 2009 3097 
Q 1594 3097 1325 2822 
Q 1056 2547 1006 2059 
L 2900 2063 
z
" transform="scale(0.015625)"/>
      <path id="DejaVuSansMono-61" d="M 2194 1759 
L 2003 1759 
Q 1500 1759 1245 1582 
Q 991 1406 991 1056 
Q 991 741 1181 566 
Q 1372 391 1709 391 
Q 2184 391 2456 720 
Q 2728 1050 2731 1631 
L 2731 1759 
L 2194 1759 
z
M 3309 1997 
L 3309 0 
L 2731 0 
L 2731 519 
Q 2547 206 2267 57 
Q 1988 -91 1588 -91 
Q 1053 -91 734 211 
Q 416 513 416 1019 
Q 416 1603 808 1906 
Q 1200 2209 1959 2209 
L 2731 2209 
L 2731 2300 
Q 2728 2719 2518 2908 
Q 2309 3097 1850 3097 
Q 1556 3097 1256 3012 
Q 956 2928 672 2766 
L 672 3341 
Q 991 3463 1283 3523 
Q 1575 3584 1850 3584 
Q 2284 3584 2592 3456 
Q 2900 3328 3091 3072 
Q 3209 2916 3259 2686 
Q 3309 2456 3309 1997 
z
" transform="scale(0.015625)"/>
      <path id="DejaVuSansMono-3b" d="M 1569 947 
L 2356 947 
L 2356 300 
L 1741 -897 
L 1259 -897 
L 1569 300 
L 1569 947 
z
M 1528 3322 
L 2316 3322 
L 2316 2375 
L 1528 2375 
L 1528 3322 
z
" transform="scale(0.015625)"/>
     </defs>
     <use xlink:href="#DejaVuSansMono-69"/>
     <use xlink:href="#DejaVuSansMono-6e" x="60.205078"/>
     <use xlink:href="#DejaVuSansMono-74" x="120.410156"/>
     <use xlink:href="#DejaVuSansMono-20" x="180.615234"/>
     <use xlink:href="#DejaVuSansMono-74" x="240.820312"/>
     <use xlink:href="#DejaVuSansMono-69" x="301.025391"/>
     <use xlink:href="#DejaVuSansMono-64" x="361.230469"/>
     <use xlink:href="#DejaVuSansMono-20" x="421.435547"/>
     <use xlink:href="#DejaVuSansMono-3d" x="481.640625"/>
     <use xlink:href="#DejaVuSansMono-20" x="541.845703"/>
     <use xlink:href="#DejaVuSansMono-62" x="602.050781"/>
     <use xlink:href="#DejaVuSansMono-6c" x="662.255859"/>
     <use xlink:href="#DejaVuSansMono-6f" x="722.460938"/>
     <use xlink:href="#DejaVuSansMono-63" x="782.666016"/>
     <use xlink:href="#DejaVuSansMono-6b" x="842.871094"/>
     <use xlink:href="#DejaVuSansMono-49" x="903.076172"/>
     <use xlink:href="#DejaVuSansMono-64" x="963.28125"/>
     <use xlink:href="#DejaVuSansMono-78" x="1023.486328"/>
     <use xlink:href="#DejaVuSansMono-2e" x="1083.691406"/>
     <use xlink:href="#DejaVuSansMono-78" x="1143.896484"/>
     <use xlink:href="#DejaVuSansMono-20" x="1204.101562"/>
     <use xlink:href="#DejaVuSansMono-2a" x="1264.306641"/>
     <use xlink:href="#DejaVuSansMono-20" x="1324.511719"/>
     <use xlink:href="#DejaVuSansMono-62" x="1384.716797"/>
     <use xlink:href="#DejaVuSansMono-6c" x="1444.921875"/>
     <use xlink:href="#DejaVuSansMono-6f" x="1505.126953"/>
     <use xlink:href="#DejaVuSansMono-63" x="1565.332031"/>
     <use xlink:href="#DejaVuSansMono-6b" x="1625.537109"/>
     <use xlink:href="#DejaVuSansMono-44" x="1685.742188"/>
     <use xlink:href="#DejaVuSansMono-69" x="1745.947266"/>
     <use xlink:href="#DejaVuSansMono-6d" x="1806.152344"/>
     <use xlink:href="#DejaVuSansMono-2e" x="1866.357422"/>
     <use xlink:href="#DejaVuSansMono-78" x="1926.5625"/>
     <use xlink:href="#DejaVuSansMono-20" x="1986.767578"/>
     <use xlink:href="#DejaVuSansMono-2b" x="2046.972656"/>
     <use xlink:href="#DejaVuSansMono-20" x="2107.177734"/>
     <use xlink:href="#DejaVuSansMono-74" x="2167.382812"/>
     <use xlink:href="#DejaVuSansMono-68" x="2227.587891"/>
     <use xlink:href="#DejaVuSansMono-72" x="2287.792969"/>
     <use xlink:href="#DejaVuSansMono-65" x="2347.998047"/>
     <use xlink:href="#DejaVuSansMono-61" x="2408.203125"/>
     <use xlink:href="#DejaVuSansMono-64" x="2468.408203"/>
     <use xlink:href="#DejaVuSansMono-49" x="2528.613281"/>
     <use xlink:href="#DejaVuSansMono-64" x="2588.818359"/>
     <use xlink:href="#DejaVuSansMono-78" x="2649.023438"/>
     <use xlink:href="#DejaVuSansMono-2e" x="2709.228516"/>
     <use xlink:href="#DejaVuSansMono-78" x="2769.433594"/>
     <use xlink:href="#DejaVuSansMono-3b" x="2829.638672"/>
    </g>
    <!-- int stride = gridDim.x * blockDim.x; -->
    <g transform="translate(791.776 170.961219) scale(0.11 -0.11)">
     <defs>
      <path id="DejaVuSansMono-73" d="M 3041 3378 
L 3041 2816 
Q 2794 2959 2544 3031 
Q 2294 3103 2034 3103 
Q 1644 3103 1451 2976 
Q 1259 2850 1259 2591 
Q 1259 2356 1403 2240 
Q 1547 2125 2119 2016 
L 2350 1972 
Q 2778 1891 2998 1647 
Q 3219 1403 3219 1013 
Q 3219 494 2850 201 
Q 2481 -91 1825 -91 
Q 1566 -91 1281 -36 
Q 997 19 666 128 
L 666 722 
Q 988 556 1281 473 
Q 1575 391 1838 391 
Q 2219 391 2428 545 
Q 2638 700 2638 978 
Q 2638 1378 1872 1531 
L 1847 1538 
L 1631 1581 
Q 1134 1678 906 1908 
Q 678 2138 678 2534 
Q 678 3038 1018 3311 
Q 1359 3584 1991 3584 
Q 2272 3584 2531 3532 
Q 2791 3481 3041 3378 
z
" transform="scale(0.015625)"/>
      <path id="DejaVuSansMono-67" d="M 2681 1778 
Q 2681 2425 2470 2761 
Q 2259 3097 1856 3097 
Q 1434 3097 1212 2761 
Q 991 2425 991 1778 
Q 991 1131 1214 792 
Q 1438 453 1863 453 
Q 2259 453 2470 793 
Q 2681 1134 2681 1778 
z
M 3256 225 
Q 3256 -563 2884 -969 
Q 2513 -1375 1791 -1375 
Q 1553 -1375 1293 -1331 
Q 1034 -1288 775 -1203 
L 775 -634 
Q 1081 -778 1331 -847 
Q 1581 -916 1791 -916 
Q 2256 -916 2468 -662 
Q 2681 -409 2681 141 
L 2681 166 
L 2681 556 
Q 2544 263 2306 119 
Q 2069 -25 1728 -25 
Q 1116 -25 750 465 
Q 384 956 384 1778 
Q 384 2603 750 3093 
Q 1116 3584 1728 3584 
Q 2066 3584 2300 3450 
Q 2534 3316 2681 3034 
L 2681 3488 
L 3256 3488 
L 3256 225 
z
" transform="scale(0.015625)"/>
     </defs>
     <use xlink:href="#DejaVuSansMono-69"/>
     <use xlink:href="#DejaVuSansMono-6e" x="60.205078"/>
     <use xlink:href="#DejaVuSansMono-74" x="120.410156"/>
     <use xlink:href="#DejaVuSansMono-20" x="180.615234"/>
     <use xlink:href="#DejaVuSansMono-73" x="240.820312"/>
     <use xlink:href="#DejaVuSansMono-74" x="301.025391"/>
     <use xlink:href="#DejaVuSansMono-72" x="361.230469"/>
     <use xlink:href="#DejaVuSansMono-69" x="421.435547"/>
     <use xlink:href="#DejaVuSansMono-64" x="481.640625"/>
     <use xlink:href="#DejaVuSansMono-65" x="541.845703"/>
     <use xlink:href="#DejaVuSansMono-20" x="602.050781"/>
     <use xlink:href="#DejaVuSansMono-3d" x="662.255859"/>
     <use xlink:href="#DejaVuSansMono-20" x="722.460938"/>
     <use xlink:href="#DejaVuSansMono-67" x="782.666016"/>
     <use xlink:href="#DejaVuSansMono-72" x="842.871094"/>
     <use xlink:href="#DejaVuSansMono-69" x="903.076172"/>
     <use xlink:href="#DejaVuSansMono-64" x="963.28125"/>
     <use xlink:href="#DejaVuSansMono-44" x="1023.486328"/>
     <use xlink:href="#DejaVuSansMono-69" x="1083.691406"/>
     <use xlink:href="#DejaVuSansMono-6d" x="1143.896484"/>
     <use xlink:href="#DejaVuSansMono-2e" x="1204.101562"/>
     <use xlink:href="#DejaVuSansMono-78" x="1264.306641"/>
     <use xlink:href="#DejaVuSansMono-20" x="1324.511719"/>
     <use xlink:href="#DejaVuSansMono-2a" x="1384.716797"/>
     <use xlink:href="#DejaVuSansMono-20" x="1444.921875"/>
     <use xlink:href="#DejaVuSansMono-62" x="1505.126953"/>
     <use xlink:href="#DejaVuSansMono-6c" x="1565.332031"/>
     <use xlink:href="#DejaVuSansMono-6f" x="1625.537109"/>
     <use xlink:href="#DejaVuSansMono-63" x="1685.742188"/>
     <use xlink:href="#DejaVuSansMono-6b" x="1745.947266"/>
     <use xlink:href="#DejaVuSansMono-44" x="1806.152344"/>
     <use xlink:href="#DejaVuSansMono-69" x="1866.357422"/>
     <use xlink:href="#DejaVuSansMono-6d" x="1926.5625"/>
     <use xlink:href="#DejaVuSansMono-2e" x="1986.767578"/>
     <use xlink:href="#DejaVuSansMono-78" x="2046.972656"/>
     <use xlink:href="#DejaVuSansMono-3b" x="2107.177734"/>
    </g>
    <!-- for (int i = tid; i &lt; N; i += stride) { -->
    <g transform="translate(791.776 183.424562) scale(0.11 -0.11)">
     <defs>
      <path id="DejaVuSansMono-66" d="M 3322 4863 
L 3322 4384 
L 2669 4384 
Q 2359 4384 2239 4257 
Q 2119 4131 2119 3809 
L 2119 3500 
L 3322 3500 
L 3322 3053 
L 2119 3053 
L 2119 0 
L 1544 0 
L 1544 3053 
L 609 3053 
L 609 3500 
L 1544 3500 
L 1544 3744 
Q 1544 4319 1808 4591 
Q 2072 4863 2631 4863 
L 3322 4863 
z
" transform="scale(0.015625)"/>
      <path id="DejaVuSansMono-28" d="M 2766 4856 
Q 2350 4144 2145 3436 
Q 1941 2728 1941 2009 
Q 1941 1294 2145 584 
Q 2350 -125 2766 -844 
L 2266 -844 
Q 1794 -100 1562 604 
Q 1331 1309 1331 2009 
Q 1331 2706 1562 3412 
Q 1794 4119 2266 4856 
L 2766 4856 
z
" transform="scale(0.015625)"/>
      <path id="DejaVuSansMono-3c" d="M 3578 3003 
L 922 2003 
L 3578 1013 
L 3578 441 
L 275 1747 
L 275 2266 
L 3578 3572 
L 3578 3003 
z
" transform="scale(0.015625)"/>
      <path id="DejaVuSansMono-4e" d="M 434 4666 
L 1234 4666 
L 2809 825 
L 2809 4666 
L 3419 4666 
L 3419 0 
L 2619 0 
L 1044 3841 
L 1044 0 
L 434 0 
L 434 4666 
z
" transform="scale(0.015625)"/>
      <path id="DejaVuSansMono-29" d="M 1088 4856 
L 1588 4856 
Q 2059 4119 2290 3412 
Q 2522 2706 2522 2009 
Q 2522 1306 2290 600 
Q 2059 -106 1588 -844 
L 1088 -844 
Q 1503 -119 1708 590 
Q 1913 1300 1913 2009 
Q 1913 2722 1708 3431 
Q 1503 4141 1088 4856 
z
" transform="scale(0.015625)"/>
      <path id="DejaVuSansMono-7b" d="M 3163 -594 
L 3163 -1044 
L 2963 -1044 
Q 2184 -1044 1920 -812 
Q 1656 -581 1656 109 
L 1656 856 
Q 1656 1328 1489 1509 
Q 1322 1691 884 1691 
L 691 1691 
L 691 2138 
L 884 2138 
Q 1325 2138 1490 2316 
Q 1656 2494 1656 2963 
L 1656 3713 
Q 1656 4403 1920 4633 
Q 2184 4863 2963 4863 
L 3163 4863 
L 3163 4416 
L 2944 4416 
Q 2506 4416 2373 4280 
Q 2241 4144 2241 3700 
L 2241 2925 
Q 2241 2434 2098 2212 
Q 1956 1991 1613 1913 
Q 1959 1828 2100 1606 
Q 2241 1384 2241 897 
L 2241 122 
Q 2241 -325 2373 -459 
Q 2506 -594 2944 -594 
L 3163 -594 
z
" transform="scale(0.015625)"/>
     </defs>
     <use xlink:href="#DejaVuSansMono-66"/>
     <use xlink:href="#DejaVuSansMono-6f" x="60.205078"/>
     <use xlink:href="#DejaVuSansMono-72" x="120.410156"/>
     <use xlink:href="#DejaVuSansMono-20" x="180.615234"/>
     <use xlink:href="#DejaVuSansMono-28" x="240.820312"/>
     <use xlink:href="#DejaVuSansMono-69" x="301.025391"/>
     <use xlink:href="#DejaVuSansMono-6e" x="361.230469"/>
     <use xlink:href="#DejaVuSansMono-74" x="421.435547"/>
     <use xlink:href="#DejaVuSansMono-20" x="481.640625"/>
     <use xlink:href="#DejaVuSansMono-69" x="541.845703"/>
     <use xlink:href="#DejaVuSansMono-20" x="602.050781"/>
     <use xlink:href="#DejaVuSansMono-3d" x="662.255859"/>
     <use xlink:href="#DejaVuSansMono-20" x="722.460938"/>
     <use xlink:href="#DejaVuSansMono-74" x="782.666016"/>
     <use xlink:href="#DejaVuSansMono-69" x="842.871094"/>
     <use xlink:href="#DejaVuSansMono-64" x="903.076172"/>
     <use xlink:href="#DejaVuSansMono-3b" x="963.28125"/>
     <use xlink:href="#DejaVuSansMono-20" x="1023.486328"/>
     <use xlink:href="#DejaVuSansMono-69" x="1083.691406"/>
     <use xlink:href="#DejaVuSansMono-20" x="1143.896484"/>
     <use xlink:href="#DejaVuSansMono-3c" x="1204.101562"/>
     <use xlink:href="#DejaVuSansMono-20" x="1264.306641"/>
     <use xlink:href="#DejaVuSansMono-4e" x="1324.511719"/>
     <use xlink:href="#DejaVuSansMono-3b" x="1384.716797"/>
     <use xlink:href="#DejaVuSansMono-20" x="1444.921875"/>
     <use xlink:href="#DejaVuSansMono-69" x="1505.126953"/>
     <use xlink:href="#DejaVuSansMono-20" x="1565.332031"/>
     <use xlink:href="#DejaVuSansMono-2b" x="1625.537109"/>
     <use xlink:href="#DejaVuSansMono-3d" x="1685.742188"/>
     <use xlink:href="#DejaVuSansMono-20" x="1745.947266"/>
     <use xlink:href="#DejaVuSansMono-73" x="1806.152344"/>
     <use xlink:href="#DejaVuSansMono-74" x="1866.357422"/>
     <use xlink:href="#DejaVuSansMono-72" x="1926.5625"/>
     <use xlink:href="#DejaVuSansMono-69" x="1986.767578"/>
     <use xlink:href="#DejaVuSansMono-64" x="2046.972656"/>
     <use xlink:href="#DejaVuSansMono-65" x="2107.177734"/>
     <use xlink:href="#DejaVuSansMono-29" x="2167.382812"/>
     <use xlink:href="#DejaVuSansMono-20" x="2227.587891"/>
     <use xlink:href="#DejaVuSansMono-7b" x="2287.792969"/>
    </g>
    <!--     sum += input[i]; -->
    <g transform="translate(791.776 195.812281) scale(0.11 -0.11)">
     <defs>
      <path id="DejaVuSansMono-75" d="M 609 1325 
L 609 3494 
L 1184 3494 
L 1184 1325 
Q 1184 853 1351 631 
Q 1519 409 1869 409 
Q 2275 409 2490 695 
Q 2706 981 2706 1516 
L 2706 3494 
L 3284 3494 
L 3284 0 
L 2706 0 
L 2706 525 
Q 2553 222 2289 65 
Q 2025 -91 1672 -91 
Q 1134 -91 871 261 
Q 609 613 609 1325 
z
" transform="scale(0.015625)"/>
      <path id="DejaVuSansMono-70" d="M 1172 441 
L 1172 -1331 
L 594 -1331 
L 594 3500 
L 1172 3500 
L 1172 3053 
Q 1316 3313 1555 3448 
Q 1794 3584 2106 3584 
Q 2741 3584 3102 3093 
Q 3463 2603 3463 1734 
Q 3463 881 3100 395 
Q 2738 -91 2106 -91 
Q 1788 -91 1548 45 
Q 1309 181 1172 441 
z
M 2859 1747 
Q 2859 2416 2648 2756 
Q 2438 3097 2022 3097 
Q 1603 3097 1387 2755 
Q 1172 2413 1172 1747 
Q 1172 1084 1387 740 
Q 1603 397 2022 397 
Q 2438 397 2648 737 
Q 2859 1078 2859 1747 
z
" transform="scale(0.015625)"/>
      <path id="DejaVuSansMono-5b" d="M 1447 4863 
L 2772 4863 
L 2772 4416 
L 2022 4416 
L 2022 -397 
L 2772 -397 
L 2772 -844 
L 1447 -844 
L 1447 4863 
z
" transform="scale(0.015625)"/>
      <path id="DejaVuSansMono-5d" d="M 2406 4863 
L 2406 -844 
L 1081 -844 
L 1081 -397 
L 1831 -397 
L 1831 4416 
L 1081 4416 
L 1081 4863 
L 2406 4863 
z
" transform="scale(0.015625)"/>
     </defs>
     <use xlink:href="#DejaVuSansMono-20"/>
     <use xlink:href="#DejaVuSansMono-20" x="60.205078"/>
     <use xlink:href="#DejaVuSansMono-20" x="120.410156"/>
     <use xlink:href="#DejaVuSansMono-20" x="180.615234"/>
     <use xlink:href="#DejaVuSansMono-73" x="240.820312"/>
     <use xlink:href="#DejaVuSansMono-75" x="301.025391"/>
     <use xlink:href="#DejaVuSansMono-6d" x="361.230469"/>
     <use xlink:href="#DejaVuSansMono-20" x="421.435547"/>
     <use xlink:href="#DejaVuSansMono-2b" x="481.640625"/>
     <use xlink:href="#DejaVuSansMono-3d" x="541.845703"/>
     <use xlink:href="#DejaVuSansMono-20" x="602.050781"/>
     <use xlink:href="#DejaVuSansMono-69" x="662.255859"/>
     <use xlink:href="#DejaVuSansMono-6e" x="722.460938"/>
     <use xlink:href="#DejaVuSansMono-70" x="782.666016"/>
     <use xlink:href="#DejaVuSansMono-75" x="842.871094"/>
     <use xlink:href="#DejaVuSansMono-74" x="903.076172"/>
     <use xlink:href="#DejaVuSansMono-5b" x="963.28125"/>
     <use xlink:href="#DejaVuSansMono-69" x="1023.486328"/>
     <use xlink:href="#DejaVuSansMono-5d" x="1083.691406"/>
     <use xlink:href="#DejaVuSansMono-3b" x="1143.896484"/>
    </g>
    <!-- } -->
    <g transform="translate(791.776 208.2) scale(0.11 -0.11)">
     <defs>
      <path id="DejaVuSansMono-7d" d="M 691 -594 
L 903 -594 
Q 1344 -594 1478 -456 
Q 1613 -319 1613 122 
L 1613 897 
Q 1613 1384 1753 1606 
Q 1894 1828 2241 1913 
Q 1897 1991 1755 2212 
Q 1613 2434 1613 2925 
L 1613 3700 
Q 1613 4141 1478 4278 
Q 1344 4416 903 4416 
L 691 4416 
L 691 4863 
L 884 4863 
Q 1663 4863 1925 4633 
Q 2188 4403 2188 3713 
L 2188 2963 
Q 2188 2494 2355 2316 
Q 2522 2138 2963 2138 
L 3163 2138 
L 3163 1691 
L 2963 1691 
Q 2522 1691 2355 1509 
Q 2188 1328 2188 856 
L 2188 109 
Q 2188 -581 1925 -812 
Q 1663 -1044 884 -1044 
L 691 -1044 
L 691 -594 
z
" transform="scale(0.015625)"/>
     </defs>
     <use xlink:href="#DejaVuSansMono-7d"/>
    </g>
   </g>
   <g id="text_25">
    <g id="patch_27">
     <path d="M 184.656 456.389062 
L 716.656 456.389062 
Q 720.856 456.389062 720.856 452.189062 
L 720.856 438.189062 
Q 720.856 433.989062 716.656 433.989062 
L 184.656 433.989062 
Q 180.456 433.989062 180.456 438.189062 
L 180.456 452.189062 
Q 180.456 456.389062 184.656 456.389062 
z
" style="fill: #fff3cd; stroke: #ffc107; stroke-linejoin: miter"/>
    </g>
    <!-- 线程数可以远小于 N；每个线程负责多个元素，保证所有线程负载均衡且内存访问合并 -->
    <g transform="translate(184.656 449.4) scale(0.14 -0.14)">
     <defs>
      <path id="ArialUnicodeMS-53ef" d="M 5925 4434 
L 5113 4434 
L 5113 306 
Q 5113 -88 4969 -248 
Q 4825 -409 4678 -409 
L 3700 -409 
L 3513 122 
Q 3706 100 3872 103 
L 4481 116 
Q 4609 116 4609 269 
L 4609 4434 
L 628 4434 
L 628 4922 
L 5925 4922 
L 5925 4434 
z
M 3756 813 
L 3250 813 
L 3250 1288 
L 1925 1288 
L 1925 813 
L 1441 813 
L 1441 3681 
L 3756 3681 
L 3756 813 
z
M 3250 1772 
L 3250 3194 
L 1925 3194 
L 1925 1772 
L 3250 1772 
z
" transform="scale(0.015625)"/>
      <path id="ArialUnicodeMS-8fdc" d="M 1953 4050 
L 1528 3794 
Q 1191 4503 697 4922 
L 1094 5178 
Q 1681 4584 1953 4050 
z
M 5350 4331 
L 2209 4331 
L 2209 4800 
L 5350 4800 
L 5350 4331 
z
M 5913 1619 
Q 5863 1141 5759 919 
Q 5656 697 5434 697 
L 4469 697 
Q 4281 697 4159 828 
Q 4038 959 4038 1153 
L 4038 2888 
L 3525 2888 
Q 3538 2747 3538 2609 
Q 3538 1125 2406 506 
L 2034 903 
Q 3050 1384 3050 2628 
Q 3050 2756 3041 2888 
L 1972 2888 
L 1972 3353 
L 5594 3353 
L 5594 2888 
L 4525 2888 
L 4525 1253 
Q 4525 1166 4653 1166 
L 5306 1166 
Q 5431 1166 5453 1813 
L 5913 1619 
z
M 6022 366 
L 5813 -153 
L 2719 -153 
Q 1953 -153 1434 416 
L 603 -313 
L 244 84 
Q 941 600 1159 806 
L 1159 2650 
L 391 2650 
L 391 3116 
L 1644 3116 
L 1644 800 
Q 1841 578 2170 445 
Q 2500 313 3169 313 
L 5416 313 
Q 5719 341 6022 366 
z
" transform="scale(0.015625)"/>
      <path id="ArialUnicodeMS-5c0f" d="M 3475 434 
Q 3475 59 3267 -100 
Q 3059 -259 2634 -259 
L 2244 -250 
Q 2147 -250 2069 -256 
L 1856 269 
Q 2253 238 2528 238 
Q 2841 238 2905 281 
Q 2969 325 2969 434 
L 2969 5234 
L 3475 5234 
L 3475 434 
z
M 5931 1709 
L 5472 1484 
Q 5088 2713 4019 3688 
L 4475 3928 
Q 5584 2922 5931 1709 
z
M 2181 3706 
Q 1769 2356 850 1459 
L 453 1791 
Q 1372 2700 1753 3922 
L 2181 3706 
z
" transform="scale(0.015625)"/>
      <path id="ArialUnicodeMS-4e8e" d="M 5813 2559 
L 3463 2559 
L 3463 72 
Q 3406 -409 2841 -422 
L 2075 -441 
L 1900 109 
L 2669 72 
Q 2938 59 2938 288 
L 2938 2559 
L 569 2559 
L 569 3047 
L 2938 3047 
L 2938 4459 
L 997 4459 
L 997 4947 
L 5363 4947 
L 5363 4459 
L 3463 4459 
L 3463 3047 
L 5813 3047 
L 5813 2559 
z
" transform="scale(0.015625)"/>
      <path id="ArialUnicodeMS-ff1b" d="M 3544 2675 
L 2903 2675 
L 2903 3316 
L 3544 3316 
L 3544 2675 
z
M 3544 0 
Q 3544 -397 3392 -606 
Q 3241 -816 3019 -903 
L 2866 -666 
Q 3216 -516 3219 0 
L 2903 0 
L 2903 641 
L 3544 641 
L 3544 0 
z
" transform="scale(0.015625)"/>
      <path id="ArialUnicodeMS-8d1f" d="M 5209 959 
L 4722 959 
L 4722 3256 
L 2047 3256 
L 2047 831 
L 1588 831 
L 1588 3463 
Q 1263 3113 744 2784 
L 366 3213 
Q 931 3497 1562 4126 
Q 2194 4756 2509 5363 
L 2931 5184 
Q 2906 5116 2706 4794 
L 4481 4794 
L 4481 4409 
L 3963 3725 
L 5209 3725 
L 5209 959 
z
M 3834 4353 
L 2400 4353 
Q 2147 4009 1844 3725 
L 3359 3725 
L 3834 4353 
z
M 3634 2944 
Q 3647 2113 3551 1614 
Q 3456 1116 3131 716 
Q 2806 316 2186 41 
Q 1566 -234 825 -378 
L 544 97 
Q 1466 313 1995 531 
Q 2525 750 2848 1154 
Q 3172 1559 3172 2500 
Q 3172 2675 3163 2944 
L 3634 2944 
z
M 5978 -56 
L 5600 -416 
Q 4656 447 3584 897 
L 3859 1269 
Q 5163 725 5978 -56 
z
" transform="scale(0.015625)"/>
      <path id="ArialUnicodeMS-8d23" d="M 5856 2803 
L 409 2803 
L 409 3244 
L 2888 3244 
L 2888 3616 
L 891 3616 
L 891 4056 
L 2888 4056 
L 2888 4319 
L 628 4319 
L 628 4763 
L 2888 4763 
L 2888 5288 
L 3372 5288 
L 3372 4763 
L 5606 4763 
L 5606 4319 
L 3372 4319 
L 3372 4056 
L 5356 4056 
L 5356 3616 
L 3372 3616 
L 3372 3244 
L 5856 3244 
L 5856 2803 
z
M 4872 800 
L 4384 800 
L 4384 2144 
L 1863 2144 
L 1863 569 
L 1375 569 
L 1375 2584 
L 4872 2584 
L 4872 800 
z
M 3456 1925 
Q 3519 847 2737 248 
Q 1956 -350 603 -353 
L 384 141 
Q 1413 131 1952 362 
Q 2491 594 2736 948 
Q 2981 1303 2981 2003 
L 3456 1925 
z
M 5722 -19 
L 5409 -422 
Q 4756 197 3225 544 
L 3488 916 
Q 3966 869 4650 576 
Q 5334 284 5722 -19 
z
" transform="scale(0.015625)"/>
      <path id="ArialUnicodeMS-591a" d="M 5831 2253 
Q 5831 2169 5545 1786 
Q 5259 1403 4934 1120 
Q 4609 838 4125 556 
Q 3641 275 2842 20 
Q 2044 -234 891 -434 
L 569 6 
Q 2425 319 3438 763 
Q 3250 1059 2731 1403 
L 3194 1663 
Q 3663 1334 3853 966 
Q 4875 1516 5241 2194 
L 3603 2194 
Q 2994 1644 1581 1044 
L 1209 1453 
Q 3113 2131 3938 3244 
Q 2553 2428 884 2094 
L 575 2522 
Q 1969 2838 2572 3097 
Q 2394 3341 1856 3634 
L 2303 3922 
Q 2700 3694 3022 3291 
Q 3731 3653 4294 4197 
L 2534 4197 
Q 1941 3794 1131 3488 
L 709 3884 
Q 2303 4356 3181 5434 
L 3628 5197 
Q 3503 5025 3163 4684 
L 4966 4684 
L 4966 4256 
Q 4559 3725 4063 3347 
L 4441 3144 
Q 4294 2894 4103 2681 
L 5831 2681 
L 5831 2253 
z
" transform="scale(0.015625)"/>
      <path id="ArialUnicodeMS-5143" d="M 5141 4422 
L 1394 4422 
L 1394 4909 
L 5141 4909 
L 5141 4422 
z
M 6009 1166 
Q 5822 -122 5203 -122 
L 4306 -122 
Q 3653 -122 3653 691 
L 3653 2847 
L 2834 2847 
Q 2850 1688 2378 917 
Q 1906 147 838 -428 
L 488 56 
Q 1469 550 1892 1181 
Q 2316 1813 2316 2847 
L 850 2847 
L 850 3334 
L 5672 3334 
L 5672 2847 
L 4159 2847 
L 4159 622 
Q 4159 366 4403 366 
L 5159 366 
Q 5241 366 5308 497 
Q 5375 628 5516 1325 
L 6009 1166 
z
" transform="scale(0.015625)"/>
      <path id="ArialUnicodeMS-7d20" d="M 5831 2841 
L 3041 2841 
Q 2869 2666 2272 2228 
L 2706 1913 
Q 3413 2328 4056 2816 
L 4469 2503 
Q 3338 1738 2803 1478 
L 4609 1528 
Q 4106 1894 4056 1913 
L 4500 2144 
Q 5159 1788 5734 1050 
L 5350 728 
Q 5109 1047 4997 1125 
L 3397 1075 
L 3397 -384 
L 2913 -384 
L 2913 1063 
L 775 1006 
L 628 1472 
L 1894 1466 
L 2284 1656 
Q 2116 1797 1172 2394 
L 1491 2725 
L 1900 2491 
Q 1972 2525 2363 2841 
L 525 2841 
L 525 3309 
L 2913 3309 
L 2913 3653 
L 1422 3653 
L 1422 4103 
L 2913 4103 
L 2913 4434 
L 941 4434 
L 941 4903 
L 2913 4903 
L 2913 5338 
L 3397 5338 
L 3397 4903 
L 5434 4903 
L 5434 4434 
L 3397 4434 
L 3397 4103 
L 4934 4103 
L 4934 3634 
L 3397 3634 
L 3397 3309 
L 5831 3309 
L 5831 2841 
z
M 2584 609 
Q 1775 72 653 -128 
L 403 300 
Q 1478 434 2316 959 
L 2584 609 
z
M 5997 294 
L 5722 -91 
Q 4884 391 3788 525 
L 4097 922 
Q 5138 822 5997 294 
z
" transform="scale(0.015625)"/>
      <path id="ArialUnicodeMS-4fdd" d="M 2125 5125 
Q 2084 4753 1897 4197 
L 1709 3653 
L 1709 -469 
L 1222 -469 
L 1222 2803 
Q 831 2284 581 2053 
L 225 2400 
Q 1444 3638 1684 5325 
L 2125 5125 
z
M 6175 366 
L 5797 6 
Q 4650 559 4122 1869 
L 4122 -447 
L 3634 -447 
L 3634 1753 
Q 3206 625 2100 -13 
L 1741 359 
Q 2656 794 3231 1972 
L 1925 1972 
L 1925 2438 
L 3634 2438 
L 3634 2950 
L 2375 2950 
L 2375 5019 
L 5325 5019 
L 5325 2950 
L 4122 2950 
L 4122 2438 
L 5797 2438 
L 5797 1972 
L 4575 1972 
Q 4928 988 6175 366 
z
M 4838 3419 
L 4838 4550 
L 2859 4550 
L 2859 3419 
L 4838 3419 
z
" transform="scale(0.015625)"/>
      <path id="ArialUnicodeMS-8bc1" d="M 1856 4306 
L 1466 3938 
Q 1075 4469 569 4763 
L 922 5100 
Q 1478 4747 1856 4306 
z
M 6003 -141 
L 1919 -141 
L 1919 325 
L 2700 325 
L 2700 3353 
L 3188 3353 
L 3188 325 
L 4006 325 
L 4006 4409 
L 2309 4409 
L 2309 4878 
L 5819 4878 
L 5819 4409 
L 4494 4409 
L 4494 2822 
L 5631 2822 
L 5631 2356 
L 4494 2356 
L 4494 325 
L 6003 325 
L 6003 -141 
z
M 2431 838 
L 1313 178 
L 1025 563 
Q 1113 659 1113 800 
L 1113 2859 
L 378 2859 
L 378 3341 
L 1606 3341 
L 1606 916 
L 2431 1375 
L 2431 838 
z
" transform="scale(0.015625)"/>
      <path id="ArialUnicodeMS-6240" d="M 6138 2869 
L 5253 2869 
L 5253 -409 
L 4769 -409 
L 4769 2869 
L 4006 2869 
L 4006 2009 
Q 4006 338 3128 -447 
L 2731 -116 
Q 3488 519 3488 2028 
L 3488 4641 
Q 4541 4725 5575 5381 
L 5953 5006 
Q 4928 4353 4006 4231 
L 4006 3334 
L 6138 3334 
L 6138 2869 
z
M 3334 4519 
L 538 4519 
L 538 4978 
L 3334 4978 
L 3334 4519 
z
M 2969 1772 
L 1428 1772 
Q 1419 466 653 -391 
L 269 -31 
Q 613 356 767 773 
Q 922 1191 922 1966 
L 922 3756 
L 2969 3756 
L 2969 1772 
z
M 2463 2241 
L 2463 3291 
L 1428 3291 
L 1428 2241 
L 2463 2241 
z
" transform="scale(0.015625)"/>
      <path id="ArialUnicodeMS-6709" d="M 5991 4031 
L 2547 4031 
Q 2403 3600 2316 3438 
L 5216 3438 
L 5216 166 
Q 5178 -269 4550 -269 
L 4031 -269 
L 3809 225 
Q 4103 184 4447 184 
Q 4728 184 4728 300 
L 4728 934 
L 2322 934 
L 2322 -416 
L 1813 -416 
L 1813 2656 
Q 1644 2369 738 1434 
L 288 1728 
Q 1619 2903 2022 4031 
L 678 4031 
L 678 4500 
L 2203 4500 
Q 2288 4700 2450 5403 
L 2944 5294 
Q 2884 5041 2731 4500 
L 5991 4500 
L 5991 4031 
z
M 4728 2450 
L 4728 2969 
L 2322 2969 
L 2322 2450 
L 4728 2450 
z
M 4728 1403 
L 4728 1984 
L 2322 1984 
L 2322 1403 
L 4728 1403 
z
" transform="scale(0.015625)"/>
      <path id="ArialUnicodeMS-8f7d" d="M 6009 359 
Q 5866 -441 5597 -441 
Q 5400 -441 5017 -137 
Q 4634 166 4372 634 
Q 3753 -106 2994 -434 
L 2713 -19 
Q 3388 325 4141 1113 
Q 3791 1916 3744 3341 
L 1478 3341 
L 1478 3334 
L 1772 3188 
Q 1747 3053 1703 2894 
L 3531 2894 
L 3531 2425 
L 1544 2425 
Q 1294 1956 1228 1869 
L 1838 1869 
L 1838 2222 
L 2322 2222 
L 2322 1869 
L 3413 1869 
L 3413 1403 
L 2322 1403 
L 2322 1050 
L 3284 1184 
L 3284 722 
L 2322 563 
L 2322 -441 
L 1838 -441 
L 1838 494 
L 581 306 
L 372 813 
L 1838 978 
L 1838 1403 
L 647 1403 
L 647 1869 
Q 869 2144 1013 2425 
L 469 2425 
L 469 2894 
L 1184 2894 
Q 1288 3138 1319 3341 
L 403 3341 
L 403 3809 
L 1863 3809 
L 1863 4191 
L 647 4191 
L 647 4634 
L 1863 4634 
L 1863 5275 
L 2322 5275 
L 2322 4634 
L 3531 4634 
L 3531 4191 
L 2322 4191 
L 2322 3809 
L 3738 3809 
L 3738 5153 
L 4225 5247 
L 4225 3809 
L 5850 3809 
L 5850 3341 
L 4219 3341 
Q 4247 2338 4469 1588 
Q 4956 2394 5197 3078 
L 5600 2894 
Q 5372 2172 4684 1050 
Q 5019 475 5478 128 
Q 5509 334 5509 634 
L 6009 359 
z
M 5538 4244 
L 5125 3950 
Q 4831 4444 4347 4728 
L 4728 5025 
Q 5300 4641 5538 4244 
z
" transform="scale(0.015625)"/>
      <path id="ArialUnicodeMS-5747" d="M 5797 4459 
Q 5772 1716 5730 978 
Q 5688 241 5458 -81 
Q 5228 -403 4744 -403 
Q 4606 -403 4006 -306 
L 3847 250 
Q 4413 128 4788 128 
Q 5022 128 5133 340 
Q 5244 553 5283 1968 
Q 5322 3384 5306 3994 
L 3347 3994 
Q 3056 3181 2559 2650 
L 2156 2944 
Q 2253 3025 2344 3128 
L 1728 3128 
L 1728 1441 
L 2541 1766 
L 2541 1259 
L 641 538 
L 319 978 
L 1241 1288 
L 1241 3128 
L 488 3128 
L 488 3597 
L 1241 3597 
L 1241 5100 
L 1728 5100 
L 1728 3597 
L 2413 3597 
L 2413 3231 
Q 3006 4097 3194 5319 
L 3675 5166 
Q 3572 4644 3494 4459 
L 5797 4459 
z
M 4813 2566 
L 2888 2566 
L 2888 3041 
L 4813 3041 
L 4813 2566 
z
M 4959 1900 
L 4959 1409 
Q 4266 1156 2706 709 
L 2431 1153 
Q 4391 1697 4959 1900 
z
" transform="scale(0.015625)"/>
      <path id="ArialUnicodeMS-8861" d="M 4575 794 
L 3291 794 
L 3263 634 
Q 3875 538 4306 231 
L 4025 -153 
Q 3534 178 3053 275 
Q 2753 -238 1825 -409 
L 1575 31 
Q 2634 169 2791 794 
L 1728 794 
L 1728 1269 
L 2841 1253 
L 2841 1606 
L 1966 1606 
L 1966 3475 
L 1850 3578 
L 1484 2969 
L 1484 -441 
L 997 -441 
L 997 2400 
Q 753 2178 603 2088 
L 213 2406 
Q 1041 2931 1497 3891 
L 1722 3750 
Q 2313 4378 2572 5344 
L 2994 5178 
L 2888 4850 
L 3950 4850 
Q 3841 4288 3694 3928 
L 4244 3928 
L 4244 1606 
L 3328 1606 
L 3328 1259 
L 4575 1259 
L 4575 794 
z
M 3397 4384 
L 2713 4384 
Q 2528 4019 2456 3928 
L 3200 3928 
Q 3331 4166 3397 4384 
z
M 3756 3016 
L 3756 3463 
L 3347 3463 
L 3347 3016 
L 3756 3016 
z
M 2859 3016 
L 2859 3463 
L 2450 3463 
L 2450 3016 
L 2859 3016 
z
M 3756 2075 
L 3756 2572 
L 3347 2572 
L 3347 2075 
L 3756 2075 
z
M 2859 2075 
L 2859 2572 
L 2450 2572 
L 2450 2075 
L 2859 2075 
z
M 1875 5094 
Q 1472 4219 788 3756 
L 372 4063 
Q 1075 4503 1484 5306 
L 1875 5094 
z
M 5888 4488 
L 4441 4488 
L 4441 4953 
L 5888 4953 
L 5888 4488 
z
M 6047 2969 
L 5447 2969 
L 5447 147 
Q 5447 -141 5290 -266 
Q 5134 -391 5013 -391 
L 4453 -391 
L 4281 103 
Q 4466 63 4647 63 
Q 4959 63 4959 231 
L 4959 2969 
L 4319 2969 
L 4319 3438 
L 6047 3438 
L 6047 2969 
z
" transform="scale(0.015625)"/>
      <path id="ArialUnicodeMS-4e14" d="M 5984 -91 
L 538 -91 
L 538 372 
L 1594 372 
L 1594 4966 
L 4953 4966 
L 4953 372 
L 5972 372 
L 5984 -91 
z
M 4447 3488 
L 4447 4506 
L 2081 4506 
L 2094 3488 
L 4447 3488 
z
M 4447 1931 
L 4447 3009 
L 2094 3009 
L 2081 1931 
L 4447 1931 
z
M 4447 372 
L 4447 1472 
L 2081 1472 
L 2081 372 
L 4447 372 
z
" transform="scale(0.015625)"/>
      <path id="ArialUnicodeMS-5185" d="M 5538 84 
Q 5538 -341 4872 -341 
Q 4713 -341 4481 -331 
L 4294 141 
Q 4619 116 4800 116 
Q 5075 116 5075 281 
L 5075 3725 
L 3450 3725 
Q 3450 3322 3413 2938 
Q 4216 2334 4819 1300 
L 4428 1006 
Q 3994 1759 3263 2413 
Q 2831 1444 1772 872 
L 1478 1281 
Q 2225 1684 2600 2196 
Q 2975 2709 2975 3725 
L 1325 3725 
L 1325 -409 
L 838 -409 
L 838 4191 
L 3009 4191 
L 3009 5275 
L 3469 5275 
L 3469 4191 
L 5538 4191 
L 5538 84 
z
" transform="scale(0.015625)"/>
      <path id="ArialUnicodeMS-5b58" d="M 5850 4013 
L 2425 4013 
L 2028 3238 
L 2028 -441 
L 1544 -441 
L 1544 2491 
Q 1334 2172 738 1594 
L 300 1913 
Q 1272 2759 1875 4013 
L 756 4013 
L 756 4481 
L 2081 4481 
Q 2203 4744 2344 5369 
L 2797 5209 
Q 2778 5038 2606 4481 
L 5850 4481 
L 5850 4013 
z
M 6034 1472 
L 4347 1472 
L 4347 153 
Q 4347 -134 4144 -265 
Q 3941 -397 3219 -372 
L 3009 128 
L 3628 128 
Q 3841 128 3841 366 
L 3841 1472 
L 2253 1472 
L 2253 1941 
L 3841 1941 
L 3841 2425 
Q 4309 2631 4697 3022 
L 2688 3022 
L 2688 3488 
L 5422 3488 
L 5422 3047 
Q 4831 2441 4347 2156 
L 4347 1941 
L 6034 1941 
L 6034 1472 
z
" transform="scale(0.015625)"/>
      <path id="ArialUnicodeMS-8bbf" d="M 4659 4531 
L 4250 4206 
Q 3816 4847 3328 5081 
L 3634 5422 
Q 4331 5025 4659 4531 
z
M 2009 4416 
L 1588 4097 
Q 1353 4606 781 5063 
L 1119 5356 
Q 1684 4969 2009 4416 
z
M 5959 3694 
L 3731 3694 
Q 3741 3191 3713 2772 
L 5550 2772 
Q 5500 1628 5356 856 
Q 5213 84 5050 -111 
Q 4888 -306 4606 -306 
Q 4369 -306 3872 -225 
L 3731 319 
Q 4372 141 4556 141 
Q 4609 141 4682 217 
Q 4756 294 4872 934 
Q 4988 1575 5031 2303 
L 3681 2303 
Q 3506 522 2356 -453 
L 1997 -63 
Q 2478 306 2768 870 
Q 3059 1434 3145 2081 
Q 3231 2728 3238 3694 
L 2138 3694 
L 2138 4159 
L 5959 4159 
L 5959 3694 
z
M 2516 588 
L 1509 -13 
L 1222 397 
Q 1331 541 1331 672 
L 1331 3109 
L 453 3109 
L 453 3578 
L 1819 3578 
L 1819 697 
L 2516 1119 
L 2516 588 
z
" transform="scale(0.015625)"/>
      <path id="ArialUnicodeMS-95ee" d="M 2553 4325 
L 2188 3950 
Q 1828 4447 1191 4794 
L 1497 5131 
Q 2081 4834 2553 4325 
z
M 5528 159 
Q 5528 -50 5403 -190 
Q 5278 -331 5075 -331 
L 4416 -331 
L 4244 147 
L 4916 122 
Q 5044 113 5044 250 
L 5044 4513 
L 2822 4513 
L 2822 4978 
L 5528 4978 
L 5528 159 
z
M 1178 -409 
L 716 -409 
L 716 4213 
L 1178 4213 
L 1178 -409 
z
M 4256 1056 
L 3769 1056 
L 3769 1306 
L 2450 1306 
L 2450 916 
L 1966 916 
L 1966 3463 
L 4256 3463 
L 4256 1056 
z
M 3769 1772 
L 3769 2994 
L 2450 2994 
L 2450 1772 
L 3769 1772 
z
" transform="scale(0.015625)"/>
      <path id="ArialUnicodeMS-5408" d="M 6119 2925 
L 5797 2497 
Q 5525 2603 5015 2934 
Q 4506 3266 4200 3555 
Q 3894 3844 3200 4659 
Q 2319 3578 603 2419 
L 256 2803 
Q 2228 4103 3175 5497 
L 3647 5178 
L 3450 4978 
Q 3994 4306 4803 3698 
Q 5613 3091 6119 2925 
z
M 4691 2597 
L 1638 2597 
L 1638 3084 
L 4691 3084 
L 4691 2597 
z
M 5063 -434 
L 4556 -434 
L 4556 -38 
L 1838 -38 
L 1838 -469 
L 1331 -469 
L 1331 1906 
L 5063 1906 
L 5063 -434 
z
M 4556 447 
L 4556 1441 
L 1838 1441 
L 1838 447 
L 4556 447 
z
" transform="scale(0.015625)"/>
      <path id="ArialUnicodeMS-5e76" d="M 5947 1913 
L 4488 1913 
L 4488 -416 
L 3950 -416 
L 3950 1913 
L 2681 1913 
Q 2606 1072 2129 550 
Q 1653 28 781 -403 
L 488 50 
Q 1253 372 1714 881 
Q 2175 1391 2175 1913 
L 794 1913 
L 794 2381 
L 2209 2381 
Q 2222 2569 2222 3725 
L 1088 3725 
L 1088 4191 
L 2303 4191 
Q 1991 4766 1428 5106 
L 1888 5409 
Q 2428 4994 2791 4403 
L 2559 4191 
L 4091 4191 
L 3866 4353 
Q 4428 4847 4678 5428 
L 5106 5178 
Q 4816 4575 4441 4191 
L 5516 4191 
L 5516 3725 
L 4488 3725 
L 4488 2381 
L 5947 2381 
L 5947 1913 
z
M 3969 2381 
L 3969 3725 
L 2725 3725 
L 2706 2381 
L 3969 2381 
z
" transform="scale(0.015625)"/>
     </defs>
     <use xlink:href="#ArialUnicodeMS-7ebf"/>
     <use xlink:href="#ArialUnicodeMS-7a0b" x="100"/>
     <use xlink:href="#ArialUnicodeMS-6570" x="200"/>
     <use xlink:href="#ArialUnicodeMS-53ef" x="300"/>
     <use xlink:href="#ArialUnicodeMS-4ee5" x="400"/>
     <use xlink:href="#ArialUnicodeMS-8fdc" x="500"/>
     <use xlink:href="#ArialUnicodeMS-5c0f" x="600"/>
     <use xlink:href="#ArialUnicodeMS-4e8e" x="700"/>
     <use xlink:href="#ArialUnicodeMS-20" x="800"/>
     <use xlink:href="#ArialUnicodeMS-4e" x="827.783203"/>
     <use xlink:href="#ArialUnicodeMS-ff1b" x="900"/>
     <use xlink:href="#ArialUnicodeMS-6bcf" x="1000"/>
     <use xlink:href="#ArialUnicodeMS-4e2a" x="1100"/>
     <use xlink:href="#ArialUnicodeMS-7ebf" x="1200"/>
     <use xlink:href="#ArialUnicodeMS-7a0b" x="1300"/>
     <use xlink:href="#ArialUnicodeMS-8d1f" x="1400"/>
     <use xlink:href="#ArialUnicodeMS-8d23" x="1500"/>
     <use xlink:href="#ArialUnicodeMS-591a" x="1600"/>
     <use xlink:href="#ArialUnicodeMS-4e2a" x="1700"/>
     <use xlink:href="#ArialUnicodeMS-5143" x="1800"/>
     <use xlink:href="#ArialUnicodeMS-7d20" x="1900"/>
     <use xlink:href="#ArialUnicodeMS-ff0c" x="2000"/>
     <use xlink:href="#ArialUnicodeMS-4fdd" x="2100"/>
     <use xlink:href="#ArialUnicodeMS-8bc1" x="2200"/>
     <use xlink:href="#ArialUnicodeMS-6240" x="2300"/>
     <use xlink:href="#ArialUnicodeMS-6709" x="2400"/>
     <use xlink:href="#ArialUnicodeMS-7ebf" x="2500"/>
     <use xlink:href="#ArialUnicodeMS-7a0b" x="2600"/>
     <use xlink:href="#ArialUnicodeMS-8d1f" x="2700"/>
     <use xlink:href="#ArialUnicodeMS-8f7d" x="2800"/>
     <use xlink:href="#ArialUnicodeMS-5747" x="2900"/>
     <use xlink:href="#ArialUnicodeMS-8861" x="3000"/>
     <use xlink:href="#ArialUnicodeMS-4e14" x="3100"/>
     <use xlink:href="#ArialUnicodeMS-5185" x="3200"/>
     <use xlink:href="#ArialUnicodeMS-5b58" x="3300"/>
     <use xlink:href="#ArialUnicodeMS-8bbf" x="3400"/>
     <use xlink:href="#ArialUnicodeMS-95ee" x="3500"/>
     <use xlink:href="#ArialUnicodeMS-5408" x="3600"/>
     <use xlink:href="#ArialUnicodeMS-5e76" x="3700"/>
    </g>
   </g>
  </g>
 </g>
 <defs>
  <clipPath id="pf9a55cdbe7">
   <rect x="7.2" y="7.2" width="1023.36" height="482.4"/>
  </clipPath>
 </defs>
</svg>
