<svg xmlns="http://www.w3.org/2000/svg" viewBox="0 0 580 380" font-family="'Comic Sans MS', 'Segoe UI', 'Kaiti SC', 楷体, cursive">
  <defs>
    <filter id="rough2">
      <feTurbulence type="fractalNoise" baseFrequency="0.025" numOctaves="2" seed="11"/>
      <feDisplacementMap in="SourceGraphic" scale="1.5"/>
    </filter>
    <marker id="arr" markerWidth="8" markerHeight="8" refX="6" refY="4" orient="auto">
      <path d="M 0 0 L 8 4 L 0 8 z" fill="#666"/>
    </marker>
  </defs>

  <rect width="580" height="380" fill="#fafafa"/>

  <text x="290" y="26" text-anchor="middle" font-size="15" fill="#444" font-weight="bold">Sigmoid(x) = 1 / (1 + e⁻ˣ)：压缩到 (0, 1)</text>

  <!-- ===== Left: function curve ===== -->
  <text x="40" y="58" font-size="12" fill="#446688" font-weight="bold">函数曲线</text>

  <!-- axes -->
  <line x1="60" y1="180" x2="240" y2="180" stroke="#888" stroke-width="1.2" filter="url(#rough2)" marker-end="url(#arr)"/>
  <line x1="150" y1="240" x2="150" y2="80" stroke="#888" stroke-width="1.2" filter="url(#rough2)" marker-end="url(#arr)"/>
  <text x="244" y="184" font-size="10" fill="#888">x</text>
  <text x="146" y="78" text-anchor="end" font-size="10" fill="#888">y</text>
  <text x="146" y="194" text-anchor="end" font-size="10" fill="#888">0</text>

  <!-- asymptote line y=1 -->
  <line x1="60" y1="100" x2="240" y2="100" stroke="#ccc" stroke-width="1" stroke-dasharray="3,3" filter="url(#rough2)"/>
  <text x="244" y="104" font-size="9" fill="#aaa">y=1</text>

  <!-- sigmoid S-curve -->
  <path d="M 70 230 Q 110 228 130 210 Q 150 180 170 150 Q 190 132 230 110" fill="none" stroke="#4a8edb" stroke-width="2.5" filter="url(#rough2)"/>

  <!-- key point -->
  <circle cx="150" cy="180" r="3" fill="#b85450" filter="url(#rough2)"/>
  <text x="156" y="176" font-size="10" fill="#b85450">(0, 0.5)</text>

  <text x="76" y="220" font-size="10" fill="#888">x → -∞  y → 0</text>
  <text x="168" y="124" font-size="10" fill="#4a7a3a">x → +∞  y → 1</text>

  <!-- ===== Right: array transform ===== -->
  <text x="320" y="58" font-size="12" fill="#446688" font-weight="bold">逐元素变换</text>

  <text x="300" y="88" font-size="11" fill="#666">X:</text>
  <g font-size="11" fill="#333">
    <rect x="350" y="74" width="44" height="28" fill="#fce4ec" stroke="#b85450" stroke-width="1.2" rx="3" filter="url(#rough2)"/>
    <text x="372" y="93" text-anchor="middle">-2.0</text>
    <rect x="394" y="74" width="44" height="28" fill="#fce4ec" stroke="#b85450" stroke-width="1.2" rx="3" filter="url(#rough2)"/>
    <text x="416" y="93" text-anchor="middle">-1.0</text>
    <rect x="438" y="74" width="44" height="28" fill="#e8f0fe" stroke="#446688" stroke-width="1.2" rx="3" filter="url(#rough2)"/>
    <text x="460" y="93" text-anchor="middle">0.0</text>
    <rect x="482" y="74" width="44" height="28" fill="#e6f4ea" stroke="#4a7a3a" stroke-width="1.2" rx="3" filter="url(#rough2)"/>
    <text x="504" y="93" text-anchor="middle">1.0</text>
    <rect x="526" y="74" width="44" height="28" fill="#e6f4ea" stroke="#4a7a3a" stroke-width="1.2" rx="3" filter="url(#rough2)"/>
    <text x="548" y="93" text-anchor="middle">2.0</text>
  </g>

  <text x="400" y="124" text-anchor="middle" font-size="13" fill="#d6a040" font-weight="bold">↓ Sigmoid</text>

  <text x="300" y="150" font-size="11" fill="#666">Y:</text>
  <g font-size="11" fill="#333">
    <rect x="350" y="136" width="44" height="28" fill="#fce4ec" stroke="#b85450" stroke-width="1.2" rx="3" filter="url(#rough2)"/>
    <text x="372" y="155" text-anchor="middle">0.12</text>
    <rect x="394" y="136" width="44" height="28" fill="#fce4ec" stroke="#b85450" stroke-width="1.2" rx="3" filter="url(#rough2)"/>
    <text x="416" y="155" text-anchor="middle">0.27</text>
    <rect x="438" y="136" width="44" height="28" fill="#e8f0fe" stroke="#446688" stroke-width="1.2" rx="3" filter="url(#rough2)"/>
    <text x="460" y="155" text-anchor="middle">0.50</text>
    <rect x="482" y="136" width="44" height="28" fill="#e6f4ea" stroke="#4a7a3a" stroke-width="1.2" rx="3" filter="url(#rough2)"/>
    <text x="504" y="155" text-anchor="middle">0.73</text>
    <rect x="526" y="136" width="44" height="28" fill="#e6f4ea" stroke="#4a7a3a" stroke-width="1.2" rx="3" filter="url(#rough2)"/>
    <text x="548" y="155" text-anchor="middle">0.88</text>
  </g>

  <line x1="300" y1="184" x2="570" y2="184" stroke="#eee" stroke-width="1" filter="url(#rough2)"/>
  <rect x="350" y="196" width="14" height="12" fill="#fce4ec" stroke="#b85450" stroke-width="1" rx="2" filter="url(#rough2)"/>
  <text x="370" y="206" font-size="10" fill="#666">负数 → 接近 0</text>
  <rect x="460" y="196" width="14" height="12" fill="#e6f4ea" stroke="#4a7a3a" stroke-width="1" rx="2" filter="url(#rough2)"/>
  <text x="480" y="206" font-size="10" fill="#666">正数 → 接近 1</text>

  <!-- fast math insight -->
  <rect x="30" y="232" width="540" height="44" fill="#fff8e1" stroke="#d6a040" stroke-width="1.3" rx="8" filter="url(#rough2)"/>
  <text x="300" y="252" text-anchor="middle" font-size="12" fill="#444" font-weight="bold">核心优化：用 __expf 快速数学替代 expf</text>
  <text x="300" y="268" text-anchor="middle" font-size="11" fill="#666">指令数从 ~20+ 降到 ~3，速度提升约 10x，精度损失可接受</text>

  <!-- memory-bound hint -->
  <rect x="30" y="296" width="540" height="60" fill="#e8f0fe" stroke="#446688" stroke-width="1.2" rx="8" filter="url(#rough2)"/>
  <text x="40" y="316" font-size="12" fill="#446688" font-weight="bold">📊 仍为 memory-bound，但计算开销占比上升</text>
  <text x="40" y="334" font-size="11" fill="#555">每元素 ~5 FLOP（exp + 除法）vs ReLU 的 1 FLOP，算术强度 0.625 FLOP/B</text>
  <text x="40" y="350" font-size="11" fill="#555">仍远低于 GPU 平衡点 → __expf 让计算更快，更早回到访存等待</text>
</svg>
